<svg width="20" height="20" viewBox="0 0 20 20" fill="none" xmlns="http://www.w3.org/2000/svg">
<g clip-path="url(#clip0_2511_2354)">
<path d="M9.99984 15.8334V18.3334M9.99984 18.3334H7.49984M9.99984 18.3334H12.4998M11.6665 6.66675C11.6665 5.74627 10.9203 5.00008 9.99984 5.00008C9.07936 5.00008 8.33317 5.74627 8.33317 6.66675C8.33317 7.58722 9.07936 8.33342 9.99984 8.33342C10.9203 8.33342 11.6665 7.58722 11.6665 6.66675ZM4.99984 15.8334H14.9998C16.8408 15.8334 18.3332 14.341 18.3332 12.5001V5.00008C18.3332 3.15913 16.8408 1.66675 14.9998 1.66675H4.99984C3.15889 1.66675 1.6665 3.15913 1.6665 5.00008V12.5001C1.6665 14.341 3.15889 15.8334 4.99984 15.8334ZM7.9165 12.5001H12.0832C12.7735 12.5001 13.3332 11.9404 13.3332 11.2501C13.3332 10.5597 12.7735 10.0001 12.0832 10.0001H7.9165C7.22615 10.0001 6.6665 10.5597 6.6665 11.2501C6.6665 11.9404 7.22615 12.5001 7.9165 12.5001Z" stroke="#64748B" stroke-width="1.5" stroke-linecap="round"/>
</g>
<defs>
<clipPath id="clip0_2511_2354">
<rect width="20" height="20" fill="white"/>
</clipPath>
</defs>
</svg>
