<svg width="20" height="20" viewBox="0 0 20 20" fill="none" xmlns="http://www.w3.org/2000/svg">
<path d="M14.1673 11.6654V16.6654M11.6673 14.1654H16.6673M5.00065 8.33203H6.66732C7.58779 8.33203 8.33398 7.58584 8.33398 6.66536V4.9987C8.33398 4.07822 7.58779 3.33203 6.66732 3.33203H5.00065C4.08018 3.33203 3.33398 4.07822 3.33398 4.9987V6.66536C3.33398 7.58584 4.08018 8.33203 5.00065 8.33203ZM13.334 8.33203H15.0007C15.9211 8.33203 16.6673 7.58584 16.6673 6.66536V4.9987C16.6673 4.07822 15.9211 3.33203 15.0007 3.33203H13.334C12.4135 3.33203 11.6673 4.07822 11.6673 4.9987V6.66536C11.6673 7.58584 12.4135 8.33203 13.334 8.33203ZM5.00065 16.6654H6.66732C7.58779 16.6654 8.33398 15.9192 8.33398 14.9987V13.332C8.33398 12.4116 7.58779 11.6654 6.66732 11.6654H5.00065C4.08018 11.6654 3.33398 12.4116 3.33398 13.332V14.9987C3.33398 15.9192 4.08018 16.6654 5.00065 16.6654Z" stroke="#64748B" stroke-width="1.5" stroke-linecap="round" stroke-linejoin="round"/>
</svg>
