<svg width="20" height="20" viewBox="0 0 20 20" fill="none" xmlns="http://www.w3.org/2000/svg">
<path d="M9.99984 10C10.9203 10 11.6665 9.25381 11.6665 8.33333C11.6665 7.41286 10.9203 6.66667 9.99984 6.66667C9.07936 6.66667 8.33317 7.41286 8.33317 8.33333C8.33317 9.25381 9.07936 10 9.99984 10ZM9.99984 10C8.15889 10 6.6665 11.4924 6.6665 13.3333M9.99984 10C11.8408 10 13.3332 11.4924 13.3332 13.3333M9.1665 2.5H10.8332C14.9753 2.5 18.3332 5.85786 18.3332 10C18.3332 14.1421 14.9753 17.5 10.8332 17.5H4.99984C3.15889 17.5 1.6665 16.0076 1.6665 14.1667V10C1.6665 5.85786 5.02437 2.5 9.1665 2.5Z" stroke="#64748B" stroke-width="1.5" stroke-linecap="round"/>
</svg>
