<svg width="20" height="20" viewBox="0 0 20 20" fill="none" xmlns="http://www.w3.org/2000/svg">
<ellipse cx="8.33333" cy="14.5846" rx="5.83333" ry="2.91667" stroke="#001744" stroke-width="1.5" stroke-linejoin="round"/>
<circle cx="8.33333" cy="5.83333" r="3.33333" stroke="#001744" stroke-width="1.5" stroke-linejoin="round"/>
<path d="M12.7148 3.42578C14.4094 3.5366 15.75 4.94538 15.75 6.66797C15.75 8.46273 14.2947 9.91776 12.5 9.91797C12.1323 9.91797 11.7788 9.85571 11.4492 9.74316C11.9131 9.37285 12.3104 8.92274 12.6182 8.41211C13.5293 8.35109 14.25 7.59455 14.25 6.66797C14.25 5.9819 13.8541 5.3894 13.2793 5.10254C13.1912 4.50225 12.9964 3.93686 12.7148 3.42578Z" fill="#001744"/>
<path d="M12.8477 10.9258C14.1694 10.9615 15.3892 11.1963 16.3242 11.5859C16.8306 11.797 17.2901 12.0677 17.6338 12.4062C17.9799 12.7474 18.2499 13.2025 18.25 13.751C18.25 14.2997 17.9801 14.7555 17.6338 15.0967C17.2901 15.4353 16.8307 15.7059 16.3242 15.917C16.0191 16.0441 15.6826 16.152 15.3232 16.2451C15.6512 15.7301 15.8329 15.1709 15.833 14.585C15.833 14.5547 15.8301 14.5242 15.8291 14.4941C16.1824 14.3386 16.4304 14.1767 16.5811 14.0283C16.7403 13.8714 16.75 13.7775 16.75 13.751C16.7499 13.7242 16.7396 13.631 16.5811 13.4746C16.4189 13.3148 16.145 13.1366 15.7471 12.9707C15.5905 12.9055 15.419 12.8469 15.2363 12.791C14.7186 12.0478 13.8888 11.4062 12.8477 10.9258Z" fill="#001744"/>
</svg>
