<svg width="20" height="20" viewBox="0 0 20 20" fill="none" xmlns="http://www.w3.org/2000/svg">
<path d="M16.6673 10.832V4.9987C16.6673 4.07822 15.9211 3.33203 15.0007 3.33203H5.00065C4.08018 3.33203 3.33398 4.07822 3.33398 4.9987V10.832M16.6673 10.832V14.9987C16.6673 15.9192 15.9211 16.6654 15.0007 16.6654H5.00065C4.08018 16.6654 3.33398 15.9192 3.33398 14.9987V10.832M16.6673 10.832H14.5125C14.2915 10.832 14.0795 10.9198 13.9232 11.0761L11.9114 13.088C11.7551 13.2442 11.5432 13.332 11.3221 13.332H8.67916C8.45815 13.332 8.24619 13.2442 8.08991 13.088L6.07806 11.0761C5.92178 10.9198 5.70982 10.832 5.48881 10.832H3.33398" stroke="#64748B" stroke-width="1.5" stroke-linecap="round" stroke-linejoin="round"/>
</svg>
