<svg width="20" height="20" viewBox="0 0 20 20" fill="none" xmlns="http://www.w3.org/2000/svg">
<g clip-path="url(#clip0_2385_13297)">
<path d="M18.3327 8.33464V15.0013C18.3327 16.8423 16.8403 18.3346 14.9993 18.3346H4.99935C3.1584 18.3346 1.66602 16.8423 1.66602 15.0013V8.33464M18.3327 8.33464C18.3327 6.49369 16.8403 5.0013 14.9993 5.0013H4.99935C3.1584 5.0013 1.66602 6.49369 1.66602 8.33464M18.3327 8.33464C18.3327 8.33464 15.6972 10.6385 9.99935 10.4856C4.30153 10.3326 1.66602 8.33464 1.66602 8.33464M6.66602 5.0013V4.16797C6.66602 2.78726 7.7853 1.66797 9.16602 1.66797H10.8327C12.2134 1.66797 13.3327 2.78726 13.3327 4.16797V5.0013M6.66602 8.89858V11.3986M13.3327 8.89858V11.3986" stroke="#001744" stroke-width="1.5" stroke-linecap="round"/>
</g>
<defs>
<clipPath id="clip0_2385_13297">
<rect width="20" height="20" fill="white"/>
</clipPath>
</defs>
</svg>
