<svg width="20" height="20" viewBox="0 0 20 20" fill="none" xmlns="http://www.w3.org/2000/svg">
<path d="M16.1033 8.125V7.1875C16.1033 5.6342 14.8913 4.375 13.3963 4.375H10.6016C10.12 4.375 9.64707 4.2415 9.23168 3.98827L7.42475 2.88673C7.00936 2.6335 6.53646 2.5 6.05484 2.5H4.373C2.87798 2.5 1.66602 3.7592 1.66602 5.3125V14.6875C1.66602 16.2408 2.87798 17.5 4.373 17.5H12.2551C13.5229 17.5 14.6977 16.8089 15.35 15.6794L18.0727 10.9647C18.7944 9.71495 17.928 8.125 16.5252 8.125H16.1033ZM16.1033 8.125H8.52326C7.0969 8.125 5.80433 8.99775 5.22503 10.352L2.56835 16.5625" stroke="#64748B" stroke-width="1.5" stroke-linecap="round" stroke-linejoin="round"/>
</svg>
