<svg width="20" height="20" viewBox="0 0 20 20" fill="none" xmlns="http://www.w3.org/2000/svg">
<path d="M11.666 10.0013H18.3327M11.666 5.83464H18.3327M13.3327 14.168H18.3327M8.33268 6.66797C8.33268 8.04868 7.21339 9.16797 5.83268 9.16797C4.45197 9.16797 3.33268 8.04868 3.33268 6.66797C3.33268 5.28726 4.45197 4.16797 5.83268 4.16797C7.21339 4.16797 8.33268 5.28726 8.33268 6.66797ZM9.99935 13.3346C9.99935 14.7153 8.13387 15.8346 5.83268 15.8346C3.5315 15.8346 1.66602 14.7153 1.66602 13.3346C1.66602 11.9539 3.5315 10.8346 5.83268 10.8346C8.13387 10.8346 9.99935 11.9539 9.99935 13.3346Z" stroke="#64748B" stroke-width="1.5" stroke-linecap="round" stroke-linejoin="round"/>
</svg>
