<svg width="96" height="89" viewBox="0 0 96 89" fill="none" xmlns="http://www.w3.org/2000/svg">
<g clip-path="url(#clip0_100_3956)">
<path d="M88.3971 80.8961C85.2845 83.8187 81.4924 86.7792 77.7641 88.1751C76.6893 88.5895 75.5802 88.854 74.4576 88.9637C73.4081 89.0678 72.3519 88.9667 71.3279 88.6643C68.6372 87.8391 66.1414 86.394 63.7265 84.7057C62.9375 84.1533 62.1577 83.5755 61.3824 82.9851C60.1168 82.0207 58.8638 81.0226 57.6073 80.0484C57.4192 79.9008 57.2322 79.756 57.0441 79.6126H57.0429C56.7397 79.3779 56.4356 79.1464 56.1308 78.9182C56.0772 78.8774 56.0237 78.8381 55.9689 78.7973C55.3931 78.3671 54.8075 77.9468 54.212 77.5363C54.139 77.4871 54.066 77.4365 53.993 77.3873C52.8408 76.5993 51.6565 75.8847 50.4449 75.2464C49.6491 74.8331 48.843 74.4605 48.0289 74.1428H48.0278C47.7165 74.0219 47.4041 73.9081 47.0906 73.804C46.1504 73.486 45.1923 73.2548 44.2242 73.1124C42.8902 72.9133 41.541 72.9265 40.2098 73.1518C40.1197 73.1672 40.0307 73.1827 39.9407 73.201C36.3378 73.9123 33.0496 76.3105 29.4308 76.8756C29.3133 76.8939 29.197 76.9108 29.0796 76.9234C29.0294 76.929 28.9793 76.9361 28.9291 76.9403C27.8774 77.0513 26.8191 77.0192 25.7731 76.8447C22.8509 76.3696 20.0051 74.8949 17.4432 73.0365C11.454 68.6913 6.59693 62.0125 3.64394 54.2781C3.13684 52.9525 2.68662 51.595 2.29514 50.2112C1.20059 46.3738 0.597811 42.3496 0.508518 38.2833C0.231461 24.1751 6.73375 10.0206 16.9427 3.63982C27.1527 -2.74092 40.5837 -0.630876 48.8179 9.17148C53.8129 15.1178 56.7032 23.1756 60.4623 30.3745C64.2214 37.572 69.5641 44.4476 76.4552 45.4963C79.9657 46.0305 83.6393 44.9972 87.0039 46.3411C88.8669 47.0862 90.4563 48.5116 91.7366 50.3279C92.5975 51.5604 93.3178 52.9319 93.8778 54.4046C94.2883 55.4692 94.6214 56.5766 94.8732 57.7137C94.92 57.9232 94.9633 58.1326 95.0055 58.3421C96.6815 66.7823 94.0033 75.6301 88.3971 80.8961Z" fill="#F2F2F2"/>
<path d="M32.3289 65.6169H21.6115C20.0058 65.6169 18.7041 67.2219 18.7041 69.2016V69.2016C18.7041 71.1814 20.0058 72.7863 21.6115 72.7863H32.3289C33.9346 72.7863 35.2363 71.1814 35.2363 69.2016C35.2363 67.2219 33.9346 65.6169 32.3289 65.6169Z" fill="#506DB8"/>
<path d="M29.0794 70.959V76.9236C27.9785 77.055 26.8689 77.0285 25.7729 76.8449V70.959H29.0794Z" fill="#506DB8"/>
<path d="M40.2098 73.152C40.1198 73.1675 40.0308 73.183 39.9408 73.2012C36.3379 73.9126 33.0497 76.3108 29.4308 76.8759C29.3134 76.8942 29.1971 76.911 29.0797 76.9237C29.0295 76.9293 28.9793 76.9363 28.9292 76.9406C28.0455 75.8736 27.1619 74.7377 26.3319 73.5611C25.8815 72.9243 25.446 72.2748 25.0367 71.6169C23.9741 69.9188 23.0733 68.1728 22.4782 66.4578C22.5386 65.6354 22.1236 63.7334 21.9252 62.2771L21.9241 62.2757C21.8397 61.6642 21.7941 61.1328 21.8363 60.7912C22.078 58.8203 23.3835 59.0466 23.7848 57.1151C24.1468 56.7447 24.5323 56.4104 24.9375 56.1156C25.0048 56.0664 25.0732 56.0172 25.1439 55.968L29.4992 52.2568L31.1639 54.2699L33.6973 57.3344L36.4428 60.6534L34.1123 63.5563C34.1123 63.5563 36.0597 66.3243 38.3366 70.0144C38.9477 71.0054 39.5828 72.064 40.2098 73.152Z" fill="#082777"/>
<path d="M77.764 70.959V88.1753C76.6892 88.5897 75.5801 88.8542 74.4575 88.9639V70.959H77.764Z" fill="#506DB8"/>
<path d="M82.0399 69.5532H71.3224C69.7167 69.5532 68.415 71.1581 68.415 73.1379V73.1379C68.415 75.1177 69.7167 76.7226 71.3224 76.7226H82.0399C83.6456 76.7226 84.9473 75.1177 84.9473 73.1379C84.9473 71.1581 83.6456 69.5532 82.0399 69.5532Z" fill="#506DB8"/>
<path d="M55.9691 78.7974C55.3933 78.3672 54.8076 77.9469 54.2121 77.5364C54.1391 77.4872 54.0661 77.4366 53.9932 77.3874L54.3854 77.1808L55.4434 76.6199L55.4537 76.6143L55.4651 76.662L55.9691 78.7974Z" fill="#FFB6B6"/>
<path d="M57.6072 80.0485C57.4191 79.9009 57.2321 79.7561 57.044 79.6127H57.0428C56.7396 79.3779 56.4355 79.1465 56.1307 78.9183C56.0771 78.8775 56.0235 78.8381 55.9688 78.7974C55.393 78.3672 54.8074 77.9469 54.2118 77.5364C54.1389 77.4872 54.0659 77.4366 53.9929 77.3874C52.8407 76.5994 51.6564 75.8848 50.4448 75.2464C49.6489 74.8331 48.8429 74.4606 48.0288 74.1429H48.0277L47.388 72.8229L44.5091 66.8779L43.8764 65.572C43.8764 65.572 41.718 66.3592 38.6636 67.1141C37.5519 67.3896 36.3229 67.6595 35.0333 67.8873C33.6549 68.1291 32.2092 68.3216 30.7726 68.4144C30.0874 68.4594 29.4044 68.4819 28.7317 68.4749C26.993 68.4608 25.3227 68.2598 23.8598 67.7818C23.3719 67.2167 21.9011 66.4478 20.8476 65.7435H20.8464C20.404 65.4483 20.0369 65.1657 19.8442 64.9141C18.7337 63.4662 19.6823 62.3373 18.695 60.7573C18.6817 60.1776 18.7057 59.5975 18.7668 59.0225C18.777 58.927 18.7873 58.83 18.7999 58.7316L19.1111 52.2145L21.4233 51.8377L24.9419 51.2642L28.7534 50.6428L29.173 54.6942C29.173 54.6942 32.1408 54.5087 35.901 54.5705C41.9404 54.6717 50.0218 55.414 51.1163 58.5994C51.2189 58.8988 51.3216 59.2011 51.4242 59.5033C51.6682 60.2259 51.9099 60.9522 52.1493 61.6822C53.017 64.3251 53.8447 66.9932 54.6006 69.5151C55.0704 71.084 55.5128 72.5966 55.9198 74.0122C56.247 75.1508 56.5503 76.2276 56.8274 77.2187C57.0805 78.124 57.3096 78.9576 57.5137 79.7055C57.5456 79.8222 57.5764 79.9374 57.6072 80.0485Z" fill="#082777"/>
<path d="M36.337 40.5627L29.0337 32.9151L33.7853 26.9861L37.1003 33.6807L49.3881 36.6844C49.7576 36.3416 50.2 36.1387 50.6614 36.1005C51.1228 36.0623 51.5832 36.1904 51.9866 36.4693C52.3899 36.7482 52.7187 37.1657 52.9329 37.671C53.1471 38.1763 53.2375 38.7475 53.1929 39.315C53.1484 39.8825 52.9708 40.4218 52.682 40.867C52.3932 41.3123 52.0055 41.6443 51.5663 41.8226C51.1271 42.0009 50.6552 42.0178 50.2084 41.8712C49.7615 41.7246 49.3589 41.4209 49.0496 40.997L36.337 40.5627Z" fill="#A0616A"/>
<path d="M22.5792 22.8644C21.7352 26.2498 29.7735 34.3241 29.7735 34.3241C29.8628 33.5114 34.4203 40.5198 34.7304 39.8851C35.6116 38.0812 36.5812 33.6222 37.5986 33.0523C38.1804 32.7263 34.8428 28.1963 34.8428 28.1963C34.8428 28.1963 33.1402 25.4191 30.8923 21.8993C30.2718 20.8897 29.4541 20.09 28.5155 19.5748C27.5769 19.0596 26.5478 18.8456 25.524 18.9527C25.524 18.9527 23.4232 19.479 22.5792 22.8644Z" fill="#506DB8"/>
<path d="M26.1334 15.3698C28.8615 15.3698 31.073 12.6431 31.073 9.27952C31.073 5.91594 28.8615 3.18921 26.1334 3.18921C23.4054 3.18921 21.1938 5.91594 21.1938 9.27952C21.1938 12.6431 23.4054 15.3698 26.1334 15.3698Z" fill="#A0616A"/>
<path d="M28.6031 19.3949C29.6673 20.1749 30.3039 21.6081 30.6693 23.0665C31.3459 25.7666 31.7531 28.5583 31.882 31.3798L32.268 39.8269L37.0483 57.8132C32.9054 62.1353 17.3329 58.7955 17.3329 58.7955C17.3329 58.7955 16.8548 58.5991 17.3329 58.0097C17.8109 57.4202 18.2762 57.9424 17.7982 57.353C17.3202 56.7636 17.6497 57.4203 17.8091 56.8309C17.9684 56.2415 17.8091 56.6344 17.6497 56.4379C17.4904 56.2415 18.8833 54.4733 18.8833 54.4733L17.6086 44.149L16.0151 23.3241C17.9272 20.3772 21.7727 18.64 21.7727 18.64L22.7664 16.4348L27.7345 16.9249L28.6031 19.3949Z" fill="#506DB8"/>
<path d="M30.2054 6.04384C30.5893 6.39689 30.8738 6.88951 31.0187 7.45234C31.0743 6.53255 31.0779 5.60909 31.0292 4.6887C30.971 4.04193 30.6017 3.89645 30.1741 3.72788C29.7879 3.57558 29.3511 3.40354 29.2336 2.77568C27.6809 0.913271 24.9779 1.00718 23.1281 1.65682C22.1102 2.01431 21.5245 2.4736 21.4721 2.74266L21.4612 2.79805L21.4199 2.82353C20.6353 3.30723 20.4826 4.83465 20.4926 6.0308C20.5118 8.28442 21.1429 10.844 21.4984 11.0519C21.5172 11.0629 21.522 11.0586 21.5301 11.0502C22.0655 10.5227 22.7186 11.0903 23.0056 11.3989C23.1749 9.99819 23.72 8.70787 24.5538 7.73397C25.3877 6.76008 26.4622 6.15879 27.6057 6.02614C27.9791 5.98164 28.3496 5.90505 28.7144 5.79692C28.8994 5.7379 29.0897 5.70712 29.2808 5.70528C29.6098 5.69912 29.9325 5.81726 30.2054 6.04384Z" fill="#082777"/>
<path d="M23.9812 49.7382L22.4702 48.7841C22.3892 48.713 22.3317 48.6083 22.3082 48.4892C22.2846 48.3702 22.2966 48.2446 22.3419 48.1355C22.3872 48.0264 22.4629 47.9411 22.555 47.895C22.6471 47.849 22.7496 47.8454 22.8437 47.8848L24.3548 48.8389C24.4357 48.9101 24.4932 49.0147 24.5168 49.1338C24.5403 49.2529 24.5284 49.3784 24.483 49.4875C24.4377 49.5966 24.3621 49.682 24.27 49.728C24.1778 49.774 24.0753 49.7777 23.9812 49.7382Z" fill="#4B93E7"/>
<path d="M18.8958 47.1819L16.4102 35.7725L23.0525 34.2222L22.6953 42.0535L31.4228 53.1335C31.8849 53.1102 32.3424 53.2532 32.7397 53.545C33.137 53.8367 33.4568 54.2648 33.6602 54.7768C33.8636 55.2888 33.9418 55.8628 33.8852 56.4286C33.8286 56.9945 33.6397 57.5278 33.3415 57.9636C33.0434 58.3994 32.6488 58.7188 32.2059 58.8829C31.763 59.0469 31.291 59.0486 30.8474 58.8876C30.4038 58.7266 30.0078 58.41 29.7076 57.9763C29.4074 57.5426 29.216 57.0106 29.1568 56.4451L18.8958 47.1819Z" fill="#A0616A"/>
<path d="M15.7306 22.9802C13.476 25.1748 16.3698 37.4504 16.3698 37.4504C16.8179 36.8441 17.3385 45.8041 17.8862 45.499C19.4426 44.6319 22.2954 41.6419 23.3952 41.8856C24.0242 42.025 23.3652 35.959 23.3652 35.959C23.3652 35.959 23.244 32.4809 23.0162 28.0097C22.9709 26.7442 22.6665 25.5133 22.1315 24.4318C21.5966 23.3503 20.8484 22.4533 19.9566 21.8242C19.9566 21.8242 17.9853 20.7856 15.7306 22.9802Z" fill="#506DB8"/>
<path d="M93.8776 54.4048L3.64372 54.2783C3.13662 52.9528 2.6864 51.5953 2.29492 50.2114L91.7364 50.3281C92.5973 51.5606 93.3176 52.9321 93.8776 54.4048Z" fill="#506DB8"/>
<path d="M65.138 83.9005C64.6717 84.1788 64.2012 84.4473 63.7265 84.706C62.9375 84.1535 62.1576 83.5757 61.3823 82.9853L64.2578 81.4277L65.138 83.9005Z" fill="#FFB6B6"/>
<path d="M86.1034 64.5289C85.6359 65.3021 85.1536 66.0598 84.6565 66.802C84.1982 67.4866 83.7277 68.1581 83.245 68.8165C83.0455 69.0892 82.8437 69.3605 82.6373 69.629C82.2577 70.1309 81.8696 70.6243 81.4732 71.1093C80.7595 71.3862 79.3138 71.874 77.7643 72.3295C76.6367 72.6598 75.4544 72.9733 74.4579 73.1729C73.9 73.2964 73.3357 73.3706 72.7693 73.3951C72.0966 73.4021 71.4137 73.3796 70.7284 73.3346C69.9554 73.284 69.1813 73.2053 68.4162 73.1041C66.4267 72.8468 64.4998 72.4462 62.8375 72.0343C62.2286 71.8853 61.6562 71.7334 61.1295 71.5858C60.1319 71.3089 59.2973 71.0502 58.693 70.8534C58.0123 70.6341 57.6247 70.4922 57.6247 70.4922L55.9202 74.0122L55.0354 75.8383L54.3855 77.1808L54.2122 77.5364C54.1392 77.4872 54.0663 77.4366 53.9933 77.3874C52.8411 76.5994 51.6568 75.8848 50.4452 75.2464C49.6493 74.8331 48.8432 74.4606 48.0292 74.1429H48.028C47.7168 74.022 47.4044 73.9082 47.0908 73.8041C47.1889 73.4794 47.2881 73.1523 47.3884 72.8229C47.5754 72.2086 47.7662 71.5887 47.9608 70.9631C48.3815 69.608 48.817 68.2331 49.2651 66.8653C49.6322 65.7421 50.0062 64.6231 50.3847 63.5196C50.5592 63.0107 50.9138 62.5637 51.4097 62.1715C51.6468 61.9872 51.894 61.8237 52.1497 61.6823C53.5692 60.8852 55.6602 60.3665 57.9645 60.0333C58.1549 60.0066 58.3464 59.9799 58.5391 59.9546C60.4466 59.7072 62.4703 59.5793 64.363 59.5202C65.3105 59.4907 66.2249 59.4795 67.0754 59.478C67.3502 59.478 67.6174 59.479 67.8769 59.4809H67.8781C68.5793 59.4851 69.2246 59.4977 69.7924 59.5118C69.903 59.5146 70.0102 59.5188 70.1151 59.5216H70.1162C70.1869 59.523 70.2564 59.5258 70.3248 59.5272C71.5665 59.5666 72.3281 59.6144 72.3281 59.6144L72.6234 56.7579L72.6838 56.1815L72.7408 55.6333V55.6319L72.7477 55.563L72.7944 55.5616L73.6153 55.5419L80.5155 55.376L84.2849 55.2847L83.6874 58.442L82.7012 63.6517C82.8015 64.4755 86.1376 63.8303 86.1034 64.5289Z" fill="#082777"/>
<path d="M65.9887 83.3803C65.707 83.5574 65.4231 83.7317 65.1381 83.9004C64.6718 84.1787 64.2013 84.4472 63.7266 84.7059C62.9376 84.1534 62.1577 83.5757 61.3824 82.9852C60.1169 82.0209 58.8638 81.0228 57.6074 80.0486C57.4193 79.901 57.2323 79.7562 57.0442 79.6128H57.043C56.5254 78.6653 55.9975 77.6785 55.465 76.6621C55.4571 76.6481 55.4502 76.634 55.4434 76.62C55.3066 76.3613 55.1705 76.1008 55.0352 75.8384C54.1835 74.1936 53.3273 72.4786 52.4961 70.727L54.6008 69.5152L58.5138 67.2632L59.1888 66.8752L61.1293 71.5859L62.8601 75.7878L63.2454 76.7226L65.9887 83.3803Z" fill="#082777"/>
<path d="M66.5784 60.7641L76.5548 48.9018L79.3199 39.2485L75.2413 37.0618C73.1463 39.5361 70.8817 47.2429 70.8817 47.2429L64.0165 58.0116C63.963 58.0342 63.9097 58.0582 63.857 58.0869C63.5478 58.255 63.279 58.5186 63.0765 58.8522C62.8741 59.1859 62.7449 59.5783 62.7014 59.9915C62.6579 60.4047 62.7016 60.8247 62.8282 61.211C62.9549 61.5973 63.1602 61.9368 63.4244 62.1967C63.6885 62.4565 64.0026 62.628 64.3362 62.6945C64.6698 62.761 65.0117 62.7202 65.3288 62.5762C65.6459 62.4322 65.9275 62.1897 66.1464 61.8723C66.3653 61.5548 66.5141 61.1731 66.5784 60.7641Z" fill="#FFB8B8"/>
<path d="M74.0938 38.1395L79.2672 40.1645L79.2867 40.1605C81.2123 39.7628 82.8101 35.8852 83.8114 32.7024C84.1408 31.6525 84.1347 30.4876 83.7942 29.4432C83.4537 28.3987 82.8042 27.5526 81.9772 27.0759C81.3651 26.7293 80.6866 26.6007 80.0184 26.7047C79.3502 26.8086 78.7189 27.141 78.1958 27.6641L75.5392 30.3406L74.0938 38.1395Z" fill="#4B93E7"/>
<path d="M86.0824 64.6714L86.1127 64.6219C87.7268 61.9824 85.5191 55.446 85.1854 54.4981L86.6862 53.9499L86.4246 50.4266L86.2986 48.8555L87.4655 47.4891L87.4695 47.4543L88.272 40.4125L89.3221 35.7518C89.7179 33.9899 89.7262 32.1299 89.3463 30.3627C88.9664 28.5954 88.2119 26.9847 87.1603 25.6958L85.0136 23.068L82.4419 18.1048L78.1299 17.9675L76.5793 21.3637C75.1374 21.7265 73.8443 22.7016 72.9255 24.119C72.0066 25.5364 71.5202 27.3063 71.5509 29.1205L71.6969 38.1617L70.1497 49.3638L70.1063 51.3986L68.5877 53.3744L68.8684 55.3719L67.7325 55.9298L67.1766 58.7683C66.9643 59.0957 65.5626 61.2804 65.5499 61.8894C65.5479 61.9808 65.6008 62.0709 65.7162 62.1727C66.6236 62.9731 71.6949 64.7074 73.9773 63.6648C76.4085 62.5551 85.9369 64.6392 86.0329 64.6604L86.0824 64.6714Z" fill="#4B93E7"/>
<path d="M79.9093 16.4461C83.0643 16.4461 85.6219 13.2927 85.6219 9.40273C85.6219 5.51279 83.0643 2.35938 79.9093 2.35938C76.7544 2.35938 74.1968 5.51279 74.1968 9.40273C74.1968 13.2927 76.7544 16.4461 79.9093 16.4461Z" fill="#FFB8B8"/>
<path d="M79.2123 16.5402C80.0969 16.5572 80.9811 16.481 81.8553 16.3125C82.7217 16.0952 84.66 14.344 85.2003 13.2901C85.6017 12.5071 85.8585 11.2844 86.0031 10.3966C86.198 9.22184 86.1906 8.00965 85.9813 6.83861C85.7721 5.66756 85.3657 4.56375 84.7885 3.59866C84.5666 3.19499 84.2604 2.87275 83.9022 2.66603C83.8705 2.65073 83.8378 2.63716 83.8048 2.62557C83.2828 2.45625 82.8139 2.09845 82.458 1.59811C82.389 1.49692 82.3142 1.40197 82.2342 1.31403C81.832 0.89559 81.3553 0.600432 80.8429 0.452682C80.0158 0.179767 78.8189 0.450671 77.2854 1.25865C76.515 1.6646 75.6724 1.51768 75.0242 1.34433C74.9879 1.33567 74.9503 1.3389 74.9153 1.35369C74.8802 1.36849 74.8489 1.39434 74.8245 1.42867C74.5488 1.74788 74.1852 1.92656 73.807 1.92879C73.5753 1.94134 73.3322 2.33685 73.0384 2.85262C72.9717 2.9697 72.8939 3.10634 72.8378 3.18945L72.8303 3.02978L72.6993 3.2079C72.4933 3.48786 72.3481 3.82754 72.2772 4.19531C72.2064 4.56308 72.2121 4.94697 72.294 5.31125C72.3759 5.67552 72.5312 6.00832 72.7455 6.27867C72.9597 6.54901 73.226 6.74811 73.5195 6.85741C73.7526 6.93386 73.9913 6.98077 74.2321 6.99742C74.378 7.0136 74.5288 7.03033 74.6734 7.06126C75.1374 7.17841 75.5688 7.44191 75.9256 7.82603C76.2824 8.21014 76.5522 8.70175 76.7089 9.25286C76.7459 9.38025 76.8062 9.49544 76.8851 9.58953C76.964 9.68363 77.0594 9.75412 77.1638 9.79556C77.2683 9.837 77.3791 9.84828 77.4877 9.82853C77.5963 9.80878 77.6998 9.75853 77.7901 9.68166C77.9407 9.53707 78.1174 9.43953 78.3052 9.39737C78.493 9.35521 78.6863 9.36967 78.8686 9.43953C79.0261 9.54752 79.1487 9.719 79.2158 9.92522C79.2974 10.155 79.4327 10.3495 79.6044 10.4841C80.1915 10.8573 80.232 12.5108 80.0211 13.8892C79.8178 15.2178 79.416 16.1789 79.044 16.2264C78.7576 16.2629 78.7248 16.288 78.7041 16.3505L78.6856 16.4064L78.7178 16.4587C78.8759 16.5294 79.0446 16.5572 79.2123 16.5402Z" fill="#082777"/>
<path d="M75.5119 36.0101L73.3093 30.5957C70.1122 30.865 63.7668 35.4227 63.7668 35.4227L51.7612 38.5611C51.4055 38.3926 51.0201 38.3425 50.6438 38.416C50.2674 38.4894 49.9134 38.6838 49.6174 38.9796C49.3214 39.2754 49.0937 39.6621 48.9575 40.1008C48.8212 40.5395 48.781 41.0147 48.8411 41.4786C48.9011 41.9426 49.0592 42.3788 49.2994 42.7434C49.5397 43.1081 49.8536 43.3883 50.2095 43.5558C50.5655 43.7233 50.951 43.7722 51.3272 43.6977C51.7034 43.6231 52.057 43.4276 52.3525 43.131L67.6244 41.7813L75.5119 36.0101Z" fill="#FFB8B8"/>
<path d="M74.6239 36.8991L80.3764 31.6282L81.3897 27.126C81.586 26.2412 81.5777 25.3064 81.3657 24.4272C81.1537 23.5479 80.7465 22.7593 80.1901 22.1504C79.4313 21.3313 78.4486 20.898 77.4406 20.9381C76.4326 20.9782 75.4746 21.4887 74.7602 22.3664C72.5955 25.0305 70.1264 28.7472 70.6568 31.3244L70.6622 31.3505L74.6239 36.8991Z" fill="#4B93E7"/>
<path d="M67.5029 50.9971H52.1108V53.5274H67.5029V50.9971Z" fill="white"/>
<path d="M28.1674 50.9971H12.7754V53.5274H28.1674V50.9971Z" fill="white"/>
<path d="M29.9648 38.8286V50.8766C29.9649 51.0301 30.0145 51.1773 30.1025 51.2859C30.1906 51.3944 30.31 51.4555 30.4345 51.4556H44.9149C45.0394 51.4555 45.1588 51.3944 45.2469 51.2859C45.3349 51.1773 45.3845 51.0301 45.3846 50.8766V38.8286C45.3843 38.6752 45.3347 38.5282 45.2466 38.4198C45.1586 38.3114 45.0393 38.2504 44.9149 38.2502H30.4345C30.3101 38.2504 30.1908 38.3114 30.1028 38.4198C30.0147 38.5282 29.9651 38.6752 29.9648 38.8286Z" fill="#506DB8"/>
<path d="M30.3047 38.9783V50.7277C30.3048 50.8097 30.3313 50.8884 30.3783 50.9464C30.4254 51.0044 30.4891 51.037 30.5557 51.0372H44.7945C44.8611 51.037 44.9248 51.0044 44.9719 50.9464C45.0189 50.8884 45.0454 50.8097 45.0455 50.7277V38.9783C45.0455 38.8962 45.0191 38.8174 44.972 38.7593C44.925 38.7011 44.8611 38.6684 44.7945 38.6682H30.5557C30.4891 38.6684 30.4252 38.7011 30.3782 38.7593C30.3311 38.8174 30.3047 38.8962 30.3047 38.9783Z" fill="#4B93E7"/>
<path d="M29.6618 53.2263C29.6883 53.2673 29.7221 53.3004 29.7604 53.323C29.7988 53.3456 29.8408 53.3573 29.8834 53.357H45.3885C45.431 53.3569 45.4728 53.3452 45.5111 53.3227C45.5493 53.3002 45.5831 53.2674 45.6098 53.2268C45.6365 53.1862 45.6555 53.1388 45.6655 53.088C45.6755 53.0372 45.6761 52.9842 45.6674 52.9331L45.4268 51.5235C45.4168 51.466 45.3953 51.4125 45.3643 51.3679C45.3332 51.3232 45.2937 51.2889 45.2491 51.2679C45.2169 51.2523 45.1825 51.2443 45.1479 51.2444H30.1231C30.0885 51.2443 30.0541 51.2523 30.0219 51.2679C29.9773 51.2889 29.9377 51.3232 29.9067 51.3679C29.8757 51.4125 29.8542 51.466 29.8442 51.5235L29.6035 52.9331C29.595 52.9842 29.5958 53.0371 29.6058 53.0878C29.6159 53.1385 29.635 53.1858 29.6618 53.2263Z" fill="#082777"/>
<path d="M44.6162 51.8516H44.9824C45.0132 51.8516 45.0381 51.8208 45.0381 51.7829V51.5669C45.0381 51.529 45.0132 51.4983 44.9824 51.4983H44.6162C44.5855 51.4983 44.5605 51.529 44.5605 51.5669V51.7829C44.5605 51.8208 44.5855 51.8516 44.6162 51.8516Z" fill="#506DB8"/>
<path d="M43.6611 51.8516H44.0273C44.0581 51.8516 44.083 51.8208 44.083 51.7829V51.5669C44.083 51.529 44.0581 51.4983 44.0273 51.4983H43.6611C43.6304 51.4983 43.6055 51.529 43.6055 51.5669V51.7829C43.6055 51.8208 43.6304 51.8516 43.6611 51.8516Z" fill="#506DB8"/>
<path d="M42.7056 51.8516H43.0718C43.1025 51.8516 43.1274 51.8208 43.1274 51.7829V51.5669C43.1274 51.529 43.1025 51.4983 43.0718 51.4983H42.7056C42.6748 51.4983 42.6499 51.529 42.6499 51.5669V51.7829C42.6499 51.8208 42.6748 51.8516 42.7056 51.8516Z" fill="#506DB8"/>
<path d="M41.7505 51.8516H42.1167C42.1474 51.8516 42.1724 51.8208 42.1724 51.7829V51.5669C42.1724 51.529 42.1474 51.4983 42.1167 51.4983H41.7505C41.7197 51.4983 41.6948 51.529 41.6948 51.5669V51.7829C41.6948 51.8208 41.7197 51.8516 41.7505 51.8516Z" fill="#506DB8"/>
<path d="M40.7954 51.8516H41.1616C41.1924 51.8516 41.2173 51.8208 41.2173 51.7829V51.5669C41.2173 51.529 41.1924 51.4983 41.1616 51.4983H40.7954C40.7647 51.4983 40.7397 51.529 40.7397 51.5669V51.7829C40.7397 51.8208 40.7647 51.8516 40.7954 51.8516Z" fill="#506DB8"/>
<path d="M39.8403 51.8516H40.2065C40.2373 51.8516 40.2622 51.8208 40.2622 51.7829V51.5669C40.2622 51.529 40.2373 51.4983 40.2065 51.4983H39.8403C39.8096 51.4983 39.7847 51.529 39.7847 51.5669V51.7829C39.7847 51.8208 39.8096 51.8516 39.8403 51.8516Z" fill="#506DB8"/>
<path d="M38.8852 51.8516H39.2515C39.2822 51.8516 39.3071 51.8208 39.3071 51.7829V51.5669C39.3071 51.529 39.2822 51.4983 39.2515 51.4983H38.8852C38.8545 51.4983 38.8296 51.529 38.8296 51.5669V51.7829C38.8296 51.8208 38.8545 51.8516 38.8852 51.8516Z" fill="#506DB8"/>
<path d="M37.9302 51.8516H38.2964C38.3271 51.8516 38.3521 51.8208 38.3521 51.7829V51.5669C38.3521 51.529 38.3271 51.4983 38.2964 51.4983H37.9302C37.8994 51.4983 37.8745 51.529 37.8745 51.5669V51.7829C37.8745 51.8208 37.8994 51.8516 37.9302 51.8516Z" fill="#506DB8"/>
<path d="M36.9751 51.8516H37.3413C37.3721 51.8516 37.397 51.8208 37.397 51.7829V51.5669C37.397 51.529 37.3721 51.4983 37.3413 51.4983H36.9751C36.9443 51.4983 36.9194 51.529 36.9194 51.5669V51.7829C36.9194 51.8208 36.9443 51.8516 36.9751 51.8516Z" fill="#506DB8"/>
<path d="M36.02 51.8516H36.3862C36.417 51.8516 36.4419 51.8208 36.4419 51.7829V51.5669C36.4419 51.529 36.417 51.4983 36.3862 51.4983H36.02C35.9893 51.4983 35.9643 51.529 35.9643 51.5669V51.7829C35.9643 51.8208 35.9893 51.8516 36.02 51.8516Z" fill="#506DB8"/>
<path d="M35.0649 51.8516H35.4312C35.4619 51.8516 35.4868 51.8208 35.4868 51.7829V51.5669C35.4868 51.529 35.4619 51.4983 35.4312 51.4983H35.0649C35.0342 51.4983 35.0093 51.529 35.0093 51.5669V51.7829C35.0093 51.8208 35.0342 51.8516 35.0649 51.8516Z" fill="#506DB8"/>
<path d="M34.1098 51.8516H34.4761C34.5068 51.8516 34.5317 51.8208 34.5317 51.7829V51.5669C34.5317 51.529 34.5068 51.4983 34.4761 51.4983H34.1098C34.0791 51.4983 34.0542 51.529 34.0542 51.5669V51.7829C34.0542 51.8208 34.0791 51.8516 34.1098 51.8516Z" fill="#506DB8"/>
<path d="M33.1548 51.8516H33.521C33.5517 51.8516 33.5767 51.8208 33.5767 51.7829V51.5669C33.5767 51.529 33.5517 51.4983 33.521 51.4983H33.1548C33.124 51.4983 33.0991 51.529 33.0991 51.5669V51.7829C33.0991 51.8208 33.124 51.8516 33.1548 51.8516Z" fill="#506DB8"/>
<path d="M32.1997 51.8516H32.5659C32.5967 51.8516 32.6216 51.8208 32.6216 51.7829V51.5669C32.6216 51.529 32.5967 51.4983 32.5659 51.4983H32.1997C32.169 51.4983 32.144 51.529 32.144 51.5669V51.7829C32.144 51.8208 32.169 51.8516 32.1997 51.8516Z" fill="#506DB8"/>
<path d="M31.2446 51.8516H31.6108C31.6416 51.8516 31.6665 51.8208 31.6665 51.7829V51.5669C31.6665 51.529 31.6416 51.4983 31.6108 51.4983H31.2446C31.2139 51.4983 31.189 51.529 31.189 51.5669V51.7829C31.189 51.8208 31.2139 51.8516 31.2446 51.8516Z" fill="#506DB8"/>
<path d="M30.2895 51.8516H30.6558C30.6865 51.8516 30.7114 51.8208 30.7114 51.7829V51.5669C30.7114 51.529 30.6865 51.4983 30.6558 51.4983H30.2895C30.2588 51.4983 30.2339 51.529 30.2339 51.5669V51.7829C30.2339 51.8208 30.2588 51.8516 30.2895 51.8516Z" fill="#506DB8"/>
<path d="M44.6274 52.4402H44.9937C45.0244 52.4402 45.0493 52.4095 45.0493 52.3716V52.1555C45.0493 52.1176 45.0244 52.0869 44.9937 52.0869H44.6274C44.5967 52.0869 44.5718 52.1176 44.5718 52.1555V52.3716C44.5718 52.4095 44.5967 52.4402 44.6274 52.4402Z" fill="#506DB8"/>
<path d="M43.6723 52.4402H44.0386C44.0693 52.4402 44.0942 52.4095 44.0942 52.3716V52.1555C44.0942 52.1176 44.0693 52.0869 44.0386 52.0869H43.6723C43.6416 52.0869 43.6167 52.1176 43.6167 52.1555V52.3716C43.6167 52.4095 43.6416 52.4402 43.6723 52.4402Z" fill="#506DB8"/>
<path d="M42.7173 52.4402H43.0835C43.1142 52.4402 43.1392 52.4095 43.1392 52.3716V52.1555C43.1392 52.1176 43.1142 52.0869 43.0835 52.0869H42.7173C42.6865 52.0869 42.6616 52.1176 42.6616 52.1555V52.3716C42.6616 52.4095 42.6865 52.4402 42.7173 52.4402Z" fill="#506DB8"/>
<path d="M41.7622 52.4402H42.1284C42.1592 52.4402 42.1841 52.4095 42.1841 52.3716V52.1555C42.1841 52.1176 42.1592 52.0869 42.1284 52.0869H41.7622C41.7314 52.0869 41.7065 52.1176 41.7065 52.1555V52.3716C41.7065 52.4095 41.7314 52.4402 41.7622 52.4402Z" fill="#506DB8"/>
<path d="M40.8066 52.4402H41.1729C41.2036 52.4402 41.2285 52.4095 41.2285 52.3716V52.1555C41.2285 52.1176 41.2036 52.0869 41.1729 52.0869H40.8066C40.7759 52.0869 40.751 52.1176 40.751 52.1555V52.3716C40.751 52.4095 40.7759 52.4402 40.8066 52.4402Z" fill="#506DB8"/>
<path d="M39.8515 52.4402H40.2178C40.2485 52.4402 40.2734 52.4095 40.2734 52.3716V52.1555C40.2734 52.1176 40.2485 52.0869 40.2178 52.0869H39.8515C39.8208 52.0869 39.7959 52.1176 39.7959 52.1555V52.3716C39.7959 52.4095 39.8208 52.4402 39.8515 52.4402Z" fill="#506DB8"/>
<path d="M38.8965 52.4402H39.2627C39.2934 52.4402 39.3184 52.4095 39.3184 52.3716V52.1555C39.3184 52.1176 39.2934 52.0869 39.2627 52.0869H38.8965C38.8657 52.0869 38.8408 52.1176 38.8408 52.1555V52.3716C38.8408 52.4095 38.8657 52.4402 38.8965 52.4402Z" fill="#506DB8"/>
<path d="M37.9414 52.4402H38.3076C38.3384 52.4402 38.3633 52.4095 38.3633 52.3716V52.1555C38.3633 52.1176 38.3384 52.0869 38.3076 52.0869H37.9414C37.9106 52.0869 37.8857 52.1176 37.8857 52.1555V52.3716C37.8857 52.4095 37.9106 52.4402 37.9414 52.4402Z" fill="#506DB8"/>
<path d="M36.9863 52.4402H37.3525C37.3833 52.4402 37.4082 52.4095 37.4082 52.3716V52.1555C37.4082 52.1176 37.3833 52.0869 37.3525 52.0869H36.9863C36.9556 52.0869 36.9306 52.1176 36.9306 52.1555V52.3716C36.9306 52.4095 36.9556 52.4402 36.9863 52.4402Z" fill="#506DB8"/>
<path d="M36.0312 52.4402H36.3975C36.4282 52.4402 36.4531 52.4095 36.4531 52.3716V52.1555C36.4531 52.1176 36.4282 52.0869 36.3975 52.0869H36.0312C36.0005 52.0869 35.9756 52.1176 35.9756 52.1555V52.3716C35.9756 52.4095 36.0005 52.4402 36.0312 52.4402Z" fill="#506DB8"/>
<path d="M35.0762 52.4402H35.4424C35.4731 52.4402 35.498 52.4095 35.498 52.3716V52.1555C35.498 52.1176 35.4731 52.0869 35.4424 52.0869H35.0762C35.0454 52.0869 35.0205 52.1176 35.0205 52.1555V52.3716C35.0205 52.4095 35.0454 52.4402 35.0762 52.4402Z" fill="#506DB8"/>
<path d="M34.1211 52.4402H34.4873C34.518 52.4402 34.543 52.4095 34.543 52.3716V52.1555C34.543 52.1176 34.518 52.0869 34.4873 52.0869H34.1211C34.0903 52.0869 34.0654 52.1176 34.0654 52.1555V52.3716C34.0654 52.4095 34.0903 52.4402 34.1211 52.4402Z" fill="#506DB8"/>
<path d="M33.166 52.4402H33.5322C33.563 52.4402 33.5879 52.4095 33.5879 52.3716V52.1555C33.5879 52.1176 33.563 52.0869 33.5322 52.0869H33.166C33.1353 52.0869 33.1103 52.1176 33.1103 52.1555V52.3716C33.1103 52.4095 33.1353 52.4402 33.166 52.4402Z" fill="#506DB8"/>
<path d="M32.2109 52.4402H32.5772C32.6079 52.4402 32.6328 52.4095 32.6328 52.3716V52.1555C32.6328 52.1176 32.6079 52.0869 32.5772 52.0869H32.2109C32.1802 52.0869 32.1553 52.1176 32.1553 52.1555V52.3716C32.1553 52.4095 32.1802 52.4402 32.2109 52.4402Z" fill="#506DB8"/>
<path d="M31.2558 52.4402H31.6221C31.6528 52.4402 31.6777 52.4095 31.6777 52.3716V52.1555C31.6777 52.1176 31.6528 52.0869 31.6221 52.0869H31.2558C31.2251 52.0869 31.2002 52.1176 31.2002 52.1555V52.3716C31.2002 52.4095 31.2251 52.4402 31.2558 52.4402Z" fill="#506DB8"/>
<path d="M30.3008 52.4402H30.667C30.6977 52.4402 30.7227 52.4095 30.7227 52.3716V52.1555C30.7227 52.1176 30.6977 52.0869 30.667 52.0869H30.3008C30.27 52.0869 30.2451 52.1176 30.2451 52.1555V52.3716C30.2451 52.4095 30.27 52.4402 30.3008 52.4402Z" fill="#506DB8"/>
<path d="M36.7001 53.1467H40.4092C40.4399 53.1467 40.4648 53.116 40.4648 53.0781V52.8621C40.4648 52.8242 40.4399 52.7934 40.4092 52.7934H36.7001C36.6694 52.7934 36.6444 52.8242 36.6444 52.8621V53.0781C36.6444 53.116 36.6694 53.1467 36.7001 53.1467Z" fill="#506DB8"/>
</g>
<defs>
<clipPath id="clip0_100_3956">
<rect width="95" height="89" fill="white" transform="translate(0.5)"/>
</clipPath>
</defs>
</svg>
