<svg width="117" height="89" viewBox="0 0 117 89" fill="none" xmlns="http://www.w3.org/2000/svg">
<g clip-path="url(#clip0_100_3858)">
<path d="M26.2046 8.91522H18.8071C18.0959 8.91593 17.414 9.22385 16.9111 9.77139C16.4082 10.3189 16.1254 11.0614 16.1248 11.8357V20.568C16.0302 20.5619 15.9356 20.5527 15.8424 20.5404C14.0899 20.3396 12.4237 19.6098 11.0317 18.4332C9.63976 17.2565 8.57737 15.6799 7.96433 13.8811C7.35129 12.0822 7.21198 10.1327 7.56212 8.25224C7.91226 6.3718 8.73791 4.63525 9.94599 3.23838C11.1541 1.84152 12.6965 0.839888 14.3995 0.346424C16.1024 -0.14704 17.8981 -0.112714 19.5841 0.445533C21.2701 1.00378 22.7793 2.06375 23.9416 3.50593C25.1039 4.9481 25.873 6.71514 26.1623 8.6078C26.1778 8.70925 26.192 8.81224 26.2046 8.91522Z" fill="#F2F2F2"/>
<path d="M113.535 8.60791H18.807C18.0209 8.60885 17.2674 8.94923 16.7116 9.55438C16.1558 10.1595 15.8431 10.98 15.8423 11.8358V66.2494C15.8431 67.1053 16.1558 67.9257 16.7116 68.5309C17.2674 69.136 18.0209 69.4764 18.807 69.4774H113.535C114.321 69.4764 115.075 69.136 115.631 68.5309C116.186 67.9257 116.499 67.1053 116.5 66.2494V11.8358C116.499 10.98 116.186 10.1595 115.631 9.55438C115.075 8.94923 114.321 8.60885 113.535 8.60791ZM116.218 66.2494C116.217 67.0238 115.934 67.7662 115.431 68.3138C114.928 68.8613 114.246 69.1693 113.535 69.17H18.807C18.0958 69.1693 17.4139 68.8613 16.911 68.3138C16.4081 67.7662 16.1253 67.0238 16.1246 66.2494V11.8358C16.1253 11.0615 16.4081 10.3191 16.911 9.7715C17.4139 9.22395 18.0958 8.91603 18.807 8.91533H113.535C114.246 8.91603 114.928 9.22395 115.431 9.7715C115.934 10.3191 116.217 11.0615 116.218 11.8358V66.2494Z" fill="#3F3D56"/>
<path d="M108.877 17.4261H23.4659C23.4284 17.4261 23.3925 17.4099 23.3661 17.3811C23.3396 17.3522 23.3247 17.3131 23.3247 17.2724C23.3247 17.2316 23.3396 17.1925 23.3661 17.1637C23.3925 17.1348 23.4284 17.1187 23.4659 17.1187H108.877C108.914 17.1187 108.95 17.1348 108.976 17.1637C109.003 17.1925 109.018 17.2316 109.018 17.2724C109.018 17.3131 109.003 17.3522 108.976 17.3811C108.95 17.4099 108.914 17.4261 108.877 17.4261Z" fill="#3F3D56"/>
<path d="M47.6065 62.8678C47.5691 62.8678 47.5332 62.8516 47.5067 62.8227C47.4802 62.7939 47.4653 62.7548 47.4653 62.7141V12.1432C47.4653 12.1024 47.4802 12.0633 47.5067 12.0345C47.5332 12.0057 47.5691 11.9895 47.6065 11.9895C47.6439 11.9895 47.6799 12.0057 47.7063 12.0345C47.7328 12.0633 47.7477 12.1024 47.7477 12.1432V62.7141C47.7477 62.7548 47.7328 62.7939 47.7063 62.8227C47.6799 62.8516 47.6439 62.8678 47.6065 62.8678Z" fill="#3F3D56"/>
<path d="M68.9239 62.8678C68.8864 62.8678 68.8505 62.8516 68.8241 62.8227C68.7976 62.7939 68.7827 62.7548 68.7827 62.7141V12.1432C68.7827 12.1024 68.7976 12.0633 68.8241 12.0345C68.8505 12.0057 68.8864 11.9895 68.9239 11.9895C68.9613 11.9895 68.9972 12.0057 69.0237 12.0345C69.0502 12.0633 69.0651 12.1024 69.0651 12.1432V62.7141C69.0651 62.7548 69.0502 62.7939 69.0237 62.8227C68.9972 62.8516 68.9613 62.8678 68.9239 62.8678Z" fill="#3F3D56"/>
<path d="M90.2413 62.8678C90.2038 62.8678 90.1679 62.8516 90.1414 62.8227C90.115 62.7939 90.1001 62.7548 90.1001 62.7141V12.1432C90.1001 12.1024 90.115 12.0633 90.1414 12.0345C90.1679 12.0057 90.2038 11.9895 90.2413 11.9895C90.2787 11.9895 90.3146 12.0057 90.3411 12.0345C90.3676 12.0633 90.3824 12.1024 90.3824 12.1432V62.7141C90.3824 62.7548 90.3676 62.7939 90.3411 62.8227C90.3146 62.8516 90.2787 62.8678 90.2413 62.8678Z" fill="#3F3D56"/>
<path d="M33.9008 33.2919H28.7422C28.5738 33.2917 28.4123 33.2187 28.2932 33.089C28.1741 32.9594 28.1071 32.7835 28.1069 32.6002V25.9722C28.1071 25.7888 28.1741 25.613 28.2932 25.4833C28.4123 25.3537 28.5738 25.2807 28.7422 25.2805H33.9008C34.0692 25.2807 34.2307 25.3537 34.3498 25.4833C34.4689 25.613 34.5359 25.7888 34.536 25.9722V32.6002C34.5359 32.7836 34.4689 32.9594 34.3498 33.089C34.2307 33.2187 34.0692 33.2917 33.9008 33.2919Z" fill="#4B93E7"/>
<path d="M41.2421 52.1984H36.0835C35.9151 52.1982 35.7536 52.1252 35.6345 51.9955C35.5154 51.8659 35.4484 51.69 35.4482 51.5067V44.8787C35.4484 44.6953 35.5154 44.5195 35.6345 44.3898C35.7536 44.2602 35.9151 44.1872 36.0835 44.187H41.2421C41.4105 44.1872 41.572 44.2602 41.6911 44.3898C41.8102 44.5195 41.8772 44.6953 41.8773 44.8787V51.5067C41.8772 51.69 41.8102 51.8659 41.6911 51.9955C41.572 52.1252 41.4105 52.1982 41.2421 52.1984Z" fill="#4B93E7"/>
<path d="M57.9007 37.2882H52.7422C52.5738 37.288 52.4123 37.215 52.2932 37.0854C52.1741 36.9557 52.1071 36.7799 52.1069 36.5965V29.9686C52.1071 29.7852 52.1741 29.6093 52.2932 29.4797C52.4123 29.35 52.5738 29.2771 52.7422 29.2769H57.9007C58.0692 29.2771 58.2306 29.35 58.3497 29.4797C58.4688 29.6093 58.5358 29.7852 58.536 29.9686V36.5965C58.5358 36.7799 58.4688 36.9557 58.3497 37.0854C58.2306 37.2151 58.0692 37.288 57.9007 37.2882Z" fill="#4B93E7"/>
<path d="M79.5004 30.0638H74.3418C74.1734 30.0636 74.0119 29.9907 73.8928 29.861C73.7737 29.7313 73.7067 29.5555 73.7065 29.3721V22.7442C73.7067 22.5608 73.7737 22.385 73.8928 22.2553C74.0119 22.1256 74.1734 22.0527 74.3418 22.0525H79.5004C79.6688 22.0527 79.8303 22.1256 79.9494 22.2553C80.0685 22.385 80.1355 22.5608 80.1356 22.7442V29.3721C80.1355 29.5555 80.0685 29.7313 79.9494 29.861C79.8303 29.9907 79.6688 30.0636 79.5004 30.0638Z" fill="#4B93E7"/>
<path d="M99.4061 30.0638H94.2476C94.0792 30.0636 93.9177 29.9907 93.7986 29.861C93.6795 29.7313 93.6125 29.5555 93.6123 29.3721V22.7442C93.6125 22.5608 93.6795 22.385 93.7986 22.2553C93.9177 22.1256 94.0792 22.0527 94.2476 22.0525H99.4061C99.5745 22.0527 99.736 22.1256 99.8551 22.2553C99.9742 22.385 100.041 22.5608 100.041 22.7442V29.3721C100.041 29.5555 99.9742 29.7313 99.8551 29.861C99.736 29.9907 99.5745 30.0636 99.4061 30.0638Z" fill="#4B93E7"/>
<path d="M108.582 31.9083H103.424C103.255 31.9081 103.094 31.8352 102.975 31.7055C102.856 31.5758 102.789 31.4 102.789 31.2166V24.5887C102.789 24.4053 102.856 24.2295 102.975 24.0998C103.094 23.9701 103.255 23.8972 103.424 23.897H108.582C108.751 23.8972 108.912 23.9701 109.031 24.0998C109.15 24.2295 109.217 24.4053 109.218 24.5887V31.2166C109.217 31.4 109.15 31.5758 109.031 31.7055C108.912 31.8352 108.751 31.9081 108.582 31.9083Z" fill="#E6E6E6"/>
<path d="M104.488 43.7443H99.3296C99.1612 43.744 98.9997 43.6711 98.8806 43.5414C98.7615 43.4118 98.6945 43.2359 98.6943 43.0526V36.4246C98.6945 36.2412 98.7615 36.0654 98.8806 35.9357C98.9997 35.8061 99.1612 35.7331 99.3296 35.7329H104.488C104.657 35.7331 104.818 35.8061 104.937 35.9357C105.056 36.0654 105.123 36.2412 105.123 36.4246V43.0526C105.123 43.2359 105.056 43.4118 104.937 43.5414C104.818 43.6711 104.657 43.744 104.488 43.7443Z" fill="#E6E6E6"/>
<path d="M86.9828 41.2848H81.8243C81.6558 41.2846 81.4943 41.2116 81.3752 41.082C81.2561 40.9523 81.1892 40.7765 81.189 40.5931V33.9651C81.1892 33.7817 81.2561 33.6059 81.3752 33.4763C81.4943 33.3466 81.6558 33.2736 81.8243 33.2734H86.9828C87.1512 33.2736 87.3127 33.3466 87.4318 33.4763C87.5509 33.6059 87.6179 33.7817 87.6181 33.9651V40.5931C87.6179 40.7765 87.5509 40.9523 87.4318 41.082C87.3127 41.2116 87.1512 41.2846 86.9828 41.2848Z" fill="#F7AC25"/>
<path d="M76.9593 43.7443H71.8008C71.6324 43.744 71.4709 43.6711 71.3518 43.5414C71.2327 43.4118 71.1657 43.2359 71.1655 43.0526V36.4246C71.1657 36.2412 71.2327 36.0654 71.3518 35.9357C71.4709 35.8061 71.6324 35.7331 71.8008 35.7329H76.9593C77.1278 35.7331 77.2892 35.8061 77.4083 35.9357C77.5274 36.0654 77.5944 36.2412 77.5946 36.4246V43.0526C77.5944 43.2359 77.5274 43.4118 77.4083 43.5414C77.2892 43.6711 77.1278 43.744 76.9593 43.7443Z" fill="#E6E6E6"/>
<path d="M55.3592 54.1964H50.2007C50.0323 54.1962 49.8708 54.1233 49.7517 53.9936C49.6326 53.8639 49.5656 53.6881 49.5654 53.5047V46.8768C49.5656 46.6934 49.6326 46.5176 49.7517 46.3879C49.8708 46.2582 50.0323 46.1853 50.2007 46.1851H55.3592C55.5277 46.1853 55.6891 46.2582 55.8082 46.3879C55.9273 46.5176 55.9943 46.6934 55.9945 46.8768V53.5047C55.9943 53.6881 55.9273 53.8639 55.8082 53.9936C55.6891 54.1233 55.5277 54.1962 55.3592 54.1964Z" fill="#E6E6E6"/>
<path d="M29.2421 45.4349H24.0835C23.9151 45.4347 23.7536 45.3618 23.6345 45.2321C23.5154 45.1024 23.4484 44.9266 23.4482 44.7432V38.1153C23.4484 37.9319 23.5154 37.7561 23.6345 37.6264C23.7536 37.4967 23.9151 37.4238 24.0835 37.4236H29.2421C29.4105 37.4238 29.572 37.4967 29.6911 37.6264C29.8102 37.7561 29.8772 37.9319 29.8773 38.1153V44.7432C29.8772 44.9266 29.8102 45.1024 29.6911 45.2321C29.572 45.3618 29.4105 45.4347 29.2421 45.4349Z" fill="#F7AC25"/>
<path d="M43.7831 33.2919H38.6245C38.4561 33.2917 38.2946 33.2187 38.1755 33.089C38.0564 32.9594 37.9894 32.7835 37.9893 32.6002V25.9722C37.9894 25.7888 38.0564 25.613 38.1755 25.4833C38.2946 25.3537 38.4561 25.2807 38.6245 25.2805H43.7831C43.9515 25.2807 44.113 25.3537 44.2321 25.4833C44.3512 25.613 44.4182 25.7888 44.4184 25.9722V32.6002C44.4182 32.7836 44.3512 32.9594 44.2321 33.089C44.113 33.2187 43.9515 33.2917 43.7831 33.2919Z" fill="#E6E6E6"/>
<path d="M39.5599 14.9099H31.5129C31.3632 14.9099 31.2195 14.8451 31.1136 14.7298C31.0077 14.6145 30.9482 14.4581 30.9482 14.295C30.9482 14.132 31.0077 13.9756 31.1136 13.8603C31.2195 13.745 31.3632 13.6802 31.5129 13.6802H39.5599C39.7097 13.6802 39.8533 13.745 39.9592 13.8603C40.0651 13.9756 40.1246 14.132 40.1246 14.295C40.1246 14.4581 40.0651 14.6145 39.9592 14.7298C39.8533 14.8451 39.7097 14.9099 39.5599 14.9099Z" fill="#CCCCCC"/>
<path d="M62.2889 14.9099H54.2419C54.0922 14.9099 53.9485 14.8451 53.8426 14.7298C53.7367 14.6145 53.6772 14.4581 53.6772 14.295C53.6772 14.132 53.7367 13.9756 53.8426 13.8603C53.9485 13.745 54.0922 13.6802 54.2419 13.6802H62.2889C62.4387 13.6802 62.5823 13.745 62.6882 13.8603C62.7941 13.9756 62.8536 14.132 62.8536 14.295C62.8536 14.4581 62.7941 14.6145 62.6882 14.7298C62.5823 14.8451 62.4387 14.9099 62.2889 14.9099Z" fill="#CCCCCC"/>
<path d="M83.6063 14.9099H75.5593C75.4096 14.9099 75.2659 14.8451 75.16 14.7298C75.0541 14.6145 74.9946 14.4581 74.9946 14.295C74.9946 14.132 75.0541 13.9756 75.16 13.8603C75.2659 13.745 75.4096 13.6802 75.5593 13.6802H83.6063C83.7561 13.6802 83.8997 13.745 84.0056 13.8603C84.1115 13.9756 84.171 14.132 84.171 14.295C84.171 14.4581 84.1115 14.6145 84.0056 14.7298C83.8997 14.8451 83.7561 14.9099 83.6063 14.9099Z" fill="#CCCCCC"/>
<path d="M103.512 14.9099H95.4651C95.3153 14.9099 95.1717 14.8451 95.0658 14.7298C94.9599 14.6145 94.9004 14.4581 94.9004 14.295C94.9004 14.132 94.9599 13.9756 95.0658 13.8603C95.1717 13.745 95.3153 13.6802 95.4651 13.6802H103.512C103.662 13.6802 103.805 13.745 103.911 13.8603C104.017 13.9756 104.077 14.132 104.077 14.295C104.077 14.4581 104.017 14.6145 103.911 14.7298C103.805 14.8451 103.662 14.9099 103.512 14.9099Z" fill="#CCCCCC"/>
<path d="M21.5364 59.9306C21.3298 59.9086 21.1302 59.8375 20.9516 59.7224C20.773 59.6073 20.6198 59.4509 20.5027 59.2644C20.3856 59.0778 20.3075 58.8656 20.2739 58.6426C20.2403 58.4196 20.252 58.1913 20.3082 57.9738L16.6895 54.3061L18.6028 53.7776L22.1612 56.92C22.4906 57.047 22.7657 57.3012 22.9345 57.6343C23.1033 57.9674 23.1539 58.3564 23.0769 58.7274C22.9999 59.0985 22.8006 59.426 22.5166 59.6477C22.2327 59.8695 21.8839 59.9701 21.5364 59.9306Z" fill="#FFB8B8"/>
<path d="M26.533 87.0392H28.2638L29.0871 79.7705H26.5327L26.533 87.0392Z" fill="#FFB8B8"/>
<path d="M31.602 88.7888L26.1625 88.7891L26.1624 86.5008L29.5003 86.5006C30.0577 86.5006 30.5923 86.7417 30.9864 87.1708C31.3806 87.5999 31.602 88.1819 31.602 88.7888Z" fill="#082777"/>
<path d="M14.666 85.6785L16.3387 86.1633L18.8517 79.3699L16.3833 78.6545L14.666 85.6785Z" fill="#FFB8B8"/>
<path d="M19.1509 88.7893L13.8944 87.2659L14.4349 85.0546L17.6605 85.9895C18.1992 86.1456 18.6588 86.5282 18.9383 87.0533C19.2178 87.5784 19.2943 88.2028 19.1509 88.7893Z" fill="#082777"/>
<path d="M28.7297 85.663H26.0887C25.9219 85.6637 25.7609 85.5963 25.6374 85.4742C25.5139 85.352 25.4369 85.184 25.4215 85.0031L23.8182 66.8758C23.8065 66.7428 23.7527 66.6184 23.666 66.5239C23.5793 66.4294 23.4651 66.3706 23.343 66.3576C23.2209 66.3446 23.0984 66.3783 22.9966 66.4527C22.8947 66.5272 22.8198 66.6379 22.7847 66.7659L18.1297 83.7047C18.0804 83.8848 17.9693 84.0372 17.8193 84.1301C17.6694 84.2231 17.4923 84.2494 17.325 84.2037L14.8681 83.5348C14.7823 83.5115 14.7017 83.4699 14.6307 83.4125C14.5598 83.3551 14.5 83.2829 14.4548 83.2003C14.4095 83.1176 14.3798 83.026 14.3672 82.9307C14.3546 82.8355 14.3594 82.7385 14.3814 82.6452C14.4215 82.4746 18.3923 65.579 18.427 65.4053C19.3267 58.1859 20.403 56.2513 20.9812 55.2121C21.0291 55.1261 21.0731 55.047 21.1127 54.9722C21.1623 54.8787 21.4674 53.9509 21.661 53.3483C21.6861 53.2503 21.7296 53.1591 21.7888 53.0803C21.848 53.0015 21.9215 52.9369 22.0047 52.8907C24.4344 51.5377 27.2772 52.4743 28.0907 52.7935C28.2255 52.8452 28.3413 52.9432 28.4207 53.0726C30.8609 57.08 29.6634 80.3549 29.3986 84.98C29.3875 85.1651 29.3123 85.3386 29.1881 85.4654C29.0638 85.5922 28.9 85.6629 28.7297 85.663Z" fill="#082777"/>
<path d="M21.9142 39.7474C23.8292 39.7474 25.3816 38.0571 25.3816 35.9721C25.3816 33.887 23.8292 32.1968 21.9142 32.1968C19.9992 32.1968 18.4468 33.887 18.4468 35.9721C18.4468 38.0571 19.9992 39.7474 21.9142 39.7474Z" fill="#FFB8B8"/>
<path d="M21.5465 54.0812L21.5215 54.0549C21.4748 54.0057 16.8549 49.0778 17.4528 44.5211C17.7085 42.5721 19.1568 41.3268 21.6411 40.9195C22.5538 40.7719 23.4848 40.988 24.2628 41.528C25.0409 42.0679 25.6139 42.8955 25.8764 43.8586L28.3328 53.002L21.5465 54.0812Z" fill="#CCCCCC"/>
<path d="M19.1823 57.5864L15.8903 54.0248C15.6652 53.7799 15.5018 53.476 15.4157 53.1424C15.3297 52.8088 15.324 52.4568 15.399 52.1201L16.9927 45.0618C17.0404 44.8503 17.1275 44.6517 17.2486 44.4784C17.3697 44.305 17.5221 44.1605 17.6966 44.0539C17.871 43.9473 18.0636 43.8807 18.2626 43.8585C18.4616 43.8362 18.6627 43.8586 18.8534 43.9243C19.2169 44.0519 19.5205 44.3285 19.6999 44.6956C19.8793 45.0626 19.9205 45.4913 19.8146 45.8909L18.1369 52.1003L20.85 55.2723L19.1823 57.5864Z" fill="#CCCCCC"/>
<path d="M36.8392 45.431C36.7521 45.6361 36.6248 45.818 36.4663 45.9638C36.3077 46.1096 36.1217 46.2157 35.9213 46.2747C35.721 46.3338 35.5112 46.3443 35.3068 46.3055C35.1023 46.2667 34.9081 46.1796 34.738 46.0503L30.3433 48.5303L30.5375 46.4236L34.4335 43.7984C34.652 43.5015 34.9629 43.3022 35.3074 43.2382C35.6518 43.1742 36.0058 43.25 36.3024 43.4513C36.5989 43.6525 36.8173 43.9652 36.9163 44.3301C37.0152 44.695 36.9878 45.0867 36.8392 45.431Z" fill="#FFB8B8"/>
<path d="M34.258 46.9994L29.9739 49.0151C29.6888 49.1482 29.377 49.1992 29.0685 49.1631C28.76 49.1271 28.4652 49.0053 28.2125 48.8093L22.7647 44.5594C22.6021 44.4325 22.4651 44.2707 22.3623 44.0839C22.2595 43.8971 22.1929 43.6893 22.1668 43.4734C22.1407 43.2575 22.1556 43.038 22.2105 42.8286C22.2654 42.6192 22.3592 42.4242 22.4861 42.2559C22.7299 41.9358 23.0786 41.7316 23.4583 41.6866C23.838 41.6417 24.2188 41.7594 24.5202 42.0149L29.1915 46.0178L32.9044 44.4538L34.258 46.9994Z" fill="#CCCCCC"/>
<path d="M22.489 37.1818C22.9168 36.5983 23.716 36.5669 24.3035 36.182C25.0732 35.6777 25.3914 34.551 25.1434 33.611C24.8953 32.671 24.1639 31.9385 23.3253 31.5881C22.4866 31.2378 21.5536 31.2334 20.6689 31.4028C19.3517 31.655 18.0549 32.3243 17.2516 33.4885C16.4482 34.6527 16.2438 36.3576 16.9718 37.5791C17.3065 38.1405 17.823 38.6039 17.9566 39.2572C18.132 40.1148 17.5795 40.942 16.9875 41.5392C16.3132 42.2195 15.5395 42.7894 14.9487 43.5563C14.3579 44.3233 13.9639 45.3711 14.2335 46.328C14.4594 47.1299 15.1167 47.7206 15.8375 48.0164C16.5582 48.3123 17.3433 48.355 18.1134 48.3714C18.8612 48.3873 19.6555 48.3675 20.2855 47.9285C20.9599 47.4585 21.32 46.5669 21.3466 45.6955C21.3732 44.8242 21.1058 43.9705 20.7474 43.1909C20.5337 42.7262 20.2853 42.2759 20.1434 41.7798C20.0014 41.2837 19.9769 40.7207 20.2042 40.2638C20.4431 39.7835 20.9266 39.4938 21.4189 39.3885C21.4444 39.383 21.4715 39.3782 21.4998 39.3738C21.6399 39.354 21.7748 39.3035 21.8964 39.2253C22.018 39.1472 22.1238 39.0429 22.2074 38.919C22.291 38.795 22.3506 38.6539 22.3827 38.5041C22.4147 38.3544 22.4185 38.1991 22.3939 38.0476C22.3378 37.7073 22.3427 37.3815 22.489 37.1818Z" fill="#082777"/>
<path d="M68.7197 87.2001H66.9889L66.1655 79.9314L68.7199 79.9315L68.7197 87.2001Z" fill="#A0616A"/>
<path d="M65.7525 86.6616H69.0905V88.9499H63.6509C63.6509 88.6494 63.7052 88.3518 63.8109 88.0742C63.9165 87.7966 64.0713 87.5443 64.2664 87.3318C64.4616 87.1194 64.6933 86.9508 64.9483 86.8358C65.2032 86.7208 65.4765 86.6616 65.7525 86.6616Z" fill="#082777"/>
<path d="M81.2778 85.0656L79.7035 85.8484L76.1807 79.6095L78.5043 78.4539L81.2778 85.0656Z" fill="#A0616A"/>
<path d="M78.3736 85.918L81.4098 84.408L82.283 86.4895L77.3351 88.9501C77.2204 88.6767 77.1563 88.3815 77.1464 88.0812C77.1366 87.7809 77.1811 87.4814 77.2776 87.1998C77.374 86.9183 77.5204 86.6602 77.7085 86.4402C77.8965 86.2203 78.1225 86.0428 78.3736 85.918Z" fill="#082777"/>
<path d="M76.2378 62.6921C76.4036 62.5562 76.54 62.3824 76.6375 62.1829C76.735 61.9834 76.791 61.763 76.8018 61.5374C76.8126 61.3117 76.7778 61.0862 76.6999 60.8768C76.622 60.6673 76.5029 60.479 76.3509 60.3252L78.3854 55.2988L75.8007 55.7758L74.2649 60.4757C74.0444 60.7709 73.931 61.1438 73.9462 61.5239C73.9613 61.904 74.104 62.2648 74.3472 62.538C74.5904 62.8112 74.9172 62.9778 75.2656 63.0062C75.614 63.0346 75.9599 62.9228 76.2378 62.6921Z" fill="#A0616A"/>
<path d="M68.6094 85.2837H66.9559C66.7956 85.2831 66.6413 85.2167 66.5239 85.0978C66.4065 84.9789 66.3345 84.8162 66.3223 84.6421L65.4206 58.4254C65.4139 58.3249 65.4274 58.2241 65.4603 58.1299C65.4931 58.0357 65.5444 57.9505 65.6106 57.8802C65.6768 57.8098 65.7564 57.7561 65.8437 57.7227C65.9309 57.6893 66.0239 57.6771 66.1159 57.6869L75.6784 58.7926C75.8334 58.8091 75.9774 58.887 76.0831 59.0115C76.1888 59.136 76.2489 59.2984 76.2519 59.4679L76.4523 71.0324C76.4533 71.0952 76.4645 71.1572 76.4853 71.2158L80.4079 82.2911C80.4382 82.3767 80.4525 82.4679 80.4502 82.5596C80.4478 82.6513 80.4286 82.7415 80.3939 82.8251C80.3592 82.9086 80.3096 82.9838 80.2479 83.0463C80.1862 83.1087 80.1138 83.1572 80.0347 83.1889L78.3592 83.8611C78.2137 83.9194 78.0536 83.9178 77.9091 83.8565C77.7646 83.7953 77.6456 83.6786 77.5746 83.5284L72.756 73.3268C72.7297 73.2713 72.7105 73.2122 72.6989 73.1512L71.8757 68.8328C71.8519 68.7076 71.7878 68.5958 71.6951 68.5173C71.6023 68.4389 71.4869 68.399 71.3696 68.4048C71.2523 68.4105 71.1407 68.4616 71.0548 68.5489C70.969 68.6361 70.9145 68.7538 70.9011 68.8809L69.2405 84.6706C69.2228 84.8394 69.1487 84.9951 69.0323 85.1082C68.9159 85.2212 68.7653 85.2837 68.6094 85.2837Z" fill="#082777"/>
<path d="M69.4327 37.9263C71.3477 37.9263 72.9001 36.2361 72.9001 34.151C72.9001 32.066 71.3477 30.3757 69.4327 30.3757C67.5177 30.3757 65.9653 32.066 65.9653 34.151C65.9653 36.2361 67.5177 37.9263 69.4327 37.9263Z" fill="#A0616A"/>
<path d="M71.8107 60.8226C69.4593 60.7944 67.1639 60.0373 65.1934 58.6402L65.1597 58.6148L65.1631 58.5703L66.4895 41.7519C66.5352 41.1813 66.7691 40.648 67.148 40.2507C67.5269 39.8533 68.0251 39.6188 68.5505 39.5905C70.2694 39.5045 72.5783 39.6129 73.8143 40.6152C75.6822 42.1299 76.5824 44.4109 76.2843 46.8731C75.6659 51.9792 76.3664 58.867 76.4483 59.6356L76.4542 59.691L76.4077 59.7143C74.9677 60.4437 73.3988 60.8219 71.8107 60.8226Z" fill="#4B93E7"/>
<path d="M76.4324 59.6639C76.3346 59.6637 76.238 59.6415 76.1486 59.5986C76.0591 59.5557 75.9788 59.493 75.9128 59.4146L75.1543 58.5137C75.0723 58.4157 75.0149 58.2965 74.9875 58.1674C74.9601 58.0384 74.9636 57.9038 74.9977 57.7766L76.7272 51.4032L74.0957 45.3864C73.9728 45.1047 73.9427 44.7856 74.0105 44.4827C74.0702 44.2167 74.2026 43.9767 74.3901 43.7944C74.5776 43.612 74.8115 43.4958 75.0609 43.4611C75.3104 43.4264 75.5636 43.4749 75.7872 43.6C76.0108 43.7252 76.1943 43.9213 76.3135 44.1623L79.8845 50.4709C80.0295 50.7269 80.1147 51.0177 80.1324 51.3178C80.1501 51.6179 80.0999 51.9182 79.9861 52.1922L77.0765 59.2114C77.0286 59.3275 76.9549 59.4287 76.8621 59.5059C76.7693 59.5832 76.6602 59.6341 76.5448 59.6541C76.5076 59.6606 76.47 59.6639 76.4324 59.6639Z" fill="#4B93E7"/>
<path d="M51.9916 47.4893C52.1581 47.6242 52.3498 47.7177 52.5531 47.7632C52.7564 47.8086 52.9663 47.805 53.1682 47.7526C53.3701 47.7002 53.559 47.6002 53.7215 47.4597C53.884 47.3192 54.0163 47.1416 54.109 46.9394L59.112 47.6459L57.9622 45.0807L53.3876 44.8031C53.0653 44.6561 52.7047 44.6429 52.3741 44.766C52.0435 44.8891 51.7658 45.14 51.5938 45.4711C51.4217 45.8022 51.3672 46.1906 51.4405 46.5625C51.5138 46.9345 51.7099 47.2643 51.9916 47.4893Z" fill="#A0616A"/>
<path d="M63.019 48.8903C62.9319 48.8903 62.8449 48.8837 62.7586 48.8707L54.8879 47.6821C54.7593 47.6629 54.6371 47.6091 54.5324 47.5256C54.4276 47.4421 54.3436 47.3315 54.2879 47.2039C54.2699 47.1627 54.2548 47.1201 54.243 47.0764C54.2125 46.9629 54.204 46.8438 54.218 46.7266C54.2319 46.6093 54.2681 46.4965 54.3241 46.3952L54.9754 45.2195C55.0455 45.0939 55.144 44.9899 55.2616 44.9176C55.3792 44.8453 55.5118 44.8071 55.6468 44.8066H55.6479L62.5084 44.8152L67.6322 39.817C67.8706 39.585 68.175 39.4493 68.4944 39.4328C68.7748 39.4186 69.0526 39.4974 69.2911 39.6586C69.5295 39.8198 69.7175 40.0559 69.8303 40.3359C69.943 40.6158 69.9751 40.9263 69.9224 41.2265C69.8698 41.5267 69.7348 41.8025 69.5352 42.0175L64.4226 48.2087C64.2456 48.4232 64.0292 48.5947 63.7874 48.7121C63.5456 48.8296 63.2838 48.8902 63.019 48.8903Z" fill="#4B93E7"/>
<path d="M69.8269 37.5097C70.1437 36.7113 70.4118 35.6479 69.8041 35.0834C69.4516 34.7559 68.9438 34.7553 68.4819 34.7145C67.1807 34.5998 65.8412 33.9479 65.2051 32.7065C64.5691 31.4652 64.9243 29.6193 66.1242 29.0593C66.9331 28.6818 67.8603 28.9389 68.7069 29.2003L71.2489 29.9852C72.0042 30.2184 72.7972 30.4755 73.341 31.0921C74.2082 32.0754 74.1433 33.7377 73.4546 34.8762C72.7658 36.0146 71.7285 37.2019 70.541 37.6342L69.8269 37.5097Z" fill="#082777"/>
<path d="M104.897 89.0001H0.668094C0.645978 89.0001 0.624068 88.9955 0.603618 88.9863C0.583167 88.9771 0.56458 88.9637 0.548919 88.9467C0.533259 88.9297 0.520833 88.9095 0.512355 88.8872C0.503877 88.865 0.499512 88.8411 0.499512 88.8171C0.499512 88.793 0.503877 88.7691 0.512355 88.7469C0.520833 88.7247 0.533259 88.7045 0.548919 88.6875C0.56458 88.6705 0.583167 88.657 0.603618 88.6478C0.624068 88.6386 0.645978 88.634 0.668094 88.634H104.897C104.919 88.634 104.941 88.6386 104.961 88.6478C104.982 88.657 105 88.6705 105.016 88.6875C105.031 88.7045 105.044 88.7247 105.052 88.7469C105.061 88.7691 105.065 88.793 105.065 88.8171C105.065 88.8411 105.061 88.865 105.052 88.8872C105.044 88.9095 105.031 88.9297 105.016 88.9467C105 88.9637 104.982 88.9771 104.961 88.9863C104.941 88.9955 104.919 89.0001 104.897 89.0001Z" fill="#3F3D56"/>
</g>
<defs>
<clipPath id="clip0_100_3858">
<rect width="116" height="89" fill="white" transform="translate(0.5)"/>
</clipPath>
</defs>
</svg>
