<svg width="17" height="17" viewBox="0 0 17 17" fill="none" xmlns="http://www.w3.org/2000/svg">
<g id="location_on_white_24dp 1" clip-path="url(#clip0_1392_13817)">
<path id="Vector" d="M8.64714 2.15625C6.06714 2.15625 3.98047 4.24292 3.98047 6.82292C3.98047 10.3229 8.64714 15.4896 8.64714 15.4896C8.64714 15.4896 13.3138 10.3229 13.3138 6.82292C13.3138 4.24292 11.2271 2.15625 8.64714 2.15625ZM5.3138 6.82292C5.3138 4.98292 6.80714 3.48958 8.64714 3.48958C10.4871 3.48958 11.9805 4.98292 11.9805 6.82292C11.9805 8.74292 10.0605 11.6162 8.64714 13.4096C7.26047 11.6296 5.3138 8.72292 5.3138 6.82292Z" fill="#555555"/>
<path id="Vector_2" d="M8.64714 8.48958C9.56761 8.48958 10.3138 7.74339 10.3138 6.82292C10.3138 5.90244 9.56761 5.15625 8.64714 5.15625C7.72666 5.15625 6.98047 5.90244 6.98047 6.82292C6.98047 7.74339 7.72666 8.48958 8.64714 8.48958Z" fill="#555555"/>
</g>
<defs>
<clipPath id="clip0_1392_13817">
<rect width="16" height="16" fill="white" transform="translate(0.646484 0.822998)"/>
</clipPath>
</defs>
</svg>
