<svg width="52" height="52" viewBox="0 0 52 52" fill="none" xmlns="http://www.w3.org/2000/svg">
<g filter="url(#filter0_dd_593_2290)">
<rect x="2" y="2" width="48" height="48" rx="10" fill="#DF1C3D"/>
<path d="M26 35.46C31.2247 35.46 35.46 31.2247 35.46 26C35.46 20.7754 31.2247 16.54 26 16.54C20.7754 16.54 16.54 20.7754 16.54 26C16.54 31.2247 20.7754 35.46 26 35.46Z" stroke="white" stroke-width="2.064" stroke-miterlimit="10" stroke-linecap="square"/>
<path d="M27.9551 26.0001L31.6926 22.2626C31.8651 22.0901 31.8651 21.8076 31.6926 21.6339L30.3663 20.3076C30.2827 20.2247 30.1697 20.1782 30.052 20.1782C29.9342 20.1782 29.8212 20.2247 29.7376 20.3076L26.0001 24.0451L22.2626 20.3076C22.179 20.2247 22.066 20.1782 21.9482 20.1782C21.8305 20.1782 21.7175 20.2247 21.6338 20.3076L20.3088 21.6339C20.2675 21.6751 20.2348 21.7241 20.2124 21.7781C20.19 21.832 20.1785 21.8898 20.1785 21.9482C20.1785 22.0066 20.19 22.0644 20.2124 22.1184C20.2348 22.1723 20.2675 22.2213 20.3088 22.2626L24.0451 26.0001L20.3076 29.7376C20.1351 29.9101 20.1351 30.1926 20.3076 30.3664L21.6338 31.6926C21.7175 31.7755 21.8305 31.822 21.9482 31.822C22.066 31.822 22.179 31.7755 22.2626 31.6926L26.0001 27.9539L29.7376 31.6926C29.8212 31.7755 29.9342 31.822 30.052 31.822C30.1697 31.822 30.2827 31.7755 30.3663 31.6926L31.6926 30.3664C31.8651 30.1926 31.8651 29.9101 31.6926 29.7376L27.9551 26.0001Z" fill="white"/>
</g>
<defs>
<filter id="filter0_dd_593_2290" x="0" y="0" width="52" height="52" filterUnits="userSpaceOnUse" color-interpolation-filters="sRGB">
<feFlood flood-opacity="0" result="BackgroundImageFix"/>
<feColorMatrix in="SourceAlpha" type="matrix" values="0 0 0 0 0 0 0 0 0 0 0 0 0 0 0 0 0 0 127 0" result="hardAlpha"/>
<feOffset/>
<feGaussianBlur stdDeviation="0.5"/>
<feColorMatrix type="matrix" values="0 0 0 0 0.137255 0 0 0 0 0.117647 0 0 0 0 0.231373 0 0 0 0.07 0"/>
<feBlend mode="normal" in2="BackgroundImageFix" result="effect1_dropShadow_593_2290"/>
<feColorMatrix in="SourceAlpha" type="matrix" values="0 0 0 0 0 0 0 0 0 0 0 0 0 0 0 0 0 0 127 0" result="hardAlpha"/>
<feOffset/>
<feGaussianBlur stdDeviation="1"/>
<feColorMatrix type="matrix" values="0 0 0 0 0.137255 0 0 0 0 0.117647 0 0 0 0 0.231373 0 0 0 0.12 0"/>
<feBlend mode="normal" in2="effect1_dropShadow_593_2290" result="effect2_dropShadow_593_2290"/>
<feBlend mode="normal" in="SourceGraphic" in2="effect2_dropShadow_593_2290" result="shape"/>
</filter>
</defs>
</svg>
