<svg width="12" height="14" viewBox="0 0 12 14" fill="none" xmlns="http://www.w3.org/2000/svg">
<path opacity="0.2" d="M11.2716 2.70317L9.48664 12.8432C9.46455 12.9686 9.39353 13.0801 9.28921 13.1531C9.1849 13.2261 9.05584 13.2547 8.93044 13.2326L1.11544 11.8526C0.854567 11.8066 0.680292 11.5579 0.726042 11.297L2.51104 1.15697C2.53314 1.03156 2.60416 0.920076 2.70847 0.847045C2.81279 0.774013 2.94184 0.745425 3.06724 0.767571L10.8822 2.14757C11.1431 2.19359 11.3174 2.44225 11.2716 2.70317Z" fill="#1681FF"/>
<path d="M10.9646 1.67496L3.14958 0.294961C2.62752 0.203092 2.12981 0.551734 2.03778 1.07376L0.252777 11.2138C0.208684 11.4646 0.266107 11.7228 0.412401 11.9313C0.558695 12.1398 0.781866 12.2816 1.03278 12.3256L8.84778 13.7056C9.09875 13.7498 9.35702 13.6925 9.56568 13.5462C9.77434 13.3999 9.91627 13.1766 9.96018 12.9256L11.7452 2.78556C11.8362 2.26333 11.4868 1.76614 10.9646 1.67496ZM9.01338 12.76L1.19778 11.38L2.98278 1.23996L10.7978 2.61996L9.01338 12.76ZM3.67818 2.82516C3.72448 2.56425 3.97344 2.39022 4.23438 2.43636L9.21438 3.31536C9.45974 3.35834 9.63145 3.58187 9.60972 3.83002C9.588 4.07816 9.38007 4.26846 9.13098 4.26816C9.10283 4.26812 9.07473 4.26571 9.04698 4.26096L4.06698 3.38136C3.80607 3.33506 3.63203 3.0861 3.67818 2.82516ZM3.34578 4.71636C3.36787 4.59095 3.43889 4.47947 3.54321 4.40643C3.64752 4.3334 3.77658 4.30481 3.90198 4.32696L8.88198 5.20656C9.12916 5.2479 9.30294 5.47246 9.28094 5.72211C9.25895 5.97177 9.04858 6.16248 8.79798 6.15996C8.7696 6.16002 8.74127 6.15741 8.71338 6.15216L3.73338 5.27316C3.47268 5.2263 3.29922 4.97711 3.34578 4.71636ZM3.01278 6.60696C3.05994 6.34678 3.30863 6.17375 3.56898 6.21996L6.05778 6.65736C6.30302 6.70032 6.4747 6.92367 6.45315 7.17172C6.43159 7.41976 6.22396 7.61015 5.97498 7.61016C5.94682 7.61015 5.91872 7.60774 5.89098 7.60296L3.40098 7.16316C3.14031 7.11657 2.96661 6.8677 3.01278 6.60696Z" fill="#1681FF"/>
</svg>
