<svg width="12" height="12" viewBox="0 0 12 12" fill="none" xmlns="http://www.w3.org/2000/svg">
<path d="M1.47303 6.55665C1.2017 6.23544 1.2017 5.76502 1.47303 5.44381C2.20833 4.57392 3.84319 2.99023 5.99964 2.99023C8.15609 2.99023 9.79095 4.57392 10.5262 5.44381C10.7976 5.76502 10.7976 6.23544 10.5262 6.55665C9.79095 7.42654 8.15609 9.01023 5.99964 9.01023C3.84319 9.01023 2.20833 7.42654 1.47303 6.55665Z" stroke="#1681FF" stroke-width="1.032" stroke-miterlimit="10" stroke-linecap="round"/>
<path d="M6.00156 7.29023C7.18897 7.29023 8.15156 6.32765 8.15156 5.14023C8.15156 3.95282 7.18897 2.99023 6.00156 2.99023C4.81415 2.99023 3.85156 3.95282 3.85156 5.14023C3.85156 6.32765 4.81415 7.29023 6.00156 7.29023Z" stroke="#1681FF" stroke-width="1.032" stroke-miterlimit="10" stroke-linecap="square"/>
</svg>
