<svg width="12" height="4" viewBox="0 0 12 4" fill="none" xmlns="http://www.w3.org/2000/svg">
<path d="M5.99844 0.399902C5.11478 0.399902 4.39844 1.11625 4.39844 1.9999C4.39844 2.88356 5.11478 3.5999 5.99844 3.5999C6.88209 3.5999 7.59844 2.88356 7.59844 1.9999C7.59844 1.11625 6.88209 0.399902 5.99844 0.399902ZM5.99844 2.7999C5.55661 2.7999 5.19844 2.44173 5.19844 1.9999C5.19844 1.55807 5.55661 1.1999 5.99844 1.1999C6.44027 1.1999 6.79844 1.55807 6.79844 1.9999C6.79844 2.44173 6.44027 2.7999 5.99844 2.7999ZM1.99844 0.399902C1.11478 0.399902 0.398437 1.11625 0.398437 1.9999C0.398437 2.88356 1.11478 3.5999 1.99844 3.5999C2.88209 3.5999 3.59844 2.88356 3.59844 1.9999C3.59844 1.11625 2.88209 0.399902 1.99844 0.399902ZM1.99844 2.7999C1.55661 2.7999 1.19844 2.44173 1.19844 1.9999C1.19844 1.55807 1.55661 1.1999 1.99844 1.1999C2.44027 1.1999 2.79844 1.55807 2.79844 1.9999C2.79844 2.44173 2.44027 2.7999 1.99844 2.7999ZM9.99844 0.399902C9.11478 0.399902 8.39844 1.11625 8.39844 1.9999C8.39844 2.88356 9.11478 3.5999 9.99844 3.5999C10.8821 3.5999 11.5984 2.88356 11.5984 1.9999C11.5984 1.11625 10.8821 0.399902 9.99844 0.399902ZM9.99844 2.7999C9.55661 2.7999 9.19844 2.44173 9.19844 1.9999C9.19844 1.55807 9.55661 1.1999 9.99844 1.1999C10.4403 1.1999 10.7984 1.55807 10.7984 1.9999C10.7984 2.44173 10.4403 2.7999 9.99844 2.7999Z" fill="#171A1F"/>
</svg>
