<svg width="36" height="36" viewBox="0 0 36 36" fill="none" xmlns="http://www.w3.org/2000/svg">
<path d="M16.2 5.31818C16.59 5.31818 16.9128 5.202 17.1684 4.96964C17.424 4.73727 17.5512 4.44436 17.55 4.09091C17.5488 3.73745 17.421 3.44455 17.1666 3.21218C16.9122 2.97982 16.59 2.86364 16.2 2.86364C15.81 2.86364 15.4878 2.97982 15.2334 3.21218C14.979 3.44455 14.8512 3.73745 14.85 4.09091C14.8488 4.44436 14.9766 4.73782 15.2334 4.97127C15.4902 5.20473 15.8124 5.32036 16.2 5.31818ZM27 36C24.51 36 22.3878 35.202 20.6334 33.606C18.879 32.01 18.0012 30.0807 18 27.8182C17.9988 25.5556 18.8766 23.6264 20.6334 22.0304C22.3902 20.4344 24.5124 19.6364 27 19.6364C29.4876 19.6364 31.6104 20.4344 33.3684 22.0304C35.1264 23.6264 36.0036 25.5556 36 27.8182C35.9964 30.0807 35.1186 32.0105 33.3666 33.6076C31.6146 35.2047 29.4924 36.0022 27 36ZM26.1 32.7273H27.9V28.6364H32.4V27H27.9V22.9091H26.1V27H21.6V28.6364H26.1V32.7273ZM7.2 13.0909H25.2V9.81818H7.2V13.0909ZM15.615 32.7273H3.6C2.61 32.7273 1.7628 32.4071 1.0584 31.7667C0.354 31.1264 0.0012 30.3556 0 29.4545V6.54545C0 5.64545 0.3528 4.87527 1.0584 4.23491C1.764 3.59455 2.6112 3.27382 3.6 3.27273H11.16C11.55 2.29091 12.2028 1.5 13.1184 0.9C14.034 0.3 15.0612 0 16.2 0C17.3388 0 18.3666 0.3 19.2834 0.9C20.2002 1.5 20.8524 2.29091 21.24 3.27273H28.8C29.79 3.27273 30.6378 3.59345 31.3434 4.23491C32.049 4.87636 32.4012 5.64654 32.4 6.54545V17.5091C31.53 17.1273 30.6522 16.8409 29.7666 16.65C28.881 16.4591 27.9588 16.3636 27 16.3636C26.67 16.3636 26.3622 16.3702 26.0766 16.3833C25.791 16.3964 25.4988 16.4307 25.2 16.4864V16.3636H7.2V19.6364H18.225C17.685 20.1 17.1978 20.6045 16.7634 21.15C16.329 21.6955 15.9462 22.2818 15.615 22.9091H7.2V26.1818H14.535C14.475 26.4545 14.4378 26.7207 14.4234 26.9804C14.409 27.24 14.4012 27.5193 14.4 27.8182C14.4 28.7182 14.49 29.5571 14.67 30.3349C14.85 31.1127 15.165 31.9102 15.615 32.7273Z" fill="white"/>
</svg>
