<svg width="36" height="36" viewBox="0 0 36 36" fill="none" xmlns="http://www.w3.org/2000/svg">
<g filter="url(#filter0_ii_520_14992)">
<path fill-rule="evenodd" clip-rule="evenodd" d="M2.57143 0C1.88944 0 1.23539 0.270918 0.753154 0.753154C0.270918 1.23539 0 1.88944 0 2.57143L0 18C0 18.682 0.270918 19.336 0.753154 19.8183C1.23539 20.3005 1.88944 20.5714 2.57143 20.5714H12.8571C13.5391 20.5714 14.1932 20.3005 14.6754 19.8183C15.1577 19.336 15.4286 18.682 15.4286 18V2.57143C15.4286 1.88944 15.1577 1.23539 14.6754 0.753154C14.1932 0.270918 13.5391 0 12.8571 0L2.57143 0ZM20.5714 2.57143C20.5714 1.88944 20.8423 1.23539 21.3246 0.753154C21.8068 0.270918 22.4609 0 23.1429 0L33.4286 0C34.1106 0 34.7646 0.270918 35.2468 0.753154C35.7291 1.23539 36 1.88944 36 2.57143V7.74C36 8.42198 35.7291 9.07604 35.2468 9.55827C34.7646 10.0405 34.1106 10.3114 33.4286 10.3114H23.1429C22.4609 10.3114 21.8068 10.0405 21.3246 9.55827C20.8423 9.07604 20.5714 8.42198 20.5714 7.74V2.57143ZM20.5714 18C20.5714 17.318 20.8423 16.664 21.3246 16.1817C21.8068 15.6995 22.4609 15.4286 23.1429 15.4286H33.4286C34.1106 15.4286 34.7646 15.6995 35.2468 16.1817C35.7291 16.664 36 17.318 36 18V33.4286C36 34.1106 35.7291 34.7646 35.2468 35.2468C34.7646 35.7291 34.1106 36 33.4286 36H23.1429C22.4609 36 21.8068 35.7291 21.3246 35.2468C20.8423 34.7646 20.5714 34.1106 20.5714 33.4286V18ZM0 28.26C0 27.578 0.270918 26.924 0.753154 26.4417C1.23539 25.9595 1.88944 25.6886 2.57143 25.6886H12.8571C13.5391 25.6886 14.1932 25.9595 14.6754 26.4417C15.1577 26.924 15.4286 27.578 15.4286 28.26V33.4286C15.4286 34.1106 15.1577 34.7646 14.6754 35.2468C14.1932 35.7291 13.5391 36 12.8571 36H2.57143C1.88944 36 1.23539 35.7291 0.753154 35.2468C0.270918 34.7646 0 34.1106 0 33.4286V28.26Z" fill="#CFD8DC"/>
<path fill-rule="evenodd" clip-rule="evenodd" d="M2.57143 0C1.88944 0 1.23539 0.270918 0.753154 0.753154C0.270918 1.23539 0 1.88944 0 2.57143L0 18C0 18.682 0.270918 19.336 0.753154 19.8183C1.23539 20.3005 1.88944 20.5714 2.57143 20.5714H12.8571C13.5391 20.5714 14.1932 20.3005 14.6754 19.8183C15.1577 19.336 15.4286 18.682 15.4286 18V2.57143C15.4286 1.88944 15.1577 1.23539 14.6754 0.753154C14.1932 0.270918 13.5391 0 12.8571 0L2.57143 0ZM20.5714 2.57143C20.5714 1.88944 20.8423 1.23539 21.3246 0.753154C21.8068 0.270918 22.4609 0 23.1429 0L33.4286 0C34.1106 0 34.7646 0.270918 35.2468 0.753154C35.7291 1.23539 36 1.88944 36 2.57143V7.74C36 8.42198 35.7291 9.07604 35.2468 9.55827C34.7646 10.0405 34.1106 10.3114 33.4286 10.3114H23.1429C22.4609 10.3114 21.8068 10.0405 21.3246 9.55827C20.8423 9.07604 20.5714 8.42198 20.5714 7.74V2.57143ZM20.5714 18C20.5714 17.318 20.8423 16.664 21.3246 16.1817C21.8068 15.6995 22.4609 15.4286 23.1429 15.4286H33.4286C34.1106 15.4286 34.7646 15.6995 35.2468 16.1817C35.7291 16.664 36 17.318 36 18V33.4286C36 34.1106 35.7291 34.7646 35.2468 35.2468C34.7646 35.7291 34.1106 36 33.4286 36H23.1429C22.4609 36 21.8068 35.7291 21.3246 35.2468C20.8423 34.7646 20.5714 34.1106 20.5714 33.4286V18ZM0 28.26C0 27.578 0.270918 26.924 0.753154 26.4417C1.23539 25.9595 1.88944 25.6886 2.57143 25.6886H12.8571C13.5391 25.6886 14.1932 25.9595 14.6754 26.4417C15.1577 26.924 15.4286 27.578 15.4286 28.26V33.4286C15.4286 34.1106 15.1577 34.7646 14.6754 35.2468C14.1932 35.7291 13.5391 36 12.8571 36H2.57143C1.88944 36 1.23539 35.7291 0.753154 35.2468C0.270918 34.7646 0 34.1106 0 33.4286V28.26Z" fill="#E6EEF8"/>
</g>
<defs>
<filter id="filter0_ii_520_14992" x="-4" y="-4" width="44" height="44" filterUnits="userSpaceOnUse" color-interpolation-filters="sRGB">
<feFlood flood-opacity="0" result="BackgroundImageFix"/>
<feBlend mode="normal" in="SourceGraphic" in2="BackgroundImageFix" result="shape"/>
<feColorMatrix in="SourceAlpha" type="matrix" values="0 0 0 0 0 0 0 0 0 0 0 0 0 0 0 0 0 0 127 0" result="hardAlpha"/>
<feOffset dx="4" dy="4"/>
<feGaussianBlur stdDeviation="6"/>
<feComposite in2="hardAlpha" operator="arithmetic" k2="-1" k3="1"/>
<feColorMatrix type="matrix" values="0 0 0 0 0.733333 0 0 0 0 0.764706 0 0 0 0 0.807843 0 0 0 0.6 0"/>
<feBlend mode="normal" in2="shape" result="effect1_innerShadow_520_14992"/>
<feColorMatrix in="SourceAlpha" type="matrix" values="0 0 0 0 0 0 0 0 0 0 0 0 0 0 0 0 0 0 127 0" result="hardAlpha"/>
<feOffset dx="-4" dy="-4"/>
<feGaussianBlur stdDeviation="6"/>
<feComposite in2="hardAlpha" operator="arithmetic" k2="-1" k3="1"/>
<feColorMatrix type="matrix" values="0 0 0 0 0.992157 0 0 0 0 1 0 0 0 0 1 0 0 0 0.8 0"/>
<feBlend mode="normal" in2="effect1_innerShadow_520_14992" result="effect2_innerShadow_520_14992"/>
</filter>
</defs>
</svg>
