<svg width="29" height="30" viewBox="0 0 29 30" fill="none" xmlns="http://www.w3.org/2000/svg">
<g filter="url(#filter0_ii_520_15022)">
<path d="M15.9015 0C13.5039 0 11.2046 0.869194 9.5093 2.41637C7.81399 3.96354 6.86158 6.06196 6.86158 8.25C6.86158 10.438 7.81399 12.5365 9.5093 14.0836C11.2046 15.6308 13.5039 16.5 15.9015 16.5C18.299 16.5 20.5983 15.6308 22.2936 14.0836C23.9889 12.5365 24.9414 10.438 24.9414 8.25C24.9414 6.06196 23.9889 3.96354 22.2936 2.41637C20.5983 0.869194 18.299 0 15.9015 0ZM15.9874 18C16.842 18 17.3392 19.0387 16.9425 19.7956C16.2587 21.1002 15.8987 22.5361 15.9015 24C15.9015 25.5069 16.2759 26.9333 16.9442 28.2067C17.3411 28.963 16.8443 30 15.9902 30H1.28711C0.734825 30 0.287109 29.5523 0.287109 29V27C0.287109 24.6131 1.32611 22.3239 3.17553 20.636C5.02496 18.9482 7.53333 18 10.1488 18H15.9874Z" fill="#CFD8DC"/>
<path d="M15.9015 0C13.5039 0 11.2046 0.869194 9.5093 2.41637C7.81399 3.96354 6.86158 6.06196 6.86158 8.25C6.86158 10.438 7.81399 12.5365 9.5093 14.0836C11.2046 15.6308 13.5039 16.5 15.9015 16.5C18.299 16.5 20.5983 15.6308 22.2936 14.0836C23.9889 12.5365 24.9414 10.438 24.9414 8.25C24.9414 6.06196 23.9889 3.96354 22.2936 2.41637C20.5983 0.869194 18.299 0 15.9015 0ZM15.9874 18C16.842 18 17.3392 19.0387 16.9425 19.7956C16.2587 21.1002 15.8987 22.5361 15.9015 24C15.9015 25.5069 16.2759 26.9333 16.9442 28.2067C17.3411 28.963 16.8443 30 15.9902 30H1.28711C0.734825 30 0.287109 29.5523 0.287109 29V27C0.287109 24.6131 1.32611 22.3239 3.17553 20.636C5.02496 18.9482 7.53333 18 10.1488 18H15.9874Z" fill="#E6EEF8"/>
</g>
<g filter="url(#filter1_ii_520_15022)">
<path d="M28.9464 24.8671L28.298 23.8375L28.6826 22.682C28.7082 22.6056 28.7067 22.5226 28.6783 22.4472C28.6499 22.3718 28.5963 22.3087 28.5268 22.2686L27.4776 21.6597L27.2847 20.4565C27.2717 20.3769 27.2319 20.3043 27.172 20.2509C27.112 20.1974 27.0356 20.1664 26.9556 20.163L25.7456 20.1153L25.0195 19.1399C24.9716 19.0752 24.9029 19.0294 24.8251 19.0101C24.7474 18.9908 24.6654 18.9993 24.5931 19.0342L23.5 19.5575L22.4065 19.0337C22.3341 18.9993 22.2522 18.9911 22.1745 19.0105C22.0968 19.0298 22.0282 19.0755 21.9801 19.1399L21.254 20.1153L20.0439 20.163C19.9639 20.166 19.8874 20.1968 19.8275 20.2503C19.7675 20.3037 19.7279 20.3765 19.7153 20.4561L19.5224 21.6593L18.4732 22.2682C18.4036 22.3082 18.35 22.3713 18.3215 22.4467C18.293 22.5221 18.2914 22.6051 18.317 22.6816L18.7016 23.8371L18.0536 24.8671C18.0109 24.9353 17.9928 25.0162 18.0026 25.0962C18.0123 25.1763 18.0492 25.2504 18.107 25.3062L18.9807 26.1498L18.8825 27.3641C18.876 27.4445 18.8972 27.5247 18.9427 27.5911C18.9881 27.6575 19.0549 27.706 19.1318 27.7285L20.2949 28.0659L20.7683 29.1878C20.7994 29.2622 20.8551 29.3234 20.926 29.3609C20.997 29.3985 21.0787 29.41 21.1571 29.3937L22.3437 29.1487L23.2802 29.9209C23.3438 29.9729 23.4219 30 23.5 30C23.5781 30 23.6558 29.9729 23.7198 29.9209L24.6563 29.1487L25.8429 29.3937C26.0038 29.4281 26.1673 29.3408 26.2317 29.1878L26.7051 28.0659L27.8682 27.7285C27.9453 27.7063 28.0123 27.6578 28.0577 27.5913C28.1032 27.5249 28.1243 27.4446 28.1175 27.3641L28.0193 26.1498L28.893 25.3062C28.9508 25.2504 28.9877 25.1763 28.9974 25.0962C29.0072 25.0162 28.9891 24.9353 28.9464 24.8671ZM26.0085 23.1865L23.5794 26.8502C23.4876 26.9869 23.3455 27.0784 23.2042 27.0784C23.0629 27.0784 22.9058 26.9989 22.8055 26.8975L21.0222 25.0733C20.9636 25.0131 20.9307 24.9321 20.9307 24.8477C20.9307 24.7634 20.9636 24.6824 21.0222 24.6221L21.4623 24.1709C21.4911 24.1417 21.5254 24.1186 21.5632 24.1028C21.6009 24.087 21.6414 24.0788 21.6823 24.0788C21.7232 24.0788 21.7637 24.087 21.8015 24.1028C21.8392 24.1186 21.8735 24.1417 21.9024 24.1709L23.0629 25.3578L24.9768 22.471C24.9995 22.4366 25.0288 22.407 25.0629 22.3841C25.0971 22.3612 25.1354 22.3454 25.1757 22.3375C25.216 22.3297 25.2574 22.33 25.2976 22.3385C25.3378 22.3469 25.3759 22.3633 25.4096 22.3868L25.9257 22.7439C26.0678 22.8427 26.1045 23.0417 26.0085 23.1865Z" fill="white"/>
</g>
<defs>
<filter id="filter0_ii_520_15022" x="-3.71289" y="-4" width="32.6543" height="38" filterUnits="userSpaceOnUse" color-interpolation-filters="sRGB">
<feFlood flood-opacity="0" result="BackgroundImageFix"/>
<feBlend mode="normal" in="SourceGraphic" in2="BackgroundImageFix" result="shape"/>
<feColorMatrix in="SourceAlpha" type="matrix" values="0 0 0 0 0 0 0 0 0 0 0 0 0 0 0 0 0 0 127 0" result="hardAlpha"/>
<feOffset dx="4" dy="4"/>
<feGaussianBlur stdDeviation="6"/>
<feComposite in2="hardAlpha" operator="arithmetic" k2="-1" k3="1"/>
<feColorMatrix type="matrix" values="0 0 0 0 0.733333 0 0 0 0 0.764706 0 0 0 0 0.807843 0 0 0 0.6 0"/>
<feBlend mode="normal" in2="shape" result="effect1_innerShadow_520_15022"/>
<feColorMatrix in="SourceAlpha" type="matrix" values="0 0 0 0 0 0 0 0 0 0 0 0 0 0 0 0 0 0 127 0" result="hardAlpha"/>
<feOffset dx="-4" dy="-4"/>
<feGaussianBlur stdDeviation="6"/>
<feComposite in2="hardAlpha" operator="arithmetic" k2="-1" k3="1"/>
<feColorMatrix type="matrix" values="0 0 0 0 0.992157 0 0 0 0 1 0 0 0 0 1 0 0 0 0.8 0"/>
<feBlend mode="normal" in2="effect1_innerShadow_520_15022" result="effect2_innerShadow_520_15022"/>
</filter>
<filter id="filter1_ii_520_15022" x="14" y="15" width="19" height="19" filterUnits="userSpaceOnUse" color-interpolation-filters="sRGB">
<feFlood flood-opacity="0" result="BackgroundImageFix"/>
<feBlend mode="normal" in="SourceGraphic" in2="BackgroundImageFix" result="shape"/>
<feColorMatrix in="SourceAlpha" type="matrix" values="0 0 0 0 0 0 0 0 0 0 0 0 0 0 0 0 0 0 127 0" result="hardAlpha"/>
<feOffset dx="4" dy="4"/>
<feGaussianBlur stdDeviation="6"/>
<feComposite in2="hardAlpha" operator="arithmetic" k2="-1" k3="1"/>
<feColorMatrix type="matrix" values="0 0 0 0 0.733333 0 0 0 0 0.764706 0 0 0 0 0.807843 0 0 0 0.6 0"/>
<feBlend mode="normal" in2="shape" result="effect1_innerShadow_520_15022"/>
<feColorMatrix in="SourceAlpha" type="matrix" values="0 0 0 0 0 0 0 0 0 0 0 0 0 0 0 0 0 0 127 0" result="hardAlpha"/>
<feOffset dx="-4" dy="-4"/>
<feGaussianBlur stdDeviation="6"/>
<feComposite in2="hardAlpha" operator="arithmetic" k2="-1" k3="1"/>
<feColorMatrix type="matrix" values="0 0 0 0 0.992157 0 0 0 0 1 0 0 0 0 1 0 0 0 0.8 0"/>
<feBlend mode="normal" in2="effect1_innerShadow_520_15022" result="effect2_innerShadow_520_15022"/>
</filter>
</defs>
</svg>
