<svg width="36" height="36" viewBox="0 0 36 36" fill="none" xmlns="http://www.w3.org/2000/svg">
<g id="Huge-icon/communication/outline/call">
<path id="Rectangle 77" d="M31.5 28.5V26.0311C31.5 24.8044 30.7531 23.7013 29.6142 23.2457L26.563 22.0252C25.1143 21.4457 23.4633 22.0734 22.7655 23.469L22.5 24C22.5 24 18.75 23.25 15.75 20.25C12.75 17.25 12 13.5 12 13.5L12.531 13.2345C13.9266 12.5367 14.5543 10.8857 13.9748 9.43703L12.7543 6.38583C12.2987 5.24685 11.1956 4.5 9.9689 4.5H7.5C5.84315 4.5 4.5 5.84315 4.5 7.5C4.5 20.7548 15.2452 31.5 28.5 31.5C30.1569 31.5 31.5 30.1569 31.5 28.5Z" stroke="#28303F" stroke-width="1.5" stroke-linejoin="round"/>
</g>
</svg>
