<svg width="36" height="36" viewBox="0 0 36 36" fill="none" xmlns="http://www.w3.org/2000/svg">
<g id="Huge-icon/communication/outline/chatting">
<path id="Vector" d="M26.0589 12.2591C30.1478 14.0954 33 18.2417 33 23.0625V28.125C33 29.989 31.5076 31.5 29.6667 31.5H19.6667C15.3126 31.5 11.6085 28.6825 10.2357 24.75M26.0589 12.2591C25.0066 7.80848 21.0516 4.5 16.3333 4.5H14.6667C8.22335 4.5 3 9.78864 3 16.3125V21.375C3 23.239 4.49238 24.75 6.33333 24.75H10.2357M26.0589 12.2591C26.2383 13.0181 26.3333 13.8103 26.3333 14.625C26.3333 20.2169 21.8562 24.75 16.3333 24.75H10.2357" stroke="#28303F" stroke-width="1.5" stroke-linejoin="round"/>
</g>
</svg>
