<svg width="51" height="30" viewBox="0 0 51 30" fill="none" xmlns="http://www.w3.org/2000/svg">
<g id="Image [css-ducv57]">
<path id="Vector" fill-rule="evenodd" clip-rule="evenodd" d="M2.17773 15.039H5.01031V16.068H4.13471V17.792H7.32645V16.068H6.42562V15.039H9.30672V16.068H8.38066V21.139H9.30672V22.1428H6.42368V21.139H7.32451V18.7977H4.13277V21.141H5.00837V22.1447H2.17773V21.141H3.07857V16.0699H2.17773V15.039ZM36.054 15.039H41.8726V17.0212H40.8941V16.068H38.0615V17.7667H40.4805V18.7705H38.0615V21.139H40.8669V19.7742H41.8959V22.1428H36.0521V21.139H37.0053V16.0699H36.0521V15.039H36.054ZM10.6211 15.039H16.4648V17.0212H15.4611V16.068H12.6286V17.7667H15.0476V18.7705H12.6286V21.139H15.434V19.7742H16.4629V22.1428H10.6192V21.139H11.5724V16.0699H10.6192V15.039H10.6211ZM37.7528 14.0877H39.838L40.3524 14.7051H38.3198L37.7528 14.0877ZM47.5862 18.0774C46.866 17.8968 46.3768 17.9221 45.6293 17.6911C44.9847 17.46 44.8566 17.0737 44.8566 16.8154C44.8566 16.5319 45.14 15.837 46.169 15.837C47.1979 15.837 47.893 16.5319 47.9202 17.1241H48.9239V15.039H47.9454V15.503L47.9979 15.6311C47.9726 15.6311 47.9454 15.5535 47.8426 15.4758V15.4506C47.5591 15.1923 46.9669 14.8837 46.0913 14.8837C45.0352 14.8837 43.8004 15.5535 43.8004 16.8134C43.8004 18.0502 44.676 18.4618 45.4487 18.6675C46.1962 18.8734 46.5806 18.8734 47.2252 19.0539C47.8426 19.2093 48.2541 19.5937 48.2541 20.1606C48.2541 20.6751 47.9202 21.3701 46.5806 21.3701C45.2682 21.3701 44.7265 20.6498 44.5731 19.6461H43.6199V22.1428H44.5984V21.6788L44.5731 21.5506C44.5731 21.5506 44.5984 21.6283 44.7284 21.7059V21.7312C45.2177 22.1176 45.8875 22.3738 46.7107 22.3738C47.6639 22.3738 49.285 21.8846 49.285 20.1858C49.285 18.953 48.6424 18.386 47.5862 18.0774ZM33.7631 21.141V16.0699H34.7164V15.041H32.142L30.4181 19.2111L30.3928 19.417L30.3404 19.2111L28.6416 15.041H26.042V16.0699H26.9953V21.141H26.042V22.1447H28.9503V21.141H28.0495V16.1728L28.1272 16.4057L30.1093 21.1429H30.6762L32.6585 16.4057L32.7109 16.1476L32.7361 16.431V21.1429H31.8353V22.1467H34.7184V21.1429L33.7631 21.141ZM13.0149 12.3112H12.0364V12.053H12.7567C12.7839 12.1054 12.9372 12.2336 13.0149 12.3112ZM37.5995 12.3112C37.5995 12.2083 37.7024 12.1054 37.8305 12.053H38.3449V12.3112H37.5995ZM21.433 12.4918C20.9962 12.6976 20.4545 12.6723 20.0177 12.4918H14.8942C14.3991 12.6976 13.8439 12.6976 13.3488 12.4918H12.0364V12.981H38.3449V12.4918H21.433ZM15.2029 12.3112C15.2805 12.2588 15.4611 12.0802 15.4864 12.053H19.4508C19.5013 12.1307 19.6314 12.2588 19.709 12.3112H15.2029ZM20.738 12.1559C21.4078 12.1559 21.9728 11.589 21.9728 10.9211C21.9728 10.2261 21.4058 9.65918 20.738 9.65918C20.041 9.66115 19.478 10.2242 19.476 10.9211C19.476 11.589 20.0429 12.1559 20.738 12.1559V12.4142C19.8876 12.4142 19.2198 11.7443 19.2198 10.9211C19.2198 10.0708 19.8896 9.40292 20.738 9.40292C21.5611 9.40292 22.2309 10.0727 22.2309 10.9211C22.2309 11.7462 21.5631 12.4142 20.738 12.4142V12.1559ZM15.8203 10.7154C15.8203 9.78932 15.0476 9.0166 14.1215 9.0166C13.1683 9.0166 12.4227 9.78932 12.4227 10.7154C12.4227 11.6686 13.1702 12.4142 14.1215 12.4142C15.0476 12.4142 15.8203 11.6667 15.8203 10.7154H15.5369C15.5369 11.5133 14.8922 12.1579 14.1215 12.1579C13.3275 12.1598 12.681 11.5152 12.679 10.7212C12.679 10.7192 12.679 10.7173 12.679 10.7173C12.679 9.91938 13.3236 9.30198 14.1215 9.30198C14.902 9.30001 15.5349 9.93098 15.5369 10.7095C15.5369 10.7115 15.5369 10.7154 15.5369 10.7173H15.8203V10.7154Z" fill="#1B1B1B" fill-opacity="0.55"/>
<path id="Vector_2" fill-rule="evenodd" clip-rule="evenodd" d="M21.5353 11.7702L21.0209 11.178V11.1528C21.0461 11.1276 21.0461 11.1004 21.0713 11.0751L21.844 11.2809C21.8693 11.2809 21.9217 11.3062 21.9217 11.3315C21.9217 11.3062 21.9469 11.2033 21.9722 11.1509C21.9469 11.1761 21.8945 11.1761 21.844 11.1761L21.1238 10.9703C21.0985 10.9703 21.0985 10.9451 21.0985 10.9451V10.817L21.846 10.5335C21.846 10.5335 21.9236 10.5335 21.9236 10.5587C21.9236 10.5335 21.8712 10.4034 21.8712 10.3782C21.8712 10.4034 21.8187 10.4558 21.7936 10.4558L21.846 10.4306L21.0733 10.7141C21.0733 10.7393 21.0733 10.7141 21.048 10.7141C21.0461 10.6868 21.0247 10.6635 20.9956 10.6616C20.9956 10.6364 20.9704 10.6092 20.9956 10.6092L21.4072 9.96462C21.4324 9.93936 21.4848 9.91221 21.5101 9.91221C21.4848 9.91221 21.3819 9.83456 21.3295 9.8093C21.3548 9.8093 21.3548 9.88696 21.3295 9.91221L20.9179 10.5568H20.8674C20.8674 10.5568 20.815 10.5315 20.7898 10.5315C20.7898 10.5315 20.7646 10.5315 20.7646 10.5063L20.7394 9.76077C20.7394 9.70836 20.7394 9.65785 20.7918 9.65785H20.5859C20.6112 9.65785 20.6384 9.73551 20.6384 9.76077L20.6636 10.5063C20.6636 10.5315 20.6384 10.5315 20.6384 10.5315C20.6384 10.5315 20.5859 10.5568 20.5608 10.584C20.5608 10.584 20.5355 10.584 20.5355 10.5587L20.0423 9.96849C20.0171 9.94331 20.0171 9.89083 20.0171 9.86565C19.9919 9.89083 19.889 9.96849 19.8618 9.99374C19.887 9.99374 19.9395 10.019 19.9647 10.0461L20.454 10.6383V10.6635C20.4287 10.6635 20.4015 10.7159 20.4015 10.7412C20.4015 10.7412 20.3763 10.7665 20.3491 10.7665L19.6289 10.5606C19.5764 10.5355 19.5512 10.5082 19.5512 10.483C19.5512 10.5082 19.4987 10.6383 19.4987 10.6635C19.4987 10.6635 19.5764 10.6383 19.6016 10.6635L20.3219 10.8441C20.3472 10.8441 20.3472 10.8694 20.3472 10.8694V10.9975L19.6269 11.3062C19.6016 11.3062 19.5492 11.3315 19.5492 11.3062C19.5492 11.3315 19.5745 11.4343 19.5997 11.4868C19.5997 11.4615 19.6521 11.4091 19.6774 11.4091L20.3724 11.1004C20.3976 11.1004 20.3976 11.1256 20.3976 11.1256C20.4229 11.1256 20.45 11.1509 20.45 11.1761C20.4753 11.1761 20.4753 11.2013 20.4753 11.2013L20.0423 11.8478C20.0171 11.8731 19.9899 11.8983 19.9647 11.8983C19.9899 11.9236 20.0928 12.0013 20.12 12.0013C20.0948 12.0013 20.12 11.9236 20.12 11.8983L20.5568 11.2809C20.5568 11.2557 20.5821 11.2557 20.5821 11.2557C20.6073 11.2809 20.6345 11.2809 20.6597 11.2809C20.685 11.2809 20.685 11.2809 20.685 11.3062L20.7374 12.0789C20.7374 12.1041 20.7121 12.1566 20.685 12.1566H20.8908C20.8383 12.1566 20.8383 12.1061 20.8383 12.0537L20.7879 11.3062C20.7879 11.2809 20.8131 11.2809 20.8131 11.2809C20.8383 11.2809 20.8908 11.2557 20.916 11.2285C20.916 11.2285 20.9412 11.2285 20.9412 11.2538L21.4557 11.8207C21.4557 11.8459 21.481 11.8983 21.481 11.9236L21.6091 11.7954C21.5858 11.8226 21.5353 11.7702 21.5353 11.7702ZM14.0685 9.73748C14.7888 9.73748 15.511 9.81514 15.9226 9.94331C15.9731 9.94331 15.9731 9.99374 15.9226 10.021C15.4858 10.1238 14.7636 10.2015 14.0957 10.2015C13.4259 10.2267 12.7056 10.2015 12.2417 10.0986C12.1911 10.0986 12.1911 10.0461 12.2417 10.0461C12.6532 9.89083 13.3483 9.76274 14.0685 9.73748V9.60742C13.2958 9.63268 12.5232 9.81317 11.8805 10.0442C11.8029 10.0695 11.8029 10.1219 11.8805 10.1219C12.6008 10.3025 13.3483 10.3277 14.0938 10.3025C14.8141 10.2772 15.5867 10.2248 16.2818 10.019C16.3847 9.99374 16.3594 9.94134 16.307 9.94134C15.5809 9.72004 14.8257 9.60742 14.0666 9.60742V9.73748H14.0685Z" fill="#1B1B1B" fill-opacity="0.55"/>
<path id="Vector_3" fill-rule="evenodd" clip-rule="evenodd" d="M21.7148 9.27331C21.5342 9.32571 21.2256 9.42862 21.0702 9.42862C20.9421 9.42862 20.2975 9.40337 19.8607 9.42862C19.2686 9.45388 19.2162 9.53154 19.1909 9.48103C19.0627 9.27528 18.9599 8.96654 18.7541 8.78605C17.5445 8.99179 16.3603 8.81122 15.2789 8.4249V8.26959C15.3566 8.29484 15.4071 8.29484 15.4595 8.29484C15.2789 8.03661 14.9702 7.96093 14.7897 7.67744C14.6867 7.59978 14.6615 7.44641 14.5586 7.36875C14.5838 7.6522 14.3528 7.858 14.3276 8.08902C14.4829 8.14142 14.6887 8.14142 14.7644 8.11427C14.8673 8.08902 14.9954 8.11427 15.0479 8.19193C15.1255 8.21718 15.176 8.26959 15.2789 8.26959V8.4249C15.1507 8.39965 15.1236 8.3725 15.0207 8.32199C14.8926 8.37439 14.7897 8.34725 14.7373 8.29674C14.712 8.27156 14.4538 8.27156 14.3509 8.27156C14.017 8.27156 13.6558 8.39965 13.4753 8.68313C13.3977 8.83845 13.4228 9.01705 13.5005 9.14711C13.553 9.22477 13.784 9.55868 13.9373 9.6616L13.7316 9.714C13.4228 9.43059 13.1918 9.17434 13.2423 8.83845C13.3977 8.11814 14.0655 8.22105 14.2461 7.91239C14.3741 7.62891 14.4266 6.80573 14.2713 6.57469C13.8345 6.39414 13.2928 6.16311 13.1899 5.64862C13.1647 5.52048 13.2151 5.36517 13.3452 5.33993C13.5763 5.28945 13.7316 5.41759 13.9121 5.49524C13.9898 5.44282 13.8345 5.26421 14.015 5.26421C14.2461 5.26421 14.4014 5.72822 14.479 5.75346L14.4538 5.93401C14.2985 5.88354 13.7335 5.5729 13.6811 5.54766C13.5782 5.49524 13.4501 5.41953 13.3724 5.52242C13.2695 5.65056 13.3977 5.80588 13.4753 5.93401C14.6848 7.19596 16.6923 5.85635 18.0066 6.75719C18.0319 6.67953 18.0066 6.65429 17.9542 6.62906C17.0533 5.78064 15.6109 6.21747 14.4538 5.93401L14.479 5.75346C15.9215 6.11457 17.8261 5.52242 18.5716 7.16878C19.0608 7.86382 19.5753 8.97049 20.6314 8.99566C21.4818 9.02092 22.0468 8.687 22.4584 8.0696C23.0253 7.04064 23.3592 5.85636 24.3629 5.16131C24.4658 5.10889 24.5182 5.16131 24.4658 5.18655C23.9766 5.6758 23.5398 6.32036 23.3068 6.86009C23.6931 8.32783 24.5416 8.01917 24.7493 7.99194C24.6969 7.45223 24.7493 5.85636 25.9083 5.47001C26.5937 4.94193 27.5139 4.83321 28.3021 5.18655C27.4013 6.03691 26.8596 7.24644 26.681 8.09486L25.6773 8.37834C25.755 8.22302 25.755 7.96669 25.7297 7.68327C25.6268 7.73375 25.5239 7.8114 25.2929 7.94151C25.19 7.96669 25.2676 7.81334 25.2676 7.81334C25.2676 7.76287 25.5259 7.65803 25.7316 7.52989C25.654 6.93775 25.6035 6.16505 26.0928 5.6758C25.089 6.00973 25.3724 8.122 25.4754 8.37834C25.192 8.50643 24.8056 8.50643 24.8056 8.50643L24.7532 8.14537C24.3163 8.30068 23.5689 8.19777 23.235 7.0387C22.8719 7.78034 22.5632 8.96465 21.7148 9.27331ZM37.4172 6.13398C37.3648 6.08156 37.3396 6.05633 37.2891 6.05633C37.2638 6.03109 37.2891 6.00391 37.3143 6.00391C37.3396 5.97867 37.392 6.00391 37.4172 6.05633C37.4425 6.08156 37.4425 6.13398 37.4172 6.13398Z" fill="#1B1B1B" fill-opacity="0.55"/>
<path id="Vector_4" fill-rule="evenodd" clip-rule="evenodd" d="M14.3787 11.1024L14.9183 11.7198C14.9708 11.7722 14.9708 11.8479 14.9436 11.8751C15.0212 11.8499 15.1242 11.7198 15.1747 11.6693C15.1494 11.6946 15.0465 11.6946 15.0193 11.6441L14.4544 11.0248V10.9743L14.4796 10.949C14.4796 10.9238 14.5049 10.9238 14.5049 10.9238L15.3028 11.2072C15.3804 11.2577 15.4057 11.3102 15.4057 11.3354C15.4309 11.2849 15.4833 11.1296 15.5086 11.0772C15.4833 11.1024 15.4057 11.1296 15.3533 11.1024L14.5553 10.8189C14.53 10.8189 14.53 10.8189 14.53 10.7937V10.7413C14.53 10.716 14.5553 10.716 14.5553 10.716L15.3785 10.5879C15.4813 10.5627 15.5338 10.6132 15.5338 10.6384C15.5338 10.5879 15.5086 10.4074 15.5086 10.355C15.5086 10.3802 15.4562 10.4579 15.3533 10.4831L14.5553 10.6112C14.53 10.6112 14.53 10.586 14.53 10.586C14.5049 10.5607 14.5049 10.5336 14.4776 10.5083V10.4831L15.1222 9.9434C15.1998 9.89091 15.2775 9.89091 15.3028 9.91814C15.2523 9.86574 15.1474 9.73757 15.097 9.68706C15.1222 9.71232 15.097 9.78997 15.0445 9.86763L14.4272 10.3821C14.402 10.4074 14.402 10.4074 14.402 10.3821C14.3767 10.3821 14.3514 10.3821 14.3243 10.3569C14.3243 10.3569 14.299 10.3317 14.3243 10.3317L14.6077 9.53372C14.6271 9.47745 14.6776 9.43664 14.7359 9.4308C14.6835 9.40555 14.5049 9.32789 14.4524 9.32789C14.4776 9.32789 14.53 9.4308 14.5029 9.50846L14.2194 10.2812C14.2194 10.3064 14.1942 10.3064 14.1942 10.3064H14.1166L14.0913 10.2812L13.936 9.45803C13.936 9.35512 13.9884 9.30271 13.9884 9.30271C13.936 9.30271 13.7826 9.32789 13.7049 9.35512C13.7302 9.35512 13.8078 9.40752 13.8331 9.48321L13.9884 10.2812C13.9884 10.3064 13.9884 10.3064 13.9632 10.3336C13.9379 10.3336 13.9127 10.3588 13.8855 10.3588H13.8602L13.2953 9.74144C13.2429 9.66378 13.2429 9.58612 13.2701 9.58612C13.2177 9.61137 13.0895 9.71429 13.0642 9.76669C13.0895 9.76669 13.1672 9.76669 13.2196 9.8172L13.7865 10.4345V10.4598L13.734 10.5103H13.7089L12.9362 10.2268C12.8585 10.2015 12.808 10.1239 12.8332 10.0987C12.7808 10.1764 12.7556 10.3297 12.7303 10.3821C12.7556 10.3569 12.8332 10.3297 12.9109 10.3569L13.6836 10.6151V10.7433L12.8604 10.8986C12.7827 10.8986 12.7051 10.8481 12.7051 10.8209C12.7051 10.8986 12.7303 11.0791 12.7576 11.1296C12.7576 11.1043 12.7827 11.0267 12.8856 11.0015L13.6836 10.8462C13.6836 10.8462 13.7089 10.8462 13.7089 10.8713C13.7089 10.8966 13.7089 10.8966 13.734 10.9238V10.949L13.0915 11.4616C13.0138 11.5393 12.9362 11.514 12.9362 11.4869C12.9362 11.5645 13.0642 11.6926 13.0915 11.7179C13.0915 11.6926 13.0915 11.6149 13.1439 11.5625L13.8137 11.0481C13.8137 11.0228 13.8137 11.0228 13.8389 11.0481L13.8913 11.0986C13.9166 11.0986 13.9166 11.0986 13.9166 11.1237L13.6331 11.8965C13.6079 11.9741 13.5302 12.0246 13.505 11.9994C13.5574 12.0246 13.7108 12.1023 13.7884 12.1023C13.736 12.1023 13.7108 12.0246 13.736 11.947L14.0195 11.149C14.0195 11.149 14.0195 11.1237 14.0447 11.1237C14.0699 11.149 14.0952 11.149 14.1223 11.149C14.1223 11.149 14.1476 11.149 14.1476 11.1742L14.3029 11.9722C14.3029 12.0751 14.2505 12.1275 14.2252 12.1527C14.3029 12.1527 14.4563 12.1023 14.5087 12.0751C14.4835 12.1003 14.4058 12.0246 14.4058 11.9722L14.2505 11.149V11.1237C14.2758 11.1237 14.3029 11.0986 14.3282 11.0986C14.3514 11.0752 14.3514 11.0752 14.3787 11.1024ZM37.0567 6.23518C37.0314 6.20994 37.0567 6.1847 37.0567 6.15752C37.0819 6.07986 37.1072 6.07986 37.1072 6.0022C36.979 5.89931 36.9519 5.69351 37.0295 5.64109C37.1072 5.56343 37.3634 5.66633 37.3634 5.66633C37.5944 5.48578 37.6721 5.35764 37.8003 5.27998C37.9808 5.27998 38.34 5.61391 38.34 5.81971C38.2876 5.89737 38.1594 6.0255 37.9536 6.28372C38.0313 6.46427 38.0313 6.59241 37.9012 6.6953C37.8759 6.6953 37.8235 6.6953 37.7731 6.64289C37.7983 6.9011 38.0818 7.05447 38.1847 7.26027C38.1847 7.67186 38.6215 8.18638 38.1323 8.52218C38.0294 8.57467 37.9265 8.65035 37.8759 8.75327C37.9536 9.16484 38.107 9.60364 38.1847 10.0405L37.6955 10.0656C37.6449 10.221 37.4896 10.5025 37.5401 10.6578C37.5401 10.6578 37.5149 10.6326 37.5653 10.6578C37.643 10.7607 37.6682 11.6111 37.643 11.6868C37.643 11.7897 37.7206 11.7897 37.6682 11.9702C37.6158 11.9955 37.412 12.1256 37.3848 12.2012C37.2567 12.3294 36.8955 12.3566 36.8955 12.3042C36.8955 12.1761 37.1518 12.0208 37.2043 11.8673C37.2547 11.2499 37.2043 10.6306 36.8703 10.1433C36.7422 10.0656 36.6393 10.2715 36.5616 10.3744C36.6898 10.7607 36.9227 11.1723 36.8955 11.6091C36.8955 11.7373 37.0508 11.9178 36.9732 12.0984L36.5616 12.3042H35.0687C35.0182 12.2265 34.9133 12.1488 34.9405 12.0459H36.2782C36.2782 11.9935 36.4063 12.0208 36.5363 11.8149C36.5363 11.1975 35.8918 10.2967 35.9967 9.98799C36.1248 9.60167 36.3053 9.29301 36.5112 8.77852L36.614 8.75327C36.383 9.52598 36.0471 9.9123 36.0995 10.1433C36.1248 10.2715 36.1772 10.3744 36.2548 10.5297L36.3073 10.685C36.3325 10.7627 36.4102 10.9432 36.4626 10.9937C36.5403 10.9937 36.5907 10.9413 36.6431 10.916C36.6431 10.8131 36.5655 10.685 36.515 10.6074L36.3092 10.685L36.2568 10.5297C36.4121 10.5297 36.5131 10.4268 36.385 10.3491C36.746 10.1686 36.3073 10.221 36.4354 10.1433C36.6412 10.0405 36.7441 9.65407 36.7693 9.42307C36.7693 9.37067 36.7946 9.34541 36.847 9.34541C37.0023 9.75698 37.0023 10.2986 37.2586 10.683V10.8112C37.2334 10.9141 37.2586 11.0422 37.311 11.1199C37.542 11.1451 37.5168 11.0946 37.4663 10.8112C37.4158 10.8112 37.311 10.786 37.2605 10.8112V10.683C37.2858 10.6578 37.3887 10.683 37.4158 10.6578C37.3382 10.5297 37.3382 10.4268 37.3382 10.2967C37.3382 10.2191 37.3906 10.0656 37.4411 10.3996C37.5188 10.4248 37.6469 9.80749 37.6721 9.60167C37.1829 9.70458 37.6721 9.13769 37.311 9.11244L37.4916 8.8037C37.4916 8.70086 37.4139 8.6232 37.2858 8.67561L37.1829 8.54744C37.1052 8.52219 37.0275 8.39212 36.9266 8.31644C36.8489 8.3941 36.7208 8.54744 36.6956 8.65035C36.6704 8.67561 36.748 8.70086 36.7733 8.67561C36.8509 8.59795 36.9014 8.75327 37.0295 8.72604C37.0819 8.67561 37.2353 8.64838 37.1848 8.54555L37.2877 8.67363C37.1848 8.72414 37.1848 8.90472 37.1848 9.03478C37.0043 9.36869 37.0819 8.85421 36.8761 8.85421C36.748 8.93186 36.6956 8.72604 36.6198 8.75129L36.5169 8.77655C36.5169 8.59598 36.5422 8.39023 36.5169 8.1844C36.6722 7.30881 36.8509 7.33404 36.8781 7.07777C36.8781 6.97487 37.2644 6.76908 37.2392 6.66618C37.2644 6.66618 37.3169 6.74384 37.3169 6.76908C37.2916 6.89722 37.0334 6.89722 37.0605 7.18067C37.2159 6.89722 37.6527 6.92245 37.6779 6.58852C37.6003 6.38273 37.7808 6.51087 37.7808 6.30507C37.7303 6.25265 37.575 6.09928 37.5498 6.02162C37.5246 5.99638 37.6275 5.84106 37.2664 5.84106C37.2411 5.8663 37.2159 6.02162 37.1635 6.09928C37.1382 6.12452 37.0858 6.17694 37.111 6.20217C37.111 6.22741 37.1635 6.25265 37.1635 6.35749C37.1382 6.46039 37.1635 6.51281 37.2159 6.56329C37.4217 6.66618 37.577 6.56329 37.344 6.69142C37.344 6.71666 37.344 6.7419 37.3188 6.76908C37.3188 6.74384 37.2411 6.64094 37.2159 6.61376C37.1907 6.61376 37.0605 6.53611 37.0878 6.43321C37.1091 6.34002 37.1091 6.2876 37.0567 6.23518ZM30.1315 5.25863C30.1568 5.43918 30.0539 5.56732 30.0539 5.74787C30.2345 6.1847 30.0539 6.52057 30.1063 6.93216C29.9005 6.80403 29.85 6.46815 29.7724 6.10898C29.72 5.80029 29.7976 5.6974 29.8229 5.36152L30.1315 5.25863ZM29.5918 5.38676C29.5665 5.92649 29.4889 6.1847 29.8753 7.03506C28.8967 7.44665 28.0989 7.7301 26.9417 8.06405C27.0699 7.24085 27.8678 5.67021 28.5376 5.23145C29.1026 5.38676 29.5918 5.38676 29.5918 5.38676Z" fill="#1B1B1B" fill-opacity="0.55"/>
<path id="Vector_5" fill-rule="evenodd" clip-rule="evenodd" d="M27.0678 11.4367C26.8115 11.5144 26.8115 11.6677 26.9649 11.8231C27.0678 11.9007 27.1707 12.0289 27.1707 12.0541H25.5223C25.5223 12.1318 25.6 12.1822 25.6505 12.3123H34.7637C34.8161 12.1842 34.6608 12.0289 34.6084 11.8755C33.9638 11.6445 33.9638 11.0523 33.9386 10.3825C33.9386 10.3573 33.8861 10.2796 33.8861 10.1515C33.8085 10.0486 33.3716 8.99239 33.5775 8.14399L33.7328 7.86056C33.8609 7.68 33.7075 7.57711 33.8104 7.37131L35.715 7.0102C35.7402 6.98496 35.7402 6.9073 35.6898 6.88207C35.6898 6.85683 35.715 6.88207 35.6898 6.88207L33.8357 7.216C33.9385 6.75199 33.527 6.59861 33.7075 6.21226C33.9638 6.49571 34.6608 6.98496 35.02 7.06068L35.2005 7.03544C34.7365 6.82965 33.9133 6.3404 33.4493 5.69778C33.3969 5.69778 33.3464 5.64536 33.294 5.62012C33.294 5.6706 33.4221 5.82591 33.3969 5.85115C33.3969 5.85115 33.0882 6.05695 32.5213 5.79873C32.3408 6.15984 30.3333 7.06068 30.3333 7.06068C30.4109 7.62758 30.6672 7.98678 30.9507 8.29741C30.873 8.24493 30.9759 8.34784 30.9507 8.29741C31.3622 8.63133 31.8515 8.78664 32.3932 8.88956C32.4961 9.19822 32.8824 10.2019 32.9077 10.3573C32.9601 10.5126 33.0358 10.5126 33.0358 10.5126C33.0882 10.565 33.2668 10.899 33.2668 11.0271L33.3192 11.5668C33.3445 11.695 33.4998 11.592 33.5251 11.7221L33.4474 12.056H33.8337C33.628 11.8755 33.7561 11.5668 33.4998 11.4386C33.4746 11.13 33.4493 10.899 33.3192 10.7688C33.2163 10.4602 32.8824 9.63702 32.6747 8.88956L32.8029 8.70898C32.2359 8.8643 31.7991 8.65847 31.2846 8.37507C30.8983 8.1945 31.1293 8.34981 31.2594 8.27216C31.8767 8.55556 32.1874 8.4779 32.6494 8.42747C32.7018 8.50513 32.8048 8.58279 32.8048 8.71088L32.6767 8.89145C32.8048 8.76336 32.9077 8.83905 32.9853 9.20019C33.0882 9.50885 33.1911 9.73985 33.2688 9.99808C33.3716 10.2563 33.4493 10.5902 33.527 10.7708C33.527 10.7708 33.6046 10.7708 33.6551 10.8737C33.8357 11.4406 33.8861 11.5183 33.8609 11.7745C33.9134 11.9803 34.1949 11.7998 34.1696 12.058H27.3998C27.5026 11.6464 27.2716 11.2853 27.3998 10.899C27.1416 10.4873 26.4989 10.1787 26.6018 9.61176C26.9105 9.17493 27.9143 8.73613 27.6832 8.22165C28.6093 7.75766 29.0733 8.53039 29.9237 8.45273C30.2323 8.45273 30.5662 8.40025 30.8497 8.32456C30.4886 8.04108 30.1799 7.60429 30.0013 7.21794C28.1997 7.96342 26.4485 8.55556 24.5186 8.94196L24.3633 8.88956C24.1828 8.91473 21.2493 9.58453 21.3522 9.7127C20.2456 9.79036 18.9584 10.2524 18.6749 10.4078C18.5468 10.4854 18.5196 10.5358 18.6749 10.5883C19.8592 10.897 20.8377 10.666 22.6646 9.97093L22.5365 9.86802C22.4336 9.94568 20.9405 10.4602 20.3484 10.5378C19.7311 10.6155 19.1894 10.5902 18.9331 10.5126C18.8555 10.4873 18.8555 10.4873 18.9079 10.4621C20.0669 9.99808 22.3054 9.58651 22.6141 9.97283C22.7946 10.0253 22.9228 10.1281 23.0257 10.2563C23.1286 10.3845 23.3344 10.334 23.4897 10.3087C23.6955 10.2563 23.7208 10.0777 23.7208 9.89714L23.4897 9.87189C23.3868 9.87189 22.9752 9.92429 22.9228 9.9748C22.7675 9.84663 22.6141 9.71657 22.4083 9.66614C22.8199 9.48557 23.4897 9.33214 23.8508 9.305C23.5169 9.536 23.6702 9.81948 23.4897 9.87189L23.7208 9.89714C23.7208 9.79423 23.7207 9.71657 23.7732 9.66614C24.0042 9.09917 24.9827 9.02151 25.4719 8.89342C25.4719 8.89342 25.2137 9.22734 25.0351 9.305C24.9846 10.103 24.7012 10.7979 24.6487 11.5959C24.8798 11.5959 24.8798 11.8541 24.9322 12.0075C24.8545 12.1357 24.7516 12.0075 24.6487 12.0327C24.2876 11.8522 24.7264 11.5435 24.443 11.2853C24.5983 10.6407 24.8293 9.99808 24.8293 9.32828C24.7264 9.32828 24.7012 9.43119 24.6487 9.50885C24.571 10.1534 24.3905 10.7436 24.2371 11.3358C24.2876 11.3882 24.4177 11.4386 24.4177 11.5415C24.2119 11.6697 24.4177 11.9027 24.34 12.056H21.9967L21.7656 12.3143H25.3185L25.3438 12.1861C24.8293 11.6192 25.0098 10.7961 25.2661 10.1787L25.8835 9.35551C26.398 9.14968 26.7066 8.53228 27.2483 8.32653C27.2483 8.60994 26.9144 8.71285 26.7339 8.8662C26.528 9.30302 25.9359 9.35551 25.8582 9.84474C26.0893 10.103 26.4251 10.2816 26.7086 10.5145C26.9921 10.6951 26.9144 11.0814 27.1202 11.262C27.1726 11.3086 27.1202 11.4115 27.0678 11.4367Z" fill="#1B1B1B" fill-opacity="0.55"/>
<path id="Vector_6" fill-rule="evenodd" clip-rule="evenodd" d="M31.0079 2.14184C30.9049 2.29716 30.699 2.40005 30.8273 2.68156C30.5689 2.83688 30.6466 3.06791 30.7243 3.19605C30.5961 3.32419 30.5184 3.5824 30.699 3.73578C30.4932 3.96681 30.7515 4.1726 30.8273 4.25026C30.7243 4.4813 30.8273 4.66185 30.8273 4.66185C30.802 4.81717 30.5184 5.07344 30.4155 5.1511C30.2601 5.53745 30.3126 6.33539 30.3378 6.87511C31.0584 6.514 31.7808 6.18007 32.3461 5.69082C31.8566 5.35689 31.4701 4.55895 30.9302 4.60943C30.8777 4.04253 30.6466 3.03879 31.4449 2.00982C31.5478 1.9574 31.7013 1.93216 31.7789 1.88168C31.4449 1.83121 31.0059 2.037 30.6971 1.85645C30.699 1.86033 30.8544 2.1166 31.0079 2.14184Z" fill="#1B1B1B" fill-opacity="0.55"/>
<path id="Vector_7" fill-rule="evenodd" clip-rule="evenodd" d="M32.7335 1.88586C32.7335 1.91109 32.8364 1.96351 32.8364 1.96351C32.8364 1.96351 32.9393 1.93827 32.9393 1.91304C32.9393 1.8878 32.9646 1.81014 32.9393 1.7849C32.9141 1.7849 32.8364 1.75966 32.784 1.75966C32.784 1.75578 32.7335 1.86062 32.7335 1.88586L32.6811 1.93827L32.32 1.68006L32.3724 1.62764C32.3724 1.62764 32.5278 1.47233 32.6035 1.47233C32.6811 1.44709 33.0927 1.47233 33.1956 1.54998C33.2733 1.62764 33.3238 1.67812 33.4267 1.85868C33.7101 2.06447 34.1741 2.06447 34.4556 2.2955C34.4032 2.37316 34.5333 2.5013 34.4304 2.55372C34.3527 2.57896 34.1722 2.52848 34.1469 2.57896L34.1216 2.73427L34.0188 2.70903C34.0188 2.70903 34.0712 2.52848 34.0188 2.52848C33.9663 2.50324 33.8635 2.45082 33.813 2.47606C33.7877 2.5013 33.813 2.52848 33.8382 2.57896C33.8382 2.62943 33.9663 2.65661 34.044 2.62943L34.1469 2.65467L34.2751 2.67991C34.2227 2.80805 34.1974 2.86047 34.0168 2.80805C33.9644 2.93618 34.2478 3.03908 34.2751 3.0915C34.2498 3.14392 34.1974 3.1944 34.0168 3.0915C34.0168 3.0915 33.2694 3.81178 32.8326 4.01758C32.3686 4.22337 32.8073 3.91468 32.8073 3.91468C33.0131 3.83702 33.9139 3.06432 33.9139 2.9886C33.8887 2.93618 33.8363 2.83329 33.8363 2.75757C33.7082 2.70515 33.45 2.78281 33.347 2.86047C33.3994 3.0915 33.811 4.25055 33.5024 6.00175L33.4518 5.95127C33.7353 4.25249 33.2714 2.88765 33.2714 2.88765C33.015 2.99055 32.8345 2.91289 32.7044 2.94007C32.652 3.99622 33.5024 4.1496 33.1937 5.53968C32.2928 5.38436 31.6502 4.27773 31.1338 4.38063C31.1085 4.20007 30.928 3.89138 31.1085 3.78848C31.0581 3.63317 31.0056 3.42737 31.2367 3.29924C31.159 3.09344 31.1338 2.91289 31.3648 2.75951C31.3124 2.63138 31.3396 2.34792 31.6211 2.2955C31.6463 2.06447 31.7492 1.88391 31.955 1.80626C31.724 1.70336 31.6716 1.47233 31.6716 1.47233C31.8774 1.60046 32.058 1.67812 32.3666 1.62764L32.7335 1.88586ZM23.9796 21.1412L23.9543 19.6987C23.9543 19.2619 23.6709 18.7979 23.2845 18.5397C23.2068 18.5144 23.0788 18.462 22.9758 18.462C23.0788 18.462 23.2068 18.462 23.3369 18.4096C23.7233 18.229 24.1873 17.7398 24.1873 16.8914C24.1873 16.2468 23.929 15.7595 23.467 15.4236C23.0302 15.115 22.5409 15.0373 22.0245 15.0373H18.0601V16.0663H18.9609V21.1374H18.0601V22.1411H20.8927V21.1374H19.9919V18.9008H21.9488C22.6186 18.926 22.8749 19.3648 22.8749 19.724L22.9526 22.1431H24.8823V21.1393L23.9796 21.1412ZM22.1526 17.9223H19.9899V16.0682H22.0245C22.2555 16.0682 22.5138 16.0682 22.7196 16.1458C22.9777 16.274 23.2088 16.5574 23.2088 16.9943C23.2088 17.5379 22.7196 17.9223 22.1526 17.9223ZM17.699 24.667C18.625 24.667 19.0366 25.1814 19.0366 25.826C19.0366 26.4705 18.5998 26.9579 17.6213 26.9579H16.9515V28.7343H16.3594V24.667H17.699ZM16.9515 26.4434H17.6737C18.1105 26.4434 18.4193 26.2104 18.4193 25.7988C18.4193 25.4901 18.2387 25.1814 17.699 25.1814H16.9515V26.4434ZM23.6456 28.7343H23.0011L22.4866 27.5248H20.7102L20.2209 28.7343H19.5763L21.378 24.6417H21.7896L23.6456 28.7343ZM20.9432 26.985H22.2555L21.5605 25.3892L20.9432 26.985ZM30.4155 28.7343H29.8233V24.667H30.4155V28.7343ZM34.6634 25.5425C34.277 25.2338 33.9159 25.1309 33.6072 25.1309C33.2208 25.1309 32.9122 25.3115 32.9122 25.5949C32.9122 26.3929 34.8167 26.3676 34.8167 27.6801C34.8167 28.2975 34.3022 28.7615 33.58 28.7615C33.116 28.7615 32.7044 28.6585 32.3452 28.4023V27.6548C32.6792 28.0411 33.0927 28.247 33.5295 28.247C34.0188 28.247 34.2498 27.9635 34.2498 27.7325C34.2498 26.9093 32.3181 26.8045 32.3181 25.6998C32.3181 25.03 32.8597 24.6184 33.6557 24.6184C34.0168 24.6184 34.3255 24.6961 34.6595 24.9018L34.6634 25.5425ZM27.9187 28.245C27.8411 28.1422 27.7634 28.0393 27.6877 27.9111C27.3791 27.3966 27.1208 27.0355 26.7344 26.8045C27.1985 26.6239 27.4547 26.2647 27.4547 25.8007C27.4547 25.1057 26.9131 24.6688 26.0395 24.6688H24.9833V28.7362H25.6007V26.9598H25.8589C26.1676 26.9598 26.4258 27.0627 26.9655 27.8878L27.5324 28.7362H28.2275L27.9187 28.245ZM25.989 26.4434H25.6026V25.1562H25.989C26.5811 25.1562 26.8121 25.3872 26.8121 25.7736C26.8374 26.1094 26.6568 26.4434 25.989 26.4434Z" fill="#1B1B1B" fill-opacity="0.55"/>
</g>
</svg>
