<svg width="100" height="18" viewBox="0 0 100 18" fill="none" xmlns="http://www.w3.org/2000/svg">
<g id="Image [css-ducv57]" clip-path="url(#clip0_711_28809)">
<g id="Clip path group">
<mask id="mask0_711_28809" style="mask-type:luminance" maskUnits="userSpaceOnUse" x="1" y="0" width="99" height="18">
<g id="clip0_18993_26509">
<path id="Vector" d="M99.818 0.388672H1.31836V17.6112H99.818V0.388672Z" fill="white"/>
</g>
</mask>
<g mask="url(#mask0_711_28809)">
<g id="Group">
<path id="Vector_2" d="M14.0366 3.23701C14.0366 3.23701 12.1156 1.64724 9.66465 1.64724C9.66465 1.64724 6.75008 1.64724 4.69663 3.76694C4.69663 3.76694 2.64317 5.88663 2.64317 8.80121C2.64317 8.80121 2.64317 11.7158 4.69663 13.8355C4.69663 13.8355 6.75007 15.8889 9.66465 15.8889C9.66465 15.8889 12.1156 15.8889 14.0366 14.3654L14.9639 15.2928C14.9639 15.2928 12.6455 17.2138 9.66465 17.2138C9.66465 17.2138 6.22016 17.2138 3.76926 14.6966C3.76926 14.6966 1.31836 12.2457 1.31836 8.80121C1.31836 8.80121 1.31836 5.35671 3.76926 2.90581C3.76926 2.90581 6.22015 0.388672 9.66465 0.388672C9.66465 0.388672 12.6455 0.388672 14.9639 2.2434L14.0366 3.23701Z" fill="#1B1B1B" fill-opacity="0.55"/>
<path id="Vector_3" d="M20.7267 6.34961C18.4745 6.34961 16.8847 7.93938 16.8847 7.93938C15.2949 9.52916 15.2949 11.7814 15.2949 11.7814C15.2949 14.0335 16.8847 15.6233 16.8847 15.6233C18.4745 17.2131 20.7267 17.2131 20.7267 17.2131C23.31 17.2131 25.0323 15.0272 25.0323 15.0272V16.9481H26.2246V6.68082H25.0323V8.46931C23.3763 6.34961 20.7267 6.34961 20.7267 6.34961ZM20.7267 7.54194C22.4489 7.54194 23.7075 8.73427 23.7075 8.73427C24.9661 9.99284 24.9661 11.7814 24.9661 11.7814C24.9661 13.5036 23.7075 14.7622 23.7075 14.7622C22.4489 16.0208 20.7267 16.0208 20.7267 16.0208C18.9382 16.0208 17.7458 14.7622 17.7458 14.7622C16.4873 13.5036 16.4873 11.7814 16.4873 11.7814C16.4873 9.99284 17.7458 8.73427 17.7458 8.73427C18.9382 7.54194 20.7267 7.54194 20.7267 7.54194Z" fill="#1B1B1B" fill-opacity="0.55"/>
<path id="Vector_4" d="M43.3145 1.97861C43.3145 1.97861 42.5859 1.97861 42.5859 1.24997C42.5859 1.24997 42.5859 0.455078 43.3145 0.455078C43.3145 0.455078 44.1094 0.455078 44.1094 1.24997C44.1094 1.24997 44.1094 1.97861 43.3145 1.97861Z" fill="#1B1B1B" fill-opacity="0.55"/>
<path id="Vector_5" d="M29.8016 0.455078V16.949H28.543V0.455078H29.8016Z" fill="#1B1B1B" fill-opacity="0.55"/>
<path id="Vector_6" d="M36.0946 14.6967L39.7378 6.68164H41.0626L36.0946 17.6113L30.9941 6.68164H32.3851L36.0946 14.6967Z" fill="#1B1B1B" fill-opacity="0.55"/>
<path id="Vector_7" d="M47.3545 7.6754C47.3545 7.6754 48.3481 6.35059 50.269 6.35059C50.269 6.35059 51.9913 6.35059 53.1836 7.54291C53.1836 7.54291 54.376 8.73524 54.376 10.4575V16.9491H53.1836V10.4575C53.1836 10.4575 53.1836 9.19893 52.3225 8.3378C52.3225 8.3378 51.5276 7.47667 50.269 7.47667C50.269 7.47667 49.0767 7.47667 48.2156 8.27156C48.2156 8.27156 47.3545 9.13269 47.3545 10.4575V16.9491H46.1621V6.68179H47.3545V7.6754Z" fill="#1B1B1B" fill-opacity="0.55"/>
<path id="Vector_8" d="M43.911 6.68164V16.9489H42.7188V6.68164H43.911Z" fill="#1B1B1B" fill-opacity="0.55"/>
<path id="Vector_9" d="M70.2079 0.521319L63.6501 7.60905L70.1417 16.949H68.6181L62.789 8.53642L61.5967 9.79499V16.949H60.4043V0.455078H61.5967V7.94026L68.4857 0.521319H70.2079Z" fill="#1B1B1B" fill-opacity="0.55"/>
<path id="Vector_10" d="M73.2565 0.455078V16.949H71.998V0.455078H73.2565Z" fill="#1B1B1B" fill-opacity="0.55"/>
<path id="Vector_11" d="M80.6077 6.34961C78.3555 6.34961 76.7657 7.93938 76.7657 7.93938C75.2422 9.46292 75.2422 11.7814 75.2422 11.7814C75.2422 14.0335 76.7657 15.5571 76.7657 15.5571C78.3555 17.1468 80.6077 17.1468 80.6077 17.1468C84.0522 17.1468 85.5095 14.0998 85.5095 14.0998L84.4496 13.6361C83.2573 15.9545 80.6077 15.9545 80.6077 15.9545C78.8854 15.9545 77.6931 14.7622 77.6931 14.7622C76.4345 13.5699 76.4345 11.8476 76.4345 11.8476H86.0394V11.7814C86.0394 9.46292 84.4496 7.93938 84.4496 7.93938C82.8599 6.34961 80.6077 6.34961 80.6077 6.34961ZM80.6077 7.4757C82.065 7.4757 83.1911 8.40307 83.1911 8.40307C84.3172 9.26419 84.7146 10.589 84.7146 10.589H76.567C76.9645 9.26419 78.0243 8.40307 78.0243 8.40307C79.2166 7.4757 80.6077 7.4757 80.6077 7.4757Z" fill="#1B1B1B" fill-opacity="0.55"/>
<path id="Vector_12" d="M87.8945 1.24997C87.8945 1.24997 87.8945 0.455078 88.6231 0.455078C88.6231 0.455078 89.3517 0.455078 89.3517 1.24997C89.3517 1.24997 89.3517 1.97861 88.6231 1.97861C88.6231 1.97861 87.8945 1.97861 87.8945 1.24997Z" fill="#1B1B1B" fill-opacity="0.55"/>
<path id="Vector_13" d="M92.7957 6.68179V7.6754C92.7957 7.6754 93.7231 6.35059 95.7103 6.35059C95.7103 6.35059 97.4325 6.35059 98.6249 7.54291C98.6249 7.54291 99.8172 8.73524 99.8172 10.4575V16.9491H98.5586V10.4575C98.5586 10.4575 98.5586 9.19893 97.7637 8.3378C97.7637 8.3378 96.9026 7.47667 95.7103 7.47667C95.7103 7.47667 94.4517 7.47667 93.6568 8.27156C93.6568 8.27156 92.7957 9.13269 92.7957 10.4575V16.9491H91.5371V6.68179H92.7957Z" fill="#1B1B1B" fill-opacity="0.55"/>
<path id="Vector_14" d="M89.2196 6.68164V16.9489H88.0273V6.68164H89.2196Z" fill="#1B1B1B" fill-opacity="0.55"/>
</g>
</g>
</g>
</g>
<defs>
<clipPath id="clip0_711_28809">
<rect width="99" height="18" fill="white" transform="translate(0.984375)"/>
</clipPath>
</defs>
</svg>
