<svg width="107" height="26" viewBox="0 0 107 26" fill="none" xmlns="http://www.w3.org/2000/svg">
<g id="Image [css-ducv57]" clip-path="url(#clip0_711_28795)">
<g id="Clip path group">
<mask id="mask0_711_28795" style="mask-type:luminance" maskUnits="userSpaceOnUse" x="1" y="0" width="106" height="26">
<g id="clip0_18993_26525">
<path id="Vector" d="M106.051 0.078125H1.22656V25.9213H106.051V0.078125Z" fill="white"/>
</g>
</mask>
<g mask="url(#mask0_711_28795)">
<g id="Group">
<path id="Vector_2" d="M24.1477 0.078125H4.49294C2.67614 0.078125 1.22656 1.52448 1.22656 3.30199V22.6975C1.22656 24.475 2.69414 25.9214 4.49294 25.9214H24.1309C25.9477 25.9214 27.3974 24.475 27.3974 22.6975V3.31943C27.4154 1.52448 25.9477 0.078125 24.1477 0.078125ZM17.8057 4.81811C17.8057 4.34754 18.1909 3.96418 18.6793 3.96418C19.1689 3.96418 19.5529 4.34754 19.5529 4.81811V16.3369C19.5529 16.8075 19.1689 17.1908 18.6793 17.1908C18.1909 17.1908 17.8057 16.8075 17.8057 16.3369V4.81811ZM13.4557 4.38243C13.4557 3.91186 13.8397 3.5285 14.3293 3.5285C14.8189 3.5285 15.2029 3.91186 15.2029 4.38243V16.8771C15.2029 17.3477 14.8189 17.731 14.3293 17.731C13.8397 17.731 13.4557 17.3477 13.4557 16.8771V4.38243ZM9.08776 4.81811C9.08776 4.34754 9.47295 3.96418 9.96135 3.96418C10.451 3.96418 10.8349 4.34754 10.8349 4.81811V16.3369C10.8349 16.8075 10.451 17.1908 9.96135 17.1908C9.47295 17.1908 9.08776 16.8075 9.08776 16.3369V4.81811ZM4.72095 6.5433C4.72095 6.07273 5.10494 5.68937 5.59454 5.68937C6.08294 5.68937 6.46693 6.07273 6.46693 6.5433V14.298C6.46693 14.7686 6.08294 15.1519 5.59454 15.1519C5.10494 15.1519 4.72095 14.7686 4.72095 14.298V6.5433ZM23.6233 19.6827C23.4841 19.8047 20.2513 22.4709 14.3293 22.4709C8.40733 22.4709 5.17454 19.7873 5.03534 19.6827C4.66814 19.369 4.63334 18.8289 4.94774 18.4629C5.26214 18.097 5.80336 18.0621 6.17056 18.3758C6.22336 18.4107 9.10573 20.7632 14.3293 20.7632C19.6225 20.7632 22.4701 18.4107 22.4881 18.3932C22.8553 18.0795 23.3966 18.1318 23.711 18.4803C24.0254 18.8289 23.9905 19.3865 23.6233 19.6827ZM23.9209 14.298C23.9209 14.7686 23.537 15.1519 23.0474 15.1519C22.5578 15.1519 22.1738 14.7686 22.1738 14.298V6.5433C22.1738 6.07273 22.5578 5.68937 23.0474 5.68937C23.537 5.68937 23.9209 6.07273 23.9209 6.5433V14.298Z" fill="#1B1B1B" fill-opacity="0.55"/>
<path id="Vector_3" d="M37.5646 16.7365C37.5646 17.1721 37.2334 17.5207 36.7618 17.5207C36.307 17.5207 35.9746 17.1721 35.9746 16.7365V9.24315C35.9746 8.80758 36.307 8.45898 36.7786 8.45898C37.2334 8.45898 37.5646 8.80758 37.5646 9.24315V16.7365Z" fill="#1B1B1B" fill-opacity="0.55"/>
<path id="Vector_4" d="M47.8372 9.24496V16.0935C47.8372 17.0171 47.3476 17.5398 46.5448 17.5398H46.474C45.7228 17.5398 45.3736 17.1042 45.0424 16.4769L43.4344 13.375L42.0196 10.1685L42.0544 13.2704L42.0724 16.7382C42.0724 17.1738 41.74 17.5224 41.2684 17.5224C40.8136 17.5224 40.4824 17.1738 40.4824 16.7382V9.88971C40.4824 9.03578 40.9708 8.44336 41.8444 8.44336H41.9152C42.718 8.44336 43.0504 8.87893 43.3648 9.50635L44.9368 12.5908L46.282 15.588L46.2472 12.7128L46.2304 9.24496C46.2304 8.80928 46.5616 8.46068 47.0332 8.46068C47.5048 8.46068 47.8372 8.82672 47.8372 9.24496Z" fill="#1B1B1B" fill-opacity="0.55"/>
<path id="Vector_5" d="M54.1957 16.7365C54.1957 17.1722 53.8645 17.5207 53.3929 17.5207C52.9381 17.5207 52.6069 17.1722 52.6069 16.7365V9.9578H50.6317C50.2297 9.9578 49.8984 9.66153 49.8984 9.2084C49.8984 8.77283 50.2297 8.47656 50.6317 8.47656H56.1709C56.5717 8.47656 56.9041 8.77283 56.9041 9.22584C56.9041 9.66153 56.5717 9.9578 56.1709 9.9578H54.1957V16.7365Z" fill="#1B1B1B" fill-opacity="0.55"/>
<path id="Vector_6" d="M58.9867 16.4754V9.43521C58.9867 8.77302 59.3527 8.40698 60.0343 8.42442H64.6111C65.0131 8.42442 65.3455 8.73814 65.3455 9.17382C65.3455 9.60939 65.0131 9.90566 64.6111 9.90566H60.5587V12.084H64.1227C64.5247 12.084 64.8391 12.3802 64.8391 12.7985C64.8391 13.2166 64.5247 13.5129 64.1227 13.5129H60.5587V16.0222H64.5943C64.9963 16.0222 65.3275 16.3359 65.3275 16.7716C65.3275 17.2073 64.9963 17.5035 64.5943 17.5035H59.9815C59.3359 17.5209 58.9507 17.155 58.9867 16.4754Z" fill="#1B1B1B" fill-opacity="0.55"/>
<path id="Vector_7" d="M74.3742 16.4929C74.5842 16.8588 74.445 17.3294 74.0082 17.5559C73.5714 17.765 73.0986 17.6081 72.8898 17.2422L71.1246 13.9835H69.4482L69.465 16.7543C69.465 17.19 69.1338 17.5385 68.661 17.5385C68.2074 17.5385 67.875 17.19 67.875 16.7543V9.45267C67.875 8.79048 68.2422 8.42456 68.9238 8.442H71.9106C73.9902 8.442 74.8458 9.78382 74.8458 11.1604C74.8458 12.4675 74.0778 13.4259 72.7674 13.6873L74.3742 16.4929ZM69.4302 12.5545H71.9466C72.8022 12.5545 73.239 12.0143 73.239 11.2302C73.239 10.4634 72.7674 9.92324 71.9286 9.92324H69.4302V12.5545Z" fill="#1B1B1B" fill-opacity="0.55"/>
<path id="Vector_8" d="M78.13 16.8425C77.1688 15.9886 76.75 14.6642 76.75 12.9913C76.75 11.3009 77.1688 9.99401 78.112 9.15752C78.6892 8.65218 79.4932 8.30371 80.6284 8.30371C81.6412 8.30371 82.4104 8.53021 82.9864 9.0181C83.494 9.41891 83.86 9.99401 84.088 10.7956C84.2092 11.2138 83.9128 11.6321 83.4232 11.7192C82.9696 11.7889 82.6024 11.5101 82.4632 11.0918C82.306 10.691 82.1128 10.3948 81.8692 10.1857C81.5368 9.88948 81.1348 9.7675 80.5936 9.7675C80.0164 9.7675 79.528 9.92436 79.1608 10.3077C78.6196 10.8479 78.3916 11.7889 78.3916 12.9913C78.3916 14.1763 78.6016 15.1348 79.1608 15.675C79.528 16.0409 80.0164 16.2152 80.5756 16.2152C81.1528 16.2152 81.6064 16.0583 81.9736 15.7272C82.1656 15.553 82.3228 15.3264 82.4452 15.0475C82.6024 14.6467 82.9516 14.3679 83.4064 14.4726C83.8432 14.5771 84.1228 15.0128 83.9824 15.431C83.7556 16.128 83.3536 16.6856 82.8292 17.069C82.2532 17.4872 81.5188 17.6964 80.6104 17.6964C79.4224 17.679 78.6892 17.3304 78.13 16.8425Z" fill="#1B1B1B" fill-opacity="0.55"/>
<path id="Vector_9" d="M85.8711 12.9913C85.8711 10.1508 87.0411 8.30371 89.8023 8.30371C92.5275 8.30371 93.7155 10.0985 93.7155 12.9913C93.7155 15.9189 92.5275 17.679 89.8023 17.679C87.0243 17.679 85.8711 15.9189 85.8711 12.9913ZM92.0907 12.9913C92.0907 10.8305 91.3047 9.78494 89.7843 9.78494C88.2999 9.78494 87.5127 10.8305 87.5127 12.9913C87.5127 15.1522 88.2819 16.1977 89.7843 16.1977C91.2867 16.1977 92.0907 15.1522 92.0907 12.9913Z" fill="#1B1B1B" fill-opacity="0.55"/>
<path id="Vector_10" d="M106.05 16.7368C106.05 17.1725 105.718 17.521 105.246 17.521C104.792 17.521 104.46 17.1725 104.46 16.7368V13.3386L104.495 10.0277L103.394 13.391L102.276 16.7019C102.084 17.277 101.7 17.521 101.192 17.521C100.669 17.521 100.284 17.277 100.092 16.7019L98.9387 13.4084L97.8911 10.0973L97.9259 13.3561V16.7542C97.9259 17.1898 97.5935 17.5384 97.1219 17.5384C96.6683 17.5384 96.3359 17.1898 96.3359 16.7542V9.97538C96.3359 9.03436 96.8423 8.49414 97.7339 8.49414C98.5727 8.49414 99.0443 8.92982 99.3059 9.74887L100.477 13.2167L101.192 15.5692L101.909 13.2167L103.08 9.74887C103.342 8.92982 103.796 8.49414 104.652 8.49414C105.544 8.49414 106.032 9.03436 106.032 9.97538L106.05 16.7368Z" fill="#1B1B1B" fill-opacity="0.55"/>
</g>
</g>
</g>
</g>
<defs>
<clipPath id="clip0_711_28795">
<rect width="106" height="26" fill="white" transform="translate(0.625)"/>
</clipPath>
</defs>
</svg>
