<svg width="36" height="36" viewBox="0 0 36 36" fill="none" xmlns="http://www.w3.org/2000/svg">
<g id="Huge-icon/business/outline/deal">
<path id="Vector" d="M23.3876 25.5499H30C31.6569 25.5499 33 24.0679 33 22.2399V12.8557C33 11.6019 32.358 10.4558 31.3416 9.89512L28.2669 8.19889C27.4337 7.73928 26.5151 7.5 25.5836 7.5H22.3837C20.561 7.5 18.8372 8.41415 17.6985 9.9845L17.6609 10.0364M17.6609 10.0364L14.7518 14.0485C14.0391 15.0314 14.1103 16.4483 14.9169 17.3383C15.7912 18.3029 17.2088 18.3029 18.0831 17.3383L20.2059 14.9961L23.6422 21.9469C24.5823 23.8486 23.6408 26.2177 21.7361 26.7431L16.4414 28.2035C14.5331 28.7299 12.5212 28.552 10.7133 27.6971L4.81824 24.9096C3.71519 24.3881 3 23.1914 3 21.8673V12.8557C3 11.6019 3.64201 10.4558 4.65836 9.89512L7.73313 8.19889C8.56626 7.73928 9.48494 7.5 10.4164 7.5H12.9382C14.7996 7.5 16.535 8.45104 17.6609 10.0364Z" stroke="#28303F" stroke-width="1.5" stroke-linecap="round" stroke-linejoin="round"/>
</g>
</svg>
