<svg width="41" height="41" viewBox="0 0 41 41" fill="none" xmlns="http://www.w3.org/2000/svg">
<g clip-path="url(#clip0_818_28969)">
<path d="M40.1562 20.3501C40.1562 9.3044 31.2019 0.350098 20.1562 0.350098C9.11055 0.350098 0.15625 9.3044 0.15625 20.3501C0.15625 31.3958 9.11055 40.3501 20.1562 40.3501C31.2019 40.3501 40.1562 31.3958 40.1562 20.3501Z" fill="white" fill-opacity="0.12"/>
<path d="M25.6562 10.3501H22.6562C21.3302 10.3501 20.0585 10.8769 19.1208 11.8146C18.1831 12.7523 17.6562 14.024 17.6562 15.3501V18.3501H14.6562V22.3501H17.6562V30.3501H21.6562V22.3501H24.6562L25.6562 18.3501H21.6562V15.3501C21.6562 15.0849 21.7617 14.8305 21.9492 14.643C22.1368 14.4555 22.391 14.3501 22.6562 14.3501H25.6562V10.3501Z" fill="white"/>
</g>
<defs>
<clipPath id="clip0_818_28969">
<rect width="40" height="40" fill="white" transform="translate(0.15625 0.350098)"/>
</clipPath>
</defs>
</svg>
