<svg width="64" height="64" viewBox="0 0 64 64" fill="none" xmlns="http://www.w3.org/2000/svg">
<rect width="64" height="64" rx="8" fill="#58A1FF"/>
<path d="M44 18.5H26C24.3431 18.5 23 19.8431 23 21.5V26C23 26.8284 22.3284 27.5 21.5 27.5C19.0147 27.5 17 29.5147 17 32C17 34.4853 19.0147 36.5 21.5 36.5C22.3284 36.5 23 37.1716 23 38V42.5C23 44.1569 24.3431 45.5 26 45.5H29C29.8284 45.5 30.5 44.8284 30.5 44C30.5 41.5147 32.5147 39.5 35 39.5C37.4853 39.5 39.5 41.5147 39.5 44C39.5 44.8284 40.1716 45.5 41 45.5H44C45.6569 45.5 47 44.1569 47 42.5V38C47 37.1716 46.3284 36.5 45.5 36.5C43.0147 36.5 41 34.4853 41 32C41 29.5147 43.0147 27.5 45.5 27.5C46.3284 27.5 47 26.8284 47 26V21.5C47 19.8431 45.6569 18.5 44 18.5Z" fill="white"/>
</svg>
