<svg width="64" height="64" viewBox="0 0 64 64" fill="none" xmlns="http://www.w3.org/2000/svg">
<rect width="64" height="64" rx="8" fill="#58A1FF"/>
<path fill-rule="evenodd" clip-rule="evenodd" d="M44 26C45.6569 26 47 24.6569 47 23C47 21.3431 45.6569 20 44 20C42.3431 20 41 21.3431 41 23C41 23.7529 41.2773 24.4409 41.7354 24.9677L32.2268 38.0084C32.152 38.0028 32.0763 38 32 38C31.3527 38 30.7533 38.205 30.2632 38.5536L22.9528 32.5332C22.9838 32.3602 23 32.182 23 32C23 30.3431 21.6569 29 20 29C18.3431 29 17 30.3431 17 32C17 33.6569 18.3431 35 20 35C20.6472 35 21.2466 34.795 21.7367 34.4465L29.0472 40.467C29.0162 40.6399 29 40.8181 29 41C29 42.6569 30.3431 44 32 44C33.6569 44 35 42.6569 35 41C35 40.2472 34.7227 39.5592 34.2648 39.0325L43.7734 25.9916C43.8482 25.9972 43.9238 26 44 26Z" fill="white"/>
</svg>
