<svg width="64" height="64" viewBox="0 0 64 64" fill="none" xmlns="http://www.w3.org/2000/svg">
<rect width="64" height="64" rx="8" fill="#58A1FF"/>
<path d="M17.7024 32.6668C17.3691 32.5302 17 32.7729 17 33.1331V41.5625C17 44.8762 19.6863 47.5625 23 47.5625H41C44.3137 47.5625 47 44.8762 47 41.5625V33.1331C47 32.7729 46.6309 32.5302 46.2976 32.6668C44.3492 33.4653 41.7924 34.3113 38.7554 34.863C37.6988 35.055 36.9326 35.963 36.4396 36.917C35.6915 38.3643 34.181 39.3536 32.4395 39.3536H31.5604C29.8189 39.3536 28.3084 38.3643 27.5603 36.917C27.0672 35.963 26.301 35.0549 25.2445 34.863C22.2076 34.3112 19.6508 33.4652 17.7024 32.6668Z" fill="white"/>
<path fill-rule="evenodd" clip-rule="evenodd" d="M41 23.5625H23C19.6863 23.5625 17 26.2488 17 29.5625C17 29.8881 17.1611 30.1903 17.4424 30.3544C18.7142 31.0964 22.6509 33.154 28.2473 33.8482V35.5337C28.2473 36.6383 29.1427 37.5337 30.2473 37.5337H33.7524C34.857 37.5337 35.7524 36.6383 35.7524 35.5337V33.8482C41.3489 33.1541 45.2858 31.0964 46.5576 30.3544C46.8389 30.1903 47 29.8881 47 29.5625C47 26.2488 44.3137 23.5625 41 23.5625ZM30.5127 32.704C30.4022 32.704 30.3127 32.7936 30.3127 32.904V34.8873C30.3127 35.3291 30.6709 35.6873 31.1127 35.6873H32.8872C33.329 35.6873 33.6872 35.3291 33.6872 34.8873V32.904C33.6872 32.7936 33.5976 32.704 33.4872 32.704H30.5127Z" fill="white"/>
<path fill-rule="evenodd" clip-rule="evenodd" d="M30.5 18.6875C28.636 18.6875 27.125 20.1985 27.125 22.0625V23.5625C27.125 24.1838 26.6213 24.6875 26 24.6875C25.3787 24.6875 24.875 24.1838 24.875 23.5625V22.0625C24.875 18.9559 27.3934 16.4375 30.5 16.4375H33.5C36.6066 16.4375 39.125 18.9559 39.125 22.0625V23.5625C39.125 24.1838 38.6213 24.6875 38 24.6875C37.3787 24.6875 36.875 24.1838 36.875 23.5625V22.0625C36.875 20.1985 35.364 18.6875 33.5 18.6875H30.5Z" fill="white"/>
</svg>
