<svg width="64" height="64" viewBox="0 0 64 64" fill="none" xmlns="http://www.w3.org/2000/svg">
<rect width="64" height="64" rx="8" fill="#58A1FF"/>
<path fill-rule="evenodd" clip-rule="evenodd" d="M28.1803 20.3905L45.0263 28.8084C47.6579 30.1234 47.6579 33.8766 45.0263 35.1916L28.1803 43.6095C25.1841 45.1067 21.9602 42.0279 23.3207 38.9686L25.7753 33.4492C25.8226 33.3428 25.8645 33.2346 25.9009 33.125L32 33.125C32.6213 33.125 33.125 32.6213 33.125 32C33.125 31.3787 32.6213 30.875 32 30.875L25.9009 30.875C25.8645 30.7654 25.8226 30.6572 25.7753 30.5508L23.3207 25.0314C21.9602 21.9721 25.1841 18.8933 28.1803 20.3905ZM15.875 29C15.875 28.3787 16.3787 27.875 17 27.875H20C20.6213 27.875 21.125 28.3787 21.125 29C21.125 29.6213 20.6213 30.125 20 30.125H17C16.3787 30.125 15.875 29.6213 15.875 29ZM17 33.875C16.3787 33.875 15.875 34.3787 15.875 35C15.875 35.6213 16.3787 36.125 17 36.125H20C20.6213 36.125 21.125 35.6213 21.125 35C21.125 34.3787 20.6213 33.875 20 33.875H17Z" fill="white"/>
</svg>
