<svg width="64" height="64" viewBox="0 0 64 64" fill="none" xmlns="http://www.w3.org/2000/svg">
<rect width="64" height="64" rx="8" fill="#58A1FF"/>
<path fill-rule="evenodd" clip-rule="evenodd" d="M18.625 17C17.5204 17 16.625 17.8954 16.625 19V27C16.625 28.1046 17.5204 29 18.625 29H29.625C30.7296 29 31.625 28.1046 31.625 27V19C31.625 17.8954 30.7296 17 29.625 17H18.625ZM33.625 35C32.5204 35 31.625 35.8954 31.625 37V45C31.625 46.1046 32.5204 47 33.625 47H44.625C45.7296 47 46.625 46.1046 46.625 45V37C46.625 35.8954 45.7296 35 44.625 35H33.625ZM44.5303 24.125L43.4508 25.2045C43.0115 25.6438 43.0115 26.3562 43.4508 26.7955C43.8902 27.2348 44.6025 27.2348 45.0418 26.7955L46.9812 24.8562C48.0063 23.831 48.0063 22.169 46.9812 21.1438L45.0418 19.2045C44.6025 18.7652 43.8902 18.7652 43.4508 19.2045C43.0115 19.6438 43.0115 20.3562 43.4508 20.7955L44.5303 21.875H37.625C37.0037 21.875 36.5 22.3787 36.5 23C36.5 23.6213 37.0037 24.125 37.625 24.125H44.5303ZM19.7992 43.2045L18.7197 42.125H25.625C26.2463 42.125 26.75 41.6213 26.75 41C26.75 40.3787 26.2463 39.875 25.625 39.875H18.7197L19.7992 38.7955C20.2385 38.3562 20.2385 37.6438 19.7992 37.2045C19.3598 36.7652 18.6475 36.7652 18.2082 37.2045L16.2688 39.1438C15.2437 40.169 15.2437 41.831 16.2688 42.8562L18.2082 44.7955C18.6475 45.2348 19.3598 45.2348 19.7992 44.7955C20.2385 44.3562 20.2385 43.6438 19.7992 43.2045Z" fill="white"/>
</svg>
