<svg width="64" height="64" viewBox="0 0 64 64" fill="none" xmlns="http://www.w3.org/2000/svg">
<rect width="64" height="64" rx="8" fill="#58A1FF"/>
<path fill-rule="evenodd" clip-rule="evenodd" d="M33.9952 15.2566C40.6835 16.1455 45.9795 21.4415 46.8685 28.1298C47.014 29.2247 46.1046 30.125 45 30.125H34C32.8954 30.125 32 29.2296 32 28.125V17.125C32 16.0205 32.9003 15.111 33.9952 15.2566ZM17 31.6251C17 24.4209 22.643 18.5347 29.75 18.1455V27.1251C29.75 30.0246 32.1005 32.3751 35 32.3751H43.9795C43.5903 39.4821 37.7042 45.1251 30.5 45.1251C23.0442 45.1251 17 39.0809 17 31.6251Z" fill="white"/>
</svg>
