<svg width="64" height="64" viewBox="0 0 64 64" fill="none" xmlns="http://www.w3.org/2000/svg">
<rect width="64" height="64" rx="8" fill="#58A1FF"/>
<path d="M27.6607 22.172C28.5577 19.547 32.1847 19.4675 33.2482 21.9335L33.3382 22.1735L34.5487 25.7135C34.8261 26.5253 35.2744 27.2683 35.8633 27.8921C36.4522 28.516 37.1681 29.0063 37.9627 29.33L38.2882 29.4515L41.8282 30.6605C44.4532 31.5575 44.5327 35.1845 42.0682 36.248L41.8282 36.338L38.2882 37.5485C37.476 37.8257 36.7328 38.2739 36.1087 38.8629C35.4845 39.4518 34.994 40.1678 34.6702 40.9625L34.5487 41.2865L33.3397 44.828C32.4427 47.453 28.8157 47.5325 27.7537 45.068L27.6607 44.828L26.4517 41.288C26.1744 40.4759 25.7262 39.7327 25.1373 39.1085C24.5483 38.4844 23.8323 37.9938 23.0377 37.67L22.7137 37.5485L19.1737 36.3395C16.5472 35.4425 16.4677 31.8155 18.9337 30.7535L19.1737 30.6605L22.7137 29.4515C23.5255 29.1741 24.2684 28.7258 24.8923 28.1369C25.5162 27.5479 26.0065 26.832 26.3302 26.0375L26.4517 25.7135L27.6607 22.172ZM42.5002 17C42.7808 17 43.0558 17.0787 43.2939 17.2272C43.532 17.3757 43.7237 17.588 43.8472 17.84L43.9192 18.0155L44.4442 19.5545L45.9847 20.0795C46.2659 20.175 46.5124 20.3519 46.693 20.5877C46.8736 20.8235 46.9801 21.1076 46.9991 21.404C47.018 21.7004 46.9486 21.9958 46.7995 22.2527C46.6504 22.5096 46.4284 22.7164 46.1617 22.847L45.9847 22.919L44.4457 23.444L43.9207 24.9845C43.8249 25.2656 43.6479 25.512 43.412 25.6925C43.1762 25.8729 42.892 25.9793 42.5956 25.9981C42.2992 26.0169 42.0039 25.9473 41.7471 25.7981C41.4903 25.6489 41.2836 25.4268 41.1532 25.16L41.0812 24.9845L40.5562 23.4455L39.0157 22.9205C38.7344 22.825 38.4879 22.6481 38.3073 22.4123C38.1267 22.1765 38.0202 21.8924 38.0012 21.596C37.9823 21.2996 38.0517 21.0042 38.2008 20.7473C38.3499 20.4904 38.5719 20.2836 38.8387 20.153L39.0157 20.081L40.5547 19.556L41.0797 18.0155C41.1808 17.7191 41.3722 17.4619 41.6269 17.2797C41.8817 17.0976 42.187 16.9998 42.5002 17Z" fill="white"/>
</svg>
