<svg width="64" height="64" viewBox="0 0 64 64" fill="none" xmlns="http://www.w3.org/2000/svg">
<rect width="64" height="64" rx="8" fill="#58A1FF"/>
<path fill-rule="evenodd" clip-rule="evenodd" d="M20.878 21.9431L30.3758 17.7219C31.4101 17.2622 32.5906 17.2622 33.6249 17.7219L43.1029 21.9343C44.5586 22.5813 45.5038 24.0347 45.4371 25.6263C44.9963 36.1508 42.2661 40.3682 34.0762 45.6942C32.8162 46.5136 31.1856 46.5117 29.9255 45.6925C21.7758 40.3943 18.9224 36.2538 18.5448 25.6044C18.4888 24.0234 19.4324 22.5856 20.878 21.9431ZM37.0648 29.4937C37.3375 29.182 37.306 28.7082 36.9942 28.4354C36.6825 28.1627 36.2087 28.1943 35.9359 28.506L31.316 33.7859C31.2279 33.8866 31.0762 33.9 30.9717 33.8165L27.9689 31.4142C27.6454 31.1555 27.1735 31.2079 26.9147 31.5313C26.6559 31.8548 26.7084 32.3268 27.0318 32.5855L30.0346 34.9878C30.7659 35.5728 31.8282 35.4784 32.4449 34.7736L37.0648 29.4937Z" fill="white"/>
</svg>
