<svg width="64" height="64" viewBox="0 0 64 64" fill="none" xmlns="http://www.w3.org/2000/svg">
<rect width="64" height="64" rx="8" fill="#58A1FF"/>
<path d="M46.4898 29.66L45.0198 35.93C43.7598 41.345 41.2698 43.535 36.5898 43.085C35.8398 43.025 35.0298 42.89 34.1598 42.68L31.6398 42.08C25.3848 40.595 23.4498 37.505 24.9198 31.235L26.3898 24.95C26.6898 23.675 27.0498 22.565 27.4998 21.65C29.2548 18.02 32.2398 17.045 37.2498 18.23L39.7548 18.815C46.0398 20.285 47.9598 23.39 46.4898 29.66Z" fill="white" stroke="white" stroke-width="1.5" stroke-linecap="round" stroke-linejoin="round"/>
<path d="M36.59 43.085C35.66 43.715 34.49 44.24 33.065 44.705L30.695 45.485C24.74 47.405 21.605 45.8 19.67 39.845L17.75 33.92C15.83 27.965 17.42 24.815 23.375 22.895L25.745 22.115C26.36 21.92 26.945 21.755 27.5 21.65C27.05 22.565 26.69 23.675 26.39 24.95L24.92 31.235C23.45 37.505 25.385 40.595 31.64 42.08L34.16 42.68C35.03 42.89 35.84 43.025 36.59 43.085Z" stroke="white" stroke-width="1.5" stroke-linecap="round" stroke-linejoin="round"/>
<path d="M32.96 26.795L40.235 28.64" stroke="#54577A" stroke-width="1.5" stroke-linecap="round" stroke-linejoin="round"/>
<path d="M31.4902 32.6L35.8402 33.71" stroke="#54577A" stroke-width="1.5" stroke-linecap="round" stroke-linejoin="round"/>
</svg>
