<svg width="18" height="25" viewBox="0 0 18 25" fill="none" xmlns="http://www.w3.org/2000/svg">
<g id="idea">
<path id="Combo shape" fill-rule="evenodd" clip-rule="evenodd" d="M13.6654 19.0835V19.5002C13.6654 22.0775 11.576 24.1668 8.9987 24.1668C6.42137 24.1668 4.33203 22.0775 4.33203 19.5002V19.0835H8.54775C8.67944 19.1628 8.83374 19.2085 8.9987 19.2085C9.16366 19.2085 9.31796 19.1628 9.44965 19.0835H13.6654ZM13.6654 17.5835V16.9204C13.6654 16.1576 14.0543 15.4592 14.6086 14.9351C16.183 13.4464 17.1654 11.338 17.1654 9.00016C17.1654 4.48984 13.509 0.833496 8.9987 0.833496C4.48837 0.833496 0.832031 4.48984 0.832031 9.00016C0.832031 11.338 1.81438 13.4464 3.38882 14.9351C3.94306 15.4592 4.33203 16.1576 4.33203 16.9204V17.5835H8.1237V11.6959L6.04665 9.61888C5.70494 9.27717 5.70494 8.72315 6.04665 8.38144C6.38836 8.03974 6.94237 8.03974 7.28408 8.38144L8.9987 10.0961L10.7133 8.38144C11.055 8.03974 11.609 8.03974 11.9508 8.38144C12.2925 8.72315 12.2925 9.27717 11.9508 9.61888L9.8737 11.6959V17.5835H13.6654Z" fill="#58A1FF" fill-opacity="0.59"/>
</g>
</svg>
