<svg width="41" height="41" viewBox="0 0 41 41" fill="none" xmlns="http://www.w3.org/2000/svg">
<g clip-path="url(#clip0_818_28972)">
<path d="M40.4844 20.3501C40.4844 9.3044 31.5301 0.350098 20.4844 0.350098C9.43868 0.350098 0.484375 9.3044 0.484375 20.3501C0.484375 31.3958 9.43868 40.3501 20.4844 40.3501C31.5301 40.3501 40.4844 31.3958 40.4844 20.3501Z" fill="white" fill-opacity="0.12"/>
<path d="M16.6517 20.3501C16.6517 18.2331 18.3674 16.5165 20.4844 16.5165C22.6014 16.5165 24.318 18.2331 24.318 20.3501C24.318 22.4671 22.6014 24.1837 20.4844 24.1837C18.3674 24.1837 16.6517 22.4671 16.6517 20.3501ZM14.5792 20.3501C14.5792 23.6115 17.2229 26.2552 20.4844 26.2552C23.7458 26.2552 26.3895 23.6115 26.3895 20.3501C26.3895 17.0887 23.7458 14.445 20.4844 14.445C17.2229 14.445 14.5792 17.0887 14.5792 20.3501ZM25.2432 14.2109C25.2432 14.9726 25.861 15.5913 26.6236 15.5913C27.3853 15.5913 28.004 14.9726 28.004 14.2109C28.004 13.4492 27.3862 12.8314 26.6236 12.8314C25.861 12.8314 25.2432 13.4492 25.2432 14.2109ZM15.8379 29.7108C14.7167 29.6597 14.1074 29.473 13.7023 29.3151C13.1654 29.1061 12.7827 28.8571 12.3796 28.4549C11.9773 28.0527 11.7275 27.67 11.5194 27.1331C11.3615 26.7281 11.1748 26.1187 11.1237 24.9975C11.0679 23.7852 11.0568 23.4211 11.0568 20.3501C11.0568 17.2791 11.0689 16.9159 11.1237 15.7027C11.1748 14.5815 11.3624 13.9731 11.5194 13.5671C11.7284 13.0302 11.9773 12.6475 12.3796 12.2444C12.7818 11.8421 13.1645 11.5923 13.7023 11.3842C14.1074 11.2263 14.7167 11.0396 15.8379 10.9885C17.0502 10.9327 17.4143 10.9216 20.4844 10.9216C23.5554 10.9216 23.9186 10.9337 25.1318 10.9885C26.253 11.0396 26.8614 11.2272 27.2673 11.3842C27.8042 11.5923 28.187 11.8421 28.5901 12.2444C28.9923 12.6466 29.2413 13.0302 29.4503 13.5671C29.6082 13.9722 29.7949 14.5815 29.846 15.7027C29.9017 16.9159 29.9129 17.2791 29.9129 20.3501C29.9129 23.4202 29.9017 23.7843 29.846 24.9975C29.7949 26.1187 29.6073 26.7281 29.4503 27.1331C29.2413 27.67 28.9923 28.0527 28.5901 28.4549C28.1879 28.8571 27.8042 29.1061 27.2673 29.3151C26.8623 29.473 26.253 29.6597 25.1318 29.7108C23.9195 29.7665 23.5554 29.7777 20.4844 29.7777C17.4143 29.7777 17.0502 29.7665 15.8379 29.7108ZM15.7432 8.91977C14.5189 8.9755 13.6828 9.16965 12.9518 9.4539C12.1956 9.74743 11.5547 10.1413 10.9147 10.7804C10.2756 11.4195 9.8817 12.0604 9.58816 12.8175C9.30391 13.5486 9.10977 14.3846 9.05404 15.6089C8.99737 16.8351 8.98438 17.2271 8.98438 20.3501C8.98438 23.4731 8.99737 23.8651 9.05404 25.0913C9.10977 26.3156 9.30391 27.1516 9.58816 27.8827C9.8817 28.6388 10.2746 29.2807 10.9147 29.9198C11.5538 30.5589 12.1947 30.9518 12.9518 31.2463C13.6838 31.5306 14.5189 31.7247 15.7432 31.7804C16.9703 31.8362 17.3614 31.8501 20.4844 31.8501C23.6083 31.8501 23.9994 31.8371 25.2256 31.7804C26.4499 31.7247 27.2859 31.5306 28.017 31.2463C28.7731 30.9518 29.4141 30.5589 30.0541 29.9198C30.6932 29.2807 31.0861 28.6388 31.3806 27.8827C31.6648 27.1516 31.8599 26.3156 31.9147 25.0913C31.9704 23.8642 31.9834 23.4731 31.9834 20.3501C31.9834 17.2271 31.9704 16.8351 31.9147 15.6089C31.859 14.3846 31.6648 13.5486 31.3806 12.8175C31.0861 12.0614 30.6932 11.4204 30.0541 10.7804C29.415 10.1413 28.7731 9.74743 28.0179 9.4539C27.2859 9.16965 26.4499 8.97458 25.2265 8.91977C24.0003 8.86403 23.6083 8.8501 20.4853 8.8501C17.3614 8.8501 16.9703 8.8631 15.7432 8.91977Z" fill="white"/>
</g>
<defs>
<clipPath id="clip0_818_28972">
<rect width="40" height="40" fill="white" transform="translate(0.484375 0.350098)"/>
</clipPath>
</defs>
</svg>
