<svg width="41" height="41" viewBox="0 0 41 41" fill="none" xmlns="http://www.w3.org/2000/svg">
<g clip-path="url(#clip0_818_28964)">
<path d="M40.8281 20.3501C40.8281 9.3044 31.8738 0.350098 20.8281 0.350098C9.78243 0.350098 0.828125 9.3044 0.828125 20.3501C0.828125 31.3958 9.78243 40.3501 20.8281 40.3501C31.8738 40.3501 40.8281 31.3958 40.8281 20.3501Z" fill="white" fill-opacity="0.12"/>
<path d="M24.8281 16.8501C26.4195 16.8501 27.9456 17.4822 29.0708 18.6075C30.196 19.7327 30.8282 21.2588 30.8282 22.8501V29.8502H26.8282V22.8501C26.8282 22.3197 26.6174 21.811 26.2424 21.4359C25.8673 21.0608 25.3586 20.8501 24.8281 20.8501C24.2977 20.8501 23.789 21.0608 23.4139 21.4359C23.0388 21.811 22.8281 22.3197 22.8281 22.8501V29.8502H18.8281V22.8501C18.8281 21.2588 19.4602 19.7327 20.5855 18.6075C21.7107 17.4822 23.2368 16.8501 24.8281 16.8501Z" fill="white"/>
<path d="M14.8281 17.8501H10.8281V29.8502H14.8281V17.8501Z" fill="white"/>
<path d="M12.8281 14.8506C13.9327 14.8506 14.8281 13.9552 14.8281 12.8506C14.8281 11.746 13.9327 10.8506 12.8281 10.8506C11.7235 10.8506 10.8281 11.746 10.8281 12.8506C10.8281 13.9552 11.7235 14.8506 12.8281 14.8506Z" fill="white"/>
</g>
<defs>
<clipPath id="clip0_818_28964">
<rect width="40" height="40" fill="white" transform="translate(0.828125 0.350098)"/>
</clipPath>
</defs>
</svg>
