<svg width="36" height="36" viewBox="0 0 36 36" fill="none" xmlns="http://www.w3.org/2000/svg">
<g id="Huge-icon/interface/outline/location 02">
<g id="Vector">
<path d="M5.97998 25.8462L6.67229 26.1346L5.97998 25.8462ZM4.72998 28.8462L5.42229 29.1346L4.72998 28.8462ZM31.2684 28.8462L30.5761 29.1346L31.2684 28.8462ZM30.0184 25.8462L30.7108 25.5577V25.5577L30.0184 25.8462ZM23.9992 23.25C23.585 23.25 23.2492 23.5858 23.2492 24C23.2492 24.4142 23.585 24.75 23.9992 24.75V23.25ZM11.9992 24.75C12.4134 24.75 12.7492 24.4142 12.7492 24C12.7492 23.5858 12.4134 23.25 11.9992 23.25V24.75ZM27.7492 13.6667C27.7492 16.3685 26.2235 19.5371 24.1462 22.0665C23.1167 23.32 21.9793 24.3816 20.8811 25.1236C19.7668 25.8765 18.7678 26.25 17.9992 26.25V27.75C19.1994 27.75 20.4973 27.1932 21.7208 26.3666C22.9605 25.529 24.202 24.3619 25.3054 23.0185C27.4937 20.3539 29.2492 16.8559 29.2492 13.6667H27.7492ZM17.9992 26.25C17.2307 26.25 16.2317 25.8765 15.1173 25.1236C14.0191 24.3816 12.8817 23.32 11.8522 22.0665C9.77494 19.5371 8.24921 16.3685 8.24921 13.6667H6.74921C6.74921 16.8559 8.50473 20.3539 10.6931 23.0185C11.7964 24.3619 13.0379 25.529 14.2776 26.3666C15.5011 27.1932 16.799 27.75 17.9992 27.75V26.25ZM8.24921 13.6667C8.24921 8.17866 12.6255 3.75 17.9992 3.75V2.25C11.7749 2.25 6.74921 7.37259 6.74921 13.6667H8.24921ZM17.9992 3.75C23.3729 3.75 27.7492 8.17866 27.7492 13.6667H29.2492C29.2492 7.37259 24.2235 2.25 17.9992 2.25V3.75ZM20.9992 13.5C20.9992 15.1569 19.6561 16.5 17.9992 16.5V18C20.4845 18 22.4992 15.9853 22.4992 13.5H20.9992ZM17.9992 16.5C16.3424 16.5 14.9992 15.1569 14.9992 13.5H13.4992C13.4992 15.9853 15.5139 18 17.9992 18V16.5ZM14.9992 13.5C14.9992 11.8431 16.3424 10.5 17.9992 10.5V9C15.5139 9 13.4992 11.0147 13.4992 13.5H14.9992ZM17.9992 10.5C19.6561 10.5 20.9992 11.8431 20.9992 13.5H22.4992C22.4992 11.0147 20.4845 9 17.9992 9V10.5ZM5.28767 25.5577L4.03767 28.5577L5.42229 29.1346L6.67229 26.1346L5.28767 25.5577ZM7.49921 33.75H28.4992V32.25H7.49921V33.75ZM31.9608 28.5577L30.7108 25.5577L29.3261 26.1346L30.5761 29.1346L31.9608 28.5577ZM27.2492 23.25H23.9992V24.75H27.2492V23.25ZM8.74921 24.75H11.9992V23.25H8.74921V24.75ZM30.7108 25.5577C30.1285 24.1603 28.7631 23.25 27.2492 23.25V24.75C28.1575 24.75 28.9768 25.2962 29.3261 26.1346L30.7108 25.5577ZM28.4992 33.75C31.1751 33.75 32.9899 31.0278 31.9608 28.5577L30.5761 29.1346C31.1937 30.6167 30.1048 32.25 28.4992 32.25V33.75ZM4.03767 28.5577C3.00847 31.0278 4.82329 33.75 7.49921 33.75V32.25C5.89366 32.25 4.80477 30.6167 5.42229 29.1346L4.03767 28.5577ZM6.67229 26.1346C7.02165 25.2962 7.84089 24.75 8.74921 24.75V23.25C7.23533 23.25 5.86993 24.1603 5.28767 25.5577L6.67229 26.1346Z" fill="#28303F"/>
</g>
</g>
</svg>
