<svg width="89" height="22" viewBox="0 0 89 22" fill="none" xmlns="http://www.w3.org/2000/svg">
<g id="Image [css-ducv57]">
<g id="Clip path group">
<mask id="mask0_711_28827" style="mask-type:luminance" maskUnits="userSpaceOnUse" x="1" y="0" width="87" height="22">
<g id="clip0_18993_26503">
<path id="Vector" d="M87.8945 0.499023H1.10547V21.5013H87.8945V0.499023Z" fill="white"/>
</g>
</mask>
<g mask="url(#mask0_711_28827)">
<g id="Group">
<path id="Vector_2" d="M71.5689 9.22745V16.0901C71.3941 18.8097 67.3955 18.8097 67.2207 16.0901V9.22745H63.4386V16.8334C63.4386 19.4021 66.1021 21.4846 69.3807 21.4846C72.6593 21.4846 75.3229 19.4021 75.3229 16.8334V9.22745H71.5689ZM83.8678 1.07031V21.0426H87.6708V1.07031H83.8678ZM77.4108 21.0426H81.2138V1.07031H77.4108V21.0426ZM58.785 10.6538C59.8384 9.70826 60.4457 8.36365 60.463 6.94925C60.4606 5.67384 59.9691 4.44913 59.0898 3.52568C58.195 2.52826 56.576 1.9687 54.4057 1.9687H47.9004V21.0426H56.3033C59.5193 20.9931 62.1196 18.5603 62.1196 15.58C62.1149 13.411 61.3507 11.8606 58.785 10.6538ZM55.5988 17.7198H51.9599V5.25745H54.4952C55.634 5.31054 56.5288 6.25666 56.5169 7.39665C56.5169 8.51279 55.6107 9.41655 54.4952 9.41416H53.1757V12.8419H55.5988C58.8637 12.8419 58.8637 17.7359 55.5988 17.7359V17.7198ZM14.3628 7.61559C14.3491 6.10991 13.737 4.67045 12.6597 3.61457C11.5859 2.55928 10.1333 1.97407 8.62648 1.98839H1.66602V21.0426H5.71296V5.25745H7.80862C9.22958 5.20853 10.4161 6.33361 10.4393 7.75577C10.3767 9.17853 9.18067 10.2911 7.75493 10.2457H6.81537V14.8063L10.842 21.0426H15.5845L9.99197 13.0847C12.5392 12.4923 14.3467 10.2302 14.3628 7.61559ZM21.4408 8.7341C17.9886 8.82717 15.2397 11.6512 15.2397 15.1022C15.2397 18.5562 17.9886 21.3796 21.4408 21.4739C24.0942 21.4739 26.1618 20.273 27.2314 18.3957L24.1389 16.9664C23.6915 17.8713 22.7609 18.4345 21.7545 18.4112C20.3771 18.4715 19.2151 17.4007 19.1638 16.0227V15.892H27.5476C27.5732 15.6379 27.5846 15.3849 27.5822 15.1278C27.6412 10.9938 24.9174 8.7341 21.4408 8.7341ZM19.15 13.723C19.0916 12.3992 20.1498 11.295 21.4754 11.295C22.7985 11.295 23.8562 12.3992 23.7989 13.723H19.15ZM42.7063 21.0426V1.07031H38.8986V10.5231C37.8869 9.50245 36.5094 8.92559 35.0724 8.91784C31.9405 8.91784 29.3819 11.7055 29.3819 15.1416C29.3819 18.5765 31.9328 21.3915 35.0724 21.3915C36.5244 21.3796 37.9083 20.7831 38.9165 19.7415V21.0837L42.7063 21.0426ZM36.1515 18.1243C34.6136 18.1243 33.3597 16.7564 33.3597 15.0694C33.3597 13.3829 34.6136 11.996 36.1515 11.996C37.6918 11.996 38.9475 13.3662 38.9475 15.0557C38.9475 16.7475 37.6966 18.1243 36.1515 18.1243Z" fill="#1B1B1B" fill-opacity="0.55"/>
</g>
</g>
</g>
</g>
</svg>
