<svg width="107" height="30" viewBox="0 0 107 30" fill="none" xmlns="http://www.w3.org/2000/svg">
<g id="Image [css-ducv57]">
<g id="Clip path group">
<mask id="mask0_711_28866" style="mask-type:luminance" maskUnits="userSpaceOnUse" x="1" y="0" width="105" height="30">
<g id="clip0_18951_2190">
<path id="Vector" d="M105.677 0.898438H1.59961V29.1017H105.677V0.898438Z" fill="white"/>
</g>
</mask>
<g mask="url(#mask0_711_28866)">
<g id="Group">
<path id="Vector_2" d="M26.0405 20.2241L26.0259 20.1777L35.2799 11.7059V7.62402H20.4334V11.7059H29.3013L29.3158 11.745L20.1523 20.2241V24.3061H35.4289V20.2241H26.0405Z" fill="#1B1B1B" fill-opacity="0.55"/>
<path id="Vector_3" d="M44.5411 7.23535C42.8286 7.23535 41.4329 7.49363 40.354 8.01019C39.3493 8.46036 38.5027 9.20208 37.9245 10.1391C37.3714 11.0824 37.024 12.1319 36.9053 13.2189L41.41 13.852C41.573 12.8922 41.899 12.2119 42.3877 11.811C42.9435 11.3918 43.6283 11.1799 44.3235 11.2122C45.2378 11.2122 45.9009 11.4566 46.3133 11.9454C46.7215 12.4343 46.9292 13.1114 46.9292 14.0035V14.4484H42.5979C40.3932 14.4484 38.8093 14.9372 37.8464 15.9149C36.8833 16.8926 36.4026 18.1832 36.4043 19.7866C36.4043 21.4292 36.8849 22.6513 37.8464 23.4529C38.8077 24.2547 40.0168 24.6532 41.4737 24.6482C43.2807 24.6482 44.6707 24.0266 45.6435 22.7833C46.218 22.0192 46.6282 21.1446 46.8485 20.2144H47.0123L47.6332 24.2962H51.7151V13.9595C51.7151 11.8232 51.1521 10.1685 50.0261 8.99524C48.9 7.822 47.0718 7.23535 44.5411 7.23535ZM45.9686 19.9773C45.3208 20.5174 44.4728 20.7863 43.4168 20.7863C42.5465 20.7863 41.942 20.634 41.6032 20.3292C41.4381 20.1851 41.3066 20.0063 41.2183 19.8057C41.13 19.605 41.0869 19.3874 41.0924 19.1682C41.0826 18.9615 41.1153 18.7551 41.1879 18.5613C41.2605 18.3676 41.3719 18.1907 41.5151 18.0414C41.67 17.8961 41.8527 17.7838 42.0524 17.7111C42.252 17.6384 42.4641 17.6069 42.6762 17.6186H46.9365V17.8996C46.9453 18.297 46.8624 18.691 46.6946 19.0512C46.5267 19.4114 46.2783 19.7283 45.9686 19.9773Z" fill="#1B1B1B" fill-opacity="0.55"/>
<path id="Vector_4" d="M76.3948 7.62402H71.5723V24.3084H76.3948V7.62402Z" fill="#1B1B1B" fill-opacity="0.55"/>
<path id="Vector_5" d="M104.867 7.62402C103.505 7.62402 102.431 8.10471 101.646 9.06614C101.082 9.75704 100.653 10.7779 100.36 12.1287H100.218L99.5874 7.62402H95.4688V24.3061H100.291V15.7511C100.291 14.6724 100.544 13.8454 101.049 13.2702C101.554 12.695 102.486 12.4074 103.845 12.4074H105.676V7.62402H104.867Z" fill="#1B1B1B" fill-opacity="0.55"/>
<path id="Vector_6" d="M90.6872 8.16914C89.5613 7.49943 88.1412 7.16538 86.4269 7.167C83.7286 7.167 81.6166 7.93532 80.0915 9.47194C78.5661 11.0085 77.8037 13.1269 77.8037 15.827C77.7647 17.4594 78.1211 19.077 78.8424 20.5419C79.5026 21.8473 80.5309 22.9308 81.8 23.6583C83.0775 24.3966 84.597 24.7665 86.3584 24.7679C87.8821 24.7679 89.1547 24.5334 90.1764 24.0642C91.137 23.6427 91.9734 22.982 92.606 22.1454C93.2084 21.324 93.6557 20.3996 93.9259 19.4176L89.7707 18.2541C89.5958 18.8927 89.259 19.4753 88.793 19.9455C88.3236 20.4148 87.5374 20.6495 86.4342 20.6495C85.1226 20.6495 84.1449 20.2739 83.5011 19.5227C83.0344 18.98 82.7411 18.2052 82.6114 17.2006H93.9896C94.036 16.7313 94.0603 16.3378 94.0603 16.02V14.9812C94.0878 13.5857 93.7995 12.202 93.2171 10.9336C92.6719 9.7781 91.79 8.81446 90.6872 8.16914ZM86.2876 11.1437C88.243 11.1437 89.3519 12.106 89.6141 14.0304H82.697C82.8069 13.3883 83.0729 12.7831 83.4719 12.2681C84.1058 11.5169 85.0443 11.1421 86.2876 11.1437Z" fill="#1B1B1B" fill-opacity="0.55"/>
<path id="Vector_7" d="M74.0362 0.900002C73.6733 0.887664 73.3118 0.948381 72.9729 1.07854C72.634 1.20871 72.3249 1.40566 72.0637 1.6577C71.8062 1.91216 71.6043 2.21738 71.4709 2.55399C71.3374 2.8906 71.2754 3.25125 71.2889 3.61308C71.2758 3.97725 71.3381 4.34019 71.4715 4.67925C71.6051 5.01833 71.807 5.32626 72.0647 5.58381C72.3226 5.84136 72.6307 6.04302 72.9698 6.17621C73.3091 6.30941 73.6721 6.37128 74.0362 6.35795C74.3979 6.37163 74.7589 6.30979 75.0954 6.17638C75.432 6.04299 75.7372 5.84094 75.9916 5.58312C76.2438 5.32263 76.4408 5.01384 76.5704 4.67527C76.7003 4.33671 76.7603 3.97542 76.7467 3.61308C76.7634 3.25289 76.7049 2.89318 76.5746 2.55692C76.4445 2.22066 76.2457 1.91524 75.9909 1.66016C75.7359 1.40508 75.4308 1.20595 75.0946 1.07548C74.7584 0.945021 74.3988 0.886091 74.0386 0.902449L74.0362 0.900002Z" fill="#1B1B1B" fill-opacity="0.55"/>
<path id="Vector_8" d="M64.0762 7.16699C62.4338 7.16699 61.1139 7.68271 60.1167 8.71418C59.3783 9.47842 58.8367 10.619 58.4912 12.1361H58.3371L57.7066 7.63138H53.5879V29.1017H58.4104V20.2584H58.5865C58.7337 20.848 58.94 21.4213 59.2024 21.9693C59.6104 22.8621 60.2794 23.6104 61.1212 24.1154C61.994 24.5916 62.9771 24.8287 63.9711 24.8023C65.9902 24.8023 67.5276 24.0161 68.5836 22.4435C69.6393 20.8711 70.1674 18.6769 70.1674 15.8612C70.1674 13.1415 69.6566 11.0126 68.6348 9.47436C67.6131 7.93612 66.0936 7.16699 64.0762 7.16699ZM64.5651 19.2562C64.0029 20.071 63.123 20.4784 61.9253 20.4784C61.4316 20.5011 60.9393 20.406 60.4897 20.2007C60.0398 19.9953 59.6456 19.6858 59.3394 19.2978C58.7152 18.514 58.404 17.441 58.4056 16.0787V15.7609C58.4056 14.3775 58.7168 13.3183 59.3394 12.5834C59.9618 11.8485 60.8238 11.4851 61.9253 11.4933C63.1443 11.4933 64.0298 11.8803 64.5822 12.6543C65.1346 13.4283 65.4109 14.5079 65.4109 15.8929C65.4142 17.3252 65.1338 18.4463 64.5699 19.2562H64.5651Z" fill="#1B1B1B" fill-opacity="0.55"/>
<path id="Vector_9" d="M18.2841 20.2246H1.59961V24.3115H18.2841V20.2246Z" fill="#1B1B1B" fill-opacity="0.55"/>
</g>
</g>
</g>
</g>
</svg>
