<svg width="16" height="16" viewBox="0 0 16 16" fill="none" xmlns="http://www.w3.org/2000/svg">
<path d="M15 13.1251C14.3787 13.1251 13.875 12.6214 13.875 12.0001V6.00012C13.875 5.76806 13.7828 5.5455 13.6187 5.3814C13.4546 5.21731 13.2321 5.12512 13 5.12512H11.875C10.2181 5.12512 8.875 3.78197 8.875 2.12512V2.00012C8.87493 1.84175 8.83189 1.68637 8.75045 1.55054C8.66901 1.41471 8.55223 1.30354 8.41257 1.22886C8.27291 1.15419 8.11561 1.11882 7.95742 1.12652C7.79924 1.13423 7.64612 1.18472 7.51438 1.27262L2.51437 4.60574C2.39456 4.68569 2.29632 4.79397 2.2284 4.92099C2.16048 5.04801 2.12496 5.18983 2.125 5.33387V12.0001C2.125 12.6214 1.62132 13.1251 1 13.1251C0.900544 13.1251 0.805161 13.1646 0.734835 13.235C0.664509 13.3053 0.625 13.4007 0.625 13.5001C0.625 13.5996 0.664509 13.695 0.734835 13.7653C0.805161 13.8356 0.900544 13.8751 1 13.8751H15C15.0995 13.8751 15.1948 13.8356 15.2652 13.7653C15.3355 13.695 15.375 13.5996 15.375 13.5001C15.375 13.4007 15.3355 13.3053 15.2652 13.235C15.1948 13.1646 15.0995 13.1251 15 13.1251ZM13 5.87512C13.0332 5.87512 13.0649 5.88829 13.0884 5.91173C13.1118 5.93517 13.125 5.96697 13.125 6.00012V11.0001C13.125 12.1737 12.1736 13.1251 11 13.1251C9.8264 13.1251 8.875 12.1737 8.875 11.0001V8.87512C8.875 7.21827 10.2181 5.87512 11.875 5.87512H13ZM2.875 5.33387C2.87504 5.31334 2.88013 5.29313 2.88983 5.27504C2.89954 5.25694 2.91355 5.24151 2.93062 5.23012L7.93062 1.89637C7.94943 1.88382 7.97129 1.87661 7.99387 1.8755C8.01646 1.87439 8.03892 1.87943 8.05886 1.89008C8.07881 1.90072 8.09549 1.91658 8.10714 1.93596C8.11878 1.95534 8.12496 1.97751 8.125 2.00012V10.5001C8.125 11.9499 6.94975 13.1251 5.5 13.1251C4.05025 13.1251 2.875 11.9499 2.875 10.5001V5.33387ZM6.875 7.00012V8.00012C6.875 8.09958 6.83549 8.19496 6.76516 8.26529C6.69484 8.33561 6.59946 8.37512 6.5 8.37512C6.40054 8.37512 6.30516 8.33561 6.23484 8.26529C6.16451 8.19496 6.125 8.09958 6.125 8.00012V7.00012C6.125 6.90066 6.16451 6.80528 6.23484 6.73495C6.30516 6.66463 6.40054 6.62512 6.5 6.62512C6.59946 6.62512 6.69484 6.66463 6.76516 6.73495C6.83549 6.80528 6.875 6.90066 6.875 7.00012ZM4.875 7.00012V8.00012C4.875 8.09958 4.83549 8.19496 4.76516 8.26529C4.69484 8.33561 4.59946 8.37512 4.5 8.37512C4.40054 8.37512 4.30516 8.33561 4.23484 8.26529C4.16451 8.19496 4.125 8.09958 4.125 8.00012V7.00012C4.125 6.90066 4.16451 6.80528 4.23484 6.73495C4.30516 6.66463 4.40054 6.62512 4.5 6.62512C4.59946 6.62512 4.69484 6.66463 4.76516 6.73495C4.83549 6.80528 4.875 6.90066 4.875 7.00012ZM4.875 10.5001V11.5001C4.875 11.5996 4.83549 11.695 4.76516 11.7653C4.69484 11.8356 4.59946 11.8751 4.5 11.8751C4.40054 11.8751 4.30516 11.8356 4.23484 11.7653C4.16451 11.695 4.125 11.5996 4.125 11.5001V10.5001C4.125 10.4007 4.16451 10.3053 4.23484 10.235C4.30516 10.1646 4.40054 10.1251 4.5 10.1251C4.59946 10.1251 4.69484 10.1646 4.76516 10.235C4.83549 10.3053 4.875 10.4007 4.875 10.5001ZM6.875 10.5001V11.5001C6.875 11.5996 6.83549 11.695 6.76516 11.7653C6.69484 11.8356 6.59946 11.8751 6.5 11.8751C6.40054 11.8751 6.30516 11.8356 6.23484 11.7653C6.16451 11.695 6.125 11.5996 6.125 11.5001V10.5001C6.125 10.4007 6.16451 10.3053 6.23484 10.235C6.30516 10.1646 6.40054 10.1251 6.5 10.1251C6.59946 10.1251 6.69484 10.1646 6.76516 10.235C6.83549 10.3053 6.875 10.4007 6.875 10.5001Z" fill="#858991"/>
</svg>
