<svg width="36" height="36" viewBox="0 0 36 36" fill="none" xmlns="http://www.w3.org/2000/svg">
<g id="Huge-icon/interface/solid/plugin">
<path id="Vector" d="M30 4.5H12C10.3431 4.5 9 5.84315 9 7.5V12C9 12.8284 8.32843 13.5 7.5 13.5C5.01472 13.5 3 15.5147 3 18C3 20.4853 5.01472 22.5 7.5 22.5C8.32843 22.5 9 23.1716 9 24V28.5C9 30.1569 10.3431 31.5 12 31.5H15C15.8284 31.5 16.5 30.8284 16.5 30C16.5 27.5147 18.5147 25.5 21 25.5C23.4853 25.5 25.5 27.5147 25.5 30C25.5 30.8284 26.1716 31.5 27 31.5H30C31.6569 31.5 33 30.1569 33 28.5V24C33 23.1716 32.3284 22.5 31.5 22.5C29.0147 22.5 27 20.4853 27 18C27 15.5147 29.0147 13.5 31.5 13.5C32.3284 13.5 33 12.8284 33 12V7.5C33 5.84315 31.6569 4.5 30 4.5Z" fill="white"/>
</g>
</svg>
