<svg width="25" height="26" viewBox="0 0 25 26" fill="none" xmlns="http://www.w3.org/2000/svg">
<path fill-rule="evenodd" clip-rule="evenodd" d="M13.4425 13.2938L24.2841 2.45221C24.6258 2.11051 24.6258 1.55649 24.2841 1.21478C23.9424 0.873069 23.3884 0.873069 23.0466 1.21478L19.6065 4.65496C17.5638 2.8965 14.9054 1.8335 11.9987 1.8335C5.55538 1.8335 0.332031 7.05684 0.332031 13.5002C0.332031 19.9435 5.55538 25.1668 11.9987 25.1668C18.442 25.1668 23.6654 19.9435 23.6654 13.5002C23.6654 11.1924 22.9953 9.04123 21.8392 7.23043L19.0599 10.0098C19.5809 11.0617 19.8737 12.2467 19.8737 13.5002C19.8737 17.8494 16.3479 21.3752 11.9987 21.3752C7.64946 21.3752 4.1237 17.8494 4.1237 13.5002C4.1237 9.15092 7.64946 5.62516 11.9987 5.62516C13.8581 5.62516 15.567 6.26958 16.9142 7.34725L15.6668 8.59458C14.6443 7.82877 13.3745 7.37516 11.9987 7.37516C8.61595 7.37516 5.8737 10.1174 5.8737 13.5002C5.8737 16.8829 8.61595 19.6252 11.9987 19.6252C15.3814 19.6252 18.1237 16.8829 18.1237 13.5002C18.1237 12.7392 17.9849 12.0106 17.7313 11.3383L15.1841 13.8855C14.9938 15.4757 13.6402 16.7085 11.9987 16.7085C10.2268 16.7085 8.79036 15.2721 8.79036 13.5002C8.79036 11.7282 10.2268 10.2918 11.9987 10.2918C12.5667 10.2918 13.1002 10.4394 13.563 10.6984L12.2051 12.0563C12.1377 12.0468 12.0688 12.0418 11.9987 12.0418C11.1933 12.0418 10.5404 12.6947 10.5404 13.5002C10.5404 14.3056 11.1933 14.9585 11.9987 14.9585C12.8041 14.9585 13.457 14.3056 13.457 13.5002C13.457 13.4301 13.4521 13.3612 13.4425 13.2938Z" fill="#58A1FF" fill-opacity="0.59"/>
</svg>
