<svg width="96" height="73" viewBox="0 0 96 73" fill="none" xmlns="http://www.w3.org/2000/svg">
<g clip-path="url(#clip0_2124_79)">
<path d="M21.5512 7.31249H15.4928C14.9104 7.31306 14.352 7.56563 13.9401 8.01474C13.5283 8.46385 13.2966 9.07281 13.2961 9.70796V16.8704C13.2187 16.8654 13.1412 16.8578 13.0649 16.8477C11.6296 16.6831 10.2651 16.0844 9.12509 15.1193C7.98511 14.1542 7.11505 12.8611 6.61299 11.3856C6.11093 9.91014 5.99685 8.31107 6.2836 6.76869C6.57035 5.2263 7.24653 3.80194 8.2359 2.6562C9.22528 1.51046 10.4885 0.688897 11.8832 0.284146C13.2778 -0.120606 14.7484 -0.0924509 16.1292 0.365437C17.5099 0.823326 18.7459 1.69274 19.6978 2.87565C20.6497 4.05856 21.2796 5.50792 21.5165 7.06033C21.5292 7.14354 21.5408 7.22802 21.5512 7.31249Z" fill="#F2F2F2"/>
<path d="M93.072 7.0603H15.4928C14.8491 7.06107 14.2319 7.34026 13.7767 7.83662C13.3216 8.33298 13.0655 9.00597 13.0648 9.70793V54.3393C13.0655 55.0413 13.3216 55.7143 13.7767 56.2106C14.2319 56.707 14.8491 56.9862 15.4928 56.9869H93.072C93.7157 56.9862 94.3329 56.707 94.7881 56.2106C95.2432 55.7143 95.4993 55.0413 95.5 54.3393V9.70793C95.4993 9.00597 95.2432 8.33298 94.7881 7.83662C94.3329 7.34026 93.7157 7.06107 93.072 7.0603ZM95.2687 54.3393C95.2682 54.9745 95.0366 55.5834 94.6247 56.0325C94.2129 56.4817 93.6544 56.7342 93.072 56.7348H15.4928C14.9103 56.7342 14.3519 56.4817 13.94 56.0325C13.5282 55.5834 13.2966 54.9745 13.2961 54.3393V9.70793C13.2966 9.07279 13.5282 8.46382 13.94 8.01471C14.3519 7.5656 14.9103 7.31303 15.4928 7.31246H93.072C93.6544 7.31303 94.2129 7.5656 94.6247 8.01471C95.0366 8.46382 95.2682 9.07279 95.2687 9.70793V54.3393Z" fill="#3F3D56"/>
<path d="M89.2567 14.2934H19.3082C19.2776 14.2934 19.2482 14.2801 19.2265 14.2564C19.2048 14.2328 19.1926 14.2007 19.1926 14.1673C19.1926 14.1338 19.2048 14.1018 19.2265 14.0781C19.2482 14.0545 19.2776 14.0412 19.3082 14.0412H89.2567C89.2874 14.0412 89.3168 14.0545 89.3385 14.0781C89.3602 14.1018 89.3723 14.1338 89.3723 14.1673C89.3723 14.2007 89.3602 14.2328 89.3385 14.2564C89.3168 14.2801 89.2874 14.2934 89.2567 14.2934Z" fill="#3F3D56"/>
<path d="M39.0788 51.5657C39.0481 51.5657 39.0187 51.5524 38.997 51.5287C38.9753 51.5051 38.9631 51.473 38.9631 51.4396V9.96012C38.9631 9.92668 38.9753 9.89462 38.997 9.87097C39.0187 9.84733 39.0481 9.83405 39.0788 9.83405C39.1094 9.83405 39.1388 9.84733 39.1605 9.87097C39.1822 9.89462 39.1944 9.92668 39.1944 9.96012V51.4396C39.1944 51.473 39.1822 51.5051 39.1605 51.5287C39.1388 51.5524 39.1094 51.5657 39.0788 51.5657Z" fill="#3F3D56"/>
<path d="M56.537 51.5657C56.5063 51.5657 56.4769 51.5524 56.4553 51.5287C56.4336 51.5051 56.4214 51.473 56.4214 51.4396V9.96012C56.4214 9.92668 56.4336 9.89462 56.4553 9.87097C56.4769 9.84733 56.5063 9.83405 56.537 9.83405C56.5677 9.83405 56.5971 9.84733 56.6188 9.87097C56.6404 9.89462 56.6526 9.92668 56.6526 9.96012V51.4396C56.6526 51.473 56.6404 51.5051 56.6188 51.5287C56.5971 51.5524 56.5677 51.5657 56.537 51.5657Z" fill="#3F3D56"/>
<path d="M73.9951 51.5657C73.9645 51.5657 73.9351 51.5524 73.9134 51.5287C73.8917 51.5051 73.8795 51.473 73.8795 51.4396V9.96012C73.8795 9.92668 73.8917 9.89462 73.9134 9.87097C73.9351 9.84733 73.9645 9.83405 73.9951 9.83405C74.0258 9.83405 74.0552 9.84733 74.0769 9.87097C74.0986 9.89462 74.1107 9.92668 74.1107 9.96012V51.4396C74.1107 51.473 74.0986 51.5051 74.0769 51.5287C74.0552 51.5524 74.0258 51.5657 73.9951 51.5657Z" fill="#3F3D56"/>
<path d="M27.8541 27.3068H23.6294C23.4915 27.3066 23.3592 27.2468 23.2617 27.1404C23.1641 27.034 23.1093 26.8898 23.1091 26.7394V21.303C23.1093 21.1526 23.1641 21.0084 23.2617 20.902C23.3592 20.7956 23.4915 20.7358 23.6294 20.7357H27.8541C27.992 20.7358 28.1243 20.7956 28.2218 20.902C28.3193 21.0084 28.3742 21.1526 28.3743 21.303V26.7394C28.3742 26.8898 28.3193 27.034 28.2218 27.1404C28.1243 27.2468 27.992 27.3066 27.8541 27.3068Z" fill="#4B93E7"/>
<path d="M33.8663 42.8143H29.6416C29.5037 42.8141 29.3714 42.7543 29.2739 42.6479C29.1764 42.5415 29.1215 42.3973 29.1213 42.2469V36.8105C29.1215 36.6601 29.1764 36.5159 29.2739 36.4095C29.3714 36.3032 29.5037 36.2433 29.6416 36.2432H33.8663C34.0042 36.2433 34.1365 36.3032 34.234 36.4095C34.3315 36.5159 34.3864 36.6601 34.3866 36.8105V42.2469C34.3864 42.3973 34.3315 42.5415 34.234 42.6479C34.1365 42.7543 34.0042 42.8141 33.8663 42.8143Z" fill="#4B93E7"/>
<path d="M47.5091 30.5848H43.2844C43.1465 30.5846 43.0142 30.5248 42.9167 30.4184C42.8192 30.312 42.7643 30.1678 42.7642 30.0174V24.581C42.7643 24.4306 42.8192 24.2864 42.9167 24.18C43.0142 24.0737 43.1465 24.0138 43.2844 24.0137H47.5091C47.647 24.0138 47.7793 24.0737 47.8768 24.18C47.9743 24.2864 48.0292 24.4306 48.0294 24.581V30.0174C48.0292 30.1678 47.9743 30.3121 47.8768 30.4184C47.7793 30.5248 47.647 30.5846 47.5091 30.5848Z" fill="#4B93E7"/>
<path d="M65.1985 24.6591H60.9739C60.836 24.6589 60.7037 24.5991 60.6062 24.4928C60.5086 24.3864 60.4538 24.2422 60.4536 24.0918V18.6554C60.4538 18.5049 60.5086 18.3607 60.6062 18.2544C60.7037 18.148 60.836 18.0882 60.9739 18.088H65.1985C65.3365 18.0882 65.4687 18.148 65.5663 18.2544C65.6638 18.3607 65.7187 18.5049 65.7188 18.6554V24.0918C65.7187 24.2422 65.6638 24.3864 65.5663 24.4928C65.4687 24.5991 65.3365 24.6589 65.1985 24.6591Z" fill="#4B93E7"/>
<path d="M81.5005 24.6591H77.2759C77.138 24.6589 77.0057 24.5991 76.9082 24.4928C76.8106 24.3864 76.7558 24.2422 76.7556 24.0918V18.6554C76.7558 18.5049 76.8106 18.3607 76.9082 18.2544C77.0057 18.148 77.138 18.0882 77.2759 18.088H81.5005C81.6385 18.0882 81.7707 18.148 81.8683 18.2544C81.9658 18.3607 82.0207 18.5049 82.0208 18.6554V24.0918C82.0207 24.2422 81.9658 24.3864 81.8683 24.4928C81.7707 24.5991 81.6385 24.6589 81.5005 24.6591Z" fill="#4B93E7"/>
<path d="M89.0157 26.1721H84.791C84.6531 26.1719 84.5208 26.1121 84.4233 26.0057C84.3258 25.8993 84.2709 25.7551 84.2708 25.6047V20.1683C84.2709 20.0179 84.3258 19.8737 84.4233 19.7673C84.5208 19.6609 84.6531 19.6011 84.791 19.601H89.0157C89.1536 19.6011 89.2859 19.6609 89.3834 19.7673C89.4809 19.8737 89.5358 20.0179 89.536 20.1683V25.6047C89.5358 25.7551 89.4809 25.8993 89.3834 26.0057C89.2859 26.1121 89.1536 26.1719 89.0157 26.1721Z" fill="#E6E6E6"/>
<path d="M85.6628 35.88H81.4381C81.3002 35.8798 81.1679 35.82 81.0704 35.7136C80.9729 35.6073 80.918 35.4631 80.9178 35.3127V29.8762C80.918 29.7258 80.9729 29.5816 81.0704 29.4753C81.1679 29.3689 81.3002 29.3091 81.4381 29.3089H85.6628C85.8007 29.3091 85.933 29.3689 86.0305 29.4753C86.128 29.5816 86.1829 29.7258 86.1831 29.8762V35.3127C86.1829 35.4631 86.128 35.6073 86.0305 35.7136C85.933 35.82 85.8007 35.8798 85.6628 35.88Z" fill="#E6E6E6"/>
<path d="M71.3262 33.8628H67.1016C66.9636 33.8626 66.8314 33.8028 66.7339 33.6964C66.6363 33.5901 66.5815 33.4459 66.5813 33.2954V27.859C66.5815 27.7086 66.6363 27.5644 66.7339 27.458C66.8314 27.3517 66.9636 27.2919 67.1016 27.2917H71.3262C71.4642 27.2919 71.5964 27.3517 71.694 27.458C71.7915 27.5644 71.8464 27.7086 71.8465 27.859V33.2954C71.8464 33.4459 71.7915 33.5901 71.694 33.6964C71.5964 33.8028 71.4642 33.8626 71.3262 33.8628Z" fill="#F7AC25"/>
<path d="M63.1174 35.88H58.8927C58.7548 35.8798 58.6225 35.82 58.525 35.7136C58.4275 35.6073 58.3726 35.4631 58.3724 35.3127V29.8762C58.3726 29.7258 58.4275 29.5816 58.525 29.4753C58.6225 29.3689 58.7548 29.3091 58.8927 29.3089H63.1174C63.2553 29.3091 63.3875 29.3689 63.4851 29.4753C63.5826 29.5816 63.6375 29.7258 63.6376 29.8762V35.3127C63.6375 35.4631 63.5826 35.6073 63.4851 35.7136C63.3875 35.82 63.2553 35.8798 63.1174 35.88Z" fill="#E6E6E6"/>
<path d="M45.4279 44.4533H41.2033C41.0653 44.4531 40.9331 44.3933 40.8355 44.2869C40.738 44.1806 40.6831 44.0364 40.683 43.886V38.4496C40.6831 38.2991 40.738 38.1549 40.8355 38.0486C40.9331 37.9422 41.0653 37.8824 41.2033 37.8822H45.4279C45.5659 37.8824 45.6981 37.9422 45.7956 38.0486C45.8932 38.1549 45.948 38.2991 45.9482 38.4496V43.886C45.948 44.0364 45.8932 44.1806 45.7956 44.2869C45.6981 44.3933 45.5659 44.4531 45.4279 44.4533Z" fill="#E6E6E6"/>
<path d="M24.0388 37.2669H19.8141C19.6762 37.2667 19.5439 37.2069 19.4464 37.1005C19.3488 36.9942 19.294 36.85 19.2938 36.6996V31.2631C19.294 31.1127 19.3488 30.9685 19.4464 30.8622C19.5439 30.7558 19.6762 30.696 19.8141 30.6958H24.0388C24.1767 30.696 24.3089 30.7558 24.4065 30.8622C24.504 30.9685 24.5589 31.1127 24.559 31.2631V36.6996C24.5589 36.85 24.504 36.9942 24.4065 37.1005C24.3089 37.2069 24.1767 37.2667 24.0388 37.2669Z" fill="#F7AC25"/>
<path d="M35.9473 27.3068H31.7227C31.5847 27.3066 31.4525 27.2468 31.3549 27.1404C31.2574 27.034 31.2025 26.8898 31.2024 26.7394V21.303C31.2025 21.1526 31.2574 21.0084 31.3549 20.902C31.4525 20.7956 31.5847 20.7358 31.7227 20.7357H35.9473C36.0853 20.7358 36.2175 20.7956 36.315 20.902C36.4126 21.0084 36.4675 21.1526 36.4676 21.303V26.7394C36.4675 26.8898 36.4126 27.034 36.315 27.1404C36.2175 27.2468 36.0853 27.3066 35.9473 27.3068Z" fill="#E6E6E6"/>
<path d="M32.4886 12.2295H25.8984C25.7757 12.2295 25.6581 12.1764 25.5714 12.0818C25.4846 11.9872 25.4359 11.8589 25.4359 11.7252C25.4359 11.5914 25.4846 11.4632 25.5714 11.3686C25.6581 11.274 25.7757 11.2209 25.8984 11.2209H32.4886C32.6112 11.2209 32.7289 11.274 32.8156 11.3686C32.9023 11.4632 32.951 11.5914 32.951 11.7252C32.951 11.8589 32.9023 11.9872 32.8156 12.0818C32.7289 12.1764 32.6112 12.2295 32.4886 12.2295Z" fill="#CCCCCC"/>
<path d="M51.1029 12.2295H44.5128C44.3901 12.2295 44.2725 12.1764 44.1857 12.0818C44.099 11.9872 44.0503 11.8589 44.0503 11.7252C44.0503 11.5914 44.099 11.4632 44.1857 11.3686C44.2725 11.274 44.3901 11.2209 44.5128 11.2209H51.1029C51.2256 11.2209 51.3432 11.274 51.43 11.3686C51.5167 11.4632 51.5654 11.5914 51.5654 11.7252C51.5654 11.8589 51.5167 11.9872 51.43 12.0818C51.3432 12.1764 51.2256 12.2295 51.1029 12.2295Z" fill="#CCCCCC"/>
<path d="M68.5612 12.2295H61.971C61.8484 12.2295 61.7307 12.1764 61.644 12.0818C61.5573 11.9872 61.5085 11.8589 61.5085 11.7252C61.5085 11.5914 61.5573 11.4632 61.644 11.3686C61.7307 11.274 61.8484 11.2209 61.971 11.2209H68.5612C68.6839 11.2209 68.8015 11.274 68.8882 11.3686C68.9749 11.4632 69.0237 11.5914 69.0237 11.7252C69.0237 11.8589 68.9749 11.9872 68.8882 12.0818C68.8015 12.1764 68.6839 12.2295 68.5612 12.2295Z" fill="#CCCCCC"/>
<path d="M84.8632 12.2295H78.273C78.1504 12.2295 78.0327 12.1764 77.946 12.0818C77.8593 11.9872 77.8105 11.8589 77.8105 11.7252C77.8105 11.5914 77.8593 11.4632 77.946 11.3686C78.0327 11.274 78.1504 11.2209 78.273 11.2209H84.8632C84.9859 11.2209 85.1035 11.274 85.1902 11.3686C85.2769 11.4632 85.3257 11.5914 85.3257 11.7252C85.3257 11.8589 85.2769 11.9872 85.1902 12.0818C85.1035 12.1764 84.9859 12.2295 84.8632 12.2295Z" fill="#CCCCCC"/>
<path d="M17.728 49.1565C17.5589 49.1384 17.3954 49.0801 17.2491 48.9857C17.1029 48.8913 16.9774 48.763 16.8815 48.61C16.7856 48.457 16.7216 48.2829 16.6941 48.1C16.6665 47.9171 16.6761 47.7299 16.7221 47.5514L13.7585 44.5431L15.3255 44.1096L18.2397 46.6871C18.5094 46.7913 18.7348 46.9997 18.873 47.273C19.0112 47.5462 19.0527 47.8652 18.9897 48.1696C18.9266 48.474 18.7633 48.7426 18.5308 48.9245C18.2983 49.1063 18.0126 49.1889 17.728 49.1565Z" fill="#FFB8B8"/>
<path d="M21.8203 71.3917H23.2378L23.9121 65.4297H21.8201L21.8203 71.3917Z" fill="#FFB8B8"/>
<path d="M25.9714 72.8268L21.5166 72.827L21.5165 70.9501L24.2502 70.95C24.7067 70.9499 25.1445 71.1477 25.4673 71.4996C25.7901 71.8516 25.9714 72.329 25.9714 72.8268Z" fill="#082777"/>
<path d="M12.1016 70.2756L13.4714 70.6733L15.5295 65.1012L13.5079 64.5144L12.1016 70.2756Z" fill="#FFB8B8"/>
<path d="M15.7745 72.8273L11.4696 71.5777L11.9123 69.764L14.554 70.5308C14.9951 70.6588 15.3715 70.9727 15.6004 71.4034C15.8293 71.834 15.892 72.3462 15.7745 72.8273Z" fill="#082777"/>
<path d="M23.6189 70.2629H21.456C21.3194 70.2634 21.1876 70.2082 21.0865 70.108C20.9853 70.0078 20.9222 69.87 20.9096 69.7217L19.5966 54.8532C19.587 54.7441 19.5429 54.6421 19.4719 54.5645C19.4009 54.487 19.3074 54.4388 19.2074 54.4282C19.1074 54.4175 19.0071 54.4451 18.9237 54.5062C18.8403 54.5673 18.779 54.6581 18.7502 54.763L14.9379 68.6567C14.8976 68.8043 14.8065 68.9293 14.6837 69.0056C14.561 69.0818 14.4159 69.1034 14.2789 69.0659L12.2668 68.5173C12.1966 68.4981 12.1305 68.4641 12.0724 68.417C12.0143 68.3699 11.9653 68.3107 11.9283 68.2429C11.8912 68.1751 11.8669 68.1 11.8565 68.0218C11.8462 67.9437 11.8502 67.8641 11.8682 67.7877C11.9011 67.6477 15.153 53.7895 15.1814 53.6471C15.9182 47.7255 16.7997 46.1387 17.2732 45.2863C17.3124 45.2158 17.3485 45.1509 17.3809 45.0896C17.4215 45.0128 17.6714 44.2518 17.8299 43.7576C17.8505 43.6772 17.8861 43.6024 17.9346 43.5377C17.9831 43.4731 18.0433 43.4202 18.1114 43.3822C20.1013 42.2725 22.4294 43.0407 23.0956 43.3025C23.206 43.345 23.3009 43.4253 23.3659 43.5314C25.3643 46.8184 24.3836 65.9091 24.1667 69.7027C24.1577 69.8545 24.0961 69.9968 23.9943 70.1008C23.8926 70.2049 23.7584 70.2628 23.6189 70.2629Z" fill="#082777"/>
<path d="M18.0373 32.6018C19.6056 32.6018 20.877 31.2154 20.877 29.5052C20.877 27.795 19.6056 26.4086 18.0373 26.4086C16.469 26.4086 15.1976 27.795 15.1976 29.5052C15.1976 31.2154 16.469 32.6018 18.0373 32.6018Z" fill="#FFB8B8"/>
<path d="M17.7364 44.3588L17.716 44.3373C17.6777 44.2969 13.8942 40.2549 14.3838 36.5174C14.5932 34.9188 15.7794 33.8973 17.8139 33.5633C18.5614 33.4423 19.3238 33.6195 19.961 34.0624C20.5982 34.5053 21.0674 35.1841 21.2824 35.974L23.2941 43.4737L17.7364 44.3588Z" fill="#CCCCCC"/>
<path d="M15.7999 47.2337L13.1039 44.3124C12.9195 44.1115 12.7857 43.8623 12.7153 43.5887C12.6448 43.315 12.6401 43.0263 12.7016 42.7501L14.0067 36.9608C14.0458 36.7873 14.1172 36.6244 14.2163 36.4822C14.3155 36.34 14.4403 36.2215 14.5832 36.134C14.726 36.0466 14.8838 35.992 15.0467 35.9737C15.2097 35.9554 15.3744 35.9738 15.5306 36.0277C15.8282 36.1324 16.0769 36.3593 16.2238 36.6603C16.3708 36.9614 16.4045 37.3131 16.3178 37.6408L14.9437 42.7338L17.1657 45.3357L15.7999 47.2337Z" fill="#CCCCCC"/>
<path d="M30.2603 37.2637C30.1891 37.432 30.0848 37.5811 29.9549 37.7007C29.8251 37.8203 29.6727 37.9073 29.5087 37.9558C29.3446 38.0042 29.1728 38.0128 29.0054 37.981C28.8379 37.9492 28.6789 37.8777 28.5395 37.7716L24.9404 39.8058L25.0995 38.0778L28.2902 35.9246C28.4691 35.6811 28.7238 35.5176 29.0058 35.4651C29.2879 35.4126 29.5779 35.4748 29.8207 35.6399C30.0636 35.805 30.2425 36.0614 30.3235 36.3607C30.4045 36.66 30.382 36.9813 30.2603 37.2637Z" fill="#FFB8B8"/>
<path d="M28.1466 38.55L24.638 40.2033C24.4045 40.3125 24.1491 40.3544 23.8965 40.3248C23.6438 40.2952 23.4024 40.1953 23.1954 40.0346L18.7339 36.5487C18.6007 36.4446 18.4886 36.3119 18.4044 36.1587C18.3201 36.0055 18.2656 35.835 18.2443 35.6579C18.2229 35.4808 18.235 35.3008 18.28 35.129C18.325 34.9573 18.4018 34.7974 18.5057 34.6593C18.7054 34.3968 18.991 34.2293 19.3019 34.1924C19.6129 34.1555 19.9248 34.2521 20.1716 34.4616L23.9972 37.7449L27.038 36.4621L28.1466 38.55Z" fill="#CCCCCC"/>
<path d="M18.5081 30.4974C18.8585 30.0188 19.5129 29.993 19.9941 29.6773C20.6245 29.2637 20.8851 28.3395 20.6819 27.5685C20.4788 26.7975 19.8798 26.1967 19.193 25.9093C18.5062 25.622 17.742 25.6184 17.0175 25.7573C15.9388 25.9641 14.8767 26.5132 14.2188 27.4681C13.5609 28.4229 13.3935 29.8214 13.9897 30.8233C14.2638 31.2838 14.6868 31.6639 14.7962 32.1997C14.9399 32.9031 14.4874 33.5816 14.0026 34.0714C13.4503 34.6295 12.8167 35.0969 12.3329 35.7259C11.849 36.355 11.5264 37.2144 11.7472 37.9994C11.9321 38.657 12.4704 39.1416 13.0607 39.3842C13.651 39.6269 14.2939 39.6619 14.9246 39.6754C15.5371 39.6884 16.1876 39.6722 16.7035 39.3121C17.2558 38.9266 17.5507 38.1953 17.5725 37.4806C17.5943 36.7659 17.3753 36.0657 17.0818 35.4262C16.9068 35.0451 16.7034 34.6757 16.5871 34.2688C16.4709 33.8618 16.4507 33.4001 16.6369 33.0253C16.8326 32.6314 17.2285 32.3938 17.6317 32.3074C17.6526 32.3029 17.6748 32.2989 17.698 32.2953C17.8127 32.2791 17.9232 32.2377 18.0228 32.1736C18.1224 32.1094 18.2091 32.024 18.2775 31.9223C18.3459 31.8206 18.3948 31.7048 18.421 31.582C18.4473 31.4592 18.4504 31.3318 18.4302 31.2076C18.3843 30.9284 18.3883 30.6612 18.5081 30.4974Z" fill="#082777"/>
<path d="M56.3696 71.5237H54.9521L54.2778 65.5618L56.3698 65.5619L56.3696 71.5237Z" fill="#A0616A"/>
<path d="M53.9397 71.082H56.6733V72.9589H52.2185C52.2185 72.7125 52.263 72.4684 52.3495 72.2407C52.436 72.013 52.5628 71.8061 52.7226 71.6318C52.8825 71.4575 53.0722 71.3192 53.281 71.2249C53.4898 71.1306 53.7137 71.082 53.9397 71.082Z" fill="#082777"/>
<path d="M66.6543 69.7728L65.3651 70.4149L62.48 65.2976L64.3829 64.3497L66.6543 69.7728Z" fill="#A0616A"/>
<path d="M64.2759 70.472L66.7625 69.2335L67.4776 70.9407L63.4254 72.959C63.3315 72.7348 63.279 72.4926 63.2709 72.2463C63.2629 72 63.2993 71.7544 63.3783 71.5234C63.4573 71.2925 63.5772 71.0808 63.7312 70.9004C63.8852 70.7199 64.0703 70.5744 64.2759 70.472Z" fill="#082777"/>
<path d="M62.5265 51.4215C62.6623 51.3101 62.7741 51.1675 62.8539 51.0039C62.9337 50.8402 62.9796 50.6595 62.9885 50.4744C62.9973 50.2893 62.9688 50.1044 62.905 49.9326C62.8412 49.7608 62.7436 49.6064 62.6192 49.4801L64.2854 45.3574L62.1686 45.7486L60.9108 49.6036C60.7302 49.8457 60.6374 50.1516 60.6498 50.4634C60.6622 50.7751 60.7791 51.0711 60.9782 51.2952C61.1774 51.5192 61.445 51.6559 61.7304 51.6792C62.0157 51.7025 62.299 51.6108 62.5265 51.4215Z" fill="#A0616A"/>
<path d="M56.2793 69.9517H54.9252C54.7939 69.9512 54.6676 69.8967 54.5714 69.7992C54.4752 69.7017 54.4163 69.5682 54.4063 69.4254L53.6679 47.9219C53.6624 47.8395 53.6735 47.7567 53.7003 47.6795C53.7272 47.6022 53.7692 47.5323 53.8235 47.4746C53.8777 47.4169 53.9428 47.3729 54.0143 47.3455C54.0858 47.3181 54.1619 47.3081 54.2373 47.3161L62.0686 48.223C62.1956 48.2366 62.3135 48.3005 62.4001 48.4026C62.4867 48.5047 62.5359 48.6379 62.5383 48.7769L62.7024 58.2624C62.7033 58.3139 62.7125 58.3648 62.7295 58.4129L65.9419 67.4971C65.9667 67.5673 65.9785 67.6421 65.9765 67.7173C65.9746 67.7925 65.9589 67.8665 65.9305 67.9351C65.9021 68.0036 65.8614 68.0653 65.8109 68.1165C65.7604 68.1677 65.7011 68.2075 65.6363 68.2335L64.2641 68.7848C64.1449 68.8327 64.0138 68.8314 63.8955 68.7811C63.7771 68.7308 63.6797 68.6351 63.6216 68.512L59.6753 60.1443C59.6538 60.0989 59.6381 60.0504 59.6285 60.0003L58.9544 56.4583C58.9349 56.3556 58.8824 56.2639 58.8064 56.1995C58.7305 56.1352 58.636 56.1024 58.5399 56.1072C58.4438 56.1119 58.3524 56.1538 58.2821 56.2254C58.2118 56.297 58.1671 56.3935 58.1562 56.4977L56.7963 69.4488C56.7818 69.5872 56.7211 69.715 56.6257 69.8077C56.5304 69.9005 56.4071 69.9517 56.2793 69.9517Z" fill="#082777"/>
<path d="M56.9536 31.1082C58.5219 31.1082 59.7933 29.7218 59.7933 28.0116C59.7933 26.3014 58.5219 24.915 56.9536 24.915C55.3853 24.915 54.1139 26.3014 54.1139 28.0116C54.1139 29.7218 55.3853 31.1082 56.9536 31.1082Z" fill="#A0616A"/>
<path d="M58.9009 49.8881C56.9752 49.865 55.0954 49.244 53.4816 48.098L53.454 48.0772L53.4568 48.0407L54.5431 34.2458C54.5805 33.7778 54.7721 33.3404 55.0824 33.0145C55.3926 32.6886 55.8007 32.4963 56.2309 32.473C57.6387 32.4025 59.5296 32.4914 60.5418 33.3135C62.0715 34.5559 62.8088 36.4268 62.5646 38.4464C62.0582 42.6345 62.6319 48.2841 62.699 48.9145L62.7038 48.96L62.6657 48.979C61.4864 49.5773 60.2016 49.8876 58.9009 49.8881Z" fill="#4B93E7"/>
<path d="M62.6859 48.9379C62.6059 48.9377 62.5267 48.9195 62.4535 48.8843C62.3802 48.8491 62.3145 48.7977 62.2603 48.7334L61.6392 47.9944C61.5721 47.9141 61.525 47.8163 61.5026 47.7104C61.4801 47.6046 61.483 47.4942 61.511 47.3899L62.9273 42.1622L60.7723 37.2271C60.6716 36.9961 60.647 36.7343 60.7024 36.4858C60.7514 36.2677 60.8597 36.0709 61.0133 35.9213C61.1669 35.7717 61.3585 35.6764 61.5627 35.6479C61.767 35.6195 61.9744 35.6592 62.1575 35.7619C62.3406 35.8646 62.4909 36.0254 62.5885 36.2231L65.513 41.3976C65.6318 41.6075 65.7016 41.846 65.7161 42.0922C65.7306 42.3383 65.6895 42.5846 65.5963 42.8094L63.2134 48.5667C63.1742 48.6619 63.1138 48.7449 63.0378 48.8083C62.9618 48.8717 62.8725 48.9135 62.778 48.9298C62.7475 48.9352 62.7167 48.9378 62.6859 48.9379Z" fill="#4B93E7"/>
<path d="M42.67 38.9519C42.8064 39.0626 42.9633 39.1392 43.1298 39.1765C43.2963 39.2138 43.4683 39.2109 43.6336 39.1679C43.7989 39.1249 43.9536 39.0429 44.0867 38.9276C44.2199 38.8124 44.3282 38.6667 44.4041 38.5009L48.5013 39.0804L47.5597 36.9763L43.8133 36.7486C43.5493 36.628 43.254 36.6172 42.9833 36.7182C42.7125 36.8192 42.4851 37.025 42.3442 37.2965C42.2033 37.5681 42.1586 37.8867 42.2187 38.1918C42.2787 38.4969 42.4393 38.7673 42.67 38.9519Z" fill="#A0616A"/>
<path d="M51.701 40.1011C51.6297 40.1011 51.5584 40.0957 51.4877 40.085L45.042 39.1101C44.9366 39.0943 44.8366 39.0502 44.7508 38.9817C44.665 38.9132 44.5961 38.8226 44.5505 38.7178C44.5358 38.6841 44.5235 38.6491 44.5138 38.6133C44.4888 38.5202 44.4818 38.4225 44.4933 38.3263C44.5047 38.2302 44.5343 38.1376 44.5802 38.0546L45.1136 37.0902C45.171 36.9872 45.2517 36.9019 45.348 36.8426C45.4443 36.7833 45.5529 36.752 45.6635 36.7516H45.6643L51.2829 36.7586L55.4791 32.6589C55.6743 32.4686 55.9236 32.3574 56.1852 32.3438C56.4148 32.3322 56.6423 32.3968 56.8376 32.529C57.0329 32.6613 57.1869 32.8549 57.2792 33.0845C57.3715 33.3141 57.3978 33.5688 57.3547 33.8151C57.3116 34.0613 57.201 34.2875 57.0376 34.4638L52.8505 39.542C52.7056 39.7179 52.5284 39.8586 52.3303 39.955C52.1323 40.0513 51.9179 40.101 51.701 40.1011Z" fill="#4B93E7"/>
<path d="M57.2764 30.7664C57.5359 30.1115 57.7555 29.2393 57.2577 28.7762C56.969 28.5077 56.5532 28.5071 56.1749 28.4737C55.1092 28.3795 54.0122 27.8448 53.4914 26.8267C52.9705 25.8085 53.2614 24.2945 54.2441 23.8351C54.9065 23.5255 55.6658 23.7364 56.3592 23.9508L58.441 24.5945C59.0595 24.7858 59.709 24.9968 60.1543 25.5025C60.8645 26.309 60.8114 27.6725 60.2473 28.6063C59.6833 29.54 58.8338 30.5139 57.8613 30.8684L57.2764 30.7664Z" fill="#082777"/>
<path d="M85.9971 73H0.637575C0.619463 73.0001 0.601519 72.9962 0.584771 72.9887C0.568023 72.9812 0.552801 72.9701 0.539975 72.9562C0.527149 72.9422 0.516973 72.9257 0.51003 72.9074C0.503087 72.8892 0.499512 72.8696 0.499512 72.8499C0.499512 72.8301 0.503087 72.8106 0.51003 72.7923C0.516973 72.7741 0.527149 72.7575 0.539975 72.7436C0.552801 72.7296 0.568023 72.7186 0.584771 72.7111C0.601519 72.7036 0.619463 72.6997 0.637575 72.6998H85.9971C86.0153 72.6997 86.0332 72.7036 86.0499 72.7111C86.0667 72.7186 86.0819 72.7296 86.0947 72.7436C86.1076 72.7575 86.1177 72.7741 86.1247 72.7923C86.1316 72.8106 86.1352 72.8301 86.1352 72.8499C86.1352 72.8696 86.1316 72.8892 86.1247 72.9074C86.1177 72.9257 86.1076 72.9422 86.0947 72.9562C86.0819 72.9701 86.0667 72.9812 86.0499 72.9887C86.0332 72.9962 86.0153 73.0001 85.9971 73Z" fill="#3F3D56"/>
</g>
<defs>
<clipPath id="clip0_2124_79">
<rect width="95" height="73" fill="white" transform="translate(0.5)"/>
</clipPath>
</defs>
</svg>
