<svg width="133" height="26" viewBox="0 0 133 26" fill="none" xmlns="http://www.w3.org/2000/svg">
<rect width="133" height="26" rx="4" fill="#F3F9FF"/>
<path d="M41.1667 6.33333V8.99999C41.1667 10.4728 42.3606 11.6667 43.8333 11.6667L46.5 11.6667M34.5 9L34.5 17C34.5 18.4728 35.6939 19.6667 37.1667 19.6667H43.8333C45.3061 19.6667 46.5 18.4728 46.5 17V12.7712C46.5 12.064 46.219 11.3857 45.719 10.8856L41.9477 7.11438C41.4476 6.61428 40.7693 6.33333 40.0621 6.33333L37.1667 6.33333C35.6939 6.33333 34.5 7.52724 34.5 9Z" stroke="#5979B8" stroke-linejoin="round"/>
<path d="M36.7891 17V14.1367H37.7168C38.0684 14.1367 38.2975 14.151 38.4043 14.1797C38.5684 14.2227 38.7057 14.3164 38.8164 14.4609C38.9271 14.6042 38.9824 14.7897 38.9824 15.0176C38.9824 15.1934 38.9505 15.3411 38.8867 15.4609C38.8229 15.5807 38.7415 15.6751 38.6426 15.7441C38.5449 15.8118 38.4453 15.8568 38.3438 15.8789C38.2057 15.9062 38.0059 15.9199 37.7441 15.9199H37.3672V17H36.7891ZM37.3672 14.6211V15.4336H37.6836C37.9115 15.4336 38.0638 15.4186 38.1406 15.3887C38.2174 15.3587 38.2773 15.3118 38.3203 15.248C38.3646 15.1842 38.3867 15.11 38.3867 15.0254C38.3867 14.9212 38.3561 14.8353 38.2949 14.7676C38.2337 14.6999 38.1562 14.6576 38.0625 14.6406C37.9935 14.6276 37.8548 14.6211 37.6465 14.6211H37.3672Z" fill="#5979B8"/>
<path d="M39.4551 14.1367H40.5117C40.75 14.1367 40.9316 14.1549 41.0566 14.1914C41.2246 14.2409 41.3685 14.3288 41.4883 14.4551C41.6081 14.5814 41.6992 14.7363 41.7617 14.9199C41.8242 15.1022 41.8555 15.3275 41.8555 15.5957C41.8555 15.8314 41.8262 16.0345 41.7676 16.2051C41.696 16.4134 41.5938 16.582 41.4609 16.7109C41.3607 16.8086 41.2253 16.8848 41.0547 16.9395C40.9271 16.9798 40.7565 17 40.543 17H39.4551V14.1367ZM40.0332 14.6211V16.5176H40.4648C40.6263 16.5176 40.7428 16.5085 40.8145 16.4902C40.9082 16.4668 40.9857 16.4271 41.0469 16.3711C41.1094 16.3151 41.1602 16.2233 41.1992 16.0957C41.2383 15.9668 41.2578 15.7917 41.2578 15.5703C41.2578 15.349 41.2383 15.179 41.1992 15.0605C41.1602 14.9421 41.1055 14.8496 41.0352 14.7832C40.9648 14.7168 40.8757 14.6719 40.7676 14.6484C40.6868 14.6302 40.5286 14.6211 40.293 14.6211H40.0332Z" fill="#5979B8"/>
<path d="M42.3516 17V14.1367H44.3145V14.6211H42.9297V15.2988H44.125V15.7832H42.9297V17H42.3516Z" fill="#5979B8"/>
<path d="M59.34 18V17.112H60.696V10.488H59.34V9.6H62.988V10.488H61.632V17.112H62.988V18H59.34ZM64.708 18V11.736H65.596L65.632 13.044L65.488 13.104C65.568 12.832 65.724 12.584 65.956 12.36C66.188 12.136 66.464 11.956 66.784 11.82C67.112 11.676 67.448 11.604 67.792 11.604C68.256 11.604 68.644 11.696 68.956 11.88C69.268 12.064 69.504 12.348 69.664 12.732C69.824 13.116 69.904 13.604 69.904 14.196V18H68.992V14.244C68.992 13.828 68.936 13.488 68.824 13.224C68.72 12.952 68.556 12.752 68.332 12.624C68.108 12.496 67.832 12.436 67.504 12.444C67.232 12.444 66.98 12.492 66.748 12.588C66.516 12.676 66.316 12.8 66.148 12.96C65.98 13.12 65.848 13.304 65.752 13.512C65.656 13.72 65.608 13.944 65.608 14.184V18H65.164C65.108 18 65.044 18 64.972 18C64.9 18 64.812 18 64.708 18ZM73.5661 18L70.9261 11.736H71.9221L74.0101 16.86L73.7701 16.992L76.0621 11.736H77.0221L74.2141 18H73.5661ZM80.6753 18.12C80.0513 18.12 79.4953 17.98 79.0073 17.7C78.5273 17.42 78.1473 17.032 77.8673 16.536C77.5953 16.04 77.4593 15.476 77.4593 14.844C77.4593 14.22 77.5953 13.664 77.8673 13.176C78.1473 12.688 78.5273 12.304 79.0073 12.024C79.4953 11.744 80.0513 11.604 80.6753 11.604C81.2913 11.604 81.8393 11.744 82.3193 12.024C82.8073 12.304 83.1873 12.688 83.4593 13.176C83.7393 13.664 83.8793 14.22 83.8793 14.844C83.8793 15.476 83.7393 16.04 83.4593 16.536C83.1873 17.032 82.8073 17.42 82.3193 17.7C81.8393 17.98 81.2913 18.12 80.6753 18.12ZM80.6753 17.268C81.1153 17.268 81.5073 17.164 81.8513 16.956C82.1953 16.74 82.4633 16.452 82.6553 16.092C82.8473 15.724 82.9433 15.308 82.9433 14.844C82.9433 14.38 82.8473 13.968 82.6553 13.608C82.4633 13.248 82.1953 12.968 81.8513 12.768C81.5073 12.56 81.1153 12.456 80.6753 12.456C80.2353 12.456 79.8393 12.56 79.4873 12.768C79.1433 12.968 78.8713 13.252 78.6713 13.62C78.4793 13.98 78.3873 14.388 78.3953 14.844C78.3873 15.308 78.4793 15.724 78.6713 16.092C78.8713 16.452 79.1433 16.74 79.4873 16.956C79.8393 17.164 80.2353 17.268 80.6753 17.268ZM85.4324 18V11.736H86.3324V18H85.4324ZM85.8764 10.38C85.6524 10.38 85.4804 10.324 85.3604 10.212C85.2484 10.092 85.1924 9.932 85.1924 9.732C85.1924 9.532 85.2524 9.372 85.3724 9.252C85.4924 9.132 85.6604 9.072 85.8764 9.072C86.0924 9.072 86.2604 9.132 86.3804 9.252C86.5004 9.364 86.5604 9.524 86.5604 9.732C86.5604 9.924 86.5004 10.08 86.3804 10.2C86.2604 10.32 86.0924 10.38 85.8764 10.38ZM90.9379 18.12C90.3459 18.12 89.8179 17.98 89.3539 17.7C88.8899 17.412 88.5219 17.024 88.2499 16.536C87.9859 16.04 87.8539 15.48 87.8539 14.856C87.8539 14.232 87.9859 13.676 88.2499 13.188C88.5219 12.692 88.8899 12.304 89.3539 12.024C89.8179 11.744 90.3499 11.604 90.9499 11.604C91.4859 11.604 91.9739 11.712 92.4139 11.928C92.8539 12.136 93.2059 12.428 93.4699 12.804L92.9419 13.452C92.7899 13.252 92.6059 13.076 92.3899 12.924C92.1819 12.772 91.9539 12.656 91.7059 12.576C91.4659 12.488 91.2259 12.444 90.9859 12.444C90.5619 12.444 90.1819 12.552 89.8459 12.768C89.5099 12.976 89.2419 13.26 89.0419 13.62C88.8499 13.98 88.7539 14.392 88.7539 14.856C88.7539 15.32 88.8499 15.736 89.0419 16.104C89.2419 16.464 89.5099 16.748 89.8459 16.956C90.1819 17.164 90.5579 17.268 90.9739 17.268C91.2139 17.268 91.4499 17.232 91.6819 17.16C91.9139 17.08 92.1339 16.968 92.3419 16.824C92.5499 16.68 92.7419 16.5 92.9179 16.284L93.4459 16.932C93.1739 17.292 92.8099 17.58 92.3539 17.796C91.8979 18.012 91.4259 18.12 90.9379 18.12ZM97.3743 18.12C96.7503 18.12 96.1943 17.984 95.7063 17.712C95.2263 17.44 94.8503 17.06 94.5783 16.572C94.3063 16.084 94.1703 15.524 94.1703 14.892C94.1703 14.404 94.2463 13.964 94.3983 13.572C94.5503 13.172 94.7623 12.824 95.0343 12.528C95.3143 12.232 95.6463 12.004 96.0303 11.844C96.4143 11.676 96.8303 11.592 97.2783 11.592C97.7023 11.592 98.0863 11.668 98.4303 11.82C98.7823 11.972 99.0823 12.184 99.3303 12.456C99.5863 12.72 99.7783 13.036 99.9063 13.404C100.034 13.772 100.09 14.176 100.074 14.616L100.062 15.036H94.8423L94.7103 14.28H99.3783L99.1623 14.484V14.196C99.1463 13.908 99.0623 13.632 98.9103 13.368C98.7583 13.096 98.5423 12.876 98.2623 12.708C97.9903 12.54 97.6623 12.456 97.2783 12.456C96.8303 12.456 96.4423 12.548 96.1143 12.732C95.7863 12.908 95.5343 13.172 95.3583 13.524C95.1823 13.876 95.0943 14.312 95.0943 14.832C95.0943 15.328 95.1903 15.76 95.3823 16.128C95.5743 16.488 95.8463 16.768 96.1983 16.968C96.5583 17.168 96.9903 17.268 97.4943 17.268C97.7903 17.268 98.0823 17.22 98.3703 17.124C98.6663 17.02 98.9903 16.82 99.3423 16.524L99.8103 17.172C99.6263 17.356 99.4063 17.52 99.1503 17.664C98.8943 17.8 98.6143 17.912 98.3103 18C98.0063 18.08 97.6943 18.12 97.3743 18.12Z" fill="#1681FF"/>
</svg>
