<svg width="20" height="20" viewBox="0 0 20 20" fill="none" xmlns="http://www.w3.org/2000/svg">
<path d="M15.7933 3.78754L6.67581 2.17754C6.06674 2.07036 5.48608 2.4771 5.37871 3.08614L3.29621 14.9161C3.24477 15.2088 3.31176 15.51 3.48244 15.7532C3.65311 15.9965 3.91348 16.162 4.20621 16.2132L13.3237 17.8232C13.6165 17.8749 13.9178 17.808 14.1613 17.6373C14.4047 17.4666 14.5703 17.2061 14.6215 16.9132L16.704 5.08324C16.8102 4.47397 16.4025 3.89392 15.7933 3.78754ZM13.5169 16.72L4.39871 15.11L6.48121 3.28004L15.5987 4.89004L13.5169 16.72ZM7.29251 5.12944C7.34652 4.82504 7.63698 4.622 7.94141 4.67584L13.7514 5.70134C14.0377 5.75148 14.238 6.01226 14.2126 6.30177C14.1873 6.59127 13.9447 6.81328 13.6541 6.81294C13.6213 6.81289 13.5885 6.81008 13.5561 6.80454L7.74611 5.77834C7.44172 5.72432 7.23868 5.43386 7.29251 5.12944ZM6.90471 7.33584C6.93049 7.18953 7.01334 7.05946 7.13504 6.97426C7.25674 6.88905 7.40731 6.8557 7.55361 6.88154L13.3636 7.90774C13.652 7.95597 13.8547 8.21795 13.8291 8.50921C13.8034 8.80048 13.558 9.02297 13.2656 9.02004C13.2325 9.0201 13.1995 9.01706 13.1669 9.01094L7.35691 7.98544C7.05276 7.93076 6.85039 7.64005 6.90471 7.33584ZM6.51621 9.54154C6.57123 9.238 6.86137 9.03612 7.16511 9.09004L10.0687 9.60034C10.3548 9.65046 10.5551 9.91103 10.53 10.2004C10.5048 10.4898 10.2626 10.7119 9.97211 10.7119C9.93926 10.7119 9.90648 10.7091 9.87411 10.7035L6.96911 10.1904C6.665 10.1361 6.46235 9.84573 6.51621 9.54154Z" fill="#E8618C"/>
</svg>
