<svg width="17" height="17" viewBox="0 0 17 17" fill="none" xmlns="http://www.w3.org/2000/svg">
<path d="M5.98047 4.82298V4.15631C5.98047 3.05174 6.8759 2.15631 7.98047 2.15631H9.3138C10.4184 2.15631 11.3138 3.05174 11.3138 4.15631V4.82298M1.98047 7.7213C1.98047 7.7213 4.05916 9.10593 7.29891 9.43022M15.3138 7.7213C15.3138 7.7213 13.2351 9.10593 9.99536 9.43022M4.64714 15.4896H12.6471C14.1199 15.4896 15.3138 14.2957 15.3138 12.823V7.48964C15.3138 6.01689 14.1199 4.82298 12.6471 4.82298H4.64714C3.17438 4.82298 1.98047 6.01689 1.98047 7.48964V12.823C1.98047 14.2957 3.17438 15.4896 4.64714 15.4896Z" stroke="#555555" stroke-linecap="round"/>
<path d="M9.97917 8.92967V9.59633C9.97917 9.603 9.97917 9.603 9.97917 9.60967C9.97917 10.3363 9.9725 10.9297 8.64583 10.9297C7.32583 10.9297 7.3125 10.343 7.3125 9.61633V8.92967C7.3125 8.263 7.3125 8.263 7.97917 8.263H9.3125C9.97917 8.263 9.97917 8.263 9.97917 8.92967Z" stroke="#555555" stroke-miterlimit="10" stroke-linecap="round" stroke-linejoin="round"/>
</svg>
