<svg width="36" height="36" viewBox="0 0 36 36" fill="none" xmlns="http://www.w3.org/2000/svg">
<path d="M28.5 6H27V4.5C27 3.6 26.4 3 25.5 3C24.6 3 24 3.6 24 4.5V6H12V4.5C12 3.6 11.4 3 10.5 3C9.6 3 9 3.6 9 4.5V6H7.5C4.95 6 3 7.95 3 10.5V12H33V10.5C33 7.95 31.05 6 28.5 6Z" fill="white"/>
<path fill-rule="evenodd" clip-rule="evenodd" d="M3 28.5C3 31.05 4.95 33 7.5 33H22.4009C20.9242 31.6303 20 29.6731 20 27.5C20 24.609 21.6357 22.1 24.0322 20.8481C24.011 20.7381 24 20.6218 24 20.5C24 19.6 24.6 19 25.5 19C26.2287 19 26.7608 19.3934 26.9369 20.0208C27.1228 20.007 27.3106 20 27.5 20C29.6731 20 31.6303 20.9242 33 22.4009V15H3V28.5ZM10.5 19C11.4 19 12 19.6 12 20.5C12 21.4 11.4 22 10.5 22C9.6 22 9 21.4 9 20.5C9 19.6 9.6 19 10.5 19ZM12 26.5C12 25.6 11.4 25 10.5 25C9.6 25 9 25.6 9 26.5C9 27.4 9.6 28 10.5 28C11.4 28 12 27.4 12 26.5ZM18 19C18.9 19 19.5 19.6 19.5 20.5C19.5 21.4 18.9 22 18 22C17.1 22 16.5 21.4 16.5 20.5C16.5 19.6 17.1 19 18 19ZM19.5 26.5C19.5 25.6 18.9 25 18 25C17.1 25 16.5 25.6 16.5 26.5C16.5 27.4 17.1 28 18 28C18.9 28 19.5 27.4 19.5 26.5Z" fill="white"/>
<path d="M27.5 21.25C26.6792 21.25 25.8665 21.4117 25.1082 21.7258C24.3499 22.0398 23.6609 22.5002 23.0806 23.0806C21.9085 24.2527 21.25 25.8424 21.25 27.5C21.25 29.1576 21.9085 30.7473 23.0806 31.9194C23.6609 32.4998 24.3499 32.9602 25.1082 33.2742C25.8665 33.5883 26.6792 33.75 27.5 33.75C29.1576 33.75 30.7473 33.0915 31.9194 31.9194C33.0915 30.7473 33.75 29.1576 33.75 27.5C33.75 26.6792 33.5883 25.8665 33.2742 25.1082C32.9602 24.3499 32.4998 23.6609 31.9194 23.0806C31.3391 22.5002 30.6501 22.0398 29.8918 21.7258C29.1335 21.4117 28.3208 21.25 27.5 21.25ZM30.125 30.125L26.875 28.125V24.375H27.8125V27.625L30.625 29.3125L30.125 30.125Z" fill="white"/>
</svg>
