<svg width="32" height="30" viewBox="0 0 32 30" fill="none" xmlns="http://www.w3.org/2000/svg">
<g filter="url(#filter0_ii_69_2523)">
<path d="M14.75 0C12.562 0 10.4635 0.869194 8.91637 2.41637C7.36919 3.96354 6.5 6.06196 6.5 8.25C6.5 10.438 7.36919 12.5365 8.91637 14.0836C10.4635 15.6308 12.562 16.5 14.75 16.5C16.938 16.5 19.0365 15.6308 20.5836 14.0836C22.1308 12.5365 23 10.438 23 8.25C23 6.06196 22.1308 3.96354 20.5836 2.41637C19.0365 0.869194 16.938 0 14.75 0ZM15.8825 18C14.6541 19.7594 13.9969 21.8542 14 24C14 26.2305 14.696 28.299 15.8825 30H0.5V27C0.5 24.6131 1.44821 22.3239 3.13604 20.636C4.82387 18.9482 7.11305 18 9.5 18H15.8825Z" fill="#CFD8DC"/>
<path fill-rule="evenodd" clip-rule="evenodd" d="M21.3042 18.5484V19.6134L20.0338 19.7169C19.5973 19.752 19.1852 19.9324 18.8634 20.2294C18.5416 20.5263 18.3287 20.9226 18.2586 21.3548C18.2276 21.5483 18.1991 21.742 18.1731 21.936C18.1673 21.983 18.1764 22.0305 18.1991 22.072C18.2219 22.1135 18.2571 22.1467 18.2999 22.167L18.3576 22.194C22.4292 24.1214 27.3048 24.1214 31.3756 22.194L31.4334 22.167C31.4759 22.1466 31.511 22.1133 31.5336 22.0719C31.5562 22.0304 31.5652 21.9829 31.5593 21.936C31.5339 21.7419 31.5057 21.5481 31.4746 21.3548C31.4045 20.9226 31.1916 20.5263 30.8698 20.2294C30.548 19.9324 30.1359 19.752 29.6994 19.7169L28.429 19.6141V18.5492C28.429 18.2348 28.3163 17.9309 28.1112 17.6926C27.9061 17.4544 27.6224 17.2977 27.3115 17.251L26.3965 17.1137C25.3822 16.9621 24.351 16.9621 23.3367 17.1137L22.4217 17.251C22.111 17.2976 21.8273 17.4543 21.6222 17.6923C21.4172 17.9304 21.3043 18.2342 21.3042 18.5484ZM26.2293 18.2259C25.3258 18.091 24.4074 18.091 23.5039 18.2259L22.5889 18.3632C22.5445 18.3698 22.504 18.3922 22.4747 18.4261C22.4454 18.4601 22.4292 18.5035 22.4292 18.5484V19.5346C24.0528 19.4419 25.6804 19.4419 27.304 19.5346V18.5484C27.304 18.5035 27.2878 18.4601 27.2585 18.4261C27.2292 18.3922 27.1887 18.3698 27.1443 18.3632L26.2293 18.2259Z" fill="#CFD8DC"/>
<path d="M31.7048 23.5049C31.7033 23.4807 31.6959 23.4572 31.6833 23.4364C31.6707 23.4156 31.6533 23.3982 31.6325 23.3857C31.6117 23.3731 31.5881 23.3658 31.5639 23.3644C31.5396 23.363 31.5154 23.3674 31.4933 23.3774C27.3152 25.2276 22.4179 25.2276 18.2398 23.3774C18.2176 23.3674 18.1934 23.363 18.1691 23.3644C18.1449 23.3658 18.1214 23.3731 18.1006 23.3857C18.0797 23.3982 18.0623 23.4156 18.0497 23.4364C18.0371 23.4572 18.0298 23.4807 18.0283 23.5049C17.9523 24.9408 18.0295 26.3806 18.2585 27.8C18.3284 28.2324 18.5413 28.6288 18.8631 28.9259C19.185 29.223 19.5971 29.4036 20.0337 29.4387L21.4376 29.5512C23.7198 29.7357 26.0125 29.7357 28.2954 29.5512L29.6993 29.4387C30.1359 29.4036 30.5481 29.223 30.8699 28.9259C31.1917 28.6288 31.4046 28.2324 31.4745 27.8C31.704 26.3788 31.782 24.9389 31.7048 23.5057" fill="#CFD8DC"/>
</g>
<defs>
<filter id="filter0_ii_69_2523" x="-3.5" y="-4" width="39.2339" height="38" filterUnits="userSpaceOnUse" color-interpolation-filters="sRGB">
<feFlood flood-opacity="0" result="BackgroundImageFix"/>
<feBlend mode="normal" in="SourceGraphic" in2="BackgroundImageFix" result="shape"/>
<feColorMatrix in="SourceAlpha" type="matrix" values="0 0 0 0 0 0 0 0 0 0 0 0 0 0 0 0 0 0 127 0" result="hardAlpha"/>
<feOffset dx="4" dy="4"/>
<feGaussianBlur stdDeviation="6"/>
<feComposite in2="hardAlpha" operator="arithmetic" k2="-1" k3="1"/>
<feColorMatrix type="matrix" values="0 0 0 0 0.733333 0 0 0 0 0.764706 0 0 0 0 0.807843 0 0 0 0.6 0"/>
<feBlend mode="normal" in2="shape" result="effect1_innerShadow_69_2523"/>
<feColorMatrix in="SourceAlpha" type="matrix" values="0 0 0 0 0 0 0 0 0 0 0 0 0 0 0 0 0 0 127 0" result="hardAlpha"/>
<feOffset dx="-4" dy="-4"/>
<feGaussianBlur stdDeviation="6"/>
<feComposite in2="hardAlpha" operator="arithmetic" k2="-1" k3="1"/>
<feColorMatrix type="matrix" values="0 0 0 0 0.992157 0 0 0 0 1 0 0 0 0 1 0 0 0 0.8 0"/>
<feBlend mode="normal" in2="effect1_innerShadow_69_2523" result="effect2_innerShadow_69_2523"/>
</filter>
</defs>
</svg>
