<svg width="36" height="36" viewBox="0 0 36 36" fill="none" xmlns="http://www.w3.org/2000/svg">
<g clip-path="url(#clip0_520_14999)">
<path d="M9 1.125C9 0.826631 8.88147 0.540483 8.6705 0.329505C8.45952 0.118526 8.17337 0 7.875 0C7.57663 0 7.29048 0.118526 7.0795 0.329505C6.86853 0.540483 6.75 0.826631 6.75 1.125V2.25H4.5C3.30653 2.25 2.16193 2.72411 1.31802 3.56802C0.474106 4.41193 0 5.55653 0 6.75L0 9H36V6.75C36 5.55653 35.5259 4.41193 34.682 3.56802C33.8381 2.72411 32.6935 2.25 31.5 2.25H29.25V1.125C29.25 0.826631 29.1315 0.540483 28.9205 0.329505C28.7095 0.118526 28.4234 0 28.125 0C27.8266 0 27.5405 0.118526 27.3295 0.329505C27.1185 0.540483 27 0.826631 27 1.125V2.25H9V1.125ZM36 31.5V11.25H0V31.5C0 32.6935 0.474106 33.8381 1.31802 34.682C2.16193 35.5259 3.30653 36 4.5 36H31.5C32.6935 36 33.8381 35.5259 34.682 34.682C35.5259 33.8381 36 32.6935 36 31.5ZM28.125 15.75H30.375C30.6734 15.75 30.9595 15.8685 31.1705 16.0795C31.3815 16.2905 31.5 16.5766 31.5 16.875V19.125C31.5 19.4234 31.3815 19.7095 31.1705 19.9205C30.9595 20.1315 30.6734 20.25 30.375 20.25H28.125C27.8266 20.25 27.5405 20.1315 27.3295 19.9205C27.1185 19.7095 27 19.4234 27 19.125V16.875C27 16.5766 27.1185 16.2905 27.3295 16.0795C27.5405 15.8685 27.8266 15.75 28.125 15.75Z" fill="white"/>
</g>
<defs>
<clipPath id="clip0_520_14999">
<rect width="36" height="36" fill="white"/>
</clipPath>
</defs>
</svg>
