<svg width="36" height="36" viewBox="0 0 36 36" fill="none" xmlns="http://www.w3.org/2000/svg">
<g filter="url(#filter0_ii_501_2484)">
<path fill-rule="evenodd" clip-rule="evenodd" d="M21 33H15C9.3435 33 6.5145 33 4.758 31.242C3.0015 29.484 3 26.6565 3 21V15C3 9.3435 3 6.5145 4.758 4.758C6.516 3.0015 9.3585 3 15.045 3C15.779 3 16.3947 3 16.9276 3.01343C17.1228 3.01835 17.265 3.19623 17.265 3.3915L17.25 7.6425C17.25 9.288 17.25 10.743 17.4075 11.9145C17.5785 13.185 17.97 14.4555 19.008 15.4935C20.043 16.5285 21.315 16.9215 22.5855 17.0925C23.757 17.25 25.212 17.25 26.8575 17.25H29.8396C31.5882 17.25 33 18.5959 33 20.3445V21C33 26.6565 33 29.4855 31.242 31.242C29.484 32.9985 26.6565 33 21 33Z" fill="#CFD8DC"/>
<path fill-rule="evenodd" clip-rule="evenodd" d="M21 33H15C9.3435 33 6.5145 33 4.758 31.242C3.0015 29.484 3 26.6565 3 21V15C3 9.3435 3 6.5145 4.758 4.758C6.516 3.0015 9.3585 3 15.045 3C15.779 3 16.3947 3 16.9276 3.01343C17.1228 3.01835 17.265 3.19623 17.265 3.3915L17.25 7.6425C17.25 9.288 17.25 10.743 17.4075 11.9145C17.5785 13.185 17.97 14.4555 19.008 15.4935C20.043 16.5285 21.315 16.9215 22.5855 17.0925C23.757 17.25 25.212 17.25 26.8575 17.25H29.8396C31.5882 17.25 33 18.5959 33 20.3445V21C33 26.6565 33 29.4855 31.242 31.242C29.484 32.9985 26.6565 33 21 33Z" fill="#E6EEF8"/>
</g>
<g filter="url(#filter1_ii_501_2484)">
<path d="M29.028 11.4254L23.088 6.08093C22.9879 5.99076 22.8907 5.90326 22.7963 5.81834C21.3232 4.49323 19.5065 5.51853 19.5 7.49993C19.5 11.0354 19.5 12.8039 20.598 13.9019C21.696 14.9999 23.4645 14.9999 27 14.9999H27.4516C29.6977 14.9999 30.6971 12.9284 29.028 11.4254Z" fill="#CFD8DC"/>
<path d="M29.028 11.4254L23.088 6.08093C22.9879 5.99076 22.8907 5.90326 22.7963 5.81834C21.3232 4.49323 19.5065 5.51853 19.5 7.49993C19.5 11.0354 19.5 12.8039 20.598 13.9019C21.696 14.9999 23.4645 14.9999 27 14.9999H27.4516C29.6977 14.9999 30.6971 12.9284 29.028 11.4254Z" fill="#E6EEF8"/>
</g>
<defs>
<filter id="filter0_ii_501_2484" x="-1" y="-1" width="38" height="38" filterUnits="userSpaceOnUse" color-interpolation-filters="sRGB">
<feFlood flood-opacity="0" result="BackgroundImageFix"/>
<feBlend mode="normal" in="SourceGraphic" in2="BackgroundImageFix" result="shape"/>
<feColorMatrix in="SourceAlpha" type="matrix" values="0 0 0 0 0 0 0 0 0 0 0 0 0 0 0 0 0 0 127 0" result="hardAlpha"/>
<feOffset dx="4" dy="4"/>
<feGaussianBlur stdDeviation="6"/>
<feComposite in2="hardAlpha" operator="arithmetic" k2="-1" k3="1"/>
<feColorMatrix type="matrix" values="0 0 0 0 0.733333 0 0 0 0 0.764706 0 0 0 0 0.807843 0 0 0 0.6 0"/>
<feBlend mode="normal" in2="shape" result="effect1_innerShadow_501_2484"/>
<feColorMatrix in="SourceAlpha" type="matrix" values="0 0 0 0 0 0 0 0 0 0 0 0 0 0 0 0 0 0 127 0" result="hardAlpha"/>
<feOffset dx="-4" dy="-4"/>
<feGaussianBlur stdDeviation="6"/>
<feComposite in2="hardAlpha" operator="arithmetic" k2="-1" k3="1"/>
<feColorMatrix type="matrix" values="0 0 0 0 0.992157 0 0 0 0 1 0 0 0 0 1 0 0 0 0.8 0"/>
<feBlend mode="normal" in2="effect1_innerShadow_501_2484" result="effect2_innerShadow_501_2484"/>
</filter>
<filter id="filter1_ii_501_2484" x="15.5" y="1.22217" width="18.3608" height="17.7778" filterUnits="userSpaceOnUse" color-interpolation-filters="sRGB">
<feFlood flood-opacity="0" result="BackgroundImageFix"/>
<feBlend mode="normal" in="SourceGraphic" in2="BackgroundImageFix" result="shape"/>
<feColorMatrix in="SourceAlpha" type="matrix" values="0 0 0 0 0 0 0 0 0 0 0 0 0 0 0 0 0 0 127 0" result="hardAlpha"/>
<feOffset dx="4" dy="4"/>
<feGaussianBlur stdDeviation="6"/>
<feComposite in2="hardAlpha" operator="arithmetic" k2="-1" k3="1"/>
<feColorMatrix type="matrix" values="0 0 0 0 0.733333 0 0 0 0 0.764706 0 0 0 0 0.807843 0 0 0 0.6 0"/>
<feBlend mode="normal" in2="shape" result="effect1_innerShadow_501_2484"/>
<feColorMatrix in="SourceAlpha" type="matrix" values="0 0 0 0 0 0 0 0 0 0 0 0 0 0 0 0 0 0 127 0" result="hardAlpha"/>
<feOffset dx="-4" dy="-4"/>
<feGaussianBlur stdDeviation="6"/>
<feComposite in2="hardAlpha" operator="arithmetic" k2="-1" k3="1"/>
<feColorMatrix type="matrix" values="0 0 0 0 0.992157 0 0 0 0 1 0 0 0 0 1 0 0 0 0.8 0"/>
<feBlend mode="normal" in2="effect1_innerShadow_501_2484" result="effect2_innerShadow_501_2484"/>
</filter>
</defs>
</svg>
