<svg width="25" height="32" viewBox="0 0 25 32" fill="none" xmlns="http://www.w3.org/2000/svg">
<g filter="url(#filter0_ii_100_3608)">
<path d="M6.28366 4.5745L6.30354 4.561L6.39498 4.50025C6.47582 4.44475 6.5984 4.3675 6.76273 4.2685C7.09073 4.07275 7.56782 3.8095 8.15821 3.5485C9.34894 3.013 10.9611 2.5 12.7084 2.5C14.4558 2.5 16.0679 3.0175 17.2587 3.54625C17.8654 3.81708 18.4546 4.13587 19.0219 4.50025C19.063 4.52575 19.0928 4.546 19.1113 4.561L19.1304 4.57394C19.1309 4.57431 19.1316 4.5745 19.1322 4.5745C19.1329 4.5745 19.1335 4.5747 19.134 4.57507C19.3562 4.72777 19.6225 4.77587 19.8757 4.70901C20.1292 4.64208 20.3493 4.46526 20.4889 4.21654C20.6284 3.96783 20.6762 3.66707 20.622 3.37892C20.5677 3.09076 20.4157 2.83819 20.1987 2.6755L20.1927 2.671L20.1828 2.66425L20.147 2.6395L20.0258 2.55625C19.3705 2.13456 18.6896 1.76613 17.9882 1.45375C16.6524 0.8575 14.7858 0.25 12.7084 0.25C10.6311 0.25 8.76252 0.8575 7.43066 1.45375C6.72856 1.76603 6.04699 2.13446 5.39111 2.55625L5.26985 2.6395L5.23907 2.65885C5.23574 2.66095 5.2326 2.66333 5.22968 2.66597L5.22751 2.66793C5.22526 2.66997 5.22279 2.67175 5.22015 2.67325C4.9974 2.83288 4.8398 3.08612 4.78202 3.37727C4.72423 3.66842 4.771 3.97363 4.91203 4.22575C5.05306 4.47787 5.2768 4.65625 5.53403 4.72166C5.79126 4.78706 6.06091 4.73413 6.28366 4.5745ZM4.75698 7C3.70255 7 2.69131 7.47411 1.94571 8.31802C1.20012 9.16193 0.78125 10.3065 0.78125 11.5V20.5C0.78125 21.6935 1.20012 22.8381 1.94571 23.682C2.69131 24.5259 3.70255 25 4.75698 25H12.7084C13.7629 25 14.7741 24.5259 15.5197 23.682C16.2653 22.8381 16.6842 21.6935 16.6842 20.5V11.5C16.6842 10.3065 16.2653 9.16193 15.5197 8.31802C14.7741 7.47411 13.7629 7 12.7084 7H4.75698ZM24.6356 10.375C24.6356 10.1661 24.5842 9.96128 24.4872 9.78355C24.3901 9.60583 24.2513 9.4622 24.0862 9.36877C23.9211 9.27533 23.7363 9.23578 23.5524 9.25455C23.3686 9.27331 23.193 9.34964 23.0453 9.475L19.0696 12.85C18.9462 12.9548 18.846 13.0907 18.777 13.2469C18.708 13.4031 18.672 13.5753 18.672 13.75V18.25C18.672 18.4247 18.708 18.5969 18.777 18.7531C18.846 18.9093 18.9462 19.0452 19.0696 19.15L23.0453 22.525C23.193 22.6504 23.3686 22.7267 23.5524 22.7455C23.7363 22.7642 23.9211 22.7247 24.0862 22.6312C24.2513 22.5378 24.3901 22.3942 24.4872 22.2164C24.5842 22.0387 24.6356 21.8339 24.6356 21.625V10.375ZM6.28716 27.4286C6.28616 27.428 6.28526 27.4273 6.2845 27.4265C6.28394 27.4258 6.2833 27.4253 6.28261 27.4248C6.06045 27.2722 5.7943 27.2242 5.5412 27.291C5.2877 27.3579 5.06752 27.5347 4.92797 27.7835C4.78842 28.0322 4.74065 28.3329 4.79491 28.6211C4.84917 28.9092 5.00114 29.1618 5.21816 29.3245L5.22413 29.329L5.23407 29.3358L5.26985 29.3605C5.29768 29.3815 5.3381 29.4093 5.39111 29.4438C5.49713 29.5128 5.64555 29.6057 5.83639 29.7227C6.21607 29.9478 6.76075 30.247 7.43066 30.5462C8.76252 31.1403 10.6311 31.75 12.7084 31.75C14.7877 31.75 16.6543 31.1425 17.9862 30.5462C18.6883 30.234 19.3699 29.8655 20.0258 29.4438L20.147 29.3605L20.1778 29.3411C20.1811 29.3391 20.1843 29.3367 20.1872 29.334L20.1894 29.3321C20.1916 29.33 20.1941 29.3282 20.1967 29.3268C20.4195 29.1668 20.579 28.9133 20.6365 28.6219C20.6941 28.3306 20.6471 28.0252 20.5058 27.7731C20.3645 27.521 20.1405 27.3427 19.8831 27.2775C19.6257 27.2124 19.356 27.2656 19.1332 27.4255L19.1133 27.4412L19.0219 27.4998C18.9411 27.5553 18.8185 27.6325 18.6541 27.7315C18.201 28.0004 17.7352 28.2407 17.2587 28.4515C16.0679 28.987 14.4558 29.5 12.7084 29.5C10.9611 29.5 9.34894 28.9825 8.15821 28.4538C7.55144 28.1829 6.96224 27.8641 6.39498 27.4998L6.30552 27.439L6.28716 27.4286Z" fill="white"/>
<path d="M6.28366 4.5745L6.30354 4.561L6.39498 4.50025C6.47582 4.44475 6.5984 4.3675 6.76273 4.2685C7.09073 4.07275 7.56782 3.8095 8.15821 3.5485C9.34894 3.013 10.9611 2.5 12.7084 2.5C14.4558 2.5 16.0679 3.0175 17.2587 3.54625C17.8654 3.81708 18.4546 4.13587 19.0219 4.50025C19.063 4.52575 19.0928 4.546 19.1113 4.561L19.1304 4.57394C19.1309 4.57431 19.1316 4.5745 19.1322 4.5745C19.1329 4.5745 19.1335 4.5747 19.134 4.57507C19.3562 4.72777 19.6225 4.77587 19.8757 4.70901C20.1292 4.64208 20.3493 4.46526 20.4889 4.21654C20.6284 3.96783 20.6762 3.66707 20.622 3.37892C20.5677 3.09076 20.4157 2.83819 20.1987 2.6755L20.1927 2.671L20.1828 2.66425L20.147 2.6395L20.0258 2.55625C19.3705 2.13456 18.6896 1.76613 17.9882 1.45375C16.6524 0.8575 14.7858 0.25 12.7084 0.25C10.6311 0.25 8.76252 0.8575 7.43066 1.45375C6.72856 1.76603 6.04699 2.13446 5.39111 2.55625L5.26985 2.6395L5.23907 2.65885C5.23574 2.66095 5.2326 2.66333 5.22968 2.66597L5.22751 2.66793C5.22526 2.66997 5.22279 2.67175 5.22015 2.67325C4.9974 2.83288 4.8398 3.08612 4.78202 3.37727C4.72423 3.66842 4.771 3.97363 4.91203 4.22575C5.05306 4.47787 5.2768 4.65625 5.53403 4.72166C5.79126 4.78706 6.06091 4.73413 6.28366 4.5745ZM4.75698 7C3.70255 7 2.69131 7.47411 1.94571 8.31802C1.20012 9.16193 0.78125 10.3065 0.78125 11.5V20.5C0.78125 21.6935 1.20012 22.8381 1.94571 23.682C2.69131 24.5259 3.70255 25 4.75698 25H12.7084C13.7629 25 14.7741 24.5259 15.5197 23.682C16.2653 22.8381 16.6842 21.6935 16.6842 20.5V11.5C16.6842 10.3065 16.2653 9.16193 15.5197 8.31802C14.7741 7.47411 13.7629 7 12.7084 7H4.75698ZM24.6356 10.375C24.6356 10.1661 24.5842 9.96128 24.4872 9.78355C24.3901 9.60583 24.2513 9.4622 24.0862 9.36877C23.9211 9.27533 23.7363 9.23578 23.5524 9.25455C23.3686 9.27331 23.193 9.34964 23.0453 9.475L19.0696 12.85C18.9462 12.9548 18.846 13.0907 18.777 13.2469C18.708 13.4031 18.672 13.5753 18.672 13.75V18.25C18.672 18.4247 18.708 18.5969 18.777 18.7531C18.846 18.9093 18.9462 19.0452 19.0696 19.15L23.0453 22.525C23.193 22.6504 23.3686 22.7267 23.5524 22.7455C23.7363 22.7642 23.9211 22.7247 24.0862 22.6312C24.2513 22.5378 24.3901 22.3942 24.4872 22.2164C24.5842 22.0387 24.6356 21.8339 24.6356 21.625V10.375ZM6.28716 27.4286C6.28616 27.428 6.28526 27.4273 6.2845 27.4265C6.28394 27.4258 6.2833 27.4253 6.28261 27.4248C6.06045 27.2722 5.7943 27.2242 5.5412 27.291C5.2877 27.3579 5.06752 27.5347 4.92797 27.7835C4.78842 28.0322 4.74065 28.3329 4.79491 28.6211C4.84917 28.9092 5.00114 29.1618 5.21816 29.3245L5.22413 29.329L5.23407 29.3358L5.26985 29.3605C5.29768 29.3815 5.3381 29.4093 5.39111 29.4438C5.49713 29.5128 5.64555 29.6057 5.83639 29.7227C6.21607 29.9478 6.76075 30.247 7.43066 30.5462C8.76252 31.1403 10.6311 31.75 12.7084 31.75C14.7877 31.75 16.6543 31.1425 17.9862 30.5462C18.6883 30.234 19.3699 29.8655 20.0258 29.4438L20.147 29.3605L20.1778 29.3411C20.1811 29.3391 20.1843 29.3367 20.1872 29.334L20.1894 29.3321C20.1916 29.33 20.1941 29.3282 20.1967 29.3268C20.4195 29.1668 20.579 28.9133 20.6365 28.6219C20.6941 28.3306 20.6471 28.0252 20.5058 27.7731C20.3645 27.521 20.1405 27.3427 19.8831 27.2775C19.6257 27.2124 19.356 27.2656 19.1332 27.4255L19.1133 27.4412L19.0219 27.4998C18.9411 27.5553 18.8185 27.6325 18.6541 27.7315C18.201 28.0004 17.7352 28.2407 17.2587 28.4515C16.0679 28.987 14.4558 29.5 12.7084 29.5C10.9611 29.5 9.34894 28.9825 8.15821 28.4538C7.55144 28.1829 6.96224 27.8641 6.39498 27.4998L6.30552 27.439L6.28716 27.4286Z" fill="white"/>
</g>
<defs>
<filter id="filter0_ii_100_3608" x="-3.21875" y="-3.75" width="31.8545" height="39.5" filterUnits="userSpaceOnUse" color-interpolation-filters="sRGB">
<feFlood flood-opacity="0" result="BackgroundImageFix"/>
<feBlend mode="normal" in="SourceGraphic" in2="BackgroundImageFix" result="shape"/>
<feColorMatrix in="SourceAlpha" type="matrix" values="0 0 0 0 0 0 0 0 0 0 0 0 0 0 0 0 0 0 127 0" result="hardAlpha"/>
<feOffset dx="4" dy="4"/>
<feGaussianBlur stdDeviation="6"/>
<feComposite in2="hardAlpha" operator="arithmetic" k2="-1" k3="1"/>
<feColorMatrix type="matrix" values="0 0 0 0 0.733333 0 0 0 0 0.764706 0 0 0 0 0.807843 0 0 0 0.6 0"/>
<feBlend mode="normal" in2="shape" result="effect1_innerShadow_100_3608"/>
<feColorMatrix in="SourceAlpha" type="matrix" values="0 0 0 0 0 0 0 0 0 0 0 0 0 0 0 0 0 0 127 0" result="hardAlpha"/>
<feOffset dx="-4" dy="-4"/>
<feGaussianBlur stdDeviation="6"/>
<feComposite in2="hardAlpha" operator="arithmetic" k2="-1" k3="1"/>
<feColorMatrix type="matrix" values="0 0 0 0 0.992157 0 0 0 0 1 0 0 0 0 1 0 0 0 0.8 0"/>
<feBlend mode="normal" in2="effect1_innerShadow_100_3608" result="effect2_innerShadow_100_3608"/>
</filter>
</defs>
</svg>
