<svg width="27" height="30" viewBox="0 0 27 30" fill="none" xmlns="http://www.w3.org/2000/svg">
<g filter="url(#filter0_ii_69_2513)">
<path d="M14.25 0C12.062 0 9.96354 0.869194 8.41637 2.41637C6.86919 3.96354 6 6.06196 6 8.25C6 10.438 6.86919 12.5365 8.41637 14.0836C9.96354 15.6308 12.062 16.5 14.25 16.5C16.438 16.5 18.5365 15.6308 20.0836 14.0836C21.6308 12.5365 22.5 10.438 22.5 8.25C22.5 6.06196 21.6308 3.96354 20.0836 2.41637C18.5365 0.869194 16.438 0 14.25 0ZM14.2608 18C15.0945 18 15.5926 18.9883 15.2279 19.7379C14.5858 21.0578 14.2475 22.5145 14.25 24C14.25 25.5296 14.6021 26.9762 15.2294 28.2641C15.5942 29.0132 15.0966 30 14.2633 30H1C0.447716 30 0 29.5523 0 29V27C0 24.6131 0.948211 22.3239 2.63604 20.636C4.32387 18.9482 6.61305 18 9 18H14.2608Z" fill="#CFD8DC"/>
<path d="M14.25 0C12.062 0 9.96354 0.869194 8.41637 2.41637C6.86919 3.96354 6 6.06196 6 8.25C6 10.438 6.86919 12.5365 8.41637 14.0836C9.96354 15.6308 12.062 16.5 14.25 16.5C16.438 16.5 18.5365 15.6308 20.0836 14.0836C21.6308 12.5365 22.5 10.438 22.5 8.25C22.5 6.06196 21.6308 3.96354 20.0836 2.41637C18.5365 0.869194 16.438 0 14.25 0ZM14.2608 18C15.0945 18 15.5926 18.9883 15.2279 19.7379C14.5858 21.0578 14.2475 22.5145 14.25 24C14.25 25.5296 14.6021 26.9762 15.2294 28.2641C15.5942 29.0132 15.0966 30 14.2633 30H1C0.447716 30 0 29.5523 0 29V27C0 24.6131 0.948211 22.3239 2.63604 20.636C4.32387 18.9482 6.61305 18 9 18H14.2608Z" fill="#E6EEF8"/>
</g>
<g filter="url(#filter1_ii_69_2513)">
<path d="M19.3067 20.5101L19.315 20.5054L19.3533 20.4842C19.3872 20.4648 19.4386 20.4379 19.5075 20.4033C19.645 20.3349 19.845 20.243 20.0925 20.1519C20.5917 19.9649 21.2675 19.7857 22 19.7857C22.7325 19.7857 23.4083 19.9664 23.9075 20.1511C24.1619 20.2456 24.4089 20.357 24.6467 20.4842C24.6639 20.4931 24.6764 20.5002 24.6842 20.5054L24.6921 20.5099C24.6924 20.5101 24.6926 20.5101 24.6929 20.5101C24.6932 20.5101 24.6935 20.5102 24.6937 20.5104C24.7868 20.5637 24.8984 20.5805 25.0046 20.5571C25.1108 20.5337 25.2031 20.472 25.2617 20.3851C25.3202 20.2983 25.3402 20.1933 25.3174 20.0926C25.2947 19.992 25.231 19.9038 25.14 19.847L25.1375 19.8454L25.1333 19.8431L25.1183 19.8344L25.0675 19.8054C24.7928 19.6581 24.5074 19.5294 24.2133 19.4204C23.6533 19.2121 22.8708 19 22 19C21.1292 19 20.3458 19.2121 19.7875 19.4204C19.4932 19.5294 19.2075 19.6581 18.9325 19.8054L18.8817 19.8344L18.8687 19.8412C18.8674 19.8419 18.866 19.8428 18.8648 19.8437L18.864 19.8443C18.863 19.8451 18.8619 19.8457 18.8608 19.8462C18.7675 19.902 18.7014 19.9904 18.6772 20.0921C18.6529 20.1937 18.6725 20.3003 18.7317 20.3884C18.7908 20.4764 18.8846 20.5387 18.9924 20.5615C19.1002 20.5844 19.2133 20.5659 19.3067 20.5101ZM18.6667 21.3571C18.2246 21.3571 17.8007 21.5227 17.4882 21.8174C17.1756 22.1121 17 22.5118 17 22.9286V26.0714C17 26.4882 17.1756 26.8879 17.4882 27.1826C17.8007 27.4773 18.2246 27.6429 18.6667 27.6429H22C22.442 27.6429 22.866 27.4773 23.1785 27.1826C23.4911 26.8879 23.6667 26.4882 23.6667 26.0714V22.9286C23.6667 22.5118 23.4911 22.1121 23.1785 21.8174C22.866 21.5227 22.442 21.3571 22 21.3571H18.6667ZM27 22.5357C27 22.4628 26.9785 22.3912 26.9378 22.3292C26.8971 22.2671 26.8389 22.217 26.7697 22.1843C26.7005 22.1517 26.623 22.1379 26.5459 22.1444C26.4688 22.151 26.3952 22.1777 26.3333 22.2214L24.6667 23.4C24.6149 23.4366 24.5729 23.484 24.544 23.5386C24.5151 23.5931 24.5 23.6533 24.5 23.7143V25.2857C24.5 25.3467 24.5151 25.4069 24.544 25.4614C24.5729 25.516 24.6149 25.5634 24.6667 25.6L26.3333 26.7786C26.3952 26.8223 26.4688 26.849 26.5459 26.8556C26.623 26.8621 26.7005 26.8483 26.7697 26.8157C26.8389 26.783 26.8971 26.7329 26.9378 26.6708C26.9785 26.6088 27 26.5372 27 26.4643V22.5357ZM19.3081 28.4909C19.3077 28.4907 19.3073 28.4905 19.307 28.4902C19.3068 28.49 19.3065 28.4898 19.3062 28.4896C19.2131 28.4363 19.1015 28.4195 18.9954 28.4429C18.8892 28.4663 18.7968 28.528 18.7383 28.6149C18.6798 28.7017 18.6598 28.8067 18.6826 28.9074C18.7053 29.008 18.769 29.0962 18.86 29.153L18.8625 29.1546L18.8667 29.1569L18.8817 29.1656C18.8933 29.1729 18.9103 29.1826 18.9325 29.1946C18.9769 29.2187 19.0392 29.2512 19.1192 29.2921C19.2783 29.3706 19.5067 29.4751 19.7875 29.5796C20.3458 29.7871 21.1292 30 22 30C22.8717 30 23.6542 29.7879 24.2125 29.5796C24.5068 29.4706 24.7925 29.3419 25.0675 29.1946L25.1183 29.1656L25.1313 29.1588C25.1326 29.1581 25.134 29.1572 25.1352 29.1563L25.136 29.1557C25.137 29.1549 25.1381 29.1543 25.1392 29.1538C25.2325 29.0979 25.2994 29.0094 25.3235 28.9077C25.3477 28.8059 25.328 28.6993 25.2688 28.6112C25.2095 28.5232 25.1156 28.461 25.0077 28.4382C24.8998 28.4154 24.7867 28.434 24.6933 28.4899L24.685 28.4954L24.6467 28.5158C24.6128 28.5352 24.5614 28.5621 24.4925 28.5967C24.3026 28.6906 24.1073 28.7745 23.9075 28.8481C23.4083 29.0351 22.7325 29.2143 22 29.2143C21.2675 29.2143 20.5917 29.0336 20.0925 28.8489C19.8381 28.7544 19.5911 28.643 19.3533 28.5158L19.3158 28.4946L19.3081 28.4909Z" fill="#CFD8DC"/>
<path d="M19.3067 20.5101L19.315 20.5054L19.3533 20.4842C19.3872 20.4648 19.4386 20.4379 19.5075 20.4033C19.645 20.3349 19.845 20.243 20.0925 20.1519C20.5917 19.9649 21.2675 19.7857 22 19.7857C22.7325 19.7857 23.4083 19.9664 23.9075 20.1511C24.1619 20.2456 24.4089 20.357 24.6467 20.4842C24.6639 20.4931 24.6764 20.5002 24.6842 20.5054L24.6921 20.5099C24.6924 20.5101 24.6926 20.5101 24.6929 20.5101C24.6932 20.5101 24.6935 20.5102 24.6937 20.5104C24.7868 20.5637 24.8984 20.5805 25.0046 20.5571C25.1108 20.5337 25.2031 20.472 25.2617 20.3851C25.3202 20.2983 25.3402 20.1933 25.3174 20.0926C25.2947 19.992 25.231 19.9038 25.14 19.847L25.1375 19.8454L25.1333 19.8431L25.1183 19.8344L25.0675 19.8054C24.7928 19.6581 24.5074 19.5294 24.2133 19.4204C23.6533 19.2121 22.8708 19 22 19C21.1292 19 20.3458 19.2121 19.7875 19.4204C19.4932 19.5294 19.2075 19.6581 18.9325 19.8054L18.8817 19.8344L18.8687 19.8412C18.8674 19.8419 18.866 19.8428 18.8648 19.8437L18.864 19.8443C18.863 19.8451 18.8619 19.8457 18.8608 19.8462C18.7675 19.902 18.7014 19.9904 18.6772 20.0921C18.6529 20.1937 18.6725 20.3003 18.7317 20.3884C18.7908 20.4764 18.8846 20.5387 18.9924 20.5615C19.1002 20.5844 19.2133 20.5659 19.3067 20.5101ZM18.6667 21.3571C18.2246 21.3571 17.8007 21.5227 17.4882 21.8174C17.1756 22.1121 17 22.5118 17 22.9286V26.0714C17 26.4882 17.1756 26.8879 17.4882 27.1826C17.8007 27.4773 18.2246 27.6429 18.6667 27.6429H22C22.442 27.6429 22.866 27.4773 23.1785 27.1826C23.4911 26.8879 23.6667 26.4882 23.6667 26.0714V22.9286C23.6667 22.5118 23.4911 22.1121 23.1785 21.8174C22.866 21.5227 22.442 21.3571 22 21.3571H18.6667ZM27 22.5357C27 22.4628 26.9785 22.3912 26.9378 22.3292C26.8971 22.2671 26.8389 22.217 26.7697 22.1843C26.7005 22.1517 26.623 22.1379 26.5459 22.1444C26.4688 22.151 26.3952 22.1777 26.3333 22.2214L24.6667 23.4C24.6149 23.4366 24.5729 23.484 24.544 23.5386C24.5151 23.5931 24.5 23.6533 24.5 23.7143V25.2857C24.5 25.3467 24.5151 25.4069 24.544 25.4614C24.5729 25.516 24.6149 25.5634 24.6667 25.6L26.3333 26.7786C26.3952 26.8223 26.4688 26.849 26.5459 26.8556C26.623 26.8621 26.7005 26.8483 26.7697 26.8157C26.8389 26.783 26.8971 26.7329 26.9378 26.6708C26.9785 26.6088 27 26.5372 27 26.4643V22.5357ZM19.3081 28.4909C19.3077 28.4907 19.3073 28.4905 19.307 28.4902C19.3068 28.49 19.3065 28.4898 19.3062 28.4896C19.2131 28.4363 19.1015 28.4195 18.9954 28.4429C18.8892 28.4663 18.7968 28.528 18.7383 28.6149C18.6798 28.7017 18.6598 28.8067 18.6826 28.9074C18.7053 29.008 18.769 29.0962 18.86 29.153L18.8625 29.1546L18.8667 29.1569L18.8817 29.1656C18.8933 29.1729 18.9103 29.1826 18.9325 29.1946C18.9769 29.2187 19.0392 29.2512 19.1192 29.2921C19.2783 29.3706 19.5067 29.4751 19.7875 29.5796C20.3458 29.7871 21.1292 30 22 30C22.8717 30 23.6542 29.7879 24.2125 29.5796C24.5068 29.4706 24.7925 29.3419 25.0675 29.1946L25.1183 29.1656L25.1313 29.1588C25.1326 29.1581 25.134 29.1572 25.1352 29.1563L25.136 29.1557C25.137 29.1549 25.1381 29.1543 25.1392 29.1538C25.2325 29.0979 25.2994 29.0094 25.3235 28.9077C25.3477 28.8059 25.328 28.6993 25.2688 28.6112C25.2095 28.5232 25.1156 28.461 25.0077 28.4382C24.8998 28.4154 24.7867 28.434 24.6933 28.4899L24.685 28.4954L24.6467 28.5158C24.6128 28.5352 24.5614 28.5621 24.4925 28.5967C24.3026 28.6906 24.1073 28.7745 23.9075 28.8481C23.4083 29.0351 22.7325 29.2143 22 29.2143C21.2675 29.2143 20.5917 29.0336 20.0925 28.8489C19.8381 28.7544 19.5911 28.643 19.3533 28.5158L19.3158 28.4946L19.3081 28.4909Z" fill="#E6EEF8"/>
</g>
<defs>
<filter id="filter0_ii_69_2513" x="-4" y="-4" width="30.5" height="38" filterUnits="userSpaceOnUse" color-interpolation-filters="sRGB">
<feFlood flood-opacity="0" result="BackgroundImageFix"/>
<feBlend mode="normal" in="SourceGraphic" in2="BackgroundImageFix" result="shape"/>
<feColorMatrix in="SourceAlpha" type="matrix" values="0 0 0 0 0 0 0 0 0 0 0 0 0 0 0 0 0 0 127 0" result="hardAlpha"/>
<feOffset dx="4" dy="4"/>
<feGaussianBlur stdDeviation="6"/>
<feComposite in2="hardAlpha" operator="arithmetic" k2="-1" k3="1"/>
<feColorMatrix type="matrix" values="0 0 0 0 0.733333 0 0 0 0 0.764706 0 0 0 0 0.807843 0 0 0 0.6 0"/>
<feBlend mode="normal" in2="shape" result="effect1_innerShadow_69_2513"/>
<feColorMatrix in="SourceAlpha" type="matrix" values="0 0 0 0 0 0 0 0 0 0 0 0 0 0 0 0 0 0 127 0" result="hardAlpha"/>
<feOffset dx="-4" dy="-4"/>
<feGaussianBlur stdDeviation="6"/>
<feComposite in2="hardAlpha" operator="arithmetic" k2="-1" k3="1"/>
<feColorMatrix type="matrix" values="0 0 0 0 0.992157 0 0 0 0 1 0 0 0 0 1 0 0 0 0.8 0"/>
<feBlend mode="normal" in2="effect1_innerShadow_69_2513" result="effect2_innerShadow_69_2513"/>
</filter>
<filter id="filter1_ii_69_2513" x="13" y="15" width="18" height="19" filterUnits="userSpaceOnUse" color-interpolation-filters="sRGB">
<feFlood flood-opacity="0" result="BackgroundImageFix"/>
<feBlend mode="normal" in="SourceGraphic" in2="BackgroundImageFix" result="shape"/>
<feColorMatrix in="SourceAlpha" type="matrix" values="0 0 0 0 0 0 0 0 0 0 0 0 0 0 0 0 0 0 127 0" result="hardAlpha"/>
<feOffset dx="4" dy="4"/>
<feGaussianBlur stdDeviation="6"/>
<feComposite in2="hardAlpha" operator="arithmetic" k2="-1" k3="1"/>
<feColorMatrix type="matrix" values="0 0 0 0 0.733333 0 0 0 0 0.764706 0 0 0 0 0.807843 0 0 0 0.6 0"/>
<feBlend mode="normal" in2="shape" result="effect1_innerShadow_69_2513"/>
<feColorMatrix in="SourceAlpha" type="matrix" values="0 0 0 0 0 0 0 0 0 0 0 0 0 0 0 0 0 0 127 0" result="hardAlpha"/>
<feOffset dx="-4" dy="-4"/>
<feGaussianBlur stdDeviation="6"/>
<feComposite in2="hardAlpha" operator="arithmetic" k2="-1" k3="1"/>
<feColorMatrix type="matrix" values="0 0 0 0 0.992157 0 0 0 0 1 0 0 0 0 1 0 0 0 0.8 0"/>
<feBlend mode="normal" in2="effect1_innerShadow_69_2513" result="effect2_innerShadow_69_2513"/>
</filter>
</defs>
</svg>
