<svg width="36" height="33" viewBox="0 0 36 33" fill="none" xmlns="http://www.w3.org/2000/svg">
<g filter="url(#filter0_ii_1927_5565)">
<path d="M19.4464 18.0365C21.8813 18.0365 23.8552 19.99 23.8552 22.3998L23.8529 24.5767C24.1553 29.9191 19.9977 32.5833 12.2878 32.5833C4.60281 32.5833 0.354168 29.9539 0.354168 24.653V22.3998C0.354168 19.99 2.32804 18.0365 4.76293 18.0365H19.4464ZM31.2049 18.0365C33.6398 18.0365 35.6137 19.99 35.6137 22.3998L35.6115 23.9316C35.8772 28.7238 32.2036 31.1265 25.4888 31.1265C24.4872 31.1265 24.0227 29.8563 24.4807 28.9656C25.0466 27.8649 25.3403 26.5846 25.3386 25.1242L25.3202 24.4954L25.3248 22.3998C25.3248 20.6858 26.5661 18.0358 28.2801 18.0361L31.2049 18.0365ZM12.1109 0.583252C16.1697 0.583252 19.46 3.83965 19.46 7.85662C19.46 11.8736 16.1697 15.13 12.1109 15.13C8.05206 15.13 4.76174 11.8736 4.76174 7.85662C4.76174 3.83965 8.05206 0.583252 12.1109 0.583252ZM26.8068 3.49213C30.0533 3.49213 32.6851 6.09683 32.6851 9.30988C32.6851 12.5229 30.0533 15.1276 26.8068 15.1276C23.5602 15.1276 20.9284 12.5229 20.9284 9.30988C20.9284 6.09683 23.5602 3.49213 26.8068 3.49213Z" fill="#CFD8DC"/>
<path d="M19.4464 18.0365C21.8813 18.0365 23.8552 19.99 23.8552 22.3998L23.8529 24.5767C24.1553 29.9191 19.9977 32.5833 12.2878 32.5833C4.60281 32.5833 0.354168 29.9539 0.354168 24.653V22.3998C0.354168 19.99 2.32804 18.0365 4.76293 18.0365H19.4464ZM31.2049 18.0365C33.6398 18.0365 35.6137 19.99 35.6137 22.3998L35.6115 23.9316C35.8772 28.7238 32.2036 31.1265 25.4888 31.1265C24.4872 31.1265 24.0227 29.8563 24.4807 28.9656C25.0466 27.8649 25.3403 26.5846 25.3386 25.1242L25.3202 24.4954L25.3248 22.3998C25.3248 20.6858 26.5661 18.0358 28.2801 18.0361L31.2049 18.0365ZM12.1109 0.583252C16.1697 0.583252 19.46 3.83965 19.46 7.85662C19.46 11.8736 16.1697 15.13 12.1109 15.13C8.05206 15.13 4.76174 11.8736 4.76174 7.85662C4.76174 3.83965 8.05206 0.583252 12.1109 0.583252ZM26.8068 3.49213C30.0533 3.49213 32.6851 6.09683 32.6851 9.30988C32.6851 12.5229 30.0533 15.1276 26.8068 15.1276C23.5602 15.1276 20.9284 12.5229 20.9284 9.30988C20.9284 6.09683 23.5602 3.49213 26.8068 3.49213Z" fill="#E6EEF8"/>
</g>
<defs>
<filter id="filter0_ii_1927_5565" x="-3.64583" y="-3.41675" width="43.2708" height="40" filterUnits="userSpaceOnUse" color-interpolation-filters="sRGB">
<feFlood flood-opacity="0" result="BackgroundImageFix"/>
<feBlend mode="normal" in="SourceGraphic" in2="BackgroundImageFix" result="shape"/>
<feColorMatrix in="SourceAlpha" type="matrix" values="0 0 0 0 0 0 0 0 0 0 0 0 0 0 0 0 0 0 127 0" result="hardAlpha"/>
<feOffset dx="4" dy="4"/>
<feGaussianBlur stdDeviation="6"/>
<feComposite in2="hardAlpha" operator="arithmetic" k2="-1" k3="1"/>
<feColorMatrix type="matrix" values="0 0 0 0 0.733333 0 0 0 0 0.764706 0 0 0 0 0.807843 0 0 0 0.6 0"/>
<feBlend mode="normal" in2="shape" result="effect1_innerShadow_1927_5565"/>
<feColorMatrix in="SourceAlpha" type="matrix" values="0 0 0 0 0 0 0 0 0 0 0 0 0 0 0 0 0 0 127 0" result="hardAlpha"/>
<feOffset dx="-4" dy="-4"/>
<feGaussianBlur stdDeviation="6"/>
<feComposite in2="hardAlpha" operator="arithmetic" k2="-1" k3="1"/>
<feColorMatrix type="matrix" values="0 0 0 0 0.992157 0 0 0 0 1 0 0 0 0 1 0 0 0 0.8 0"/>
<feBlend mode="normal" in2="effect1_innerShadow_1927_5565" result="effect2_innerShadow_1927_5565"/>
</filter>
</defs>
</svg>
