<svg width="27" height="30" viewBox="0 0 27 30" fill="none" xmlns="http://www.w3.org/2000/svg">
<g filter="url(#filter0_ii_69_2503)">
<path d="M14.25 0C12.062 0 9.96354 0.869194 8.41637 2.41637C6.86919 3.96354 6 6.06196 6 8.25C6 10.438 6.86919 12.5365 8.41637 14.0836C9.96354 15.6308 12.062 16.5 14.25 16.5C16.438 16.5 18.5365 15.6308 20.0836 14.0836C21.6308 12.5365 22.5 10.438 22.5 8.25C22.5 6.06196 21.6308 3.96354 20.0836 2.41637C18.5365 0.869194 16.438 0 14.25 0ZM14.2608 18C15.0945 18 15.5926 18.9883 15.2279 19.7379C14.5858 21.0578 14.2475 22.5145 14.25 24C14.25 25.5296 14.6021 26.9762 15.2294 28.2641C15.5942 29.0132 15.0966 30 14.2633 30H1C0.447716 30 0 29.5523 0 29V27C0 24.6131 0.948211 22.3239 2.63604 20.636C4.32387 18.9482 6.61305 18 9 18H14.2608Z" fill="#CFD8DC"/>
<path d="M14.25 0C12.062 0 9.96354 0.869194 8.41637 2.41637C6.86919 3.96354 6 6.06196 6 8.25C6 10.438 6.86919 12.5365 8.41637 14.0836C9.96354 15.6308 12.062 16.5 14.25 16.5C16.438 16.5 18.5365 15.6308 20.0836 14.0836C21.6308 12.5365 22.5 10.438 22.5 8.25C22.5 6.06196 21.6308 3.96354 20.0836 2.41637C18.5365 0.869194 16.438 0 14.25 0ZM14.2608 18C15.0945 18 15.5926 18.9883 15.2279 19.7379C14.5858 21.0578 14.2475 22.5145 14.25 24C14.25 25.5296 14.6021 26.9762 15.2294 28.2641C15.5942 29.0132 15.0966 30 14.2633 30H1C0.447716 30 0 29.5523 0 29V27C0 24.6131 0.948211 22.3239 2.63604 20.636C4.32387 18.9482 6.61305 18 9 18H14.2608Z" fill="#E6EEF8"/>
</g>
<g filter="url(#filter1_ii_69_2503)">
<path d="M23.0023 19.9318L22.952 19.9022C22.3821 19.5651 21.8808 19.268 21.451 19.1184C21.2142 19.0298 20.9609 18.9902 20.7074 19.002C20.4406 19.0218 20.1855 19.1171 19.9737 19.2762C19.5326 19.5977 19.3421 20.0711 19.2377 20.5949C19.1364 21.1024 19.0975 21.7632 19.0495 22.5678L19.0472 22.6093C19.0183 23.0909 19 23.5673 19 23.9992C19 24.4311 19.0183 24.9082 19.0472 25.3898L19.0495 25.4305C19.0975 26.2351 19.1364 26.896 19.2377 27.4027C19.3421 27.9272 19.5326 28.3999 19.9737 28.7222C20.1916 28.8815 20.4362 28.9763 20.7074 28.9963C20.968 29.0148 21.2179 28.9615 21.451 28.88C21.8808 28.7303 22.3821 28.4333 22.952 28.0969L23.0023 28.0673C23.3269 27.8746 23.6453 27.6768 23.9295 27.482C24.2776 27.2412 24.6168 26.9887 24.9467 26.7248L24.9848 26.6945C25.5669 26.2329 26.0606 25.841 26.4019 25.4557C26.7737 25.0334 27 24.58 27 23.9992C27 23.4183 26.7737 22.9642 26.4011 22.5426C26.0606 22.1574 25.5669 21.7647 24.9855 21.3039L24.9474 21.2735C24.6015 20.9994 24.2541 20.7371 23.9295 20.5164C23.6269 20.3118 23.3176 20.1167 23.0023 19.9311" fill="#CFD8DC"/>
<path d="M23.0023 19.9318L22.952 19.9022C22.3821 19.5651 21.8808 19.268 21.451 19.1184C21.2142 19.0298 20.9609 18.9902 20.7074 19.002C20.4406 19.0218 20.1855 19.1171 19.9737 19.2762C19.5326 19.5977 19.3421 20.0711 19.2377 20.5949C19.1364 21.1024 19.0975 21.7632 19.0495 22.5678L19.0472 22.6093C19.0183 23.0909 19 23.5673 19 23.9992C19 24.4311 19.0183 24.9082 19.0472 25.3898L19.0495 25.4305C19.0975 26.2351 19.1364 26.896 19.2377 27.4027C19.3421 27.9272 19.5326 28.3999 19.9737 28.7222C20.1916 28.8815 20.4362 28.9763 20.7074 28.9963C20.968 29.0148 21.2179 28.9615 21.451 28.88C21.8808 28.7303 22.3821 28.4333 22.952 28.0969L23.0023 28.0673C23.3269 27.8746 23.6453 27.6768 23.9295 27.482C24.2776 27.2412 24.6168 26.9887 24.9467 26.7248L24.9848 26.6945C25.5669 26.2329 26.0606 25.841 26.4019 25.4557C26.7737 25.0334 27 24.58 27 23.9992C27 23.4183 26.7737 22.9642 26.4011 22.5426C26.0606 22.1574 25.5669 21.7647 24.9855 21.3039L24.9474 21.2735C24.6015 20.9994 24.2541 20.7371 23.9295 20.5164C23.6269 20.3118 23.3176 20.1167 23.0023 19.9311" fill="#E6EEF8"/>
</g>
<defs>
<filter id="filter0_ii_69_2503" x="-4" y="-4" width="30.5" height="38" filterUnits="userSpaceOnUse" color-interpolation-filters="sRGB">
<feFlood flood-opacity="0" result="BackgroundImageFix"/>
<feBlend mode="normal" in="SourceGraphic" in2="BackgroundImageFix" result="shape"/>
<feColorMatrix in="SourceAlpha" type="matrix" values="0 0 0 0 0 0 0 0 0 0 0 0 0 0 0 0 0 0 127 0" result="hardAlpha"/>
<feOffset dx="4" dy="4"/>
<feGaussianBlur stdDeviation="6"/>
<feComposite in2="hardAlpha" operator="arithmetic" k2="-1" k3="1"/>
<feColorMatrix type="matrix" values="0 0 0 0 0.733333 0 0 0 0 0.764706 0 0 0 0 0.807843 0 0 0 0.6 0"/>
<feBlend mode="normal" in2="shape" result="effect1_innerShadow_69_2503"/>
<feColorMatrix in="SourceAlpha" type="matrix" values="0 0 0 0 0 0 0 0 0 0 0 0 0 0 0 0 0 0 127 0" result="hardAlpha"/>
<feOffset dx="-4" dy="-4"/>
<feGaussianBlur stdDeviation="6"/>
<feComposite in2="hardAlpha" operator="arithmetic" k2="-1" k3="1"/>
<feColorMatrix type="matrix" values="0 0 0 0 0.992157 0 0 0 0 1 0 0 0 0 1 0 0 0 0.8 0"/>
<feBlend mode="normal" in2="effect1_innerShadow_69_2503" result="effect2_innerShadow_69_2503"/>
</filter>
<filter id="filter1_ii_69_2503" x="15" y="15" width="16" height="18" filterUnits="userSpaceOnUse" color-interpolation-filters="sRGB">
<feFlood flood-opacity="0" result="BackgroundImageFix"/>
<feBlend mode="normal" in="SourceGraphic" in2="BackgroundImageFix" result="shape"/>
<feColorMatrix in="SourceAlpha" type="matrix" values="0 0 0 0 0 0 0 0 0 0 0 0 0 0 0 0 0 0 127 0" result="hardAlpha"/>
<feOffset dx="4" dy="4"/>
<feGaussianBlur stdDeviation="6"/>
<feComposite in2="hardAlpha" operator="arithmetic" k2="-1" k3="1"/>
<feColorMatrix type="matrix" values="0 0 0 0 0.733333 0 0 0 0 0.764706 0 0 0 0 0.807843 0 0 0 0.6 0"/>
<feBlend mode="normal" in2="shape" result="effect1_innerShadow_69_2503"/>
<feColorMatrix in="SourceAlpha" type="matrix" values="0 0 0 0 0 0 0 0 0 0 0 0 0 0 0 0 0 0 127 0" result="hardAlpha"/>
<feOffset dx="-4" dy="-4"/>
<feGaussianBlur stdDeviation="6"/>
<feComposite in2="hardAlpha" operator="arithmetic" k2="-1" k3="1"/>
<feColorMatrix type="matrix" values="0 0 0 0 0.992157 0 0 0 0 1 0 0 0 0 1 0 0 0 0.8 0"/>
<feBlend mode="normal" in2="effect1_innerShadow_69_2503" result="effect2_innerShadow_69_2503"/>
</filter>
</defs>
</svg>
