<svg width="37" height="36" viewBox="0 0 37 36" fill="none" xmlns="http://www.w3.org/2000/svg">
<g filter="url(#filter0_ii_583_15203)">
<path d="M17.75 3C15.562 3 13.4635 3.86919 11.9164 5.41637C10.3692 6.96354 9.5 9.06196 9.5 11.25C9.5 13.438 10.3692 15.5365 11.9164 17.0836C13.4635 18.6308 15.562 19.5 17.75 19.5C19.938 19.5 22.0365 18.6308 23.5836 17.0836C25.1308 15.5365 26 13.438 26 11.25C26 9.06196 25.1308 6.96354 23.5836 5.41637C22.0365 3.86919 19.938 3 17.75 3ZM18.8825 21C17.6541 22.7594 16.9969 24.8542 17 27C17 29.2305 17.696 31.299 18.8825 33H3.5V30C3.5 27.6131 4.44821 25.3239 6.13604 23.636C7.82387 21.9482 10.1131 21 12.5 21H18.8825Z" fill="white"/>
<path d="M24.666 21.1667H22.3327C22.0233 21.1667 21.7265 21.2897 21.5077 21.5085C21.2889 21.7272 21.166 22.024 21.166 22.3334V24.6667C21.166 24.9762 21.2889 25.2729 21.5077 25.4917C21.7265 25.7105 22.0233 25.8334 22.3327 25.8334H24.666C24.9754 25.8334 25.2722 25.7105 25.491 25.4917C25.7098 25.2729 25.8327 24.9762 25.8327 24.6667V22.3334C25.8327 22.024 25.7098 21.7272 25.491 21.5085C25.2722 21.2897 24.9754 21.1667 24.666 21.1667ZM31.666 28.1667H29.3327C29.0233 28.1667 28.7265 28.2897 28.5077 28.5085C28.2889 28.7272 28.166 29.024 28.166 29.3334V31.6667C28.166 31.9762 28.2889 32.2729 28.5077 32.4917C28.7265 32.7105 29.0233 32.8334 29.3327 32.8334H31.666C31.9754 32.8334 32.2722 32.7105 32.491 32.4917C32.7098 32.2729 32.8327 31.9762 32.8327 31.6667V29.3334C32.8327 29.024 32.7098 28.7272 32.491 28.5085C32.2722 28.2897 31.9754 28.1667 31.666 28.1667ZM29.7451 21.3377C29.8455 21.4381 29.9059 21.5718 29.9148 21.7135C29.9237 21.8553 29.8806 21.9954 29.7935 22.1077L29.7451 22.1625L28.9908 22.9167H31.0827C31.5291 22.9167 31.9586 23.0873 32.2833 23.3935C32.6081 23.6997 32.8036 24.1185 32.8298 24.5641L32.8327 24.6667V26.4167C32.8325 26.5654 32.7756 26.7084 32.6735 26.8165C32.5715 26.9247 32.432 26.9897 32.2835 26.9984C32.1351 27.0071 31.989 26.9589 31.8749 26.8634C31.7609 26.768 31.6877 26.6326 31.6701 26.485L31.666 26.4167V24.6667C31.666 24.5239 31.6135 24.386 31.5186 24.2792C31.4237 24.1724 31.2928 24.1042 31.1509 24.0875L31.0827 24.0834H28.9914L29.7451 24.8377C29.8497 24.9426 29.9105 25.0835 29.915 25.2316C29.9195 25.3798 29.8675 25.5241 29.7695 25.6352C29.6714 25.7464 29.5348 25.8161 29.3872 25.8301C29.2397 25.8442 29.0923 25.8016 28.9751 25.7109L28.9203 25.6625L27.1703 23.9125C27.1037 23.8474 27.054 23.7671 27.0255 23.6784C26.9971 23.5898 26.9907 23.4955 27.0069 23.4038L27.0279 23.3187L27.0513 23.258C27.0851 23.1837 27.1327 23.1188 27.1942 23.0632L28.9203 21.3377C29.0297 21.2283 29.178 21.1669 29.3327 21.1669C29.4874 21.1669 29.6357 21.2283 29.7451 21.3377ZM21.7493 27.0001C21.8922 27.0001 22.0301 27.0526 22.1369 27.1475C22.2437 27.2424 22.3119 27.3733 22.3286 27.5152L22.3327 27.5834V29.3334C22.3327 29.4763 22.3852 29.6142 22.4801 29.721C22.575 29.8277 22.7059 29.8959 22.8478 29.9127L22.916 29.9167H25.0073L24.2536 29.1625C24.1532 29.0621 24.0928 28.9284 24.0839 28.7866C24.075 28.6449 24.1181 28.5047 24.2052 28.3925L24.2536 28.3377C24.354 28.2372 24.4877 28.1769 24.6295 28.168C24.7712 28.1591 24.9114 28.2022 25.0236 28.2892L25.0784 28.3377L26.8284 30.0877C26.895 30.1527 26.9447 30.2331 26.9732 30.3217C27.0016 30.4104 27.008 30.5047 26.9918 30.5963L26.9708 30.6815L26.9474 30.7422C26.9139 30.8164 26.8652 30.8827 26.8045 30.937L25.0784 32.6625C24.9735 32.7671 24.8326 32.8279 24.6845 32.8324C24.5363 32.8369 24.392 32.7849 24.2809 32.6869C24.1697 32.5888 24.1 32.4522 24.0859 32.3046C24.0719 32.1571 24.1145 32.0097 24.2052 31.8925L24.2536 31.8377L25.0067 31.0834H22.916C22.4696 31.0834 22.0401 30.9129 21.7154 30.6067C21.3906 30.3004 21.1951 29.8817 21.1689 29.4361L21.166 29.3334V27.5834C21.166 27.4287 21.2275 27.2803 21.3369 27.1709C21.4463 27.0615 21.5946 27.0001 21.7493 27.0001Z" fill="white"/>
</g>
<defs>
<filter id="filter0_ii_583_15203" x="-0.5" y="-1" width="38.5" height="39" filterUnits="userSpaceOnUse" color-interpolation-filters="sRGB">
<feFlood flood-opacity="0" result="BackgroundImageFix"/>
<feBlend mode="normal" in="SourceGraphic" in2="BackgroundImageFix" result="shape"/>
<feColorMatrix in="SourceAlpha" type="matrix" values="0 0 0 0 0 0 0 0 0 0 0 0 0 0 0 0 0 0 127 0" result="hardAlpha"/>
<feOffset dx="4" dy="4"/>
<feGaussianBlur stdDeviation="6"/>
<feComposite in2="hardAlpha" operator="arithmetic" k2="-1" k3="1"/>
<feColorMatrix type="matrix" values="0 0 0 0 0.733333 0 0 0 0 0.764706 0 0 0 0 0.807843 0 0 0 0.6 0"/>
<feBlend mode="normal" in2="shape" result="effect1_innerShadow_583_15203"/>
<feColorMatrix in="SourceAlpha" type="matrix" values="0 0 0 0 0 0 0 0 0 0 0 0 0 0 0 0 0 0 127 0" result="hardAlpha"/>
<feOffset dx="-4" dy="-4"/>
<feGaussianBlur stdDeviation="6"/>
<feComposite in2="hardAlpha" operator="arithmetic" k2="-1" k3="1"/>
<feColorMatrix type="matrix" values="0 0 0 0 0.992157 0 0 0 0 1 0 0 0 0 1 0 0 0 0.8 0"/>
<feBlend mode="normal" in2="effect1_innerShadow_583_15203" result="effect2_innerShadow_583_15203"/>
</filter>
</defs>
</svg>
