<svg width="36" height="36" viewBox="0 0 36 36" fill="none" xmlns="http://www.w3.org/2000/svg">
<g filter="url(#filter0_ii_69_2509)">
<path d="M35.6675 19.1922L33.5643 15.8746L34.8119 12.1514C34.895 11.9052 34.89 11.6378 34.7978 11.3948C34.7056 11.1519 34.532 10.9485 34.3065 10.8194L30.9031 8.85739L30.2772 4.98047C30.2351 4.72414 30.106 4.49015 29.9115 4.3179C29.7171 4.14565 29.4692 4.04567 29.2097 4.03478L25.2843 3.88108L22.9291 0.738008C22.7737 0.529799 22.5508 0.38201 22.2985 0.319886C22.0462 0.257762 21.7802 0.285158 21.5459 0.397393L17.9999 2.08385L14.4525 0.396008C14.2177 0.285247 13.952 0.258786 13.7 0.321082C13.4481 0.383379 13.2253 0.530625 13.0692 0.738008L10.714 3.88108L6.78862 4.03478C6.52905 4.04437 6.28086 4.14376 6.08642 4.31598C5.89197 4.4882 5.76334 4.72257 5.72247 4.97908L5.09662 8.85601L1.69324 10.818C1.46749 10.9469 1.29352 11.1502 1.20109 11.3932C1.10865 11.6361 1.10348 11.9037 1.18647 12.15L2.43401 15.8732L0.332159 19.1922C0.193509 19.4118 0.135004 19.6727 0.166542 19.9305C0.19808 20.1884 0.317726 20.4274 0.505236 20.6072L3.33954 23.3252L3.02108 27.2382C2.9999 27.4971 3.06881 27.7554 3.21616 27.9693C3.36351 28.1833 3.58024 28.3398 3.8297 28.4123L7.60278 29.4992L9.13831 33.1145C9.23913 33.3541 9.42004 33.5512 9.65012 33.6722C9.8802 33.7932 10.1452 33.8305 10.3997 33.7777L14.2489 32.9885L17.2868 35.4766C17.4931 35.6442 17.7465 35.7314 17.9999 35.7314C18.2532 35.7314 18.5052 35.6442 18.7129 35.4766L21.7508 32.9885L25.6 33.7777C26.122 33.8885 26.6523 33.6074 26.8614 33.1145L28.3969 29.4992L32.17 28.4123C32.42 28.3407 32.6374 28.1844 32.7849 27.9703C32.9324 27.7561 33.0009 27.4973 32.9786 27.2382L32.6602 23.3252L35.4945 20.6072C35.682 20.4274 35.8016 20.1884 35.8332 19.9305C35.8647 19.6727 35.8062 19.4118 35.6675 19.1922ZM26.1372 13.7769L18.2574 25.5822C17.9597 26.0225 17.4986 26.3174 17.0403 26.3174C16.582 26.3174 16.0725 26.0612 15.7471 25.7345L9.96216 19.8568C9.77189 19.6627 9.66531 19.4017 9.66531 19.1299C9.66531 18.858 9.77189 18.597 9.96216 18.4029L11.3897 16.9491C11.4832 16.855 11.5945 16.7804 11.717 16.7294C11.8394 16.6785 11.9708 16.6523 12.1035 16.6523C12.2361 16.6523 12.3675 16.6785 12.49 16.7294C12.6125 16.7804 12.7237 16.855 12.8172 16.9491L16.582 20.7734L22.7906 11.4715C22.8642 11.3606 22.9592 11.2655 23.0699 11.1916C23.1807 11.1178 23.305 11.0668 23.4357 11.0415C23.5664 11.0162 23.7008 11.0172 23.8311 11.0445C23.9614 11.0717 24.085 11.1247 24.1946 11.2002L25.8686 12.3508C26.3297 12.6692 26.4488 13.3103 26.1372 13.7769Z" fill="#CFD8DC"/>
</g>
<defs>
<filter id="filter0_ii_69_2509" x="-3.8418" y="-3.71265" width="43.6831" height="43.444" filterUnits="userSpaceOnUse" color-interpolation-filters="sRGB">
<feFlood flood-opacity="0" result="BackgroundImageFix"/>
<feBlend mode="normal" in="SourceGraphic" in2="BackgroundImageFix" result="shape"/>
<feColorMatrix in="SourceAlpha" type="matrix" values="0 0 0 0 0 0 0 0 0 0 0 0 0 0 0 0 0 0 127 0" result="hardAlpha"/>
<feOffset dx="4" dy="4"/>
<feGaussianBlur stdDeviation="6"/>
<feComposite in2="hardAlpha" operator="arithmetic" k2="-1" k3="1"/>
<feColorMatrix type="matrix" values="0 0 0 0 0.733333 0 0 0 0 0.764706 0 0 0 0 0.807843 0 0 0 0.6 0"/>
<feBlend mode="normal" in2="shape" result="effect1_innerShadow_69_2509"/>
<feColorMatrix in="SourceAlpha" type="matrix" values="0 0 0 0 0 0 0 0 0 0 0 0 0 0 0 0 0 0 127 0" result="hardAlpha"/>
<feOffset dx="-4" dy="-4"/>
<feGaussianBlur stdDeviation="6"/>
<feComposite in2="hardAlpha" operator="arithmetic" k2="-1" k3="1"/>
<feColorMatrix type="matrix" values="0 0 0 0 0.992157 0 0 0 0 1 0 0 0 0 1 0 0 0 0.8 0"/>
<feBlend mode="normal" in2="effect1_innerShadow_69_2509" result="effect2_innerShadow_69_2509"/>
</filter>
</defs>
</svg>
