<svg width="32" height="32" viewBox="0 0 32 32" fill="none" xmlns="http://www.w3.org/2000/svg">
<g id="icon-park-outline:link">
<rect x="0.5" y="0.5" width="31" height="31" rx="15.5" stroke="#A7CFFF"/>
<path id="Vector" d="M16.0394 9.15748L9.1465 15.9612C8.36314 16.7345 7.92307 17.7832 7.92307 18.8767C7.92307 19.9702 8.36314 21.019 9.1465 21.7922C9.53445 22.1752 9.99501 22.4789 10.5019 22.6861C11.0088 22.8933 11.552 23 12.1007 23C12.6493 23 13.1926 22.8933 13.6995 22.6861C14.2063 22.4789 14.6669 22.1752 15.0548 21.7922L23.261 13.6933C23.5197 13.438 23.7249 13.135 23.8649 12.8014C24.0049 12.4679 24.0769 12.1103 24.0769 11.7493C24.0769 11.3883 24.0049 11.0308 23.8649 10.6972C23.7249 10.3637 23.5197 10.0606 23.261 9.80532C23.0023 9.55001 22.6953 9.34748 22.3573 9.2093C22.0194 9.07112 21.6572 9 21.2914 9C20.9256 9 20.5634 9.07112 20.2254 9.2093C19.8875 9.34748 19.5804 9.55001 19.3218 9.80532L11.1161 17.9047C10.9868 18.0324 10.8842 18.1839 10.8142 18.3507C10.7442 18.5175 10.7081 18.6962 10.7081 18.8767C10.7081 19.0572 10.7442 19.236 10.8142 19.4028C10.8842 19.5695 10.9868 19.7211 11.1161 19.8487C11.3773 20.1064 11.7314 20.2511 12.1007 20.2511C12.4699 20.2511 12.8241 20.1064 13.0852 19.8487L19.9786 13.045" stroke="#A7CFFF" stroke-linecap="round" stroke-linejoin="round"/>
</g>
</svg>
