<svg width="20" height="20" viewBox="0 0 20 20" fill="none" xmlns="http://www.w3.org/2000/svg">
<g id="Huge-icon/interface/solid/ticket">
<path id="Subtract" fill-rule="evenodd" clip-rule="evenodd" d="M4.99999 17.5C3.15904 17.5 1.66666 16.0076 1.66666 14.1667V13.3333C1.66666 12.8731 2.04999 12.5136 2.4849 12.363C3.46377 12.0241 4.16666 11.0941 4.16666 10C4.16666 8.90585 3.46377 7.97588 2.4849 7.63698C2.04999 7.4864 1.66666 7.1269 1.66666 6.66667V5.83333C1.66666 3.99238 3.15904 2.5 4.99999 2.5H8.33332H15C16.8409 2.5 18.3333 3.99238 18.3333 5.83333V6.66667C18.3333 7.1269 17.95 7.4864 17.5151 7.63698C16.5362 7.97588 15.8333 8.90585 15.8333 10C15.8333 11.0941 16.5362 12.0241 17.5151 12.363C17.95 12.5136 18.3333 12.8731 18.3333 13.3333V14.1667C18.3333 16.0076 16.8409 17.5 15 17.5H8.33332H4.99999ZM8.95832 5C8.95832 4.65482 8.6785 4.375 8.33332 4.375C7.98815 4.375 7.70832 4.65482 7.70832 5V6.66667C7.70832 7.01184 7.98815 7.29167 8.33332 7.29167C8.6785 7.29167 8.95832 7.01184 8.95832 6.66667V5ZM8.33332 12.7083C8.6785 12.7083 8.95832 12.9882 8.95832 13.3333V15C8.95832 15.3452 8.6785 15.625 8.33332 15.625C7.98815 15.625 7.70832 15.3452 7.70832 15V13.3333C7.70832 12.9882 7.98815 12.7083 8.33332 12.7083ZM8.95832 9.16667C8.95832 8.82149 8.6785 8.54167 8.33332 8.54167C7.98815 8.54167 7.70832 8.82149 7.70832 9.16667V10.8333C7.70832 11.1785 7.98815 11.4583 8.33332 11.4583C8.6785 11.4583 8.95832 11.1785 8.95832 10.8333V9.16667Z" fill="white"/>
</g>
</svg>
