<svg width="95" height="73" viewBox="0 0 95 73" fill="none" xmlns="http://www.w3.org/2000/svg">
<g clip-path="url(#clip0_431_359)">
<path d="M48.5954 42.5421L27.8868 42.8534C27.5599 42.8589 27.235 42.8093 26.9306 42.7073C26.6262 42.6053 26.3483 42.453 26.1128 42.2592C25.8774 42.0653 25.689 41.8336 25.5584 41.5774C25.4279 41.3212 25.3577 41.0455 25.3519 40.7661C25.3462 40.4866 25.405 40.209 25.5249 39.949C25.6449 39.6891 25.8236 39.4519 26.051 39.251C26.2783 39.0502 26.5497 38.8896 26.8498 38.7786C27.1498 38.6675 27.4725 38.6082 27.7994 38.6039L48.508 38.2926C48.8167 38.288 49.1149 38.3884 49.3371 38.5717C49.5592 38.7551 49.6871 39.0063 49.6925 39.2702L49.739 41.5296C49.7441 41.782 49.6369 42.0266 49.4391 42.214C49.2412 42.4013 48.9674 42.5174 48.6731 42.5387C48.6474 42.5406 48.6214 42.5417 48.5954 42.5421Z" fill="#4B93E7"/>
<path d="M44.5938 43.1196L27.6042 43.7825C27.4515 43.7885 27.2988 43.7687 27.1551 43.7242C27.0113 43.6798 26.8792 43.6116 26.7662 43.5235C26.6533 43.4354 26.5618 43.3291 26.4969 43.2108C26.432 43.0925 26.395 42.9644 26.388 42.8338L26.2082 39.467C26.1942 39.2033 26.3032 38.9457 26.5114 38.7507C26.7195 38.5558 27.0097 38.4395 27.3182 38.4274L44.3078 37.7645C44.4606 37.7585 44.6132 37.7783 44.757 37.8227C44.9007 37.8672 45.0329 37.9354 45.1458 38.0235C45.2587 38.1116 45.3502 38.2178 45.4151 38.3362C45.48 38.4545 45.517 38.5826 45.524 38.7132L45.7038 42.08C45.7172 42.3371 45.6137 42.5886 45.4149 42.782C45.2162 42.9753 44.9377 43.0954 44.6377 43.1172C44.6232 43.1182 44.6085 43.119 44.5938 43.1196Z" fill="#2F2E41"/>
<path d="M15.8633 72.0049V53.171C15.8636 52.9071 15.9864 52.6542 16.2047 52.4676C16.4229 52.281 16.7189 52.1761 17.0275 52.1758H19.6712C19.9799 52.1761 20.2758 52.281 20.4941 52.4676C20.7123 52.6542 20.8351 52.9071 20.8355 53.171V72.0049C20.8351 72.2688 20.7123 72.5217 20.4941 72.7083C20.2758 72.8949 19.9799 72.9998 19.6712 73.0001H17.0275C16.7189 72.9998 16.4229 72.8949 16.2047 72.7083C15.9864 72.5217 15.8636 72.2688 15.8633 72.0049Z" fill="#4B93E7"/>
<path d="M22.8008 72.0049V53.171C22.8011 52.9071 22.9239 52.6542 23.1422 52.4676C23.3604 52.281 23.6564 52.1761 23.965 52.1758H26.6087C26.9174 52.1761 27.2133 52.281 27.4316 52.4676C27.6498 52.6542 27.7726 52.9071 27.773 53.171V72.0049C27.7726 72.2688 27.6498 72.5217 27.4316 72.7083C27.2133 72.8949 26.9174 72.9998 26.6087 73.0001H23.965C23.6564 72.9998 23.3604 72.8949 23.1422 72.7083C22.9239 72.5217 22.8011 72.2688 22.8008 72.0049Z" fill="#4B93E7"/>
<path d="M23.4903 32.5204C28.5353 32.5204 32.6251 29.0245 32.6251 24.7121C32.6251 20.3997 28.5353 16.9038 23.4903 16.9038C18.4453 16.9038 14.3555 20.3997 14.3555 24.7121C14.3555 29.0245 18.4453 32.5204 23.4903 32.5204Z" fill="#4B93E7"/>
<path d="M28.4347 27.3781C28.7286 27.2956 28.9983 27.1602 29.2259 26.9812C29.3766 26.8533 29.4928 26.6988 29.5664 26.5285C29.64 26.3582 29.6691 26.1763 29.6517 25.9953C29.6421 25.8664 29.5978 25.7412 29.5222 25.6293C29.4467 25.5175 29.3418 25.4221 29.216 25.3506C28.8893 25.1715 28.4524 25.171 28.0076 25.3385L28.0244 22.2903L27.6662 22.2888L27.6464 25.8724L27.9224 25.724C28.2425 25.5522 28.6996 25.4312 29.0225 25.6084C29.1024 25.6552 29.1685 25.7171 29.2157 25.7893C29.263 25.8615 29.2902 25.942 29.2951 26.0246C29.3071 26.1594 29.2851 26.2948 29.2305 26.4216C29.1758 26.5485 29.0899 26.6638 28.9784 26.7597C28.5829 27.0827 28.0058 27.1837 27.3477 27.2739L27.4044 27.5762C27.7541 27.5366 28.0989 27.4703 28.4347 27.3781Z" fill="#2F2E41"/>
<path d="M31.7174 22.1361L29.8047 22.3521L29.8516 22.6556L31.7643 22.4397L31.7174 22.1361Z" fill="#2F2E41"/>
<path d="M25.6823 22.8175L23.7695 23.0334L23.8164 23.337L25.7292 23.1211L25.6823 22.8175Z" fill="#2F2E41"/>
<path d="M4.11141 24.0955L17.2269 37.7977C17.4338 38.0137 17.5889 38.2624 17.6833 38.5296C17.7777 38.7968 17.8097 39.0773 17.7772 39.355C17.7448 39.6328 17.6487 39.9024 17.4943 40.1484C17.34 40.3944 17.1305 40.612 16.8777 40.7887C16.625 40.9655 16.334 41.0979 16.0213 41.1785C15.7087 41.2591 15.3805 41.2863 15.0556 41.2585C14.7307 41.2306 14.4153 41.1483 14.1276 41.0163C13.8399 40.8843 13.5854 40.7051 13.3788 40.489L0.26322 26.7868C0.166393 26.6856 0.0938182 26.5692 0.0496459 26.4441C0.00547364 26.319 -0.00943484 26.1876 0.00577402 26.0576C0.0209829 25.9276 0.0660086 25.8013 0.138283 25.6862C0.210557 25.571 0.308663 25.4692 0.426997 25.3864L2.47305 23.9554C2.71205 23.7883 3.01892 23.7091 3.32616 23.7354C3.63341 23.7617 3.91587 23.8912 4.11141 24.0955Z" fill="#4B93E7"/>
<path d="M8.48533 27.1536L19.255 38.4051C19.3519 38.5062 19.4244 38.6227 19.4686 38.7478C19.5128 38.8729 19.5277 39.0042 19.5125 39.1343C19.4973 39.2643 19.4522 39.3905 19.38 39.5057C19.3077 39.6208 19.2096 39.7227 19.0913 39.8055L15.5965 42.2496C15.4782 42.3324 15.3419 42.3944 15.1956 42.4321C15.0492 42.4699 14.8955 42.4826 14.7434 42.4696C14.5913 42.4566 14.4436 42.4181 14.3089 42.3564C14.1742 42.2946 14.055 42.2107 13.9582 42.1095L3.18842 30.8581C2.99324 30.6537 2.90086 30.3915 2.93157 30.129C2.96227 29.8664 3.11355 29.625 3.3522 29.4577L6.84702 27.0135C7.086 26.8464 7.39286 26.7673 7.7001 26.7935C8.00734 26.8198 8.28979 26.9493 8.48533 27.1536Z" fill="#2F2E41"/>
<path d="M83.1526 13.4753C83.0209 13.208 82.8004 12.9796 82.5184 12.8183C82.2364 12.657 81.9052 12.5699 81.5659 12.5679H49.8964C49.4412 12.5681 49.0047 12.7228 48.6828 12.9979C48.3609 13.2731 48.1799 13.6462 48.1797 14.0353V48.2822C48.1799 48.6713 48.3609 49.0445 48.6828 49.3196C49.0047 49.5948 49.4412 49.7494 49.8964 49.7496H81.5671C82.0222 49.7491 82.4585 49.5944 82.7803 49.3193C83.1022 49.0442 83.2832 48.6712 83.2838 48.2822V14.0353C83.2846 13.8431 83.2403 13.6527 83.1537 13.4753H83.1526ZM82.9014 48.2822C82.901 48.5849 82.7602 48.875 82.5098 49.089C82.2595 49.303 81.92 49.4234 81.566 49.4238H49.8964C49.5423 49.4237 49.2027 49.3035 48.9522 49.0894C48.7018 48.8754 48.561 48.5851 48.5609 48.2824V14.0355C48.5614 13.7329 48.7023 13.4428 48.9526 13.2288C49.203 13.0148 49.5424 12.8944 49.8964 12.8939H81.5671C81.8338 12.8948 82.0942 12.9636 82.3149 13.0915C82.5357 13.2194 82.7069 13.4006 82.8067 13.6121C82.8261 13.6542 82.8429 13.6972 82.8569 13.7408C82.8872 13.8369 82.9026 13.936 82.9026 14.0355L82.9014 48.2822Z" fill="#3F3D56"/>
<path d="M76.5459 20.6533H67.0066C66.9062 20.6535 66.8069 20.6367 66.7141 20.604C66.6214 20.5712 66.5371 20.5232 66.4661 20.4626C66.3951 20.402 66.3388 20.3301 66.3004 20.2509C66.262 20.1716 66.2422 20.0867 66.2422 20.001C66.2422 19.9152 66.262 19.8303 66.3004 19.7511C66.3388 19.6719 66.3951 19.5999 66.4661 19.5393C66.5371 19.4788 66.6214 19.4307 66.7141 19.398C66.8069 19.3653 66.9062 19.3485 67.0066 19.3486H76.5459C76.6462 19.3485 76.7456 19.3653 76.8383 19.398C76.931 19.4307 77.0153 19.4788 77.0863 19.5393C77.1573 19.5999 77.2136 19.6719 77.252 19.7511C77.2904 19.8303 77.3102 19.9152 77.3102 20.001C77.3102 20.0867 77.2904 20.1716 77.252 20.2509C77.2136 20.3301 77.1573 20.402 77.0863 20.4626C77.0153 20.5232 76.931 20.5712 76.8383 20.604C76.7456 20.6367 76.6462 20.6535 76.5459 20.6533Z" fill="#3F3D56"/>
<path d="M76.5459 24.0781H67.0066C66.9062 24.0783 66.8069 24.0615 66.7141 24.0288C66.6214 23.996 66.5371 23.948 66.4661 23.8874C66.3951 23.8268 66.3388 23.7549 66.3004 23.6757C66.262 23.5965 66.2422 23.5115 66.2422 23.4258C66.2422 23.34 66.262 23.2551 66.3004 23.1759C66.3388 23.0967 66.3951 23.0247 66.4661 22.9642C66.5371 22.9036 66.6214 22.8555 66.7141 22.8228C66.8069 22.7901 66.9062 22.7733 67.0066 22.7734H76.5459C76.6462 22.7733 76.7456 22.7901 76.8383 22.8228C76.931 22.8555 77.0153 22.9036 77.0863 22.9642C77.1573 23.0247 77.2136 23.0967 77.252 23.1759C77.2904 23.2551 77.3102 23.34 77.3102 23.4258C77.3102 23.5115 77.2904 23.5965 77.252 23.6757C77.2136 23.7549 77.1573 23.8268 77.0863 23.8874C77.0153 23.948 76.931 23.996 76.8383 24.0288C76.7456 24.0615 76.6462 24.0783 76.5459 24.0781Z" fill="#3F3D56"/>
<path d="M62.1111 26.0282H55.1398C54.9122 26.028 54.694 25.9506 54.533 25.813C54.372 25.6754 54.2815 25.4888 54.2812 25.2943V18.2622C54.2815 18.0677 54.372 17.8811 54.533 17.7435C54.694 17.6059 54.9122 17.5285 55.1398 17.5283H62.1111C62.3388 17.5285 62.557 17.6059 62.718 17.7435C62.879 17.8811 62.9695 18.0677 62.9697 18.2622V25.2943C62.9695 25.4888 62.879 25.6754 62.718 25.813C62.557 25.9506 62.3388 26.028 62.1111 26.0282Z" fill="#4B93E7"/>
<path d="M76.4782 31.0906H54.9194C54.717 31.0906 54.5229 31.0219 54.3798 30.8995C54.2367 30.7772 54.1562 30.6113 54.1562 30.4382C54.1562 30.2652 54.2367 30.0993 54.3798 29.977C54.5229 29.8546 54.717 29.7859 54.9194 29.7859H76.4782C76.6806 29.7859 76.8747 29.8546 77.0179 29.977C77.161 30.0993 77.2414 30.2652 77.2414 30.4382C77.2414 30.6113 77.161 30.7772 77.0179 30.8995C76.8747 31.0219 76.6806 31.0906 76.4782 31.0906Z" fill="#CCCCCC"/>
<path d="M76.477 34.5154H54.9182C54.716 34.5151 54.5222 34.4463 54.3794 34.324C54.2365 34.2017 54.1563 34.0359 54.1562 33.863C54.1563 33.6902 54.2365 33.5244 54.3794 33.4021C54.5222 33.2798 54.716 33.211 54.9182 33.2107H76.477C76.5774 33.2106 76.6767 33.2273 76.7695 33.2601C76.8622 33.2928 76.9465 33.3408 77.0174 33.4014C77.0884 33.462 77.1448 33.534 77.1832 33.6132C77.2216 33.6924 77.2414 33.7773 77.2414 33.863C77.2414 33.9488 77.2216 34.0337 77.1832 34.1129C77.1448 34.1921 77.0884 34.2641 77.0174 34.3247C76.9465 34.3853 76.8622 34.4333 76.7695 34.466C76.6767 34.4988 76.5774 34.5155 76.477 34.5154Z" fill="#CCCCCC"/>
<path d="M76.477 37.94H54.9182C54.716 37.9397 54.5222 37.8708 54.3794 37.7485C54.2365 37.6262 54.1563 37.4604 54.1562 37.2876C54.1563 37.1148 54.2365 36.949 54.3794 36.8267C54.5222 36.7044 54.716 36.6355 54.9182 36.6353H76.477C76.5774 36.6351 76.6767 36.6519 76.7695 36.6846C76.8622 36.7173 76.9465 36.7654 77.0174 36.826C77.0884 36.8866 77.1448 36.9585 77.1832 37.0377C77.2216 37.1169 77.2414 37.2018 77.2414 37.2876C77.2414 37.3734 77.2216 37.4583 77.1832 37.5375C77.1448 37.6167 77.0884 37.6887 77.0174 37.7492C76.9465 37.8098 76.8622 37.8579 76.7695 37.8906C76.6767 37.9233 76.5774 37.9401 76.477 37.94Z" fill="#CCCCCC"/>
<path d="M76.477 41.3648H54.9182C54.716 41.3645 54.5222 41.2956 54.3794 41.1733C54.2365 41.051 54.1562 40.8853 54.1562 40.7124C54.1562 40.5396 54.2365 40.3738 54.3794 40.2515C54.5222 40.1292 54.716 40.0603 54.9182 40.0601H76.477C76.5774 40.0599 76.6767 40.0767 76.7695 40.1094C76.8622 40.1422 76.9465 40.1902 77.0174 40.2508C77.0884 40.3114 77.1448 40.3833 77.1832 40.4625C77.2216 40.5417 77.2414 40.6267 77.2414 40.7124C77.2414 40.7982 77.2216 40.8831 77.1832 40.9623C77.1448 41.0415 77.0884 41.1135 77.0174 41.174C76.9465 41.2346 76.8622 41.2827 76.7695 41.3154C76.6767 41.3481 76.5774 41.3649 76.477 41.3648Z" fill="#CCCCCC"/>
<path d="M76.477 44.7893H54.9182C54.716 44.789 54.5222 44.7202 54.3794 44.5979C54.2365 44.4756 54.1563 44.3098 54.1562 44.137C54.1563 43.9641 54.2365 43.7984 54.3794 43.676C54.5222 43.5537 54.716 43.4849 54.9182 43.4846H76.477C76.5774 43.4845 76.6767 43.5013 76.7695 43.534C76.8622 43.5667 76.9465 43.6147 77.0174 43.6753C77.0884 43.7359 77.1448 43.8079 77.1832 43.8871C77.2216 43.9663 77.2414 44.0512 77.2414 44.137C77.2414 44.2227 77.2216 44.3076 77.1832 44.3868C77.1448 44.4661 77.0884 44.538 77.0174 44.5986C76.9465 44.6592 76.8622 44.7072 76.7695 44.74C76.6767 44.7727 76.5774 44.7895 76.477 44.7893Z" fill="#CCCCCC"/>
<path d="M84.0739 18.6778C90.1078 18.6778 94.9993 14.4966 94.9993 9.33888C94.9993 4.18116 90.1078 0 84.0739 0C78.0399 0 73.1484 4.18116 73.1484 9.33888C73.1484 14.4966 78.0399 18.6778 84.0739 18.6778Z" fill="#4B93E7"/>
<path d="M83.8637 15.7671C84.5737 15.7671 85.1492 15.2751 85.1492 14.6682C85.1492 14.0613 84.5737 13.5693 83.8637 13.5693C83.1537 13.5693 82.5781 14.0613 82.5781 14.6682C82.5781 15.2751 83.1537 15.7671 83.8637 15.7671Z" fill="white"/>
<path d="M83.7261 3.20175C82.7569 3.20996 81.8298 3.54113 81.142 4.12476C80.4542 4.7084 80.06 5.49843 80.0433 6.32673C80.0431 6.34259 80.043 6.45407 80.043 6.59988C80.043 6.81367 80.1423 7.0187 80.3192 7.16987C80.496 7.32105 80.7359 7.40599 80.986 7.40602C81.2363 7.40597 81.4763 7.32094 81.6532 7.16962C81.8302 7.01831 81.9296 6.81311 81.9295 6.59916V6.59864C81.9294 6.49945 81.9293 6.43081 81.9293 6.42659C81.9293 6.16119 82.01 5.90035 82.1637 5.66972C82.3173 5.4391 82.5386 5.24663 82.8056 5.11125C83.0727 4.97588 83.3764 4.90226 83.6868 4.89764C83.9972 4.89302 84.3037 4.95755 84.5761 5.0849C84.8486 5.21224 85.0775 5.39801 85.2404 5.62392C85.4034 5.84983 85.4947 6.10812 85.5055 6.37336C85.5162 6.6386 85.446 6.90166 85.3017 7.13667C85.1575 7.37168 84.9441 7.57053 84.6827 7.71368L84.683 7.71402C84.683 7.71402 83.3408 8.45264 82.9316 9.46589L82.9319 9.46596C82.8599 9.67353 82.8235 9.88891 82.8236 10.1054C82.8236 10.1944 82.8298 10.9731 82.8416 11.6051C82.8457 11.8231 82.95 12.0311 83.1319 12.184C83.3138 12.3369 83.5587 12.4226 83.8139 12.4226C83.9416 12.4226 84.068 12.4011 84.186 12.3593C84.304 12.3175 84.4112 12.2563 84.5015 12.1791C84.5918 12.1019 84.6634 12.0103 84.7123 11.9094C84.7611 11.8086 84.7863 11.7005 84.7863 11.5913L84.7862 11.5862C84.7821 11.0074 84.7799 10.3335 84.7799 10.2846C84.7799 9.6624 85.4821 9.0425 86.0588 8.63824C86.7265 8.17605 87.1957 7.53749 87.3929 6.82274C87.4354 6.67542 87.4588 6.52454 87.4628 6.37284C87.4628 5.9564 87.3668 5.54403 87.1804 5.15928C86.9939 4.77454 86.7207 4.42495 86.3762 4.13048C86.0317 3.83601 85.6227 3.60242 85.1726 3.44305C84.7225 3.28369 84.2401 3.20166 83.7529 3.20166C83.7439 3.20166 83.735 3.20169 83.7261 3.20175Z" fill="white"/>
<path d="M21.2005 21.2572C22.836 20.3382 24.8915 20.7516 26.7093 20.8717C28.3518 20.9802 30.2986 20.8733 31.4539 19.7262C32.6557 18.5328 32.5553 16.7609 31.5602 15.4987C30.5808 14.2562 28.955 13.4717 27.235 13.2649C26.282 13.1455 25.3104 13.1971 24.382 13.4162C23.4536 13.6354 22.5887 14.0173 21.8424 14.5378L22.427 14.7448C22.0863 11.961 19.6918 9.44441 16.4792 8.76179C13.2287 8.07112 9.59362 9.24987 7.85942 11.7272C6.14978 14.1695 6.35231 17.5775 8.81316 19.6071C9.99496 20.5818 11.6025 21.0784 13.234 20.8134C14.7386 20.569 16.0755 19.6315 16.357 18.3075C16.6181 17.0802 16.0479 15.6861 14.6512 15.1501C14.2691 14.9977 13.8514 14.9216 13.4298 14.9273C13.0082 14.9331 12.5936 15.0206 12.2173 15.1833C11.8765 15.3472 11.5885 15.5807 11.3792 15.863C11.1698 16.1454 11.0456 16.4676 11.0176 16.801C10.9916 17.1238 11.0685 17.4465 11.2401 17.7348C11.434 18.0731 12.0249 17.7768 11.8315 17.4394C11.7066 17.1913 11.6711 16.917 11.7296 16.6516C11.788 16.3862 11.9377 16.1417 12.1596 15.9495C12.6673 15.4961 13.4687 15.4208 14.1433 15.6062C15.3777 15.9453 15.9227 17.1558 15.6901 18.1826C15.4295 19.3328 14.2808 20.0719 12.9729 20.2611C11.5505 20.4669 10.1634 19.9535 9.17601 19.09C7.10818 17.2817 6.92924 14.3692 8.32414 12.2109C9.73922 10.0215 12.7577 8.84582 15.6329 9.21308C18.476 9.57624 20.8175 11.4877 21.5471 13.8447C21.6391 14.14 21.7043 14.4409 21.7421 14.7448C21.7445 14.8017 21.7659 14.8569 21.8039 14.9038C21.8419 14.9506 21.8949 14.9871 21.9565 15.0089C22.0182 15.0308 22.0858 15.037 22.1515 15.0268C22.2171 15.0167 22.2779 14.9906 22.3267 14.9517C24.7561 13.2271 28.7968 13.4121 30.7889 15.5817C31.7658 16.6458 32.0537 18.2981 30.9129 19.3669C29.8266 20.3847 28.0227 20.3857 26.5391 20.2742C24.6412 20.1316 22.5548 19.7964 20.8548 20.7517C20.488 20.9578 20.8307 21.465 21.2005 21.2572Z" fill="#2F2E41"/>
<path d="M28.5685 59.7386H14.8711C14.5987 59.7384 14.3376 59.6458 14.145 59.4811C13.9524 59.3165 13.844 59.0933 13.8438 58.8605V54.9577C13.844 54.7249 13.9524 54.5017 14.145 54.3371C14.3376 54.1724 14.5987 54.0798 14.8711 54.0796H28.5685C28.8408 54.0798 29.1019 54.1724 29.2945 54.3371C29.4871 54.5017 29.5955 54.7249 29.5958 54.9577V58.8605C29.5955 59.0933 29.4871 59.3165 29.2945 59.4811C29.1019 59.6458 28.8408 59.7384 28.5685 59.7386Z" fill="#2F2E41"/>
<path d="M29.0369 40.4971C28.6081 38.6224 26.9425 37.1378 24.7807 36.5274C25.5614 36.3126 26.0577 35.9947 26.0577 35.6391C26.0577 34.9925 24.4224 34.4683 22.4051 34.4683C20.3878 34.4683 18.7524 34.9925 18.7524 35.6391C18.7524 35.9999 19.2623 36.3223 20.0627 36.537C16.7484 37.3817 14.3428 39.8472 14.3428 42.7506C14.3428 42.7506 13.3226 48.341 12.5216 52.8098C12.0091 55.6688 14.8092 58.2241 18.4533 58.2241H31.2691C32.1086 58.2241 32.7916 57.6829 32.7916 57.0177C32.7916 57.0177 30.4301 46.5869 29.0369 40.4971Z" fill="#2F2E41"/>
</g>
<defs>
<clipPath id="clip0_431_359">
<rect width="95" height="73" fill="white"/>
</clipPath>
</defs>
</svg>
