<svg width="33" height="32" viewBox="0 0 33 32" fill="none" xmlns="http://www.w3.org/2000/svg">
<g filter="url(#filter0_ii_654_361)">
<path d="M32.6873 9.14286V26.2857C32.6873 29.3155 30.305 31.7944 27.2932 31.9878L26.9135 32H6.12781C3.06656 32 0.56177 29.6423 0.366285 26.6614L0.354004 26.2857V9.14286H32.6873ZM9.5921 20.5714C8.31658 20.5714 7.28258 21.5948 7.28258 22.8571C7.28258 24.1195 8.31658 25.1429 9.5921 25.1429C10.8676 25.1429 11.9016 24.1195 11.9016 22.8571C11.9016 21.5948 10.8676 20.5714 9.5921 20.5714ZM16.5207 20.5714C15.2452 20.5714 14.2111 21.5948 14.2111 22.8571C14.2111 24.1195 15.2452 25.1429 16.5207 25.1429C17.7962 25.1429 18.8302 24.1195 18.8302 22.8571C18.8302 21.5948 17.7962 20.5714 16.5207 20.5714ZM9.5921 13.7143C8.31658 13.7143 7.28258 14.7376 7.28258 16C7.28258 17.2624 8.31658 18.2857 9.5921 18.2857C10.8676 18.2857 11.9016 17.2624 11.9016 16C11.9016 14.7376 10.8676 13.7143 9.5921 13.7143ZM16.5207 13.7143C15.2452 13.7143 14.2111 14.7376 14.2111 16C14.2111 17.2624 15.2452 18.2857 16.5207 18.2857C17.7962 18.2857 18.8302 17.2624 18.8302 16C18.8302 14.7376 17.7962 13.7143 16.5207 13.7143ZM23.4492 13.7143C22.1737 13.7143 21.1397 14.7376 21.1397 16C21.1397 17.2624 22.1737 18.2857 23.4492 18.2857C24.7248 18.2857 25.7588 17.2624 25.7588 16C25.7588 14.7376 24.7248 13.7143 23.4492 13.7143ZM26.9135 0C29.9748 0 32.4796 2.35778 32.6751 5.33857L32.6873 5.71429V6.85714H0.354004V5.71429C0.354004 2.68461 2.73636 0.205626 5.74818 0.0121547L6.12781 0H26.9135Z" fill="#CFD8DC"/>
<path d="M32.6873 9.14286V26.2857C32.6873 29.3155 30.305 31.7944 27.2932 31.9878L26.9135 32H6.12781C3.06656 32 0.56177 29.6423 0.366285 26.6614L0.354004 26.2857V9.14286H32.6873ZM9.5921 20.5714C8.31658 20.5714 7.28258 21.5948 7.28258 22.8571C7.28258 24.1195 8.31658 25.1429 9.5921 25.1429C10.8676 25.1429 11.9016 24.1195 11.9016 22.8571C11.9016 21.5948 10.8676 20.5714 9.5921 20.5714ZM16.5207 20.5714C15.2452 20.5714 14.2111 21.5948 14.2111 22.8571C14.2111 24.1195 15.2452 25.1429 16.5207 25.1429C17.7962 25.1429 18.8302 24.1195 18.8302 22.8571C18.8302 21.5948 17.7962 20.5714 16.5207 20.5714ZM9.5921 13.7143C8.31658 13.7143 7.28258 14.7376 7.28258 16C7.28258 17.2624 8.31658 18.2857 9.5921 18.2857C10.8676 18.2857 11.9016 17.2624 11.9016 16C11.9016 14.7376 10.8676 13.7143 9.5921 13.7143ZM16.5207 13.7143C15.2452 13.7143 14.2111 14.7376 14.2111 16C14.2111 17.2624 15.2452 18.2857 16.5207 18.2857C17.7962 18.2857 18.8302 17.2624 18.8302 16C18.8302 14.7376 17.7962 13.7143 16.5207 13.7143ZM23.4492 13.7143C22.1737 13.7143 21.1397 14.7376 21.1397 16C21.1397 17.2624 22.1737 18.2857 23.4492 18.2857C24.7248 18.2857 25.7588 17.2624 25.7588 16C25.7588 14.7376 24.7248 13.7143 23.4492 13.7143ZM26.9135 0C29.9748 0 32.4796 2.35778 32.6751 5.33857L32.6873 5.71429V6.85714H0.354004V5.71429C0.354004 2.68461 2.73636 0.205626 5.74818 0.0121547L6.12781 0H26.9135Z" fill="#E6EEF8"/>
</g>
<defs>
<filter id="filter0_ii_654_361" x="-3.646" y="-4" width="40.3335" height="40" filterUnits="userSpaceOnUse" color-interpolation-filters="sRGB">
<feFlood flood-opacity="0" result="BackgroundImageFix"/>
<feBlend mode="normal" in="SourceGraphic" in2="BackgroundImageFix" result="shape"/>
<feColorMatrix in="SourceAlpha" type="matrix" values="0 0 0 0 0 0 0 0 0 0 0 0 0 0 0 0 0 0 127 0" result="hardAlpha"/>
<feOffset dx="4" dy="4"/>
<feGaussianBlur stdDeviation="6"/>
<feComposite in2="hardAlpha" operator="arithmetic" k2="-1" k3="1"/>
<feColorMatrix type="matrix" values="0 0 0 0 0.733333 0 0 0 0 0.764706 0 0 0 0 0.807843 0 0 0 0.6 0"/>
<feBlend mode="normal" in2="shape" result="effect1_innerShadow_654_361"/>
<feColorMatrix in="SourceAlpha" type="matrix" values="0 0 0 0 0 0 0 0 0 0 0 0 0 0 0 0 0 0 127 0" result="hardAlpha"/>
<feOffset dx="-4" dy="-4"/>
<feGaussianBlur stdDeviation="6"/>
<feComposite in2="hardAlpha" operator="arithmetic" k2="-1" k3="1"/>
<feColorMatrix type="matrix" values="0 0 0 0 0.992157 0 0 0 0 1 0 0 0 0 1 0 0 0 0.8 0"/>
<feBlend mode="normal" in2="effect1_innerShadow_654_361" result="effect2_innerShadow_654_361"/>
</filter>
</defs>
</svg>
