<svg width="36" height="32" viewBox="0 0 36 32" fill="none" xmlns="http://www.w3.org/2000/svg">
<g filter="url(#filter0_ii_654_172)">
<path d="M19.4463 17.4533C21.8812 17.4533 23.855 19.4068 23.855 21.8166L23.8527 23.9935C24.1551 29.3358 19.9975 32 12.2876 32C4.60264 32 0.354004 29.3707 0.354004 24.0697V21.8166C0.354004 19.4068 2.32788 17.4533 4.76277 17.4533H19.4463ZM31.2048 17.4533C33.6396 17.4533 35.6135 19.4068 35.6135 21.8166L35.6113 23.3483C35.8771 28.1406 32.2034 30.5432 25.4887 30.5432C24.487 30.5432 24.0225 29.2731 24.4805 28.3823C25.0464 27.2817 25.3402 26.0013 25.3385 24.5409L25.32 23.9121L25.3246 21.8166C25.3246 20.1025 26.5659 17.4526 28.2799 17.4528L31.2048 17.4533ZM12.1107 0C16.1695 0 19.4598 3.2564 19.4598 7.27337C19.4598 11.2903 16.1695 14.5467 12.1107 14.5467C8.0519 14.5467 4.76158 11.2903 4.76158 7.27337C4.76158 3.2564 8.0519 0 12.1107 0ZM26.8066 2.90888C30.0531 2.90888 32.685 5.51357 32.685 8.72663C32.685 11.9397 30.0531 14.5444 26.8066 14.5444C23.5601 14.5444 20.9282 11.9397 20.9282 8.72663C20.9282 5.51357 23.5601 2.90888 26.8066 2.90888Z" fill="#CFD8DC"/>
<path d="M19.4463 17.4533C21.8812 17.4533 23.855 19.4068 23.855 21.8166L23.8527 23.9935C24.1551 29.3358 19.9975 32 12.2876 32C4.60264 32 0.354004 29.3707 0.354004 24.0697V21.8166C0.354004 19.4068 2.32788 17.4533 4.76277 17.4533H19.4463ZM31.2048 17.4533C33.6396 17.4533 35.6135 19.4068 35.6135 21.8166L35.6113 23.3483C35.8771 28.1406 32.2034 30.5432 25.4887 30.5432C24.487 30.5432 24.0225 29.2731 24.4805 28.3823C25.0464 27.2817 25.3402 26.0013 25.3385 24.5409L25.32 23.9121L25.3246 21.8166C25.3246 20.1025 26.5659 17.4526 28.2799 17.4528L31.2048 17.4533ZM12.1107 0C16.1695 0 19.4598 3.2564 19.4598 7.27337C19.4598 11.2903 16.1695 14.5467 12.1107 14.5467C8.0519 14.5467 4.76158 11.2903 4.76158 7.27337C4.76158 3.2564 8.0519 0 12.1107 0ZM26.8066 2.90888C30.0531 2.90888 32.685 5.51357 32.685 8.72663C32.685 11.9397 30.0531 14.5444 26.8066 14.5444C23.5601 14.5444 20.9282 11.9397 20.9282 8.72663C20.9282 5.51357 23.5601 2.90888 26.8066 2.90888Z" fill="#E6EEF8"/>
</g>
<defs>
<filter id="filter0_ii_654_172" x="-3.646" y="-4" width="43.271" height="40" filterUnits="userSpaceOnUse" color-interpolation-filters="sRGB">
<feFlood flood-opacity="0" result="BackgroundImageFix"/>
<feBlend mode="normal" in="SourceGraphic" in2="BackgroundImageFix" result="shape"/>
<feColorMatrix in="SourceAlpha" type="matrix" values="0 0 0 0 0 0 0 0 0 0 0 0 0 0 0 0 0 0 127 0" result="hardAlpha"/>
<feOffset dx="4" dy="4"/>
<feGaussianBlur stdDeviation="6"/>
<feComposite in2="hardAlpha" operator="arithmetic" k2="-1" k3="1"/>
<feColorMatrix type="matrix" values="0 0 0 0 0.733333 0 0 0 0 0.764706 0 0 0 0 0.807843 0 0 0 0.6 0"/>
<feBlend mode="normal" in2="shape" result="effect1_innerShadow_654_172"/>
<feColorMatrix in="SourceAlpha" type="matrix" values="0 0 0 0 0 0 0 0 0 0 0 0 0 0 0 0 0 0 127 0" result="hardAlpha"/>
<feOffset dx="-4" dy="-4"/>
<feGaussianBlur stdDeviation="6"/>
<feComposite in2="hardAlpha" operator="arithmetic" k2="-1" k3="1"/>
<feColorMatrix type="matrix" values="0 0 0 0 0.992157 0 0 0 0 1 0 0 0 0 1 0 0 0 0.8 0"/>
<feBlend mode="normal" in2="effect1_innerShadow_654_172" result="effect2_innerShadow_654_172"/>
</filter>
</defs>
</svg>
