<svg width="30" height="32" viewBox="0 0 30 32" fill="none" xmlns="http://www.w3.org/2000/svg">
<path d="M16.4453 0.672252C15.4972 -0.224084 14.0142 -0.224084 13.0662 0.672252L1.15459 11.9342C0.417587 12.631 0 13.6005 0 14.6147V28.3111C0 30.3483 1.65158 32 3.68893 32H7.37786C9.41521 32 11.0668 30.3483 11.0668 28.3111V22.1629C11.0668 21.4838 11.6173 20.9333 12.2964 20.9333H17.215C17.8941 20.9333 18.4447 21.4838 18.4447 22.1629V28.3111C18.4447 30.3483 20.0963 32 22.1336 32H25.8225C27.8598 32 29.5114 30.3483 29.5114 28.3111V14.6147C29.5114 13.6005 29.0939 12.631 28.3568 11.9342L16.4453 0.672252Z" fill="#CFD8DC"/>
<path d="M16.4453 0.672252C15.4972 -0.224084 14.0142 -0.224084 13.0662 0.672252L1.15459 11.9342C0.417587 12.631 0 13.6005 0 14.6147V28.3111C0 30.3483 1.65158 32 3.68893 32H7.37786C9.41521 32 11.0668 30.3483 11.0668 28.3111V22.1629C11.0668 21.4838 11.6173 20.9333 12.2964 20.9333H17.215C17.8941 20.9333 18.4447 21.4838 18.4447 22.1629V28.3111C18.4447 30.3483 20.0963 32 22.1336 32H25.8225C27.8598 32 29.5114 30.3483 29.5114 28.3111V14.6147C29.5114 13.6005 29.0939 12.631 28.3568 11.9342L16.4453 0.672252Z" fill="#F0F7FF"/>
</svg>
