<svg width="95" height="73" viewBox="0 0 95 73" fill="none" xmlns="http://www.w3.org/2000/svg">
<g clip-path="url(#clip0_354_537)">
<path d="M87.8971 66.353C84.7845 68.7501 80.9924 71.1784 77.2641 72.3234C76.1893 72.6633 75.0802 72.8803 73.9576 72.9703C72.9081 73.0556 71.8519 72.9727 70.8279 72.7247C68.1372 72.0478 65.6414 70.8625 63.2265 69.4777C62.4375 69.0246 61.6577 68.5507 60.8824 68.0664C59.6168 67.2754 58.3638 66.4568 57.1073 65.6577C56.9192 65.5366 56.7322 65.4179 56.5441 65.3003H56.5429C56.2397 65.1077 55.9356 64.9178 55.6308 64.7307C55.5772 64.6972 55.5237 64.6649 55.4689 64.6315C54.8931 64.2787 54.3075 63.9339 53.712 63.5972C53.639 63.5569 53.566 63.5154 53.493 63.475C52.3408 62.8286 51.1565 62.2425 49.9449 61.7189C49.1491 61.3799 48.343 61.0744 47.5289 60.8138H47.5278C47.2165 60.7146 46.9041 60.6212 46.5906 60.5359C45.6504 60.275 44.6923 60.0854 43.7242 59.9686C42.3902 59.8053 41.041 59.8161 39.7098 60.0009C39.6197 60.0136 39.5307 60.0263 39.4407 60.0412C35.8378 60.6247 32.5496 62.5918 28.9308 63.0553C28.8133 63.0703 28.697 63.0841 28.5796 63.0945C28.5294 63.0991 28.4793 63.1049 28.4291 63.1083C27.3774 63.1993 26.3191 63.173 25.2731 63.0299C22.3509 62.6402 19.5051 61.4307 16.9432 59.9063C10.954 56.3423 6.09693 50.8642 3.14394 44.5202C2.63684 43.433 2.18662 42.3195 1.79514 41.1845C0.700586 38.037 0.0978112 34.7362 0.00851844 31.4009C-0.268539 19.829 6.23375 8.21911 16.4427 2.98547C26.6527 -2.24817 40.0837 -0.51746 48.3179 7.52267C53.3129 12.4 56.2032 19.0092 59.9623 24.9139C63.7214 30.8175 69.0641 36.457 75.9552 37.3172C79.4657 37.7553 83.1393 36.9078 86.5039 38.0101C88.3669 38.6213 89.9563 39.7904 91.2366 41.2802C92.0975 42.2911 92.8178 43.4161 93.3778 44.624C93.7883 45.4972 94.1214 46.4055 94.3732 47.3382C94.42 47.51 94.4633 47.6818 94.5055 47.8536C96.1815 54.7765 93.5033 62.0337 87.8971 66.353Z" fill="#F2F2F2"/>
<path d="M31.8279 53.8206H21.1105C19.5048 53.8206 18.2031 55.1369 18.2031 56.7608V56.7608C18.2031 58.3847 19.5048 59.7011 21.1105 59.7011H31.8279C33.4337 59.7011 34.7353 58.3847 34.7353 56.7608C34.7353 55.1369 33.4337 53.8206 31.8279 53.8206Z" fill="#506DB8"/>
<path d="M28.5799 58.2021V63.0945C27.479 63.2022 26.3694 63.1805 25.2734 63.0299V58.2021H28.5799Z" fill="#506DB8"/>
<path d="M39.7098 60.0011C39.6198 60.0137 39.5308 60.0264 39.4408 60.0414C35.8379 60.6249 32.5497 62.5919 28.9308 63.0555C28.8134 63.0704 28.6971 63.0843 28.5797 63.0947C28.5295 63.0993 28.4793 63.105 28.4292 63.1085C27.5455 62.2333 26.6619 61.3017 25.8319 60.3366C25.3815 59.8143 24.946 59.2816 24.5367 58.7419C23.4741 57.3491 22.5733 55.917 21.9782 54.5103C22.0386 53.8358 21.6236 52.2757 21.4252 51.0812L21.4241 51.08C21.3397 50.5784 21.2941 50.1426 21.3363 49.8624C21.578 48.2458 22.8835 48.4315 23.2848 46.8472C23.6468 46.5433 24.0323 46.2692 24.4375 46.0274C24.5048 45.987 24.5732 45.9467 24.6439 45.9063L28.9992 42.8623L30.6639 44.5135L33.1973 47.0271L35.9428 49.7494L33.6123 52.1304C33.6123 52.1304 35.5597 54.4008 37.8366 57.4275C38.4477 58.2404 39.0828 59.1086 39.7098 60.0011Z" fill="#082777"/>
<path d="M77.2635 58.2021V72.3234C76.1887 72.6633 75.0796 72.8803 73.957 72.9703V58.2021H77.2635Z" fill="#506DB8"/>
<path d="M81.5389 57.0493H70.8215C69.2157 57.0493 67.9141 58.3657 67.9141 59.9896V59.9896C67.9141 61.6134 69.2157 62.9298 70.8215 62.9298H81.5389C83.1446 62.9298 84.4463 61.6134 84.4463 59.9896C84.4463 58.3657 83.1446 57.0493 81.5389 57.0493Z" fill="#506DB8"/>
<path d="M55.4681 64.6317C54.8923 64.2789 54.3066 63.9341 53.7111 63.5975C53.6381 63.5571 53.5652 63.5156 53.4922 63.4752L53.8844 63.3057L54.9425 62.8457L54.9527 62.8411L54.9641 62.8803L55.4681 64.6317Z" fill="#FFB6B6"/>
<path d="M57.1072 65.6578C56.9191 65.5368 56.7321 65.418 56.544 65.3004H56.5428C56.2396 65.1078 55.9355 64.918 55.6307 64.7308C55.5771 64.6973 55.5235 64.6651 55.4688 64.6316C54.893 64.2788 54.3074 63.934 53.7118 63.5973C53.6389 63.557 53.5659 63.5155 53.4929 63.4751C52.3407 62.8288 51.1564 62.2426 49.9448 61.719C49.1489 61.3801 48.3429 61.0745 47.5288 60.8139H47.5277L46.888 59.7312L44.0091 54.855L43.3764 53.7838C43.3764 53.7838 41.218 54.4295 38.1636 55.0487C37.0519 55.2747 35.8229 55.4961 34.5333 55.6829C33.1549 55.8812 31.7092 56.0392 30.2726 56.1153C29.5874 56.1522 28.9044 56.1706 28.2317 56.1649C26.493 56.1533 24.8227 55.9884 23.3598 55.5964C22.8719 55.1329 21.4011 54.5022 20.3476 53.9245H20.3464C19.904 53.6824 19.5369 53.4506 19.3442 53.2442C18.2337 52.0566 19.1823 51.1307 18.195 49.8347C18.1817 49.3592 18.2057 48.8834 18.2668 48.4118C18.277 48.3334 18.2873 48.2539 18.2999 48.1732L18.6111 42.8277L20.9233 42.5187L24.4419 42.0482L28.2534 41.5386L28.673 44.8616C28.673 44.8616 31.6408 44.7094 35.401 44.7602C41.4404 44.8432 49.5218 45.452 50.6163 48.0648C50.7189 48.3104 50.8216 48.5583 50.9242 48.8062C51.1682 49.3988 51.4099 49.9946 51.6493 50.5934C52.517 52.7611 53.3447 54.9496 54.1006 57.0181C54.5704 58.3049 55.0128 59.5456 55.4198 60.7067C55.747 61.6406 56.0503 62.5239 56.3274 63.3368C56.5805 64.0793 56.8096 64.7631 57.0137 65.3765C57.0456 65.4722 57.0764 65.5667 57.1072 65.6578Z" fill="#082777"/>
<path d="M35.8384 33.2704L28.5352 26.9977L33.2867 22.1345L36.6017 27.6256L48.8896 30.0893C49.2591 29.8081 49.7015 29.6417 50.1629 29.6104C50.6243 29.579 51.0847 29.6842 51.488 29.9129C51.8914 30.1416 52.2202 30.4841 52.4344 30.8986C52.6486 31.313 52.7389 31.7815 52.6944 32.247C52.6498 32.7125 52.4723 33.1548 52.1835 33.52C51.8947 33.8852 51.507 34.1576 51.0678 34.3038C50.6285 34.4501 50.1567 34.4639 49.7098 34.3437C49.263 34.2234 48.8603 33.9743 48.551 33.6266L35.8384 33.2704Z" fill="#A0616A"/>
<path d="M22.0777 18.754C21.2337 21.5308 29.272 28.1536 29.272 28.1536C29.3614 27.4869 33.9188 33.2354 34.2289 32.7148C35.1101 31.2352 36.0798 27.5778 37.0971 27.1103C37.6789 26.843 34.3413 23.1273 34.3413 23.1273C34.3413 23.1273 32.6388 20.8494 30.3908 17.9624C29.7703 17.1343 28.9527 16.4784 28.014 16.0558C27.0754 15.6332 26.0463 15.4577 25.0225 15.5455C25.0225 15.5455 22.9218 15.9772 22.0777 18.754Z" fill="#506DB8"/>
<path d="M25.6349 12.6066C28.363 12.6066 30.5745 10.37 30.5745 7.61115C30.5745 4.85225 28.363 2.61572 25.6349 2.61572C22.9068 2.61572 20.6953 4.85225 20.6953 7.61115C20.6953 10.37 22.9068 12.6066 25.6349 12.6066Z" fill="#A0616A"/>
<path d="M28.1036 15.9081C29.1678 16.548 29.8044 17.7235 30.1698 18.9197C30.8464 21.1344 31.2536 23.4242 31.3825 25.7385L31.7685 32.667L36.5487 47.4198C32.4059 50.9649 16.8333 48.2255 16.8333 48.2255C16.8333 48.2255 16.3553 48.0644 16.8333 47.5809C17.3114 47.0975 17.7767 47.5258 17.2987 47.0424C16.8207 46.5589 17.1502 47.0975 17.3096 46.6141C17.4689 46.1306 17.3096 46.4529 17.1502 46.2918C16.9909 46.1306 18.3838 44.6804 18.3838 44.6804L17.109 36.2121L15.5156 19.131C17.4277 16.7138 21.2732 15.289 21.2732 15.289L22.2668 13.4802L27.235 13.8822L28.1036 15.9081Z" fill="#506DB8"/>
<path d="M29.7054 4.95712C30.0893 5.2467 30.3738 5.65076 30.5187 6.1124C30.5743 5.35797 30.5779 4.60053 30.5292 3.8456C30.471 3.3151 30.1017 3.19578 29.6741 3.05751C29.2879 2.93259 28.8511 2.79148 28.7336 2.27649C27.1809 0.748898 24.4779 0.825928 22.6281 1.35878C21.6102 1.65199 21.0245 2.02872 20.9721 2.24941L20.9612 2.29484L20.9199 2.31574C20.1353 2.71248 19.9826 3.96531 19.9926 4.94642C20.0118 6.7949 20.6429 8.89431 20.9984 9.06485C21.0172 9.07388 21.022 9.07034 21.0301 9.06348C21.5655 8.63082 22.2186 9.09636 22.5056 9.34943C22.6749 8.20057 23.22 7.14222 24.0538 6.3434C24.8877 5.54459 25.9622 5.0514 27.1057 4.9426C27.4791 4.9061 27.8496 4.84328 28.2144 4.75459C28.3994 4.70618 28.5897 4.68093 28.7808 4.67942C29.1098 4.67437 29.4325 4.77127 29.7054 4.95712Z" fill="#082777"/>
<path d="M23.4817 40.7967L21.9707 40.014C21.8897 39.9557 21.8322 39.8699 21.8087 39.7722C21.7851 39.6745 21.7971 39.5715 21.8424 39.4821C21.8877 39.3926 21.9634 39.3226 22.0555 39.2848C22.1476 39.2471 22.2501 39.2441 22.3442 39.2764L23.8552 40.059C23.9362 40.1174 23.9937 40.2032 24.0173 40.3009C24.0408 40.3986 24.0288 40.5015 23.9835 40.591C23.9382 40.6805 23.8626 40.7505 23.7704 40.7883C23.6783 40.826 23.5758 40.829 23.4817 40.7967Z" fill="#4B93E7"/>
<path d="M18.3958 38.6997L15.9102 29.3414L22.5525 28.0698L22.1953 34.4933L30.9228 43.5814C31.3849 43.5623 31.8424 43.6795 32.2397 43.9189C32.637 44.1582 32.9568 44.5092 33.1602 44.9292C33.3636 45.3492 33.4418 45.82 33.3852 46.2841C33.3286 46.7483 33.1397 47.1857 32.8415 47.5432C32.5434 47.9006 32.1488 48.1626 31.7059 48.2971C31.263 48.4317 30.791 48.4331 30.3474 48.301C29.9038 48.169 29.5078 47.9093 29.2076 47.5536C28.9074 47.1978 28.716 46.7615 28.6568 46.2977L18.3958 38.6997Z" fill="#A0616A"/>
<path d="M15.2306 18.8488C12.976 20.6489 15.8698 30.7176 15.8698 30.7176C16.3179 30.2204 16.8385 37.5696 17.3862 37.3193C18.9426 36.6081 21.7954 34.1556 22.8952 34.3555C23.5242 34.4698 22.8652 29.4944 22.8652 29.4944C22.8652 29.4944 22.744 26.6416 22.5162 22.9742C22.4709 21.9361 22.1665 20.9266 21.6315 20.0395C21.0966 19.1524 20.3484 18.4166 19.4566 17.9006C19.4566 17.9006 17.4853 17.0488 15.2306 18.8488Z" fill="#506DB8"/>
<path d="M93.3796 44.6241L3.14567 44.5203C2.63858 43.4331 2.18836 42.3196 1.79688 41.1846L91.2384 41.2803C92.0992 42.2912 92.8196 43.4162 93.3796 44.6241Z" fill="#506DB8"/>
<path d="M64.6385 68.8173C64.1721 69.0456 63.7016 69.2658 63.227 69.4779C62.438 69.0248 61.6581 68.5509 60.8828 68.0666L63.7583 66.7891L64.6385 68.8173Z" fill="#FFB6B6"/>
<path d="M85.6024 52.9283C85.135 53.5625 84.6527 54.184 84.1556 54.7928C83.6972 55.3543 83.2267 55.9051 82.7441 56.4451C82.5445 56.6688 82.3427 56.8913 82.1364 57.1116C81.7567 57.5232 81.3687 57.9279 80.9723 58.3257C80.2585 58.5528 78.8128 58.9529 77.2634 59.3265C76.1357 59.5975 74.9534 59.8546 73.9569 60.0184C73.3991 60.1196 72.8348 60.1805 72.2683 60.2005C71.5957 60.2063 70.9127 60.1879 70.2275 60.151C69.4544 60.1094 68.6803 60.0449 67.9152 59.9619C65.9257 59.7509 63.9988 59.4222 62.3365 59.0844C61.7276 58.9622 61.1553 58.8376 60.6285 58.7166C59.6309 58.4894 58.7963 58.2773 58.192 58.1158C57.5114 57.936 57.1237 57.8195 57.1237 57.8195L55.4192 60.7067L54.5344 62.2045L53.8845 63.3057L53.7112 63.5974C53.6383 63.557 53.5653 63.5155 53.4923 63.4752C52.3401 62.8288 51.1558 62.2427 49.9442 61.7191C49.1483 61.3801 48.3423 61.0745 47.5282 60.814H47.5271C47.2158 60.7148 46.9034 60.6214 46.5898 60.5361C46.6879 60.2697 46.7871 60.0014 46.8874 59.7312C47.0744 59.2274 47.2652 58.7189 47.4598 58.2058C47.8805 57.0943 48.316 55.9666 48.7641 54.8447C49.1313 53.9234 49.5052 53.0056 49.8838 52.1004C50.0582 51.683 50.4128 51.3164 50.9087 50.9947C51.1458 50.8435 51.393 50.7094 51.6487 50.5934C53.0682 49.9397 55.1592 49.5142 57.4635 49.2409C57.6539 49.219 57.8454 49.1971 58.0381 49.1763C59.9456 48.9734 61.9694 48.8685 63.862 48.8201C64.8095 48.7958 65.7239 48.7866 66.5744 48.7855C66.8492 48.7855 67.1164 48.7862 67.376 48.7878H67.3771C68.0783 48.7912 68.7236 48.8016 69.2914 48.8131C69.402 48.8154 69.5092 48.8189 69.6141 48.8212H69.6152C69.6859 48.8224 69.7555 48.8247 69.8239 48.8258C71.0655 48.8581 71.8271 48.8973 71.8271 48.8973L72.1224 46.5543L72.1828 46.0816L72.2399 45.6319V45.6308L72.2467 45.5743L72.2934 45.5731L73.1144 45.557L80.0146 45.4209L83.7839 45.3459L83.1865 47.9357L82.2002 52.2088C82.3005 52.8845 85.6366 52.3553 85.6024 52.9283Z" fill="#082777"/>
<path d="M65.4887 68.3906C65.207 68.5359 64.9231 68.6789 64.6381 68.8172C64.1718 69.0455 63.7013 69.2658 63.2266 69.4779C62.4376 69.0248 61.6577 68.5509 60.8824 68.0666C59.6169 67.2756 58.3638 66.457 57.1074 65.6579C56.9193 65.5368 56.7323 65.4181 56.5442 65.3005H56.543C56.0254 64.5233 55.4975 63.7139 54.965 62.8802C54.9571 62.8687 54.9502 62.8572 54.9434 62.8456C54.8066 62.6335 54.6705 62.4198 54.5352 62.2045C53.6835 60.8555 52.8273 59.4488 51.9961 58.0121L54.1008 57.0182L58.0138 55.171L58.6888 54.8528L60.6293 58.7166L62.3601 62.163L62.7454 62.9298L65.4887 68.3906Z" fill="#082777"/>
<path d="M66.0769 49.8402L76.0533 40.1104L78.8185 32.1925L74.7398 30.3989C72.6448 32.4284 70.3802 38.7497 70.3802 38.7497L63.5151 47.5825C63.4616 47.601 63.4082 47.6207 63.3555 47.6442C63.0463 47.7821 62.7775 47.9984 62.5751 48.272C62.3726 48.5457 62.2434 48.8675 62.1999 49.2064C62.1564 49.5453 62.2001 49.8899 62.3268 50.2067C62.4534 50.5236 62.6587 50.802 62.9229 51.0152C63.1871 51.2283 63.5011 51.369 63.8347 51.4235C64.1683 51.478 64.5102 51.4446 64.8273 51.3265C65.1444 51.2083 65.426 51.0095 65.6449 50.7491C65.8638 50.4887 66.0126 50.1757 66.0769 49.8402Z" fill="#FFB8B8"/>
<path d="M73.5938 31.283L78.7672 32.944L78.7867 32.9407C80.7123 32.6145 82.3101 29.4341 83.3114 26.8234C83.6408 25.9623 83.6347 25.0068 83.2942 24.1501C82.9537 23.2934 82.3042 22.5994 81.4772 22.2084C80.8651 21.9242 80.1866 21.8187 79.5184 21.904C78.8502 21.9892 78.2189 22.2618 77.6958 22.6909L75.0392 24.8862L73.5938 31.283Z" fill="#4B93E7"/>
<path d="M85.5834 53.045L85.6136 53.0044C87.2278 50.8394 85.0201 45.4781 84.6863 44.7006L86.1872 44.251L85.9256 41.361L85.7996 40.0724L86.9665 38.9517L86.9704 38.923L87.773 33.1472L88.8231 29.3244C89.2188 27.8793 89.2272 26.3536 88.8473 24.9041C88.4674 23.4546 87.7129 22.1334 86.6613 21.0762L84.5146 18.9208L81.9429 14.8499L77.6309 14.7373L76.0803 17.5229C74.6383 17.8205 73.3453 18.6203 72.4265 19.7829C71.5076 20.9455 71.0212 22.3972 71.0519 23.8852L71.1979 31.3011L69.6507 40.4893L69.6073 42.1583L68.0887 43.7789L68.3694 45.4173L67.2335 45.8749L66.6776 48.2031C66.4653 48.4717 65.0636 50.2636 65.0508 50.7631C65.0489 50.8381 65.1018 50.912 65.2172 50.9955C66.1246 51.652 71.1959 53.0745 73.4783 52.2193C75.9095 51.3091 85.4379 53.0186 85.5339 53.036L85.5834 53.045Z" fill="#4B93E7"/>
<path d="M79.4079 13.4893C82.5628 13.4893 85.1205 10.9028 85.1205 7.71219C85.1205 4.52157 82.5628 1.93506 79.4079 1.93506C76.2529 1.93506 73.6953 4.52157 73.6953 7.71219C73.6953 10.9028 76.2529 13.4893 79.4079 13.4893Z" fill="#FFB8B8"/>
<path d="M78.7108 13.5666C79.5955 13.5805 80.4797 13.5181 81.3538 13.3798C82.2202 13.2016 84.1585 11.7652 84.6988 10.9008C85.1003 10.2586 85.357 9.25568 85.5017 8.5275C85.6965 7.56388 85.6891 6.56962 85.4799 5.6091C85.2706 4.64858 84.8642 3.74321 84.287 2.95162C84.0651 2.62052 83.7589 2.35621 83.4007 2.18665C83.369 2.1741 83.3363 2.16297 83.3033 2.15346C82.7814 2.01458 82.3124 1.72111 81.9566 1.31072C81.8876 1.22771 81.8128 1.14984 81.7327 1.07771C81.3306 0.734492 80.8538 0.492396 80.3414 0.371208C79.5143 0.147356 78.3174 0.369559 76.7839 1.03228C76.0135 1.36525 75.1709 1.24475 74.5227 1.10256C74.4864 1.09545 74.4488 1.0981 74.4138 1.11024C74.3788 1.12238 74.3475 1.14358 74.3231 1.17174C74.0473 1.43356 73.6837 1.58012 73.3055 1.58195C73.0738 1.59224 72.8307 1.91665 72.5369 2.3397C72.4703 2.43573 72.3925 2.5478 72.3364 2.61597L72.3288 2.48501L72.1978 2.63111C71.9918 2.86074 71.8466 3.13935 71.7758 3.441C71.7049 3.74265 71.7107 4.05753 71.7925 4.35632C71.8744 4.65511 72.0297 4.92808 72.244 5.14983C72.4583 5.37157 72.7246 5.53487 73.018 5.62452C73.2511 5.68723 73.4899 5.72571 73.7307 5.73936C73.8765 5.75263 74.0274 5.76636 74.1719 5.79173C74.6359 5.88782 75.0674 6.10394 75.4241 6.41901C75.7809 6.73407 76.0508 7.1373 76.2074 7.58933C76.2445 7.69382 76.3048 7.7883 76.3836 7.86548C76.4625 7.94266 76.5579 8.00048 76.6624 8.03446C76.7669 8.06845 76.8777 8.07771 76.9863 8.06151C77.0948 8.04531 77.1983 8.00409 77.2886 7.94104C77.4392 7.82244 77.616 7.74244 77.8038 7.70786C77.9915 7.67328 78.1848 7.68514 78.3671 7.74244C78.5246 7.83102 78.6472 7.97167 78.7144 8.14081C78.796 8.32926 78.9312 8.48885 79.1029 8.59923C79.6901 8.90536 79.7305 10.2616 79.5196 11.3921C79.3164 12.4819 78.9146 13.2702 78.5425 13.3092C78.2561 13.3392 78.2234 13.3598 78.2026 13.411L78.1841 13.4568L78.2163 13.4997C78.3745 13.5577 78.5432 13.5805 78.7108 13.5666Z" fill="#082777"/>
<path d="M75.0104 29.5362L72.8078 25.0952C69.6107 25.3161 63.2654 29.0544 63.2654 29.0544L51.2597 31.6287C50.904 31.4904 50.5186 31.4493 50.1423 31.5096C49.766 31.5698 49.412 31.7293 49.1159 31.9719C48.8199 32.2145 48.5923 32.5317 48.456 32.8915C48.3197 33.2514 48.2796 33.6412 48.3396 34.0217C48.3996 34.4022 48.5577 34.76 48.798 35.0591C49.0382 35.3582 49.3521 35.588 49.7081 35.7254C50.0641 35.8628 50.4496 35.9029 50.8258 35.8418C51.2019 35.7806 51.5556 35.6203 51.851 35.377L67.1229 34.2699L75.0104 29.5362Z" fill="#FFB8B8"/>
<path d="M74.1219 30.2655L79.8744 25.9423L80.8877 22.2494C81.084 21.5237 81.0757 20.757 80.8637 20.0358C80.6517 19.3146 80.2445 18.6678 79.6881 18.1683C78.9293 17.4965 77.9466 17.1411 76.9386 17.174C75.9307 17.2069 74.9726 17.6256 74.2583 18.3455C72.0935 20.5307 69.6245 23.5792 70.1548 25.6931L70.1602 25.7145L74.1219 30.2655Z" fill="#4B93E7"/>
<path d="M67.0014 41.8291H51.6094V43.9046H67.0014V41.8291Z" fill="white"/>
<path d="M27.6694 41.8291H12.2773V43.9046H27.6694V41.8291Z" fill="white"/>
<path d="M29.4648 31.8482V41.7302C29.4649 41.8561 29.5145 41.9769 29.6025 42.0659C29.6906 42.155 29.81 42.205 29.9345 42.2051H44.4149C44.5394 42.205 44.6588 42.155 44.7469 42.0659C44.8349 41.9769 44.8845 41.8561 44.8846 41.7302V31.8482C44.8843 31.7224 44.8347 31.6018 44.7467 31.5129C44.6586 31.424 44.5393 31.3739 44.4149 31.3738H29.9345C29.8101 31.3739 29.6908 31.424 29.6028 31.5129C29.5147 31.6018 29.4651 31.7224 29.4648 31.8482Z" fill="#506DB8"/>
<path d="M29.8047 31.9712V41.6083C29.8048 41.6756 29.8313 41.7401 29.8783 41.7877C29.9254 41.8352 29.9891 41.862 30.0557 41.8621H44.2945C44.3611 41.862 44.4248 41.8352 44.4719 41.7877C44.5189 41.7401 44.5454 41.6756 44.5455 41.6083V31.9712C44.5455 31.9038 44.5191 31.8392 44.472 31.7915C44.425 31.7438 44.3611 31.7169 44.2945 31.7168H30.0557C29.9891 31.7169 29.9252 31.7438 29.8782 31.7915C29.8311 31.8392 29.8047 31.9038 29.8047 31.9712Z" fill="#4B93E7"/>
<path d="M29.1618 43.6576C29.1883 43.6912 29.2221 43.7183 29.2604 43.7369C29.2988 43.7555 29.3408 43.765 29.3834 43.7648H44.8885C44.931 43.7647 44.9728 43.7551 45.0111 43.7367C45.0493 43.7182 45.0831 43.6913 45.1098 43.658C45.1365 43.6247 45.1555 43.5858 45.1655 43.5441C45.1755 43.5025 45.1761 43.459 45.1674 43.4171L44.9268 42.2609C44.9168 42.2138 44.8953 42.1699 44.8643 42.1333C44.8332 42.0967 44.7937 42.0685 44.7491 42.0513C44.7169 42.0385 44.6825 42.0319 44.6479 42.032H29.6231C29.5885 42.0319 29.5541 42.0385 29.5219 42.0513C29.4773 42.0685 29.4377 42.0967 29.4067 42.1333C29.3757 42.1699 29.3542 42.2138 29.3442 42.2609L29.1035 43.4171C29.095 43.459 29.0958 43.5024 29.1058 43.544C29.1159 43.5856 29.135 43.6244 29.1618 43.6576Z" fill="#082777"/>
<path d="M44.1172 42.5298H44.4834C44.5141 42.5298 44.5391 42.5046 44.5391 42.4735V42.2963C44.5391 42.2652 44.5141 42.24 44.4834 42.24H44.1172C44.0864 42.24 44.0615 42.2652 44.0615 42.2963V42.4735C44.0615 42.5046 44.0864 42.5298 44.1172 42.5298Z" fill="#506DB8"/>
<path d="M43.1601 42.5298H43.5264C43.5571 42.5298 43.582 42.5046 43.582 42.4735V42.2963C43.582 42.2652 43.5571 42.24 43.5264 42.24H43.1601C43.1294 42.24 43.1045 42.2652 43.1045 42.2963V42.4735C43.1045 42.5046 43.1294 42.5298 43.1601 42.5298Z" fill="#506DB8"/>
<path d="M42.207 42.5298H42.5732C42.604 42.5298 42.6289 42.5046 42.6289 42.4735V42.2963C42.6289 42.2652 42.604 42.24 42.5732 42.24H42.207C42.1763 42.24 42.1514 42.2652 42.1514 42.2963V42.4735C42.1514 42.5046 42.1763 42.5298 42.207 42.5298Z" fill="#506DB8"/>
<path d="M41.25 42.5298H41.6162C41.647 42.5298 41.6719 42.5046 41.6719 42.4735V42.2963C41.6719 42.2652 41.647 42.24 41.6162 42.24H41.25C41.2192 42.24 41.1943 42.2652 41.1943 42.2963V42.4735C41.1943 42.5046 41.2192 42.5298 41.25 42.5298Z" fill="#506DB8"/>
<path d="M40.2969 42.5298H40.6631C40.6938 42.5298 40.7188 42.5046 40.7188 42.4735V42.2963C40.7188 42.2652 40.6938 42.24 40.6631 42.24H40.2969C40.2661 42.24 40.2412 42.2652 40.2412 42.2963V42.4735C40.2412 42.5046 40.2661 42.5298 40.2969 42.5298Z" fill="#506DB8"/>
<path d="M39.3398 42.5298H39.7061C39.7368 42.5298 39.7617 42.5046 39.7617 42.4735V42.2963C39.7617 42.2652 39.7368 42.24 39.7061 42.24H39.3398C39.3091 42.24 39.2842 42.2652 39.2842 42.2963V42.4735C39.2842 42.5046 39.3091 42.5298 39.3398 42.5298Z" fill="#506DB8"/>
<path d="M38.3867 42.5298H38.7529C38.7837 42.5298 38.8086 42.5046 38.8086 42.4735V42.2963C38.8086 42.2652 38.7837 42.24 38.7529 42.24H38.3867C38.356 42.24 38.331 42.2652 38.331 42.2963V42.4735C38.331 42.5046 38.356 42.5298 38.3867 42.5298Z" fill="#506DB8"/>
<path d="M37.4297 42.5298H37.7959C37.8266 42.5298 37.8516 42.5046 37.8516 42.4735V42.2963C37.8516 42.2652 37.8266 42.24 37.7959 42.24H37.4297C37.3989 42.24 37.374 42.2652 37.374 42.2963V42.4735C37.374 42.5046 37.3989 42.5298 37.4297 42.5298Z" fill="#506DB8"/>
<path d="M36.4765 42.5298H36.8428C36.8735 42.5298 36.8984 42.5046 36.8984 42.4735V42.2963C36.8984 42.2652 36.8735 42.24 36.8428 42.24H36.4765C36.4458 42.24 36.4209 42.2652 36.4209 42.2963V42.4735C36.4209 42.5046 36.4458 42.5298 36.4765 42.5298Z" fill="#506DB8"/>
<path d="M35.5195 42.5298H35.8857C35.9165 42.5298 35.9414 42.5046 35.9414 42.4735V42.2963C35.9414 42.2652 35.9165 42.24 35.8857 42.24H35.5195C35.4888 42.24 35.4639 42.2652 35.4639 42.2963V42.4735C35.4639 42.5046 35.4888 42.5298 35.5195 42.5298Z" fill="#506DB8"/>
<path d="M34.5664 42.5298H34.9326C34.9634 42.5298 34.9883 42.5046 34.9883 42.4735V42.2963C34.9883 42.2652 34.9634 42.24 34.9326 42.24H34.5664C34.5357 42.24 34.5107 42.2652 34.5107 42.2963V42.4735C34.5107 42.5046 34.5357 42.5298 34.5664 42.5298Z" fill="#506DB8"/>
<path d="M33.6094 42.5298H33.9756C34.0063 42.5298 34.0312 42.5046 34.0312 42.4735V42.2963C34.0312 42.2652 34.0063 42.24 33.9756 42.24H33.6094C33.5786 42.24 33.5537 42.2652 33.5537 42.2963V42.4735C33.5537 42.5046 33.5786 42.5298 33.6094 42.5298Z" fill="#506DB8"/>
<path d="M32.6562 42.5298H33.0225C33.0532 42.5298 33.0781 42.5046 33.0781 42.4735V42.2963C33.0781 42.2652 33.0532 42.24 33.0225 42.24H32.6562C32.6255 42.24 32.6006 42.2652 32.6006 42.2963V42.4735C32.6006 42.5046 32.6255 42.5298 32.6562 42.5298Z" fill="#506DB8"/>
<path d="M31.6992 42.5298H32.0654C32.0962 42.5298 32.1211 42.5046 32.1211 42.4735V42.2963C32.1211 42.2652 32.0962 42.24 32.0654 42.24H31.6992C31.6685 42.24 31.6435 42.2652 31.6435 42.2963V42.4735C31.6435 42.5046 31.6685 42.5298 31.6992 42.5298Z" fill="#506DB8"/>
<path d="M30.7461 42.5298H31.1123C31.143 42.5298 31.168 42.5046 31.168 42.4735V42.2963C31.168 42.2652 31.143 42.24 31.1123 42.24H30.7461C30.7153 42.24 30.6904 42.2652 30.6904 42.2963V42.4735C30.6904 42.5046 30.7153 42.5298 30.7461 42.5298Z" fill="#506DB8"/>
<path d="M29.789 42.5298H30.1553C30.186 42.5298 30.2109 42.5046 30.2109 42.4735V42.2963C30.2109 42.2652 30.186 42.24 30.1553 42.24H29.789C29.7583 42.24 29.7334 42.2652 29.7334 42.2963V42.4735C29.7334 42.5046 29.7583 42.5298 29.789 42.5298Z" fill="#506DB8"/>
<path d="M44.1289 43.0127H44.4951C44.5259 43.0127 44.5508 42.9875 44.5508 42.9564V42.7792C44.5508 42.7481 44.5259 42.7229 44.4951 42.7229H44.1289C44.0981 42.7229 44.0732 42.7481 44.0732 42.7792V42.9564C44.0732 42.9875 44.0981 43.0127 44.1289 43.0127Z" fill="#506DB8"/>
<path d="M43.1719 43.0127H43.5381C43.5688 43.0127 43.5938 42.9875 43.5938 42.9564V42.7792C43.5938 42.7481 43.5688 42.7229 43.5381 42.7229H43.1719C43.1411 42.7229 43.1162 42.7481 43.1162 42.7792V42.9564C43.1162 42.9875 43.1411 43.0127 43.1719 43.0127Z" fill="#506DB8"/>
<path d="M42.2187 43.0127H42.585C42.6157 43.0127 42.6406 42.9875 42.6406 42.9564V42.7792C42.6406 42.7481 42.6157 42.7229 42.585 42.7229H42.2187C42.188 42.7229 42.1631 42.7481 42.1631 42.7792V42.9564C42.1631 42.9875 42.188 43.0127 42.2187 43.0127Z" fill="#506DB8"/>
<path d="M41.2617 43.0127H41.6279C41.6587 43.0127 41.6836 42.9875 41.6836 42.9564V42.7792C41.6836 42.7481 41.6587 42.7229 41.6279 42.7229H41.2617C41.231 42.7229 41.206 42.7481 41.206 42.7792V42.9564C41.206 42.9875 41.231 43.0127 41.2617 43.0127Z" fill="#506DB8"/>
<path d="M40.3086 43.0127H40.6748C40.7055 43.0127 40.7305 42.9875 40.7305 42.9564V42.7792C40.7305 42.7481 40.7055 42.7229 40.6748 42.7229H40.3086C40.2778 42.7229 40.2529 42.7481 40.2529 42.7792V42.9564C40.2529 42.9875 40.2778 43.0127 40.3086 43.0127Z" fill="#506DB8"/>
<path d="M39.3515 43.0127H39.7178C39.7485 43.0127 39.7734 42.9875 39.7734 42.9564V42.7792C39.7734 42.7481 39.7485 42.7229 39.7178 42.7229H39.3515C39.3208 42.7229 39.2959 42.7481 39.2959 42.7792V42.9564C39.2959 42.9875 39.3208 43.0127 39.3515 43.0127Z" fill="#506DB8"/>
<path d="M38.3984 43.0127H38.7647C38.7954 43.0127 38.8203 42.9875 38.8203 42.9564V42.7792C38.8203 42.7481 38.7954 42.7229 38.7647 42.7229H38.3984C38.3677 42.7229 38.3428 42.7481 38.3428 42.7792V42.9564C38.3428 42.9875 38.3677 43.0127 38.3984 43.0127Z" fill="#506DB8"/>
<path d="M37.4414 43.0127H37.8076C37.8384 43.0127 37.8633 42.9875 37.8633 42.9564V42.7792C37.8633 42.7481 37.8384 42.7229 37.8076 42.7229H37.4414C37.4106 42.7229 37.3857 42.7481 37.3857 42.7792V42.9564C37.3857 42.9875 37.4106 43.0127 37.4414 43.0127Z" fill="#506DB8"/>
<path d="M36.4883 43.0127H36.8545C36.8852 43.0127 36.9102 42.9875 36.9102 42.9564V42.7792C36.9102 42.7481 36.8852 42.7229 36.8545 42.7229H36.4883C36.4575 42.7229 36.4326 42.7481 36.4326 42.7792V42.9564C36.4326 42.9875 36.4575 43.0127 36.4883 43.0127Z" fill="#506DB8"/>
<path d="M35.5312 43.0127H35.8975C35.9282 43.0127 35.9531 42.9875 35.9531 42.9564V42.7792C35.9531 42.7481 35.9282 42.7229 35.8975 42.7229H35.5312C35.5005 42.7229 35.4756 42.7481 35.4756 42.7792V42.9564C35.4756 42.9875 35.5005 43.0127 35.5312 43.0127Z" fill="#506DB8"/>
<path d="M34.5781 43.0127H34.9443C34.9751 43.0127 35 42.9875 35 42.9564V42.7792C35 42.7481 34.9751 42.7229 34.9443 42.7229H34.5781C34.5474 42.7229 34.5224 42.7481 34.5224 42.7792V42.9564C34.5224 42.9875 34.5474 43.0127 34.5781 43.0127Z" fill="#506DB8"/>
<path d="M33.6211 43.0127H33.9873C34.018 43.0127 34.043 42.9875 34.043 42.9564V42.7792C34.043 42.7481 34.018 42.7229 33.9873 42.7229H33.6211C33.5903 42.7229 33.5654 42.7481 33.5654 42.7792V42.9564C33.5654 42.9875 33.5903 43.0127 33.6211 43.0127Z" fill="#506DB8"/>
<path d="M32.668 43.0127H33.0342C33.0649 43.0127 33.0898 42.9875 33.0898 42.9564V42.7792C33.0898 42.7481 33.0649 42.7229 33.0342 42.7229H32.668C32.6372 42.7229 32.6123 42.7481 32.6123 42.7792V42.9564C32.6123 42.9875 32.6372 43.0127 32.668 43.0127Z" fill="#506DB8"/>
<path d="M31.7109 43.0127H32.0772C32.1079 43.0127 32.1328 42.9875 32.1328 42.9564V42.7792C32.1328 42.7481 32.1079 42.7229 32.0772 42.7229H31.7109C31.6802 42.7229 31.6553 42.7481 31.6553 42.7792V42.9564C31.6553 42.9875 31.6802 43.0127 31.7109 43.0127Z" fill="#506DB8"/>
<path d="M30.7539 43.0127H31.1201C31.1509 43.0127 31.1758 42.9875 31.1758 42.9564V42.7792C31.1758 42.7481 31.1509 42.7229 31.1201 42.7229H30.7539C30.7232 42.7229 30.6982 42.7481 30.6982 42.7792V42.9564C30.6982 42.9875 30.7232 43.0127 30.7539 43.0127Z" fill="#506DB8"/>
<path d="M29.8008 43.0127H30.167C30.1977 43.0127 30.2227 42.9875 30.2227 42.9564V42.7792C30.2227 42.7481 30.1977 42.7229 30.167 42.7229H29.8008C29.77 42.7229 29.7451 42.7481 29.7451 42.7792V42.9564C29.7451 42.9875 29.77 43.0127 29.8008 43.0127Z" fill="#506DB8"/>
<path d="M36.2001 43.5923H39.9092C39.9399 43.5923 39.9648 43.5671 39.9648 43.536V43.3588C39.9648 43.3277 39.9399 43.3025 39.9092 43.3025H36.2001C36.1694 43.3025 36.1444 43.3277 36.1444 43.3588V43.536C36.1444 43.5671 36.1694 43.5923 36.2001 43.5923Z" fill="#506DB8"/>
</g>
<defs>
<clipPath id="clip0_354_537">
<rect width="95" height="73" fill="white"/>
</clipPath>
</defs>
</svg>
