<svg width="14" height="13" viewBox="0 0 14 13" fill="none" xmlns="http://www.w3.org/2000/svg">
<path d="M12.2817 3.13L9.88172 3.13C9.88172 1.53942 8.5923 0.25 7.00172 0.25C5.41114 0.25 4.12172 1.53942 4.12172 3.13L1.72172 3.13C1.19153 3.13 0.761719 3.55981 0.761719 4.09L0.761719 11.29C0.761719 11.8202 1.19153 12.25 1.72172 12.25L12.2817 12.25C12.8119 12.25 13.2417 11.8202 13.2417 11.29L13.2417 4.09C13.2417 3.55981 12.8119 3.13 12.2817 3.13ZM7.00172 1.21C8.06211 1.21 8.92172 2.06961 8.92172 3.13L5.08172 3.13C5.08172 2.06961 5.94133 1.21 7.00172 1.21ZM12.2817 11.29L1.72172 11.29L1.72172 4.09L4.12172 4.09L4.12172 5.05C4.12172 5.3151 4.33662 5.53 4.60172 5.53C4.86682 5.53 5.08172 5.3151 5.08172 5.05V4.09L8.92172 4.09V5.05C8.92172 5.3151 9.13662 5.53 9.40172 5.53C9.66681 5.53 9.88172 5.3151 9.88172 5.05V4.09L12.2817 4.09L12.2817 11.29Z" fill="#565E6C"/>
</svg>
