<svg width="95" height="73" viewBox="0 0 95 73" fill="none" xmlns="http://www.w3.org/2000/svg">
<g clip-path="url(#clip0_431_119)">
<path d="M93.7209 24.9773C93.8325 25.3736 93.937 25.7719 94.0344 26.1723H60.8672V24.9773H93.7209Z" fill="#E6E6E6"/>
<path d="M92.6642 21.8273C92.1302 20.4555 91.5076 19.1136 90.7995 17.8086C90.5817 17.4063 90.3555 17.0079 90.1209 16.6136C90.0823 16.546 90.0412 16.4783 90 16.4106V25.3035H92.8661V22.3565L92.6642 21.8273Z" fill="#E6E6E6"/>
<path d="M90.7995 17.8087H90V16.6138H90.1209C90.356 17.0077 90.5822 17.406 90.7995 17.8087Z" fill="#CCCCCC"/>
<path d="M92.6642 21.8274H90V23.0224H92.8661V22.3566L92.6642 21.8274Z" fill="#CCCCCC"/>
<path d="M88.4476 14.9846H85.582V25.3037H88.4476V14.9846Z" fill="#E6E6E6"/>
<path d="M88.4476 16.614H85.582V17.8089H88.4476V16.614Z" fill="#CCCCCC"/>
<path d="M88.4476 21.8279H85.582V23.0227H88.4476V21.8279Z" fill="#CCCCCC"/>
<path d="M75.3812 14.9246H65.1016C64.9431 14.9248 64.7912 14.9821 64.6792 15.0841C64.5672 15.186 64.5041 15.3241 64.5039 15.4683V24.8203C64.5041 24.8735 64.5126 24.9264 64.5291 24.9774C64.5664 25.0891 64.6422 25.187 64.7452 25.2566C64.8483 25.3262 64.9732 25.3639 65.1016 25.364H75.3812C75.5096 25.3639 75.6345 25.3262 75.7375 25.2566C75.8406 25.187 75.9164 25.0891 75.9536 24.9774C75.9702 24.9264 75.9787 24.8735 75.9789 24.8203V15.4683C75.9786 15.3241 75.9156 15.186 75.8035 15.0841C75.6915 14.9821 75.5396 14.9248 75.3812 14.9246Z" fill="#E6E6E6"/>
<path d="M74.6507 15.5891H65.832C65.6736 15.5893 65.5217 15.6467 65.4097 15.7486C65.2977 15.8505 65.2346 15.9887 65.2344 16.1328V24.1557C65.2346 24.2999 65.2977 24.438 65.4097 24.54C65.5217 24.6419 65.6736 24.6992 65.832 24.6995H74.6507C74.8092 24.6992 74.961 24.6419 75.0731 24.54C75.1851 24.438 75.2482 24.2999 75.2484 24.1557V16.1328C75.2482 15.9887 75.1851 15.8505 75.0731 15.7486C74.961 15.6467 74.8092 15.5893 74.6507 15.5891Z" fill="white"/>
<path d="M73.11 16.9883H67.3672C67.2088 16.9885 67.0569 17.0459 66.9448 17.1478C66.8328 17.2497 66.7698 17.3879 66.7695 17.532V22.7566C66.7698 22.9007 66.8328 23.0389 66.9448 23.1408C67.0569 23.2427 67.2088 23.3001 67.3672 23.3003H73.11C73.2683 23.2995 73.4198 23.242 73.5317 23.1402C73.6436 23.0384 73.7068 22.9005 73.7077 22.7566V17.532C73.7074 17.3879 73.6444 17.2497 73.5324 17.1478C73.4203 17.0459 73.2684 16.9885 73.11 16.9883Z" fill="#CCCCCC"/>
<path d="M72.7583 21.8351L71.5453 19.9237C71.522 19.887 71.4885 19.8565 71.4481 19.8353C71.4077 19.8141 71.3619 19.8029 71.3153 19.8029C71.2686 19.8029 71.2228 19.8141 71.1824 19.8353C71.1421 19.8565 71.1085 19.887 71.0852 19.9237L70.1995 21.3194L69.0379 19.4892C69.0146 19.4525 68.9811 19.422 68.9407 19.4008C68.9003 19.3796 68.8545 19.3684 68.8079 19.3684C68.7612 19.3684 68.7154 19.3796 68.6751 19.4008C68.6347 19.422 68.6012 19.4525 68.5779 19.4892L67.3648 21.4006L65.9219 23.6744H68.705L68.4292 24.1089H74.2014L72.7583 21.8351Z" fill="white"/>
<path d="M72.328 18.895C72.7895 18.895 73.1637 18.5546 73.1637 18.1346C73.1637 17.7147 72.7895 17.3743 72.328 17.3743C71.8664 17.3743 71.4922 17.7147 71.4922 18.1346C71.4922 18.5546 71.8664 18.895 72.328 18.895Z" fill="white"/>
<path d="M94.991 33.4207C94.9817 32.9519 94.9613 32.4855 94.9299 32.0215C94.9167 31.7992 94.9007 31.578 94.8808 31.3569H89.2734C89.115 31.3572 88.9631 31.4145 88.8511 31.5164C88.7391 31.6183 88.676 31.7565 88.6758 31.9007V41.2527C88.6755 41.2954 88.6813 41.3381 88.693 41.3795C88.7244 41.4981 88.7987 41.6037 88.904 41.6793C89.0092 41.7549 89.1393 41.7961 89.2734 41.7964H94.4425C94.4691 41.6586 94.4943 41.5185 94.5169 41.3795C94.5315 41.2974 94.5461 41.214 94.5594 41.1318C94.5912 40.9349 94.6218 40.7379 94.6497 40.541C94.6896 40.2728 94.7254 40.0033 94.7573 39.7327C94.8741 38.7624 94.9494 37.7817 94.9831 36.7905V36.7893C94.995 36.416 95.0012 36.041 95.0016 35.6644V34.2145C95.0016 33.9487 94.999 33.6841 94.991 33.4207Z" fill="#E6E6E6"/>
<path d="M94.991 33.4207C94.9817 32.9519 94.9613 32.4855 94.9299 32.0215H90.0039C89.8455 32.0217 89.6936 32.0791 89.5816 32.181C89.4695 32.2829 89.4065 32.4211 89.4062 32.5652V40.5881C89.4065 40.7322 89.4695 40.8704 89.5816 40.9723C89.6936 41.0743 89.8455 41.1316 90.0039 41.1318H94.5594C94.5912 40.9349 94.6218 40.7379 94.6497 40.541C94.6896 40.2728 94.7254 40.0033 94.7573 39.7327C94.8741 38.7624 94.9494 37.7817 94.9831 36.7905V36.7893C94.995 36.416 95.0012 36.041 95.0016 35.6644V34.2145C95.0016 33.9487 94.999 33.6841 94.991 33.4207Z" fill="white"/>
<path d="M94.9882 33.4207H91.5391C91.3806 33.4209 91.2287 33.4782 91.1167 33.5801C91.0047 33.6821 90.9416 33.8202 90.9414 33.9644V39.1889C90.9416 39.3331 91.0047 39.4712 91.1167 39.5732C91.2288 39.6751 91.3806 39.7324 91.5391 39.7327H94.7544C94.8713 38.7624 94.9466 37.7817 94.9802 36.7905V36.7893C94.9922 36.416 94.9984 36.041 94.9988 35.6644V34.2145C94.9988 33.9487 94.9962 33.6841 94.9882 33.4207Z" fill="#CCCCCC"/>
<path d="M94.9826 36.7905C94.9494 37.7813 94.8741 38.762 94.7568 39.7326C94.7249 40.0033 94.6891 40.2727 94.6492 40.5409H92.6012L92.8775 40.1072H90.0938L90.9437 38.7672L91.5361 37.8332L92.75 35.9217C92.7731 35.8848 92.8065 35.8542 92.8469 35.8329C92.8873 35.8115 92.9331 35.8003 92.9798 35.8003C93.0264 35.8003 93.0723 35.8115 93.1126 35.8329C93.153 35.8542 93.1864 35.8848 93.2095 35.9217L94.3716 37.7523L94.9826 36.7905Z" fill="white"/>
<path d="M84.9182 9.77139H60.8672V8.57642H83.7255C84.1319 8.96669 84.5295 9.36501 84.9182 9.77139Z" fill="#E6E6E6"/>
<path d="M73.6406 1.48364C74.6208 1.9742 75.5761 2.4998 76.5067 3.06043V8.90121H73.6406V1.48364Z" fill="#E6E6E6"/>
<path d="M76.5061 5.42578H73.6406V6.62063H76.5061V5.42578Z" fill="#CCCCCC"/>
<path d="M80.9247 6.12965V8.90142H78.0586V4.04297C78.7267 4.48641 79.3797 4.94756 80.0176 5.42644C80.323 5.65601 80.6254 5.89041 80.9247 6.12965Z" fill="#E6E6E6"/>
<path d="M80.9247 6.12948V6.62004H78.0586V5.42627H80.0176C80.323 5.65584 80.6254 5.89025 80.9247 6.12948Z" fill="#CCCCCC"/>
<path d="M70.716 0.152243C71.4744 0.462761 72.2199 0.793827 72.9526 1.14544L72.3629 2.22805L70.4039 5.8299L69.8209 6.90043L68.9085 8.5763L68.7079 8.94482L67.8911 8.5763L66.1406 7.7873L67.2523 5.74291H67.2536L67.8353 4.67238L69.7957 1.07053L70.3721 0.0120834L70.3787 0L70.716 0.152243Z" fill="#E6E6E6"/>
<path d="M72.9472 1.15631L72.3641 2.22805L69.7969 1.07053L70.3733 0.0120827L70.3799 0L70.7173 0.152242L72.9472 1.15631Z" fill="#CCCCCC"/>
<path d="M67.8366 4.67261L67.2539 5.74341L69.8219 6.90008L70.4047 5.82928L67.8366 4.67261Z" fill="#CCCCCC"/>
<path d="M94.5152 41.3796C94.4926 41.5186 94.4674 41.6587 94.4408 41.7965C94.3943 42.0575 94.3438 42.316 94.2894 42.5746H60.8672V41.3796H94.5152Z" fill="#E6E6E6"/>
<path d="M76.5061 31.3865H73.6406V41.7056H76.5061V31.3865Z" fill="#E6E6E6"/>
<path d="M76.5061 33.0159H73.6406V34.2107H76.5061V33.0159Z" fill="#CCCCCC"/>
<path d="M76.5061 38.2297H73.6406V39.4246H76.5061V38.2297Z" fill="#CCCCCC"/>
<path d="M80.9241 31.3865H78.0586V41.7056H80.9241V31.3865Z" fill="#E6E6E6"/>
<path d="M80.9241 33.0159H78.0586V34.2107H80.9241V33.0159Z" fill="#CCCCCC"/>
<path d="M80.9241 38.2297H78.0586V39.4246H80.9241V38.2297Z" fill="#CCCCCC"/>
<path d="M71.1733 31.3438L66.1406 40.5916L68.7086 41.7482L73.7413 32.5004L71.1733 31.3438Z" fill="#E6E6E6"/>
<path d="M70.3796 32.804L69.7969 33.8748L72.3649 35.0314L72.9476 33.9606L70.3796 32.804Z" fill="#CCCCCC"/>
<path d="M67.8366 37.4766L67.2539 38.5474L69.8219 39.704L70.4047 38.6332L67.8366 37.4766Z" fill="#CCCCCC"/>
<path d="M38.8858 45.9845C39.0056 46.0472 39.1197 46.1183 39.2272 46.1974L51.0513 42.8497L51.718 40.1809L56.2768 40.5699L55.6012 45.3989C55.5466 45.7891 55.3544 46.1525 55.0534 46.4348C54.7524 46.7171 54.3589 46.9029 53.9319 46.9644L40.0168 48.9687C39.8138 49.4163 39.4658 49.7971 39.0191 50.0605C38.5724 50.3238 38.0481 50.4571 37.5161 50.4428C36.984 50.4284 36.4694 50.267 36.0406 49.9801C35.6119 49.6932 35.2893 49.2943 35.1158 48.8365C34.9423 48.3787 34.9261 47.8837 35.0694 47.4173C35.2127 46.951 35.5086 46.5353 35.9179 46.2257C36.3272 45.9161 36.8303 45.7272 37.3605 45.6841C37.8907 45.641 38.4227 45.7458 38.8858 45.9845Z" fill="#FFB8B8"/>
<path d="M58.3864 42.1709L58.3081 40.953V40.9518L58.2868 40.6183L58.0557 37.0321C58.1249 36.2845 57.8656 35.5425 57.3346 34.9684C56.8037 34.3943 56.0443 34.035 55.2228 33.9692C54.9865 33.9499 54.7485 33.9556 54.5136 33.9861C53.8158 34.0759 53.1718 34.3775 52.686 34.842C52.2003 35.3065 51.9012 35.9067 51.8374 36.5452L51.358 38.36L50.5199 41.5342C50.4606 41.7562 50.4852 41.99 50.5898 42.1978C50.6943 42.4057 50.8728 42.5754 51.0964 42.6796C51.2255 42.7414 51.3668 42.7792 51.5121 42.7908L52.9093 42.9043L54.2546 43.0131L55.8072 43.1387L55.9188 43.1472L56.2056 43.1714L57.1659 43.2487H57.1685C57.3289 43.2605 57.4902 43.2411 57.6418 43.192C57.7933 43.1428 57.9317 43.0649 58.0478 42.9635C58.1323 42.8886 58.2035 42.8022 58.2589 42.7074C58.3558 42.5429 58.4 42.3571 58.3864 42.1709Z" fill="#4B93E7"/>
<path d="M71.3616 27.4025C71.3616 31.5379 67.1585 30.9124 61.9738 30.9124C56.789 30.9124 52.5859 31.5379 52.5859 27.4025C52.5859 23.2672 54.639 15.937 61.9738 15.937C69.5612 15.937 71.3616 23.2672 71.3616 27.4025Z" fill="#082777"/>
<path d="M66.4084 29.2222C68.8754 26.9779 68.8754 23.339 66.4084 21.0947C63.9414 18.8503 59.9417 18.8503 57.4747 21.0947C55.0077 23.339 55.0077 26.9779 57.4747 29.2222C59.9417 31.4666 63.9414 31.4666 66.4084 29.2222Z" fill="#FFB8B8"/>
<path d="M70.8326 33.3216C70.711 33.215 70.5819 33.1157 70.4461 33.0243C69.5873 32.434 68.508 32.1741 67.4406 32.3006L55.7996 33.6405C54.7333 33.761 53.7605 34.2545 53.0873 35.0164C52.4142 35.7783 52.0937 36.7488 52.1937 37.7221C52.227 38.0604 52.2642 38.4168 52.3053 38.7878C52.3585 39.253 52.4182 39.7411 52.4873 40.2462C52.6015 41.0956 52.741 41.9921 52.907 42.9043C53.0517 43.6897 53.2164 44.486 53.405 45.2725C53.4595 45.4997 53.5161 45.7261 53.575 45.9516C53.5749 45.9523 53.575 45.9529 53.5752 45.9536C53.5754 45.9542 53.5758 45.9548 53.5763 45.9552C53.583 45.983 53.5896 46.0108 53.5976 46.0374C53.5972 46.0395 53.5977 46.0416 53.5989 46.0434C53.6813 46.3576 53.7676 46.6681 53.8579 46.975C53.8924 47.0886 53.9256 47.2009 53.9601 47.3121C54.0531 47.6142 54.1514 47.9102 54.2523 48.2014C55.0107 50.3678 56.0134 52.2128 57.3376 53.194C57.3548 53.2085 57.3721 53.2205 57.3907 53.2338L57.4439 53.2713L57.5208 53.2495L57.8475 53.1613L58.1265 53.084L61.7603 52.0896L62.6646 51.8419L65.5706 51.0457H65.5719L68.2295 50.3183L68.5536 50.2289L70.8366 49.6042L70.9096 48.8285L71.008 47.799L71.0664 47.1804L71.5286 42.3014L71.7981 39.4547L72.0904 36.364C72.1446 35.8035 72.0598 35.2391 71.8421 34.7125C71.6244 34.1859 71.2794 33.7106 70.8326 33.3216Z" fill="#082777"/>
<path d="M77.3433 56.93C77.3128 56.8491 77.2835 56.7681 77.253 56.6884C75.8877 53.0636 73.8742 50.322 70.9112 48.8286C70.9099 48.8286 70.9099 48.8274 70.9085 48.8274L70.8581 48.802L68.2762 49.6152L67.9575 49.7155L67.6255 49.8206L67.6214 49.8218L65.2043 50.583L65.2003 50.5842L63.3037 51.1811H63.3024L61.5479 51.7333H61.5466L61.1389 51.8626L58.0722 52.828L57.7163 52.9403L57.3975 53.0406L57.3484 53.0563L57.3391 53.1941L57.12 56.6884L57.1054 56.93L56.8318 61.2907L47.7461 73H53.9617C56.0444 73.0004 58.1241 72.8562 60.1826 72.5687L66.0144 66.8511C66.0633 66.8051 66.125 66.7721 66.193 66.7556C66.261 66.7392 66.3326 66.74 66.4002 66.7579C66.4677 66.7758 66.5286 66.8102 66.5763 66.8573C66.6239 66.9044 66.6565 66.9624 66.6705 67.0251L67.5271 70.8916C71.7474 69.5339 75.6953 67.5577 79.2146 65.0411C78.8055 62.0386 78.2079 59.3019 77.3433 56.93Z" fill="#082777"/>
<path d="M54.6406 24.5947H57.1392L58.2414 21.7868L58.4618 24.5947H59.656L60.299 22.9568L60.4276 24.5947H69.3011C69.3011 23.7958 69.1281 23.0047 68.792 22.2666C68.456 21.5285 67.9634 20.8578 67.3424 20.2929C66.7215 19.7279 65.9843 19.2798 65.1729 18.9741C64.3616 18.6683 63.492 18.511 62.6139 18.511H61.3278C59.5543 18.511 57.8534 19.152 56.5993 20.2929C55.3452 21.4338 54.6406 22.9812 54.6406 24.5947Z" fill="#082777"/>
<path d="M39.2728 55.0436C38.8649 55.1995 38.4244 55.2722 37.9823 55.2564C37.5401 55.2407 37.1072 55.137 36.7139 54.9526C36.3206 54.7682 35.9766 54.5075 35.706 54.1891C35.4354 53.8706 35.2448 53.502 35.1477 53.1093L24.4609 52.0082L28.0433 48.1055L37.6424 49.7494C38.3784 49.6448 39.1311 49.7894 39.7577 50.1558C40.3843 50.5223 40.8414 51.0851 41.0424 51.7377C41.2433 52.3903 41.1742 53.0873 40.8481 53.6965C40.5219 54.3058 39.9614 54.7851 39.2728 55.0436Z" fill="#A0616A"/>
<path d="M33.513 47.8197L28.996 47.085L28.668 47.0319C28.4059 46.9893 28.1566 46.8967 27.9366 46.7602C27.7166 46.6238 27.5308 46.4465 27.3914 46.24C27.2521 46.0336 27.1623 45.8027 27.128 45.5624C27.0937 45.3222 27.1157 45.0781 27.1925 44.8461L29.4104 38.1414L29.4768 37.9421C29.7537 37.0899 29.7044 36.1774 29.3369 35.354C28.9695 34.5307 28.3056 33.8452 27.4541 33.4098C26.8777 33.1186 26.2352 32.9523 25.5766 32.9238C24.918 32.8953 24.2611 33.0054 23.6569 33.2455C23.0527 33.4857 22.5176 33.8493 22.093 34.3083C21.6685 34.7672 21.3661 35.309 21.2092 35.8916L18.3804 46.3951L18.2754 46.7842C18.0779 47.5171 18.0563 48.2801 18.2123 49.0213C18.3682 49.7624 18.698 50.4643 19.1792 51.079C19.6603 51.6937 20.2815 52.2067 21.0004 52.5832C21.7193 52.9597 22.519 53.1907 23.3449 53.2605C23.3541 53.2617 23.3621 53.2617 23.3715 53.2629L25.0648 53.3995L27.2615 53.5771L30.024 53.8006L32.6019 54.0096C32.9396 54.0375 33.2764 53.9488 33.5455 53.7613C33.8147 53.5737 33.9965 53.3009 34.0549 52.9971C34.0588 52.9802 34.0615 52.9633 34.0641 52.9464L34.6114 49.2297L34.6167 49.1959C34.6638 48.8812 34.5753 48.5621 34.3695 48.3055C34.1637 48.049 33.8568 47.8748 33.513 47.8197Z" fill="#CCCCCC"/>
<path d="M26.5517 19.6588C24.7485 22.884 23.3274 26.2105 19.3501 26.2105C17.4401 26.2105 15.6083 25.5202 14.2577 24.2915C12.9072 23.0629 12.1484 21.3964 12.1484 19.6588C12.1484 16.0403 15.373 13.1523 19.3501 13.107C23.3922 13.061 29.9079 13.6557 26.5517 19.6588Z" fill="#082777"/>
<path d="M31.0764 61.8512L30.913 60.3674L30.7908 60.3735L9.31641 61.3147L9.37218 62.8166L9.46653 65.389C12.7894 67.6918 16.4794 69.5192 20.4089 70.8081L20.5484 69.8246C20.5606 69.7444 20.6028 69.6706 20.668 69.6155C20.7332 69.5605 20.8172 69.5276 20.906 69.5225C20.9948 69.5173 21.0827 69.5403 21.155 69.5874C21.2273 69.6345 21.2795 69.703 21.3027 69.7811L21.7264 71.2177C25.1494 72.222 28.7041 72.8075 32.2969 72.9588L31.0764 61.8512Z" fill="#082777"/>
<path d="M24.1741 24.6548C26.6411 22.4105 26.6411 18.7717 24.1741 16.5273C21.7071 14.2829 17.7073 14.2829 15.2403 16.5273C12.7733 18.7716 12.7733 22.4105 15.2403 24.6548C17.7073 26.8992 21.7071 26.8992 24.1741 24.6548Z" fill="#A0616A"/>
<path d="M32.3088 60.468L31.0563 56.9301L31.035 56.8697L30.9713 56.6885L30.614 55.6808C30.4985 55.3533 30.3882 55.0247 30.286 54.6948C30.1917 54.3976 30.1036 54.0996 30.0217 53.8007C29.9048 53.3851 29.7986 52.9678 29.703 52.549C29.3788 51.1414 29.1627 49.715 29.0562 48.2801C29.0269 47.8826 29.0061 47.4843 28.9937 47.0852C28.9159 44.6387 29.158 42.1925 29.7149 39.7981C30.1997 37.7275 29.9408 35.57 28.9762 33.6434C28.0117 31.7167 26.3925 30.1228 24.3573 29.0965C23.0217 28.4249 21.5436 28.0216 20.0223 27.9136C19.9173 27.9063 19.8124 27.9003 19.7062 27.8942C18.0992 27.8018 16.4899 28.039 14.9971 28.5882C13.5043 29.1373 12.1661 29.9845 11.0814 31.0671C10.5004 31.6429 9.99575 32.2788 9.57789 32.9617C8.41851 34.8621 7.98327 37.0582 8.34011 39.2073L9.83288 48.3261L9.49294 52.1647L9.09185 56.6885L9.07058 56.9301L8.64289 61.7536C8.62264 61.9784 8.68247 62.2032 8.81355 62.3947C8.94463 62.5862 9.13998 62.7342 9.3707 62.8168C9.50584 62.8661 9.65016 62.8911 9.79573 62.8905C9.817 62.8905 9.83691 62.8905 9.85818 62.8893L31.0749 61.8514L31.2688 61.8418C31.4458 61.8334 31.6183 61.7881 31.773 61.7094C31.9277 61.6308 32.0604 61.5208 32.1609 61.388C32.2614 61.2552 32.327 61.1032 32.3526 60.9437C32.3783 60.7841 32.3633 60.6214 32.3088 60.468Z" fill="#CCCCCC"/>
<path d="M26.4076 17.3431C24.9641 18.2483 23.2507 18.73 21.4975 18.7237C22.1229 19.1182 22.8348 19.3846 23.5843 19.5047C21.2533 19.9596 18.8442 19.9719 16.5077 19.5409C15.9883 19.4651 15.4872 19.3085 15.0263 19.078C14.5777 18.8302 14.2024 18.4357 14.1119 17.9654C13.9566 17.1585 14.6478 16.4254 15.366 15.9313C16.4657 15.1864 17.7336 14.6732 19.078 14.4288C20.4225 14.1844 21.8099 14.2149 23.1398 14.5181C24.0081 14.7223 24.8781 15.0674 25.4421 15.7018C26.0061 16.3362 26.1732 17.3143 25.6358 17.9676L26.4076 17.3431Z" fill="#082777"/>
<path d="M26.7322 53.8481C26.3281 54.012 25.8894 54.0933 25.447 54.0863C25.0046 54.0793 24.5693 53.9841 24.1717 53.8075C23.7742 53.6309 23.424 53.3771 23.1459 53.0641C22.8678 52.751 22.6685 52.3863 22.5621 51.9955L11.8516 51.1052L15.3402 47.1328L24.9762 48.5873C25.7096 48.4682 26.4654 48.5979 27.1006 48.9519C27.7359 49.306 28.2063 49.8597 28.4227 50.5081C28.6392 51.1566 28.5866 51.8548 28.275 52.4704C27.9635 53.0859 27.4145 53.5761 26.7322 53.8481Z" fill="#A0616A"/>
<path d="M20.8021 46.7395L18.3809 46.3951L15.9385 46.0472C15.6754 46.0098 15.4241 45.9222 15.2009 45.7901C14.9777 45.6581 14.7877 45.4846 14.6435 45.281C14.4992 45.0774 14.404 44.8484 14.3639 44.6089C14.3239 44.3695 14.34 44.125 14.4111 43.8916L16.5308 36.9441C16.7873 36.0866 16.7163 35.1754 16.3292 34.3595C15.9422 33.5436 15.2622 32.8714 14.4005 32.4529C13.8184 32.1704 13.172 32.0151 12.5124 31.9994C11.8529 31.9836 11.1984 32.1079 10.6008 32.3623C10.0014 32.6127 9.47403 32.9863 9.06034 33.4536C8.64664 33.921 8.35787 34.4694 8.21678 35.0555L5.54328 46.0037C5.36318 46.7422 5.36058 47.5074 5.53565 48.2469C5.71072 48.9864 6.05933 49.6827 6.55762 50.2883C7.05592 50.8939 7.69214 51.3944 8.42275 51.7556C9.15336 52.1167 9.96111 52.33 10.7907 52.3809L20.0384 52.9452C20.3766 52.9662 20.711 52.8709 20.9757 52.6783C21.2403 52.4856 21.4158 52.2096 21.4674 51.9049C21.4715 51.8879 21.4728 51.871 21.4754 51.8541L21.9336 48.1278L21.9376 48.094C21.9771 47.7785 21.881 47.4614 21.6693 47.2089C21.4577 46.9565 21.1469 46.7883 20.8021 46.7395Z" fill="#CCCCCC"/>
<path d="M61.769 40.964L61.2147 41.2391L54.3867 44.6285L53.8324 44.9036C53.5635 45.0374 53.3639 45.2629 53.2775 45.5304C53.191 45.798 53.2247 46.0858 53.3713 46.3308L58.456 54.8089C58.6031 55.0536 58.8509 55.2351 59.145 55.3138C59.4391 55.3925 59.7555 55.3618 60.0247 55.2285L60.0261 55.2278L67.9598 51.2896L67.9613 51.2889C68.2302 51.1551 68.4298 50.9296 68.5162 50.6621C68.6027 50.3945 68.5689 50.1067 68.4224 49.8617L63.3377 41.3836C63.1906 41.1389 62.9428 40.9573 62.6487 40.8787C62.3546 40.8 62.0382 40.8307 61.769 40.964Z" fill="#E6E6E6"/>
<path d="M61.9277 41.2296L61.2713 41.5555L54.6476 44.8434L53.9912 45.1692C53.7997 45.2645 53.6575 45.425 53.596 45.6156C53.5344 45.8061 53.5584 46.0111 53.6628 46.1855L58.7475 54.6637C58.8522 54.8379 59.0287 54.9672 59.2381 55.0232C59.4476 55.0792 59.6729 55.0574 59.8646 54.9625L59.866 54.9617L67.7997 51.0236L67.8012 51.0229C67.9927 50.9276 68.1348 50.767 68.1964 50.5765C68.2579 50.386 68.2339 50.181 68.1296 50.0066L63.0448 41.5284C62.9401 41.3542 62.7636 41.2249 62.5542 41.1689C62.3448 41.1129 62.1195 41.1347 61.9277 41.2296Z" fill="white"/>
<path d="M62.1172 43.6234C62.0925 43.5827 62.0512 43.5525 62.0022 43.5394C61.9532 43.5263 61.9005 43.5313 61.8555 43.5533L61.5912 43.685L58.8965 45.0226C58.8519 45.045 58.8188 45.0826 58.8046 45.1271C58.7903 45.1716 58.796 45.2194 58.8204 45.2601C58.8448 45.3008 58.8859 45.3311 58.9347 45.3443C58.9835 45.3575 59.0361 45.3526 59.081 45.3307L62.0401 43.8614C62.0848 43.839 62.118 43.8014 62.1324 43.7568C62.1469 43.7123 62.1414 43.6643 62.1172 43.6234Z" fill="#E6E6E6"/>
<path d="M63.1221 43.7961C63.1101 43.7759 63.0938 43.7581 63.0742 43.7437C63.0545 43.7293 63.032 43.7186 63.0078 43.7122C62.9835 43.7058 62.9582 43.7038 62.9331 43.7064C62.9081 43.709 62.8838 43.7161 62.8618 43.7272L59.2054 45.542C59.1833 45.5531 59.1637 45.568 59.1479 45.5859C59.1321 45.6038 59.1203 45.6243 59.1132 45.6464C59.1061 45.6684 59.1039 45.6915 59.1066 45.7144C59.1093 45.7372 59.117 45.7593 59.1291 45.7795C59.1412 45.7996 59.1576 45.8174 59.1772 45.8318C59.1969 45.8462 59.2195 45.8569 59.2438 45.8634C59.268 45.8698 59.2934 45.8719 59.3185 45.8694C59.3436 45.8669 59.3679 45.86 59.3901 45.8489L59.5601 45.7644L60.6239 45.2363H60.6253L63.0451 44.0341C63.0675 44.0232 63.0873 44.0084 63.1033 43.9905C63.1193 43.9726 63.1313 43.952 63.1385 43.9298C63.1456 43.9076 63.1479 43.8844 63.1451 43.8614C63.1423 43.8385 63.1345 43.8163 63.1221 43.7961Z" fill="#E6E6E6"/>
<path d="M59.1483 46.6887L57.9874 44.7519C57.9754 44.7324 57.9554 44.7181 57.9317 44.712C57.9081 44.7059 57.8828 44.7085 57.8613 44.7193L57.2982 44.9984L57.006 45.1433L55.4375 45.9215L55.1333 46.0725C55.112 46.0835 55.0962 46.1017 55.0895 46.1232C55.0828 46.1447 55.0857 46.1677 55.0975 46.1873L55.1719 46.3117L56.2582 48.1242C56.2701 48.1435 56.2898 48.1578 56.3132 48.1639C56.3366 48.17 56.3617 48.1675 56.3831 48.1568L58.2557 47.2276L58.5479 47.0826L59.111 46.8035C59.1218 46.7982 59.1313 46.7911 59.139 46.7824C59.1467 46.7738 59.1525 46.7639 59.156 46.7532C59.1594 46.7425 59.1605 46.7313 59.1592 46.7203C59.1579 46.7092 59.1542 46.6985 59.1483 46.6887Z" fill="#E6E6E6"/>
<path d="M63.5849 46.0809C63.5605 46.0403 63.5194 46.0101 63.4707 45.9969C63.4219 45.9838 63.3693 45.9888 63.3246 46.0108L59.311 48.0033C59.2755 48.0209 59.2471 48.0483 59.2297 48.0815C59.2123 48.1147 59.2068 48.152 59.214 48.1881C59.2168 48.2069 59.2236 48.2249 59.234 48.2413C59.2441 48.258 59.2571 48.2731 59.2725 48.286L59.2738 48.2872C59.3036 48.3115 59.3408 48.3269 59.3805 48.3312C59.4202 48.3355 59.4604 48.3286 59.4956 48.3114L63.5092 46.319C63.5314 46.3079 63.551 46.2929 63.5668 46.275C63.5826 46.257 63.5944 46.2364 63.6014 46.2142C63.6084 46.1921 63.6106 46.169 63.6078 46.1461C63.6049 46.1232 63.5972 46.1011 63.5849 46.0809Z" fill="#E6E6E6"/>
<path d="M64.5921 46.2537C64.5799 46.2336 64.5635 46.2158 64.5437 46.2014C64.524 46.1871 64.5013 46.1764 64.477 46.17C64.4527 46.1636 64.4272 46.1616 64.4021 46.1642C64.377 46.1667 64.3526 46.1738 64.3305 46.1849L59.6197 48.5229C59.5842 48.5399 59.5557 48.5668 59.5383 48.5996C59.5208 48.6324 59.5154 48.6695 59.5227 48.7053V48.7065C59.5255 48.7253 59.5323 48.7433 59.5426 48.7597C59.5529 48.777 59.5663 48.7925 59.5824 48.8056C59.6119 48.8304 59.6492 48.8462 59.689 48.8505C59.7289 48.8548 59.7692 48.8476 59.8042 48.8298L64.5151 46.4918C64.5599 46.4694 64.5931 46.4318 64.6076 46.3872C64.622 46.3426 64.6165 46.2946 64.5921 46.2537Z" fill="#E6E6E6"/>
<path d="M57.9653 49.9428C58.4164 49.9428 58.7821 49.6101 58.7821 49.1997C58.7821 48.7893 58.4164 48.4565 57.9653 48.4565C57.5142 48.4565 57.1484 48.7893 57.1484 49.1997C57.1484 49.6101 57.5142 49.9428 57.9653 49.9428Z" fill="#E6E6E6"/>
<path d="M64.1596 37.7016L63.6054 37.9767L56.7773 41.366L56.2231 41.6411C55.9541 41.775 55.7545 42.0004 55.6681 42.268C55.5816 42.5355 55.6154 42.8233 55.7619 43.0683L60.8466 51.5465C60.9937 51.7911 61.2415 51.9727 61.5356 52.0513C61.8297 52.13 62.1461 52.0993 62.4153 51.966L62.4168 51.9653L70.3504 48.0272L70.3519 48.0265C70.6208 47.8926 70.8204 47.6672 70.9068 47.3996C70.9933 47.1321 70.9596 46.8442 70.813 46.5993L65.7283 38.1211C65.5812 37.8765 65.3334 37.6949 65.0393 37.6162C64.7452 37.5376 64.4289 37.5683 64.1596 37.7016Z" fill="#CCCCCC"/>
<path d="M64.3183 37.9674L63.6619 38.2933L57.0382 41.5812L56.3818 41.907C56.1903 42.0023 56.0482 42.1628 55.9866 42.3534C55.925 42.5439 55.949 42.7489 56.0534 42.9233L61.1381 51.4015C61.2429 51.5757 61.4193 51.705 61.6288 51.761C61.8382 51.817 62.0635 51.7952 62.2552 51.7002L62.2567 51.6995L70.1903 47.7614L70.1918 47.7607C70.3833 47.6654 70.5254 47.5048 70.587 47.3143C70.6485 47.1238 70.6245 46.9188 70.5202 46.7444L65.4355 38.2662C65.3307 38.092 65.1542 37.9627 64.9448 37.9067C64.7354 37.8507 64.5101 37.8725 64.3183 37.9674Z" fill="white"/>
<path d="M64.5078 40.361C64.4831 40.3203 64.4418 40.2901 64.3928 40.277C64.3438 40.2638 64.2911 40.2688 64.2461 40.2909L62.8835 40.9675L62.5036 41.156L61.2871 41.7601C61.2425 41.7825 61.2095 41.8201 61.1952 41.8646C61.1809 41.9091 61.1866 41.9569 61.211 41.9976C61.2354 42.0384 61.2765 42.0686 61.3253 42.0818C61.3742 42.0951 61.4268 42.0902 61.4716 42.0682L62.9061 41.3566L63.2062 41.2067L64.4307 40.599C64.4755 40.5765 64.5086 40.5389 64.5231 40.4944C64.5375 40.4498 64.532 40.4019 64.5078 40.361Z" fill="#CCCCCC"/>
<path d="M65.5127 40.5339C65.5007 40.5137 65.4844 40.4959 65.4648 40.4815C65.4451 40.4671 65.4226 40.4564 65.3984 40.45C65.3742 40.4436 65.3488 40.4416 65.3237 40.4442C65.2987 40.4468 65.2744 40.4539 65.2524 40.465L63.3519 41.4087L63.0596 41.5537L61.5961 42.2798C61.5739 42.2909 61.5544 42.3057 61.5385 42.3236C61.5227 42.3415 61.5109 42.3621 61.5038 42.3842C61.4967 42.4062 61.4945 42.4293 61.4972 42.4521C61.4999 42.475 61.5076 42.4971 61.5197 42.5173C61.5318 42.5374 61.5482 42.5552 61.5679 42.5696C61.5875 42.584 61.6101 42.5947 61.6344 42.6012C61.6586 42.6076 61.684 42.6097 61.7091 42.6072C61.7342 42.6047 61.7585 42.5978 61.7807 42.5867L63.2443 41.8606L63.5365 41.7156L65.4357 40.7719C65.4581 40.761 65.4779 40.7462 65.4939 40.7283C65.5099 40.7104 65.5219 40.6898 65.5291 40.6676C65.5362 40.6454 65.5385 40.6222 65.5357 40.5992C65.5329 40.5763 65.5251 40.5541 65.5127 40.5339Z" fill="#CCCCCC"/>
<path d="M61.5389 43.4265L60.6132 41.8824L60.4538 41.6165L60.3781 41.4897C60.366 41.4702 60.346 41.4559 60.3224 41.4498C60.2988 41.4437 60.2735 41.4463 60.2519 41.457L58.3727 42.3898L57.524 42.8103C57.5026 42.8213 57.4868 42.8395 57.4801 42.861C57.4734 42.8825 57.4763 42.9055 57.4881 42.9251L57.5638 43.0508L57.6462 43.1897L57.7232 43.3166V43.3178L58.6489 44.862C58.6607 44.8813 58.6805 44.8956 58.7039 44.9017C58.7273 44.9078 58.7524 44.9053 58.7737 44.8946L61.5017 43.5413C61.5124 43.536 61.522 43.5289 61.5297 43.5202C61.5374 43.5116 61.5431 43.5017 61.5466 43.491C61.5501 43.4803 61.5512 43.4691 61.5498 43.458C61.5485 43.447 61.5448 43.4363 61.5389 43.4265Z" fill="#4B93E7"/>
<path d="M65.9721 42.8187C65.9478 42.7781 65.9067 42.7479 65.8579 42.7347C65.8091 42.7216 65.7566 42.7266 65.7118 42.7486L64.5125 43.3443L64.2203 43.4893L63.0622 44.0632L61.6982 44.7411C61.676 44.7521 61.6563 44.767 61.6404 44.7849C61.6245 44.8029 61.6127 44.8235 61.6055 44.8456C61.5984 44.8677 61.5961 44.8908 61.5987 44.9138C61.6014 44.9367 61.6091 44.9589 61.6212 44.9791C61.6333 44.9993 61.6497 45.0172 61.6694 45.0317C61.6891 45.0461 61.7118 45.0569 61.7361 45.0634C61.7604 45.0699 61.7858 45.072 61.811 45.0696C61.8362 45.0671 61.8606 45.0602 61.8828 45.0492L64.405 43.7974L64.6971 43.6524L65.8964 43.0567C65.9186 43.0457 65.9382 43.0307 65.954 43.0128C65.9698 42.9948 65.9816 42.9741 65.9886 42.952C65.9957 42.9299 65.9978 42.9068 65.995 42.8839C65.9922 42.861 65.9844 42.8389 65.9721 42.8187Z" fill="#CCCCCC"/>
<path d="M66.9834 42.9915C66.9712 42.9714 66.9547 42.9536 66.935 42.9392C66.9152 42.9249 66.8925 42.9142 66.8682 42.9078C66.8439 42.9014 66.8185 42.8994 66.7934 42.902C66.7682 42.9045 66.7439 42.9116 66.7217 42.9227L64.8265 43.8639L64.5343 44.0089L62.0109 45.2607C61.9886 45.2716 61.969 45.2865 61.953 45.3044C61.9371 45.3223 61.9252 45.3429 61.918 45.365C61.9109 45.3871 61.9086 45.4102 61.9113 45.4332C61.914 45.4561 61.9216 45.4783 61.9337 45.4985C61.9459 45.5187 61.9623 45.5365 61.9821 45.5509C62.0018 45.5653 62.0245 45.5761 62.0488 45.5825C62.0732 45.5889 62.0986 45.5909 62.1238 45.5883C62.149 45.5858 62.1733 45.5787 62.1955 45.5676L64.7176 44.3158L65.0098 44.1708L66.9064 43.2296C66.9512 43.2072 66.9844 43.1696 66.9988 43.125C67.0133 43.0804 67.0077 43.0324 66.9834 42.9915Z" fill="#CCCCCC"/>
<path d="M60.3559 46.6804C60.807 46.6804 61.1728 46.3476 61.1728 45.9372C61.1728 45.5268 60.807 45.1941 60.3559 45.1941C59.9048 45.1941 59.5391 45.5268 59.5391 45.9372C59.5391 46.3476 59.9048 46.6804 60.3559 46.6804Z" fill="#CCCCCC"/>
<path d="M60.9036 50.1152C61.0411 50.1276 61.1773 50.1497 61.311 50.1815L70.5747 42.7052L69.9757 40.0231L74.3068 38.6716L75.8744 43.326C76.0011 43.702 75.9902 44.1053 75.8435 44.4752C75.6968 44.8451 75.4222 45.1618 75.0608 45.3776L63.2838 52.412C63.3012 52.896 63.1562 53.3733 62.8681 53.7805C62.58 54.1877 62.1625 54.5054 61.671 54.6915C61.1796 54.8775 60.6376 54.923 60.117 54.8219C59.5965 54.7209 59.1221 54.478 58.7569 54.1257C58.3918 53.7733 58.1532 53.3282 58.073 52.8495C57.9927 52.3708 58.0745 51.8812 58.3075 51.4458C58.5406 51.0105 58.9138 50.65 59.3775 50.4123C59.8413 50.1746 60.3736 50.071 60.9036 50.1152Z" fill="#FFB8B8"/>
<path d="M76.9507 39.3412L74.3263 34.7812C74.0562 34.0876 73.5004 33.5167 72.7763 33.1889C72.0523 32.8611 71.2165 32.8021 70.4455 33.0243C70.4163 33.0316 70.3884 33.04 70.3592 33.0497C69.5779 33.2982 68.9369 33.8185 68.5768 34.4965C68.2167 35.1745 68.1671 35.9548 68.4387 36.6661L69.4919 41.7058C69.5221 41.85 69.5861 41.9867 69.6796 42.1064C69.7731 42.226 69.8939 42.326 70.0338 42.3993C70.1866 42.4806 70.3589 42.5271 70.5358 42.5346C70.6814 42.543 70.8273 42.5245 70.9648 42.4803L71.5279 42.3014L75.143 41.156L76.3251 40.7814C76.4776 40.7329 76.6167 40.6551 76.7332 40.5533C76.8496 40.4515 76.9406 40.3281 77 40.1915C77.0593 40.0548 77.0856 39.9081 77.0771 39.7614C77.0686 39.6147 77.0255 39.4714 76.9507 39.3412Z" fill="#4B93E7"/>
<path d="M86.8592 56.9301H0.132812C0.0975882 56.9301 0.0638068 56.9174 0.0388997 56.8947C0.0139926 56.8721 0 56.8413 0 56.8093C0 56.7773 0.0139926 56.7465 0.0388997 56.7239C0.0638068 56.7012 0.0975882 56.6885 0.132812 56.6885H86.8592C86.8944 56.6885 86.9282 56.7012 86.9531 56.7239C86.978 56.7465 86.992 56.7773 86.992 56.8093C86.992 56.8413 86.978 56.8721 86.9531 56.8947C86.9282 56.9174 86.8944 56.9301 86.8592 56.9301Z" fill="#3F3D56"/>
<path d="M15.0742 54.6948V54.7552C15.0747 55.1649 15.2058 55.5656 15.4517 55.9087C15.6976 56.2519 16.0477 56.5228 16.4595 56.6885C16.7549 56.8086 17.0749 56.8704 17.3984 56.8697H38.8476V54.6948H15.0742Z" fill="#3F3D56"/>
<path d="M53.8235 40.3609C53.4831 39.7217 52.9591 39.1781 52.3068 38.7878C52.0111 38.6097 51.6921 38.466 51.3572 38.3601C50.9008 38.2151 50.4208 38.1411 49.9374 38.1414H29.3516C28.2072 38.1426 27.1101 38.5567 26.3009 39.2928C25.4917 40.029 25.0365 41.0271 25.0352 42.0682V52.9427C25.0348 53.0953 25.0446 53.2478 25.0644 53.3994C25.0936 53.6261 25.1442 53.85 25.2158 54.0688C25.2867 54.2843 25.3783 54.4937 25.4894 54.6947C25.8469 55.3482 26.3978 55.8981 27.0801 56.2823C27.7625 56.6665 28.5491 56.8699 29.3516 56.8695H49.9374C50.5043 56.8697 51.0657 56.7683 51.5895 56.571C52.1133 56.3737 52.5892 56.0845 52.9901 55.7198C53.3909 55.3551 53.7089 54.9222 53.9257 54.4456C54.1426 53.9691 54.2541 53.4584 54.2538 52.9427V42.0682C54.2548 41.4768 54.1076 40.8929 53.8235 40.3609Z" fill="#3F3D56"/>
<path d="M40.7734 48.472C41.3602 48.472 41.8359 48.0393 41.8359 47.5054C41.8359 46.9716 41.3602 46.5388 40.7734 46.5388C40.1866 46.5388 39.7109 46.9716 39.7109 47.5054C39.7109 48.0393 40.1866 48.472 40.7734 48.472Z" fill="white"/>
</g>
<defs>
<clipPath id="clip0_431_119">
<rect width="95" height="73" fill="white"/>
</clipPath>
</defs>
</svg>
