<svg width="41" height="40" viewBox="0 0 41 40" fill="none" xmlns="http://www.w3.org/2000/svg">
<g clip-path="url(#clip0_1439_15644)">
<path d="M40.9854 20C40.9854 8.9543 32.031 0 20.9854 0C9.93966 0 0.985352 8.9543 0.985352 20C0.985352 31.0457 9.93966 40 20.9854 40C32.031 40 40.9854 31.0457 40.9854 20Z" fill="white" fill-opacity="0.12"/>
<path d="M17.1536 20C17.1536 17.883 18.8693 16.1664 20.9863 16.1664C23.1033 16.1664 24.8199 17.883 24.8199 20C24.8199 22.117 23.1033 23.8336 20.9863 23.8336C18.8693 23.8336 17.1536 22.117 17.1536 20ZM15.0811 20C15.0811 23.2614 17.7248 25.9051 20.9863 25.9051C24.2477 25.9051 26.8914 23.2614 26.8914 20C26.8914 16.7386 24.2477 14.0949 20.9863 14.0949C17.7248 14.0949 15.0811 16.7386 15.0811 20ZM25.7451 13.8608C25.7451 14.6225 26.3629 15.2412 27.1255 15.2412C27.8872 15.2412 28.5059 14.6225 28.5059 13.8608C28.5059 13.0991 27.8881 12.4813 27.1255 12.4813C26.3629 12.4813 25.7451 13.0991 25.7451 13.8608ZM16.3398 29.3607C15.2186 29.3096 14.6093 29.1229 14.2042 28.965C13.6673 28.756 13.2846 28.507 12.8815 28.1048C12.4792 27.7026 12.2294 27.3199 12.0213 26.783C11.8634 26.378 11.6767 25.7686 11.6256 24.6474C11.5698 23.4351 11.5587 23.071 11.5587 20C11.5587 16.929 11.5708 16.5658 11.6256 15.3526C11.6767 14.2314 11.8643 13.623 12.0213 13.217C12.2303 12.6801 12.4792 12.2974 12.8815 11.8943C13.2837 11.492 13.6664 11.2422 14.2042 11.0341C14.6093 10.8762 15.2186 10.6895 16.3398 10.6384C17.5521 10.5826 17.9162 10.5715 20.9863 10.5715C24.0573 10.5715 24.4205 10.5836 25.6337 10.6384C26.7549 10.6895 27.3633 10.8771 27.7692 11.0341C28.3061 11.2422 28.6889 11.492 29.092 11.8943C29.4942 12.2965 29.7432 12.6801 29.9522 13.217C30.1101 13.6221 30.2968 14.2314 30.3479 15.3526C30.4036 16.5658 30.4148 16.929 30.4148 20C30.4148 23.0701 30.4036 23.4342 30.3479 24.6474C30.2968 25.7686 30.1092 26.378 29.9522 26.783C29.7432 27.3199 29.4942 27.7026 29.092 28.1048C28.6898 28.507 28.3061 28.756 27.7692 28.965C27.3642 29.1229 26.7549 29.3096 25.6337 29.3607C24.4214 29.4164 24.0573 29.4276 20.9863 29.4276C17.9162 29.4276 17.5521 29.4164 16.3398 29.3607ZM16.2451 8.56967C15.0208 8.6254 14.1847 8.81955 13.4537 9.1038C12.6975 9.39733 12.0566 9.7912 11.4166 10.4303C10.7775 11.0694 10.3837 11.7103 10.0901 12.4674C9.80587 13.1985 9.61173 14.0345 9.556 15.2588C9.49933 16.485 9.48633 16.877 9.48633 20C9.48633 23.123 9.49933 23.515 9.556 24.7412C9.61173 25.9655 9.80587 26.8015 10.0901 27.5326C10.3837 28.2887 10.7766 28.9306 11.4166 29.5697C12.0557 30.2088 12.6966 30.6017 13.4537 30.8962C14.1857 31.1805 15.0208 31.3746 16.2451 31.4303C17.4722 31.4861 17.8633 31.5 20.9863 31.5C24.1102 31.5 24.5013 31.487 25.7275 31.4303C26.9518 31.3746 27.7878 31.1805 28.5189 30.8962C29.275 30.6017 29.916 30.2088 30.556 29.5697C31.1951 28.9306 31.588 28.2887 31.8825 27.5326C32.1667 26.8015 32.3618 25.9655 32.4166 24.7412C32.4723 23.5141 32.4853 23.123 32.4853 20C32.4853 16.877 32.4723 16.485 32.4166 15.2588C32.3609 14.0345 32.1667 13.1985 31.8825 12.4674C31.588 11.7113 31.1951 11.0703 30.556 10.4303C29.9169 9.7912 29.275 9.39733 28.5198 9.1038C27.7878 8.81955 26.9518 8.62448 25.7284 8.56967C24.5022 8.51393 24.1102 8.5 20.9872 8.5C17.8633 8.5 17.4722 8.513 16.2451 8.56967Z" fill="#4F6475"/>
</g>
<defs>
<clipPath id="clip0_1439_15644">
<rect width="40" height="40" fill="white" transform="translate(0.985352)"/>
</clipPath>
</defs>
</svg>
