<svg width="40" height="40" viewBox="0 0 40 40" fill="none" xmlns="http://www.w3.org/2000/svg">
<g clip-path="url(#clip0_1439_15629)">
<path d="M40.001 20C40.001 8.9543 31.0467 0 20.001 0C8.95528 0 0.000976562 8.9543 0.000976562 20C0.000976562 31.0457 8.95528 40 20.001 40C31.0467 40 40.001 31.0457 40.001 20Z" fill="white" fill-opacity="0.12"/>
<path d="M24.0015 16.5C25.5929 16.5 27.119 17.1321 28.2442 18.2574C29.3694 19.3826 30.0016 20.9087 30.0016 22.5V29.5001H26.0016V22.5C26.0016 21.9696 25.7908 21.4609 25.4158 21.0858C25.0407 20.7107 24.532 20.5 24.0015 20.5C23.4711 20.5 22.9624 20.7107 22.5873 21.0858C22.2122 21.4609 22.0015 21.9696 22.0015 22.5V29.5001H18.0015V22.5C18.0015 20.9087 18.6336 19.3826 19.7589 18.2574C20.8841 17.1321 22.4102 16.5 24.0015 16.5Z" fill="#4F6475"/>
<path d="M14.001 17.5H10.001V29.5001H14.001V17.5Z" fill="#4F6475"/>
<path d="M12.001 14.5005C13.1056 14.5005 14.001 13.6051 14.001 12.5005C14.001 11.3959 13.1056 10.5005 12.001 10.5005C10.8964 10.5005 10.001 11.3959 10.001 12.5005C10.001 13.6051 10.8964 14.5005 12.001 14.5005Z" fill="#4F6475"/>
</g>
<defs>
<clipPath id="clip0_1439_15629">
<rect x="0.000976562" width="40" height="40" rx="5" fill="white"/>
</clipPath>
</defs>
</svg>
