<svg width="32" height="32" viewBox="0 0 32 32" fill="none" xmlns="http://www.w3.org/2000/svg">
<rect width="32" height="32" rx="6" fill="#EFFCFA"/>
<rect width="32" height="32" rx="6" stroke="#BCC1CA"/>
<path d="M23.6803 16C23.6803 16.3534 23.3938 16.64 23.0403 16.64L8.96031 16.64C8.60685 16.64 8.32031 16.3535 8.32031 16C8.32031 15.6465 8.60685 15.36 8.96031 15.36L23.0403 15.36C23.3938 15.36 23.6803 15.6465 23.6803 16ZM8.96031 11.52L23.0403 11.52C23.3938 11.52 23.6803 11.2335 23.6803 10.88C23.6803 10.5265 23.3938 10.24 23.0403 10.24L8.96031 10.24C8.60685 10.24 8.32031 10.5265 8.32031 10.88C8.32031 11.2335 8.60685 11.52 8.96031 11.52ZM23.0403 20.48L8.96031 20.48C8.60685 20.48 8.32031 20.7665 8.32031 21.12C8.32031 21.4735 8.60685 21.76 8.96031 21.76L23.0403 21.76C23.3938 21.76 23.6803 21.4735 23.6803 21.12C23.6803 20.7665 23.3938 20.48 23.0403 20.48Z" fill="#22CCB2"/>
</svg>
