<svg width="32" height="32" viewBox="0 0 32 32" fill="none" xmlns="http://www.w3.org/2000/svg">
<rect width="32" height="32" rx="6" fill="#F2F2FD"/>
<rect width="32" height="32" rx="6" stroke="#BCC1CA"/>
<path opacity="0.2" d="M23.0295 10.2712L20.6495 23.7912C20.62 23.9584 20.5254 24.1071 20.3863 24.2044C20.2472 24.3018 20.0751 24.3399 19.9079 24.3104L9.48791 22.4704C9.14007 22.409 8.90771 22.0775 8.96871 21.7296L11.3487 8.20961C11.3782 8.0424 11.4729 7.89374 11.6119 7.79637C11.751 7.69899 11.9231 7.66088 12.0903 7.69041L22.5103 9.53041C22.8581 9.59176 23.0905 9.92331 23.0295 10.2712Z" fill="#1681FF"/>
<path d="M22.6201 8.9L12.2001 7.06C11.504 6.93751 10.8404 7.40237 10.7177 8.0984L8.33769 21.6184C8.2789 21.9529 8.35546 22.2971 8.55052 22.5751C8.74558 22.8531 9.04314 23.0422 9.37769 23.1008L19.7977 24.9408C20.1323 24.9998 20.4767 24.9234 20.7549 24.7283C21.0331 24.5332 21.2223 24.2355 21.2809 23.9008L23.6609 10.3808C23.7823 9.6845 23.3164 9.02158 22.6201 8.9ZM20.0185 23.68L9.59769 21.84L11.9777 8.32L22.3977 10.16L20.0185 23.68ZM12.9049 10.4336C12.9666 10.0857 13.2986 9.85368 13.6465 9.9152L20.2865 11.0872C20.6136 11.1445 20.8426 11.4425 20.8136 11.7734C20.7847 12.1043 20.5074 12.358 20.1753 12.3576C20.1377 12.3576 20.1003 12.3543 20.0633 12.348L13.4233 11.1752C13.0754 11.1135 12.8434 10.7815 12.9049 10.4336ZM12.4617 12.9552C12.4911 12.788 12.5858 12.6393 12.7249 12.542C12.864 12.4446 13.0361 12.4065 13.2033 12.436L19.8433 13.6088C20.1729 13.6639 20.4046 13.9633 20.3752 14.2962C20.3459 14.6291 20.0654 14.8834 19.7313 14.88C19.6934 14.8801 19.6557 14.8766 19.6185 14.8696L12.9785 13.6976C12.6309 13.6351 12.3996 13.3029 12.4617 12.9552ZM12.0177 15.476C12.0806 15.1291 12.4122 14.8984 12.7593 14.96L16.0777 15.5432C16.4047 15.6005 16.6336 15.8983 16.6048 16.229C16.5761 16.5597 16.2993 16.8136 15.9673 16.8136C15.9297 16.8136 15.8923 16.8104 15.8553 16.804L12.5353 16.2176C12.1877 16.1555 11.9561 15.8237 12.0177 15.476Z" fill="#1681FF"/>
</svg>
