<svg width="64" height="64" viewBox="0 0 64 64" fill="none" xmlns="http://www.w3.org/2000/svg">
<rect width="64" height="64" rx="8" fill="#58A1FF"/>
<path fill-rule="evenodd" clip-rule="evenodd" d="M39.3619 45.01C43.8901 42.44 46.9481 37.5743 46.9481 32C46.9481 25.69 43.0299 20.2881 37.4959 18.096C36.9846 17.8935 36.7339 17.3139 36.9365 16.8026C37.139 16.2912 37.7186 16.0405 38.2299 16.243C44.5013 18.7271 48.9412 24.8492 48.9412 32C48.9412 38.2039 45.5994 43.6334 40.6191 46.5847L40.7374 46.6187C41.2661 46.7704 41.5721 47.3229 41.4204 47.8515C41.2686 48.3801 40.7162 48.6861 40.1875 48.5344L37.588 47.7883C37.0691 47.6394 36.7631 47.1043 36.898 46.5815L37.5737 43.9627C37.7112 43.4302 38.2551 43.1094 38.7877 43.2468C39.3202 43.3843 39.6411 43.9282 39.5036 44.4607L39.3619 45.01ZM23.381 17.4153L23.2626 17.3813C22.734 17.2295 22.428 16.6771 22.5797 16.1485C22.7314 15.6199 23.2838 15.3139 23.8125 15.4655L26.412 16.2117C26.9309 16.3606 27.2369 16.8957 27.102 17.4185L26.4263 20.0373C26.2889 20.5698 25.7449 20.8906 25.2123 20.7532C24.6798 20.6157 24.359 20.0718 24.4964 19.5393L24.6382 18.9899C20.1099 21.56 17.0519 26.4256 17.0519 32C17.0519 38.31 20.9702 43.7119 26.5041 45.904C27.0154 46.1065 27.2662 46.6861 27.0636 47.1974C26.8611 47.7088 26.2815 47.9595 25.7701 47.757C19.4988 45.2728 15.0588 39.1508 15.0588 32C15.0588 25.7961 18.4006 20.3666 23.381 17.4153ZM34.384 22.0174C35.4406 22.2686 36.4483 22.6859 37.3745 23.2567L39.3182 22.3924L41.6076 24.6818L40.7466 26.6255C41.3173 27.5517 41.7348 28.5594 41.9859 29.6193L43.9687 30.3825V33.6208L41.9859 34.384C41.7348 35.4406 41.3141 36.4483 40.7466 37.3744L41.6076 39.3182L39.3182 41.6075L37.3745 40.7466C36.4516 41.3173 35.4406 41.7347 34.384 41.9858L33.6209 43.9687H30.3825L29.6194 41.9858C28.5594 41.7347 27.5517 41.314 26.6256 40.7466L24.6819 41.6075L22.3925 39.3182L23.2567 37.3744C22.686 36.4516 22.2686 35.4406 22.0142 34.384L20.0314 33.6208V30.3825L22.0142 29.6193C22.2686 28.5594 22.686 27.5517 23.2567 26.6255L22.3925 24.6818L24.6819 22.3924L26.6256 23.2567C27.5517 22.6859 28.5594 22.2686 29.616 22.0174L30.3825 20.0313H33.6209L34.384 22.0174ZM31.9994 23.6876C27.4068 23.6876 23.6876 27.4068 23.6876 31.9994C23.6876 36.5919 27.4069 40.3156 31.9994 40.3156C36.5919 40.3156 40.3157 36.5918 40.3157 31.9994C40.3157 27.4069 36.5919 23.6876 31.9994 23.6876ZM29.3947 38.6993C26.7149 37.6558 24.817 35.0492 24.817 31.9994C24.817 28.0308 28.0308 24.817 31.9994 24.817C35.9681 24.817 39.1863 28.0307 39.1863 31.9994C39.1863 35.0478 37.2876 37.6533 34.6085 38.6978V34.0426H36.882C37.0226 34.0426 37.1451 33.9632 37.2041 33.8361C37.2631 33.7068 37.2427 33.5661 37.1519 33.4572L32.2716 27.7102C32.2013 27.6285 32.1083 27.5854 32.0016 27.5854C31.8927 27.5854 31.802 27.6285 31.7316 27.7102L26.8514 33.4572C26.7606 33.5661 26.7402 33.7068 26.7991 33.8361C26.8582 33.9632 26.9807 34.0426 27.1214 34.0426H29.3947V38.6993Z" fill="white"/>
</svg>
