<svg width="64" height="64" viewBox="0 0 64 64" fill="none" xmlns="http://www.w3.org/2000/svg">
<rect width="64" height="64" rx="8" fill="#58A1FF"/>
<g clip-path="url(#clip0_1439_20885)">
<path d="M38.7073 29.3332L32.6403 24.7974C32.2609 24.5137 31.74 24.5137 31.3606 24.7974L25.2931 29.3332C25.0232 29.5348 24.8643 29.8521 24.8643 30.1891V37.7879C24.8643 38.378 25.3427 38.8565 25.9329 38.8565H30.0986C30.6887 38.8565 31.1672 38.378 31.1672 37.7879V35.0163C31.1672 34.6319 31.5409 34.3192 32.0001 34.3192C32.4593 34.3192 32.8328 34.632 32.8328 35.0163V37.7879C32.8329 38.378 33.3114 38.8565 33.9015 38.8565H38.0673C38.6575 38.8565 39.1359 38.378 39.1359 37.7879V30.1891C39.1361 29.8522 38.9772 29.535 38.7073 29.3332ZM36.9989 36.7192H34.9703V35.0162C34.9703 33.4534 33.6379 32.1819 32.0002 32.1819C30.3625 32.1819 29.0301 33.4535 29.0301 35.0162V36.7192H27.0015V30.7244L32.0005 26.9875L36.9989 30.7244V36.7192Z" fill="white"/>
<path d="M34.394 17.0781L31.629 14.313C31.2118 13.8958 30.5351 13.8958 30.1178 14.313C29.7005 14.7302 29.7005 15.4069 30.1178 15.8242L31.0865 16.793C27.3607 17.0119 23.8885 18.5663 21.2274 21.2273C18.3498 24.1048 16.7651 27.9306 16.7651 32C16.7651 35.1057 17.6939 38.0937 19.4511 40.641C21.1668 43.1282 23.5514 45.0336 26.347 46.1514C26.4771 46.2034 26.6113 46.228 26.7433 46.228C27.1675 46.228 27.5689 45.9738 27.7359 45.5558C27.9551 45.0077 27.6884 44.3859 27.1404 44.1669C22.136 42.1661 18.9024 37.3903 18.9024 32C18.9024 25.1069 24.255 19.4407 31.0221 18.9388L30.1177 19.8433C29.7004 20.2605 29.7004 20.9372 30.1177 21.3545C30.3264 21.5632 30.5998 21.6675 30.8733 21.6675C31.1467 21.6675 31.4202 21.5632 31.6288 21.3545L34.394 18.5894C34.8113 18.1721 34.8113 17.4955 34.394 17.0781Z" fill="white"/>
<path d="M47.2348 32C47.2348 25.8634 43.5826 20.3535 37.9304 17.9627C37.3869 17.7329 36.7598 17.9871 36.5299 18.5306C36.2999 19.0742 36.5543 19.7013 37.0978 19.9312C41.9575 21.9866 45.0976 26.724 45.0976 32C45.0976 38.7976 39.8922 44.4016 33.2582 45.037L34.1384 44.1568C34.5557 43.7396 34.5557 43.0629 34.1384 42.6456C33.7212 42.2283 33.0445 42.2283 32.6272 42.6456L29.8621 45.4107C29.4447 45.8279 29.4447 46.5046 29.8621 46.9219L32.6272 49.687C32.8358 49.8957 33.1093 50.0001 33.3827 50.0001C33.6562 50.0001 33.9297 49.8957 34.1383 49.687C34.5556 49.2698 34.5556 48.5931 34.1383 48.1758L33.154 47.1915C41.0175 46.5996 47.2348 40.0122 47.2348 32Z" fill="white"/>
</g>
<defs>
<clipPath id="clip0_1439_20885">
<rect width="36" height="36" fill="white" transform="translate(14 14)"/>
</clipPath>
</defs>
</svg>
