<svg width="64" height="64" viewBox="0 0 64 64" fill="none" xmlns="http://www.w3.org/2000/svg">
<rect width="64" height="64" rx="8" fill="#58A1FF"/>
<path d="M47.7501 32C47.7501 29.5176 47.1738 27.1309 46.0828 24.9648C46.3202 24.7586 46.4779 24.4642 46.4779 24.125C46.4779 23.9855 46.4526 23.852 46.4064 23.7284L46.1384 22.0634L47.4315 20.7363C47.7259 20.4341 47.8259 19.9919 47.6908 19.592C47.5567 19.1921 47.2095 18.901 46.7921 18.8389L45.0584 18.5791L44.2685 16.8971C44.0828 16.5021 43.6862 16.25 43.2501 16.25C42.8139 16.25 42.4173 16.5021 42.2316 16.8971L41.4439 18.5758L40.4578 18.7227C37.9253 17.1098 35.0138 16.25 32.0001 16.25C28.7336 16.25 25.5514 17.2738 22.8982 19.1551L21.7564 16.8718C21.3741 16.1094 20.1261 16.1094 19.7437 16.8718L16.3687 23.6218C16.194 23.9706 16.2127 24.3848 16.4182 24.7166C16.6236 25.0479 16.9851 25.25 17.3751 25.25H17.7773C16.7781 27.3464 16.2501 29.6445 16.2501 32C16.2501 33.5642 16.4799 35.1022 16.934 36.5904C16.532 36.762 16.2501 37.1603 16.2501 37.625V44.375C16.2501 44.9963 16.7532 45.5 17.3751 45.5H23.9122C26.3474 46.9679 29.1305 47.75 32.0001 47.75C35.2754 47.75 38.3719 46.7567 41.0192 44.8895C41.6943 45.2819 42.4593 45.5 43.2501 45.5C45.7319 45.5 47.7501 43.4813 47.7501 41C47.7501 39.8589 47.3096 38.7749 46.5572 37.9602C47.3336 36.0645 47.7501 34.0677 47.7501 32ZM42.3525 20.7176C42.7326 20.6671 43.06 20.427 43.2226 20.0804L43.2501 20.0222L43.2775 20.0804C43.4379 20.4215 43.7576 20.6594 44.129 20.7148L44.2872 20.739L44.1312 20.8989C43.8829 21.1537 43.7708 21.5114 43.8269 21.8624L43.8532 22.0255L43.7939 21.9931C43.6247 21.8992 43.4379 21.8525 43.2501 21.8525C43.0633 21.8525 42.8754 21.8992 42.7074 21.9926L42.6469 22.0255L42.6733 21.8629C42.7304 21.5114 42.6173 21.1537 42.369 20.8989L42.2108 20.7368L42.3525 20.7176ZM20.7501 19.8903L22.3046 23H19.1955L20.7501 19.8903ZM23.0001 43.25H18.5001V38.7505L18.5028 38.75H23.0001V43.25ZM25.2501 43.6796V37.625C25.2501 37.0037 24.7469 36.5 24.1251 36.5H19.29C18.7759 35.0487 18.5001 33.5408 18.5001 32C18.5001 29.6112 19.133 27.2926 20.3206 25.25H24.1251C24.1339 25.2505 24.1427 25.2511 24.147 25.25C24.7689 25.25 25.272 24.7463 25.272 24.125C25.272 23.8679 25.1864 23.6306 25.0413 23.4411L23.9227 21.2039C26.2522 19.4603 29.0851 18.5 32.0001 18.5C34.4215 18.5 36.7666 19.1443 38.8382 20.3623C38.892 20.4983 38.9631 20.6279 39.0687 20.7363L40.3618 22.0634L40.0585 23.9459C39.9904 24.3705 40.1695 24.7974 40.5222 25.0451C40.7155 25.1813 40.9418 25.25 41.1693 25.25C41.356 25.25 41.5428 25.2039 41.712 25.1099L43.0985 24.3456C44.665 26.5971 45.5001 29.2286 45.5001 32C45.5001 33.6309 45.2006 35.2105 44.6368 36.7182C44.1944 36.5742 43.7281 36.5 43.2501 36.5C40.7683 36.5 38.7501 38.5187 38.7501 41C38.7501 41.8278 38.9949 42.6094 39.3998 43.2867C37.2065 44.7381 34.6706 45.5 32.0001 45.5C29.6108 45.5 27.2923 44.8675 25.2501 43.6796ZM43.2501 43.25C42.6953 43.25 42.1822 43.0511 41.7417 42.6534C41.2703 42.2508 41.0001 41.6482 41.0001 41C41.0001 39.7591 42.0097 38.75 43.2501 38.75C43.7258 38.75 44.1762 38.8961 44.5673 39.1829C45.1595 39.6047 45.5001 40.2667 45.5001 41C45.5001 42.2409 44.4904 43.25 43.2501 43.25Z" fill="white"/>
<path d="M36.5 25.25C36.5 22.7687 34.4818 20.75 32 20.75C29.5182 20.75 27.5 22.7687 27.5 25.25C27.5 27.7313 29.5182 29.75 32 29.75C34.4818 29.75 36.5 27.7313 36.5 25.25ZM32 27.5C30.7596 27.5 29.75 26.4909 29.75 25.25C29.75 24.0091 30.7596 23 32 23C33.2404 23 34.25 24.0091 34.25 25.25C34.25 26.4909 33.2404 27.5 32 27.5Z" fill="white"/>
<path d="M38.75 34.25C38.75 31.7687 36.7318 29.75 34.25 29.75H32H29.75C27.2682 29.75 25.25 31.7687 25.25 34.25V35.375C25.25 35.9963 25.7532 36.5 26.375 36.5H37.625C38.2468 36.5 38.75 35.9963 38.75 35.375V34.25ZM27.5 34.25C27.5 33.0091 28.5096 32 29.75 32H34.25C35.4904 32 36.5 33.0091 36.5 34.25H27.5Z" fill="white"/>
</svg>
