<svg width="15" height="14" viewBox="0 0 15 14" fill="none" xmlns="http://www.w3.org/2000/svg">
<path fill-rule="evenodd" clip-rule="evenodd" d="M6.71533 1.08301C5.8869 1.08301 5.21533 1.75458 5.21533 2.58301V3.24967C5.21533 3.52582 4.99147 3.74967 4.71533 3.74967C4.43919 3.74967 4.21533 3.52582 4.21533 3.24967V2.58301C4.21533 1.2023 5.33462 0.0830078 6.71533 0.0830078L8.04867 0.0830078C9.42938 0.0830078 10.5487 1.2023 10.5487 2.58301V3.24967C10.5487 3.52582 10.3248 3.74967 10.0487 3.74967C9.77252 3.74967 9.54867 3.52582 9.54867 3.24967V2.58301C9.54867 1.75458 8.87709 1.08301 8.04867 1.08301H6.71533Z" fill="#838891"/>
<path d="M1.04867 8.60449C0.86457 8.60449 0.715332 8.75373 0.715332 8.93783L0.715332 11.2496C0.715332 12.7224 1.90924 13.9163 3.382 13.9163H11.382C12.8548 13.9163 14.0487 12.7224 14.0487 11.2496V8.93783C14.0487 8.75373 13.8994 8.60449 13.7153 8.60449H11.2558C11.1822 8.60449 11.1233 8.66446 11.1145 8.73756C11.0537 9.23865 10.654 9.64648 10.1225 9.64648C9.591 9.64648 9.19123 9.23865 9.13049 8.73756C9.12163 8.66446 9.06278 8.60449 8.98914 8.60449H5.78901C5.71538 8.60449 5.65652 8.66446 5.64766 8.73756C5.58693 9.23865 5.18716 9.64648 4.65568 9.64648C4.1242 9.64648 3.72443 9.23865 3.6637 8.73756C3.65484 8.66446 3.59599 8.60449 3.52235 8.60449H1.04867Z" fill="#838891"/>
<path d="M3.382 3.25L11.382 3.25C12.8548 3.25 14.0487 4.44391 14.0487 5.91667V7.42449C14.0487 7.60858 13.8994 7.75782 13.7153 7.75782H11.2515C11.1779 7.75782 11.119 7.69785 11.1101 7.62476C11.0489 7.12492 10.6473 6.71903 10.1182 6.71903C9.58906 6.71903 9.18743 7.12492 9.12626 7.62476C9.11731 7.69785 9.05847 7.75782 8.98483 7.75782L5.78315 7.75782C5.70952 7.75782 5.65067 7.69785 5.64173 7.62476C5.58056 7.12492 5.17893 6.71903 4.64982 6.71903C4.12071 6.71903 3.71908 7.12492 3.65791 7.62476C3.64897 7.69785 3.59013 7.75782 3.51649 7.75782H1.04867C0.86457 7.75782 0.715332 7.60858 0.715332 7.42449L0.715332 5.91667C0.715332 4.44391 1.90924 3.25 3.382 3.25Z" fill="#838891"/>
<rect x="9.62256" y="7.25" width="1" height="1.86269" rx="0.5" fill="#838891"/>
<rect x="4.15576" y="7.25" width="1" height="1.86269" rx="0.5" fill="#838891"/>
</svg>
