<svg width="15" height="15" viewBox="0 0 15 15" fill="none" xmlns="http://www.w3.org/2000/svg">
<path fill-rule="evenodd" clip-rule="evenodd" d="M8.20705 7.88173L14.4022 1.68656C14.5975 1.4913 14.5975 1.17472 14.4022 0.979454C14.207 0.784192 13.8904 0.784192 13.6951 0.979454L11.7293 2.94527C10.5621 1.94044 9.04298 1.33301 7.382 1.33301C3.7001 1.33301 0.715332 4.31778 0.715332 7.99967C0.715332 11.6816 3.7001 14.6663 7.382 14.6663C11.0639 14.6663 14.0487 11.6816 14.0487 7.99967C14.0487 6.68098 13.6658 5.45171 13.0051 4.41697L11.417 6.00516C11.7147 6.60627 11.882 7.28343 11.882 7.99967C11.882 10.485 9.86728 12.4997 7.382 12.4997C4.89672 12.4997 2.882 10.485 2.882 7.99967C2.882 5.51439 4.89672 3.49967 7.382 3.49967C8.44451 3.49967 9.42101 3.86791 10.1908 4.48373L9.47808 5.19648C8.8938 4.75888 8.16817 4.49967 7.382 4.49967C5.449 4.49967 3.882 6.06668 3.882 7.99967C3.882 9.93267 5.449 11.4997 7.382 11.4997C9.315 11.4997 10.882 9.93267 10.882 7.99967C10.882 7.56482 10.8027 7.14849 10.6578 6.76435L9.20224 8.21987C9.09347 9.12857 8.32 9.83301 7.382 9.83301C6.36948 9.83301 5.54867 9.0122 5.54867 7.99967C5.54867 6.98715 6.36948 6.16634 7.382 6.16634C7.70658 6.16634 8.01145 6.25069 8.27591 6.39866L7.49994 7.17462C7.46141 7.16916 7.42204 7.16634 7.382 7.16634C6.92176 7.16634 6.54867 7.53944 6.54867 7.99967C6.54867 8.45991 6.92176 8.83301 7.382 8.83301C7.84224 8.83301 8.21533 8.45991 8.21533 7.99967C8.21533 7.95964 8.21251 7.92026 8.20705 7.88173Z" fill="#838891"/>
</svg>
