<svg width="17" height="16" viewBox="0 0 17 16" fill="none" xmlns="http://www.w3.org/2000/svg">
<path fill-rule="evenodd" clip-rule="evenodd" d="M7.83325 2.08301C7.00482 2.08301 6.33325 2.75458 6.33325 3.58301V4.24967C6.33325 4.52582 6.10939 4.74967 5.83325 4.74967C5.55711 4.74967 5.33325 4.52582 5.33325 4.24967V3.58301C5.33325 2.2023 6.45254 1.08301 7.83325 1.08301H9.16659C10.5473 1.08301 11.6666 2.2023 11.6666 3.58301V4.24967C11.6666 4.52582 11.4427 4.74967 11.1666 4.74967C10.8904 4.74967 10.6666 4.52582 10.6666 4.24967V3.58301C10.6666 2.75458 9.99501 2.08301 9.16659 2.08301H7.83325Z" fill="#838891"/>
<path d="M4.49992 4.25L12.4999 4.25C13.9727 4.25 15.1666 5.44391 15.1666 6.91667C15.1666 6.91667 13.6152 8.43489 9.68619 8.61389C9.58029 8.61871 9.49028 8.53795 9.46092 8.43608C9.34065 8.01878 8.95593 7.71354 8.49992 7.71354C8.05812 7.71354 7.68323 8.00004 7.55092 8.39739C7.51755 8.49762 7.42487 8.57448 7.31957 8.56605C3.38235 8.25071 1.83325 6.91667 1.83325 6.91667C1.83325 5.44391 3.02716 4.25 4.49992 4.25Z" fill="#838891"/>
<path d="M7.49992 9.56768C7.49992 9.46265 7.41773 9.37555 7.31302 9.36729C4.22555 9.12396 2.49609 8.30991 1.83325 7.92507L1.83325 12.25C1.83325 13.7228 3.02716 14.9167 4.49992 14.9167H12.4999C13.9727 14.9167 15.1666 13.7228 15.1666 12.25V7.95291C14.5025 8.3881 12.7699 9.29443 9.69355 9.44004C9.58603 9.44513 9.49992 9.53337 9.49992 9.64101V9.64688C9.49992 10.1992 9.0522 10.6469 8.49992 10.6469C7.94763 10.6469 7.49992 10.1992 7.49992 9.64688V9.56768Z" fill="#838891"/>
<rect x="8" y="8.25" width="1" height="1.86269" rx="0.5" fill="#838891"/>
</svg>
