<svg width="13" height="15" viewBox="0 0 13 15" fill="none" xmlns="http://www.w3.org/2000/svg">
<path fill-rule="evenodd" clip-rule="evenodd" d="M4.33333 1.33301C4.33333 1.05687 4.10948 0.833008 3.83333 0.833008C3.55719 0.833008 3.33333 1.05687 3.33333 1.33301V2.33301H3.16667C1.69391 2.33301 0.5 3.52692 0.5 4.99967V5.49967L12.5 5.49967V4.99967C12.5 3.52692 11.3061 2.33301 9.83333 2.33301H9.66667V1.33301C9.66667 1.05687 9.44281 0.833008 9.16667 0.833008C8.89052 0.833008 8.66667 1.05687 8.66667 1.33301V2.33301L4.33333 2.33301V1.33301ZM0.5 6.49967L12.5 6.49967V11.9997C12.5 13.4724 11.3061 14.6663 9.83333 14.6663H3.16667C1.69391 14.6663 0.5 13.4724 0.5 11.9997L0.5 6.49967Z" fill="#838891"/>
</svg>
