<svg width="31" height="31" viewBox="0 0 31 31" fill="none" xmlns="http://www.w3.org/2000/svg">
<g clip-path="url(#clip0_405_1855)">
<path opacity="0.2" d="M15.4079 18.728C11.4393 18.733 7.54007 17.6884 4.10547 15.7003L4.10237 25.3186C4.10233 25.4423 4.12666 25.5648 4.17396 25.6791C4.22127 25.7934 4.29062 25.8973 4.37807 25.9848C4.46552 26.0723 4.56934 26.1417 4.68362 26.1891C4.7979 26.2364 4.92038 26.2609 5.04409 26.2609L25.7686 26.2676C25.8923 26.2676 26.0148 26.2433 26.1291 26.196C26.2434 26.1487 26.3473 26.0793 26.4348 25.9919C26.5223 25.9044 26.5917 25.8006 26.6391 25.6863C26.6865 25.572 26.7109 25.4495 26.7109 25.3258L26.714 15.7065C23.2777 17.6931 19.3771 18.7356 15.4079 18.728Z" fill="#0A65CC"/>
<path d="M25.772 9.31117L5.04749 9.3045C4.52723 9.30433 4.10533 9.72596 4.10517 10.2462L4.10032 25.3186C4.10015 25.8389 4.52177 26.2608 5.04204 26.2609L25.7666 26.2676C26.2868 26.2678 26.7087 25.8461 26.7089 25.3259L26.7137 10.2535C26.7139 9.73323 26.2923 9.31134 25.772 9.31117Z" stroke="#0A65CC" stroke-width="1.50724" stroke-linecap="round" stroke-linejoin="round"/>
<path d="M20.1221 9.30921L20.1228 7.42516C20.1229 6.92548 19.9246 6.44621 19.5714 6.09276C19.2181 5.73932 18.739 5.54067 18.2393 5.54051L12.5872 5.53869C12.0875 5.53853 11.6082 5.73687 11.2548 6.09009C10.9013 6.4433 10.7027 6.92245 10.7025 7.42213L10.7019 9.30618" stroke="#0A65CC" stroke-width="1.50724" stroke-linecap="round" stroke-linejoin="round"/>
<path d="M26.7142 15.7065C23.2779 17.6931 19.3773 18.7356 15.408 18.728C11.4394 18.733 7.54011 17.6884 4.10547 15.7002" stroke="#0A65CC" stroke-width="1.50724" stroke-linecap="round" stroke-linejoin="round"/>
<path d="M14 14.9595L16.8261 14.9604" stroke="#0A65CC" stroke-width="1.50724" stroke-linecap="round" stroke-linejoin="round"/>
</g>
<defs>
<clipPath id="clip0_405_1855">
<rect width="30.1448" height="30.1448" fill="white" transform="translate(0.339844 0.824707) rotate(0.0184388)"/>
</clipPath>
</defs>
</svg>
