<svg width="31" height="31" viewBox="0 0 31 31" fill="none" xmlns="http://www.w3.org/2000/svg">
<g clip-path="url(#clip0_405_1925)">
<path d="M15.0568 30.7314C6.78548 30.7287 0.0589173 23.9975 0.061579 15.7266C0.0642407 7.45564 6.79514 0.728728 15.0664 0.73139C23.3377 0.734052 30.0642 7.4653 30.0616 15.7362C30.0589 24.0071 23.328 30.734 15.0568 30.7314Z" fill="#D7EBFF"/>
<path d="M30.0616 15.7363C30.0642 7.46535 23.3377 0.734107 15.0664 0.731445L15.0568 30.7314C23.328 30.7341 30.0589 24.0072 30.0616 15.7363Z" fill="#C4E2FF"/>
<path d="M15.0585 28.7743C7.86616 28.772 2.01693 22.9187 2.01924 15.7266C2.02155 8.53451 7.87455 2.68499 15.0669 2.6873C22.2593 2.68962 28.1085 8.54297 28.1062 15.735C28.1039 22.927 22.2509 28.7766 15.0585 28.7743Z" fill="#88CC2A"/>
<path d="M28.1057 15.7357C28.108 8.54365 22.2588 2.6903 15.0664 2.68799L15.058 28.7749C22.2504 28.7773 28.1034 22.9277 28.1057 15.7357Z" fill="#7FB335"/>
<path d="M13.7541 21.6006C13.2535 21.6005 12.7529 21.4092 12.3709 21.0269L8.34073 16.9942C7.57668 16.23 7.57708 14.9912 8.34162 14.2275C9.10617 13.4634 10.3443 13.4638 11.1083 14.2284L13.7556 16.8771L19.3403 11.2962C20.1049 10.5321 21.343 10.5325 22.107 11.2971C22.8711 12.0613 22.8707 13.3 22.1061 14.0638L15.1376 21.0278C14.7554 21.4099 14.2547 21.6008 13.7541 21.6006Z" fill="white"/>
<path d="M19.3409 11.2963L15.0609 15.5732L15.0592 21.0923C15.0847 21.0693 15.1135 21.0524 15.1382 21.0278L22.1067 14.0638C22.8712 13.3001 22.8716 12.0614 22.1076 11.2971C21.3436 10.5326 20.1054 10.5322 19.3409 11.2963Z" fill="#EDF0F2"/>
</g>
<defs>
<clipPath id="clip0_405_1925">
<rect width="30" height="30" fill="white" transform="translate(0.0664062 0.726562) rotate(0.0184388)"/>
</clipPath>
</defs>
</svg>
