<svg width="29" height="29" viewBox="0 0 29 29" fill="none" xmlns="http://www.w3.org/2000/svg">
<g clip-path="url(#clip0_405_1936)">
<path d="M14.0418 28.7311C6.32192 28.7286 0.0437915 22.4461 0.0462758 14.7266C0.0487601 7.00704 6.33093 0.728584 14.0508 0.731068C21.7706 0.733552 28.0488 7.01605 28.0463 14.7356C28.0438 22.4551 21.7616 28.7336 14.0418 28.7311Z" fill="#D7EBFF"/>
<path d="M28.0463 14.7355C28.0488 7.01594 21.7706 0.733441 14.0508 0.730957L14.0418 28.731C21.7616 28.7334 28.0438 22.455 28.0463 14.7355Z" fill="#C4E2FF"/>
<path d="M14.0411 26.9045C7.3282 26.9023 1.86892 21.4393 1.87108 14.7267C1.87324 8.01405 7.33604 2.55449 14.0489 2.55665C20.7618 2.55881 26.2211 8.02194 26.2189 14.7345C26.2168 21.4471 20.754 26.9067 14.0411 26.9045Z" fill="#D48888"/>
<path d="M26.2208 14.735C26.223 8.02241 20.7637 2.55929 14.0508 2.55713L14.0429 26.9049C20.7558 26.9071 26.2186 21.4475 26.2208 14.735Z" fill="#B3353D"/>
<path d="M10.2305 10.9116L19.1367 19.8236" stroke="white" stroke-width="3" stroke-linecap="round"/>
<path d="M10.2266 19.8208L19.1385 10.9146" stroke="white" stroke-width="3" stroke-linecap="round"/>
</g>
<defs>
<clipPath id="clip0_405_1936">
<rect width="28" height="28" fill="white" transform="translate(0.0507812 0.726562) rotate(0.0184388)"/>
</clipPath>
</defs>
</svg>
