<svg width="31" height="31" viewBox="0 0 31 31" fill="none" xmlns="http://www.w3.org/2000/svg">
<g clip-path="url(#clip0_405_1879)">
<path opacity="0.2" d="M10.9981 18.8376C14.3798 18.8387 17.1222 16.0982 17.1232 12.7164C17.1243 9.33473 14.3838 6.59241 11.0021 6.59133C7.62033 6.59024 4.87802 9.33078 4.87694 12.7125C4.87585 16.0942 7.61639 18.8365 10.9981 18.8376Z" fill="#0A65CC"/>
<path d="M10.9981 18.8376C14.3798 18.8387 17.1222 16.0982 17.1232 12.7164C17.1243 9.33473 14.3838 6.59241 11.0021 6.59133C7.62033 6.59024 4.87802 9.33078 4.87694 12.7125C4.87585 16.0942 7.61639 18.8365 10.9981 18.8376Z" stroke="#0A65CC" stroke-width="1.50724" stroke-miterlimit="10"/>
<path d="M18.9413 6.82226C19.7836 6.58525 20.6669 6.53147 21.5317 6.66457C22.3965 6.79766 23.2227 7.11454 23.9548 7.59384C24.6868 8.07315 25.3076 8.70375 25.7754 9.44319C26.2432 10.1826 26.5471 11.0137 26.6666 11.8805C26.7862 12.7473 26.7186 13.6296 26.4684 14.4681C26.2182 15.3065 25.7913 16.0816 25.2163 16.7412C24.6414 17.4008 23.9317 17.9294 23.1352 18.2917C22.3388 18.6539 21.4739 18.8412 20.5989 18.841" stroke="#0A65CC" stroke-width="1.50724" stroke-linecap="round" stroke-linejoin="round"/>
<path d="M2.51811 23.2385C3.47486 21.8786 4.74478 20.7687 6.22066 20.0028C7.69654 19.2368 9.33504 18.8372 10.9978 18.8377C12.6606 18.8382 14.2989 19.2387 15.7744 20.0055C17.2498 20.7723 18.5191 21.8828 19.4751 23.2433" stroke="#0A65CC" stroke-width="1.50724" stroke-linecap="round" stroke-linejoin="round"/>
<path d="M20.5977 18.8408C22.2606 18.8402 23.8992 19.2402 25.3748 20.0071C26.8504 20.774 28.1194 21.8851 29.0745 23.2465" stroke="#0A65CC" stroke-width="1.50724" stroke-linecap="round" stroke-linejoin="round"/>
</g>
<defs>
<clipPath id="clip0_405_1879">
<rect width="30.1448" height="30.1448" fill="white" transform="translate(0.640625 -0.00585938) rotate(0.0184388)"/>
</clipPath>
</defs>
</svg>
