<svg width="48" height="48" viewBox="0 0 48 48" fill="none" xmlns="http://www.w3.org/2000/svg">
<rect width="48" height="48" rx="24" fill="black"/>
<path d="M13.3889 36C12.9954 36 12.6657 35.872 12.4 35.616C12.1343 35.36 12.0009 35.0436 12 34.6667V31.4333C12 31.0778 12.0694 30.7387 12.2083 30.416C12.3472 30.0933 12.544 29.8102 12.7986 29.5667L30.3333 12.7667C30.6111 12.5222 30.9181 12.3333 31.2542 12.2C31.5903 12.0667 31.9431 12 32.3125 12C32.6819 12 33.0407 12.0667 33.3889 12.2C33.737 12.3333 34.038 12.5333 34.2917 12.8L36.2014 14.6667C36.4792 14.9111 36.6815 15.2 36.8083 15.5333C36.9352 15.8667 36.9991 16.2 37 16.5333C37 16.8889 36.9361 17.228 36.8083 17.5507C36.6806 17.8733 36.4782 18.1676 36.2014 18.4333L18.7014 35.2333C18.4468 35.4778 18.1514 35.6667 17.8153 35.8C17.4792 35.9333 17.1264 36 16.7569 36H13.3889ZM32.2778 18.4L34.2222 16.5333L32.2778 14.6667L30.3333 16.5333L32.2778 18.4Z" fill="#F5F7FA"/>
</svg>
