<svg width="40" height="41" viewBox="0 0 40 41" fill="none" xmlns="http://www.w3.org/2000/svg">
<rect y="0.453705" width="40" height="40" rx="5" fill="#1681FF" fill-opacity="0.05"/>
<path d="M16.6667 15.4537V14.6204C16.6667 13.2396 17.786 12.1204 19.1667 12.1204H20.8334C22.2141 12.1204 23.3334 13.2396 23.3334 14.6204V15.4537M11.6667 19.0766C11.6667 19.0766 14.2651 20.8074 18.3147 21.2127M28.3334 19.0766C28.3334 19.0766 25.735 20.8074 21.6853 21.2127M15 28.787H25C26.841 28.787 28.3334 27.2946 28.3334 25.4537V18.787C28.3334 16.9461 26.841 15.4537 25 15.4537H15C13.1591 15.4537 11.6667 16.9461 11.6667 18.787V25.4537C11.6667 27.2946 13.1591 28.787 15 28.787Z" stroke="#1681FF" stroke-width="1.5" stroke-linecap="round"/>
<path d="M21.6666 20.5871V21.4204C21.6666 21.4287 21.6666 21.4287 21.6666 21.4371C21.6666 22.3454 21.6583 23.0871 20 23.0871C18.35 23.0871 18.3333 22.3537 18.3333 21.4454V20.5871C18.3333 19.7537 18.3333 19.7537 19.1666 19.7537H20.8333C21.6666 19.7537 21.6666 19.7537 21.6666 20.5871Z" stroke="#1681FF" stroke-width="1.5" stroke-miterlimit="10" stroke-linecap="round" stroke-linejoin="round"/>
</svg>
