<svg width="17" height="16" viewBox="0 0 17 16" fill="none" xmlns="http://www.w3.org/2000/svg">
<path d="M13.4936 12.253C14.0432 11.7041 14.2078 10.8781 13.9108 10.1604C13.6137 9.44265 12.9135 8.97463 12.1367 8.97463C11.3599 8.97463 10.6597 9.44265 10.3627 10.1604C10.0656 10.8781 10.2303 11.7041 10.7798 12.253C10.2751 12.575 9.9089 13.0741 9.75321 13.6522C9.68495 13.9084 9.83726 14.1713 10.0934 14.2396C10.1337 14.2503 10.1753 14.2557 10.217 14.2558C10.4347 14.2557 10.625 14.1092 10.6808 13.8988C10.8506 13.261 11.4494 12.8158 12.137 12.8158C12.8246 12.8158 13.4234 13.261 13.5932 13.8988C13.6346 14.0675 13.7639 14.2007 13.9313 14.2471C14.0987 14.2935 14.2781 14.2458 14.4003 14.1224C14.5226 13.999 14.5687 13.8192 14.5208 13.6522C14.365 13.074 13.9986 12.5749 13.4936 12.253ZM12.137 9.93581C12.6672 9.93581 13.097 10.3656 13.097 10.8958C13.097 11.426 12.6672 11.8558 12.137 11.8558C11.6068 11.8558 11.177 11.426 11.177 10.8958C11.177 10.3656 11.6068 9.93581 12.137 9.93581ZM13.577 4.65581L8.49561 4.65581L6.85701 3.01721C6.67759 2.83636 6.43315 2.735 6.17841 2.73581L3.01701 2.73581C2.48681 2.73581 2.05701 3.16562 2.05701 3.69581L2.05701 12.3724C2.05734 12.882 2.4702 13.2952 2.97981 13.2958L7.85061 13.2958C8.1157 13.2958 8.33061 13.0809 8.33061 12.8158C8.33061 12.5507 8.1157 12.3358 7.85061 12.3358L3.01701 12.3358L3.01701 5.61581L13.577 5.61581L13.577 7.53581C13.577 7.80091 13.7919 8.01581 14.057 8.01581C14.3221 8.01581 14.537 7.80091 14.537 7.53581L14.537 5.61581C14.537 5.08562 14.1072 4.65581 13.577 4.65581ZM6.17841 3.69581L7.13841 4.65581L3.01701 4.65581L3.01701 3.69581L6.17841 3.69581Z" fill="#565E6C"/>
</svg>
