<svg width="20" height="21" viewBox="0 0 20 21" fill="none" xmlns="http://www.w3.org/2000/svg">
<g clip-path="url(#clip0_19_443)">
<path d="M2.81197 18.9939H13.8372C13.9363 18.9939 14.016 18.9564 14.0698 18.8951C14.1223 18.8354 14.146 18.758 14.145 18.6836C14.1441 18.6092 14.1186 18.5326 14.0663 18.4736C14.0127 18.4133 13.9343 18.3752 13.8372 18.3752H2.81197C1.9633 18.3752 1.28182 17.6827 1.28182 16.845V9.45195C1.28182 9.35477 1.24362 9.27671 1.18271 9.22392C1.12331 9.17244 1.04655 9.14848 0.972488 9.14848C0.898431 9.14848 0.821664 9.17244 0.762267 9.22392C0.701352 9.27671 0.663159 9.35477 0.663159 9.45195V16.845C0.663159 18.0227 1.62206 18.9939 2.81197 18.9939ZM17.4528 12.8263C17.4528 12.9966 17.5919 13.1356 17.7622 13.1356C17.9325 13.1356 18.0715 12.9966 18.0715 12.8263V9.45195C18.0715 9.35477 18.0333 9.27671 17.9724 9.22392C17.913 9.17244 17.8362 9.14848 17.7622 9.14848C17.6881 9.14848 17.6114 9.17244 17.552 9.22392C17.491 9.27671 17.4528 9.35477 17.4528 9.45195V12.8263Z" fill="#1681FF" stroke="#1681FF" stroke-width="0.15"/>
<path d="M7.70948 14.5064H11.0135C11.3947 14.5064 11.6978 14.2034 11.6978 13.8222V11.807C11.6978 11.4365 11.3938 11.1344 11.0135 11.1344H7.70948C7.34 11.1344 7.03694 11.4375 7.03694 11.807V13.8222C7.03694 14.2024 7.33905 14.5064 7.70948 14.5064ZM7.6556 11.807C7.6556 11.7781 7.6806 11.7531 7.70948 11.7531H11.0135C11.0285 11.7531 11.0463 11.7597 11.0604 11.7722C11.0743 11.7846 11.0791 11.7976 11.0791 11.807V13.8222C11.0791 13.8329 11.073 13.85 11.0571 13.8658C11.0413 13.8816 11.0243 13.8878 11.0135 13.8878H7.70948C7.7001 13.8878 7.6871 13.8829 7.67473 13.869C7.66225 13.855 7.6556 13.8372 7.6556 13.8222V11.807Z" fill="#1681FF" stroke="#1681FF" stroke-width="0.15"/>
<path d="M6.64328 4.16082C6.65712 4.16082 6.65985 4.16419 6.66344 4.16951C6.67077 4.18039 6.67874 4.20321 6.68267 4.24481C6.68871 4.3088 6.68356 4.38896 6.67771 4.48022C6.67589 4.50846 6.67401 4.53777 6.67238 4.56799C6.66586 4.68817 6.66329 4.82356 6.69904 4.93018C6.71753 4.9853 6.74775 5.03763 6.79716 5.07583C6.84718 5.1145 6.90986 5.13328 6.98306 5.13328C7.15336 5.13328 7.29239 4.99426 7.29239 4.82395C7.29239 4.77308 7.29405 4.71719 7.29583 4.65688L7.29604 4.64985C7.29789 4.58729 7.2998 4.52053 7.2999 4.45261C7.30008 4.31729 7.29313 4.17324 7.26264 4.04112C7.23215 3.90898 7.17673 3.78272 7.07538 3.68954C6.97262 3.59508 6.83091 3.54216 6.64328 3.54216H5.62395C5.25447 3.54216 4.96313 3.8335 4.96313 4.20298C4.96313 4.27054 4.96075 4.33901 4.95835 4.40808C4.95726 4.43947 4.95616 4.47098 4.95528 4.5026C4.95253 4.60175 4.95197 4.70087 4.96216 4.78866C4.9722 4.87517 4.99364 4.96067 5.04238 5.02566C5.09475 5.09549 5.17221 5.13328 5.27246 5.13328C5.34567 5.13328 5.40833 5.1145 5.45836 5.07585C5.50777 5.03767 5.53804 4.98538 5.55661 4.93031C5.59254 4.8238 5.59041 4.68845 5.58463 4.56844C5.5833 4.54083 5.58178 4.51398 5.58031 4.48802C5.57498 4.3939 5.57032 4.3114 5.57765 4.24614C5.58229 4.20493 5.59083 4.18226 5.5987 4.17126C5.60297 4.16531 5.60738 4.16082 5.62395 4.16082H6.64328Z" fill="#1681FF" stroke="#1681FF" stroke-width="0.15"/>
<path d="M13.7712 4.83074L13.7715 4.83077V4.82395C13.7715 4.77975 13.7725 4.7315 13.7735 4.68053C13.7777 4.47928 13.7826 4.23559 13.7312 4.03091C13.6983 3.90011 13.6407 3.7764 13.5388 3.6855C13.4357 3.59347 13.2952 3.54216 13.1107 3.54216H12.0914C11.7346 3.54216 11.4305 3.83253 11.4305 4.20298C11.4305 4.27054 11.4282 4.33901 11.4258 4.40808C11.4247 4.43947 11.4236 4.47098 11.4227 4.5026C11.4199 4.60175 11.4194 4.70087 11.4296 4.78866C11.4396 4.87517 11.461 4.96067 11.5098 5.02566C11.5622 5.09549 11.6396 5.13328 11.7399 5.13328C11.8141 5.13328 11.8777 5.11471 11.9285 5.07635C11.9788 5.03833 12.0098 4.98606 12.0288 4.93069C12.0655 4.82379 12.0629 4.68809 12.0564 4.56799C12.0548 4.53864 12.053 4.51018 12.0512 4.48273C12.0454 4.39048 12.0402 4.30969 12.0468 4.2454C12.051 4.20412 12.0593 4.1816 12.0669 4.17081C12.0708 4.16525 12.0748 4.16082 12.0914 4.16082H13.1107C13.1245 4.16082 13.1273 4.16419 13.1309 4.16951C13.1382 4.18039 13.1461 4.20321 13.1501 4.24481C13.1561 4.3088 13.151 4.38896 13.1451 4.48022C13.1433 4.50846 13.1414 4.53777 13.1398 4.56799C13.1333 4.68817 13.1307 4.82356 13.1664 4.93018C13.1849 4.9853 13.2152 5.03763 13.2646 5.07583C13.3146 5.1145 13.3773 5.13328 13.4505 5.13328C13.6358 5.13328 13.7565 4.99199 13.7712 4.83074Z" fill="#1681FF" stroke="#1681FF" stroke-width="0.15"/>
<path d="M7.66318 2.35646C7.83061 2.3561 7.97401 2.21876 7.96011 2.04377C7.95921 1.94833 7.91998 1.8696 7.8494 1.81559C7.78093 1.76322 7.68928 1.73872 7.58942 1.73439C7.38957 1.72574 7.12943 1.79639 6.8635 1.94178C6.32938 2.23381 5.74921 2.8396 5.55072 3.78793C5.50434 3.97771 5.66006 4.1608 5.84646 4.1608C6.00026 4.1608 6.12327 4.0529 6.15401 3.9146L6.15401 3.9146L6.15416 3.91392C6.34904 2.9968 6.98465 2.36774 7.66318 2.35646ZM7.66318 2.35646C7.66296 2.35646 7.66274 2.35646 7.66252 2.35646V2.28146M7.66318 2.35646C7.66336 2.35646 7.66354 2.35645 7.66373 2.35645L7.66252 2.28146M7.66252 2.28146C7.7914 2.28146 7.89685 2.17601 7.88513 2.04713L6.08079 3.89833C6.27997 2.96102 6.9361 2.29318 7.66252 2.28146ZM12.229 3.9146L12.2289 3.91392C12.0339 2.99641 11.4098 2.36774 10.7199 2.35646C10.7197 2.35646 10.7195 2.35645 10.7193 2.35645L10.7205 2.28146C10.4159 2.28146 10.4159 1.8128 10.7322 1.8128L12.229 3.9146ZM12.229 3.9146C12.2598 4.0529 12.3828 4.1608 12.5366 4.1608C12.723 4.1608 12.8788 3.97763 12.8323 3.78781L12.229 3.9146Z" fill="#1681FF" stroke="#1681FF" stroke-width="0.15"/>
<path d="M7.768 2.9423H10.6151C10.8423 2.9423 11.0416 2.75802 11.0416 2.5158V1.43789C11.0416 1.209 10.844 1.0114 10.6151 1.0114H7.768C7.53911 1.0114 7.3415 1.209 7.3415 1.43789V2.5158C7.3415 2.75802 7.54075 2.9423 7.768 2.9423ZM10.4229 1.63005V2.32364H7.96016V1.63005H10.4229Z" fill="#1681FF" stroke="#1681FF" stroke-width="0.15"/>
<path d="M5.27242 9.09345H13.4622C13.6325 9.09345 13.7716 8.95443 13.7716 8.78412V7.4836C13.7716 7.31329 13.6325 7.17427 13.4622 7.17427H5.27242C5.10211 7.17427 4.96309 7.31329 4.96309 7.4836V8.78412C4.96309 8.95443 5.10211 9.09345 5.27242 9.09345ZM13.1529 7.79293V8.47479H5.58174V7.79293H13.1529Z" fill="#1681FF" stroke="#1681FF" stroke-width="0.15"/>
<path d="M7.23623 12.2984L7.23623 12.2984L7.23787 12.299C7.32808 12.3328 7.41435 12.3243 7.48516 12.2862C7.5543 12.2491 7.6046 12.1861 7.63146 12.1167C7.65835 12.0472 7.66355 11.9664 7.63615 11.8916C7.6081 11.815 7.54799 11.7507 7.45609 11.7139L0.543658 8.94427V6.33538C0.543658 5.67382 1.08419 5.13329 1.74575 5.13329H16.9772C17.6509 5.13329 18.191 5.67426 18.191 6.33538V8.94432L11.2668 11.7256L11.2947 11.7953L11.2667 11.7257L11.2668 11.7256C11.1109 11.788 11.0569 11.9386 11.0835 12.0681C11.1102 12.1978 11.2193 12.3155 11.3884 12.3155C11.4015 12.3155 11.4141 12.3119 11.4172 12.3111C11.4237 12.3094 11.4312 12.3071 11.4394 12.3044C11.4558 12.2991 11.4778 12.2915 11.5045 12.2819C11.5581 12.2626 11.6332 12.2345 11.7267 12.1987C11.9137 12.1272 12.1757 12.0249 12.4889 11.9013C13.1154 11.654 13.9478 11.3215 14.798 10.9803C16.4965 10.2985 18.267 9.58156 18.6099 9.4397C18.7301 9.39408 18.8096 9.28577 18.8096 9.15905V6.33538C18.8096 5.33321 17.991 4.51463 16.9889 4.51463H1.74575C0.743582 4.51463 -0.075 5.33321 -0.075 6.33538V9.14733C-0.075 9.28367 0.00255603 9.39351 0.125112 9.43984L7.23623 12.2984Z" fill="#1681FF" stroke="#1681FF" stroke-width="0.15"/>
<path d="M12.3327 16.0249C12.3327 18.152 14.0653 19.8843 16.2038 19.8843C18.3308 19.8843 20.0633 18.1518 20.0633 16.0249C20.0633 13.8982 18.3311 12.1538 16.2038 12.1538C14.065 12.1538 12.3327 13.8981 12.3327 16.0249ZM12.9514 16.0249C12.9514 14.2385 14.4175 12.7724 16.2038 12.7724C17.9899 12.7724 19.4446 14.2382 19.4446 16.0249C19.4446 17.8116 17.9899 19.2774 16.2038 19.2774C14.4175 19.2774 12.9514 17.8112 12.9514 16.0249Z" fill="#1681FF" stroke="#1681FF" stroke-width="0.15"/>
<path d="M14.5222 17.2607L14.5222 17.2606L14.5201 17.2628C14.338 17.4601 14.4706 17.7871 14.7393 17.7871C14.8273 17.7871 14.9015 17.7574 14.96 17.7135L14.9605 17.7141L14.9682 17.7064L17.8737 14.7891C17.8738 14.7891 17.8738 14.7891 17.8738 14.7891C17.9435 14.7193 17.9736 14.6368 17.9696 14.5557C17.9656 14.4763 17.9293 14.4042 17.8771 14.3511C17.825 14.298 17.7537 14.2605 17.675 14.2543C17.5945 14.2481 17.5116 14.275 17.4411 14.3419L17.441 14.3418L17.4396 14.3433L14.5222 17.2607Z" fill="#1681FF" stroke="#1681FF" stroke-width="0.15"/>
<path d="M17.4397 17.7065L17.4391 17.7071L17.8207 17.3137L17.8739 17.2608L17.8738 17.2607C17.8738 17.2607 17.8738 17.2607 17.8738 17.2607L14.9682 14.3434L14.9682 14.3434L14.9666 14.3419C14.8961 14.275 14.8131 14.2481 14.7326 14.2543C14.6538 14.2605 14.5823 14.2979 14.5296 14.3506C14.4768 14.4033 14.4395 14.4748 14.4333 14.5536C14.4271 14.6342 14.454 14.7171 14.5208 14.7877L14.5208 14.7877L14.5223 14.7891L17.4397 17.7065Z" fill="#1681FF" stroke="#1681FF" stroke-width="0.15"/>
</g>
<defs>
<clipPath id="clip0_19_443">
<rect width="20" height="20" fill="white" transform="translate(0 0.453705)"/>
</clipPath>
</defs>
</svg>
