<svg width="24" height="25" viewBox="0 0 24 25" fill="none" xmlns="http://www.w3.org/2000/svg">
<path d="M3 21.4537H21M13.7844 5.76545C13.7844 5.76545 13.7844 7.40007 15.419 9.0347C17.0537 10.6693 18.6883 10.6693 18.6883 10.6693M7.31963 18.4418L10.7523 17.9514C11.2475 17.8807 11.7064 17.6513 12.06 17.2976L20.3229 9.0347C21.2257 8.13192 21.2257 6.66822 20.3229 5.76544L18.6883 4.13082C17.7855 3.22804 16.3218 3.22804 15.419 4.13082L7.15616 12.3937C6.80248 12.7474 6.57305 13.2062 6.50231 13.7014L6.01193 17.1341C5.90295 17.8969 6.5568 18.5508 7.31963 18.4418Z" stroke="#16151C" stroke-width="1.5" stroke-linecap="round"/>
</svg>
