<svg width="64" height="64" viewBox="0 0 64 64" fill="none" xmlns="http://www.w3.org/2000/svg">
<g id="icon-park-outline:retro-bag">
<g id="Group">
<path id="Vector" d="M46.6663 18.6673C46.6663 11.3033 40.0997 5.33398 31.9997 5.33398C23.8997 5.33398 17.333 11.3033 17.333 18.6673M13.333 40.0006V58.6673H50.6663V40.0006M9.33301 21.334C9.33301 20.6267 9.61396 19.9485 10.1141 19.4484C10.6142 18.9483 11.2924 18.6673 11.9997 18.6673H51.9997C52.7069 18.6673 53.3852 18.9483 53.8853 19.4484C54.3854 19.9485 54.6663 20.6267 54.6663 21.334V37.334C54.6663 38.0412 54.3854 38.7195 53.8853 39.2196C53.3852 39.7197 52.7069 40.0006 51.9997 40.0006H39.9997C39.2924 40.0006 38.6142 39.7197 38.1141 39.2196C37.614 38.7195 37.333 38.0412 37.333 37.334C37.333 36.6267 37.0521 35.9485 36.552 35.4484C36.0519 34.9483 35.3736 34.6673 34.6663 34.6673H29.333C28.6258 34.6673 27.9475 34.9483 27.4474 35.4484C26.9473 35.9485 26.6663 36.6267 26.6663 37.334C26.6663 38.0412 26.3854 38.7195 25.8853 39.2196C25.3852 39.7197 24.7069 40.0006 23.9997 40.0006H11.9997C11.2924 40.0006 10.6142 39.7197 10.1141 39.2196C9.61396 38.7195 9.33301 38.0412 9.33301 37.334L9.33301 21.334Z" stroke="#B2B1B1" stroke-width="5.33333" stroke-linecap="round" stroke-linejoin="round"/>
<path id="Vector_2" d="M26.6665 34.667H37.3332V42.667H26.6665V34.667Z" stroke="#B2B1B1" stroke-width="5.33333" stroke-linecap="round" stroke-linejoin="round"/>
</g>
</g>
</svg>
