<svg width="21" height="20" viewBox="0 0 21 20" fill="none" xmlns="http://www.w3.org/2000/svg">
<path opacity="0.2" d="M17.7233 7.50995L11.4401 11.99H8.64728L2.36328 7.50995L10.0433 2.38995L17.7233 7.50995Z" fill="#1681FF"/>
<path d="M18.3628 7.45384C18.3623 7.40492 18.3563 7.3562 18.3447 7.30867C18.3433 7.30314 18.3417 7.29773 18.3402 7.29224C18.3353 7.27431 18.3296 7.25655 18.3232 7.23896C18.3208 7.23246 18.3183 7.22601 18.3157 7.21959C18.309 7.20322 18.3015 7.18709 18.2935 7.17111C18.2903 7.1649 18.2874 7.15861 18.284 7.15249C18.2745 7.13515 18.2639 7.11817 18.2526 7.1015C18.2501 7.09781 18.248 7.09388 18.2454 7.09025L18.2442 7.08841C18.2304 7.0692 18.2156 7.05076 18.1998 7.03317C18.1964 7.02942 18.1927 7.02599 18.1893 7.02231C18.1757 7.00782 18.1617 6.99399 18.147 6.98102C18.1422 6.97681 18.1373 6.97278 18.1324 6.96872C18.1176 6.95634 18.1023 6.94471 18.0865 6.93384C18.0836 6.93185 18.0811 6.92943 18.0781 6.92747L10.3981 1.80747C10.1832 1.66419 9.90312 1.66419 9.68814 1.80747L2.00814 6.92747C2.00533 6.92935 2.00295 6.93163 2.00017 6.93353C1.98416 6.94456 1.96864 6.95637 1.95361 6.96894C1.94885 6.9729 1.94408 6.97677 1.93943 6.98085C1.92467 6.99396 1.91045 7.00786 1.89678 7.02255C1.89342 7.02613 1.88979 7.02947 1.88654 7.03312C1.8707 7.05071 1.85585 7.06917 1.84205 7.08841L1.84088 7.09025C1.8383 7.09388 1.83619 7.09781 1.83369 7.1015C1.82236 7.11818 1.81178 7.13515 1.80225 7.1525C1.79893 7.15861 1.796 7.1649 1.79283 7.17111C1.78475 7.18709 1.77725 7.20322 1.77057 7.21959C1.76799 7.22602 1.76553 7.23246 1.76311 7.23896C1.75662 7.25656 1.75096 7.27432 1.74611 7.29224C1.74463 7.29773 1.74295 7.30314 1.74162 7.30867C1.73001 7.3562 1.72394 7.40492 1.72354 7.45385C1.7235 7.45591 1.72314 7.45791 1.72314 7.45998L1.72314 15.78C1.72395 16.4866 2.29655 17.0592 3.00314 17.06L17.0831 17.06C17.7897 17.0592 18.3623 16.4866 18.3631 15.78L18.3631 7.45998C18.3631 7.45791 18.3628 7.45591 18.3628 7.45384ZM3.00314 8.70228L7.54096 11.9376L3.00314 15.1429L3.00314 8.70228ZM8.85002 12.58H11.2363L15.7666 15.78L4.31975 15.78L8.85002 12.58ZM12.5453 11.9376L17.0831 8.70228L17.0831 15.1429L12.5453 11.9376ZM10.0431 3.10919L16.5959 7.47766L11.2347 11.3H8.85158L3.49037 7.47766L10.0431 3.10919Z" fill="#1681FF"/>
</svg>
