<svg width="40" height="41" viewBox="0 0 40 41" fill="none" xmlns="http://www.w3.org/2000/svg">
<rect y="0.453705" width="40" height="40" rx="5" fill="#1681FF" fill-opacity="0.05"/>
<ellipse cx="20" cy="24.2037" rx="5" ry="2.08333" stroke="#1681FF" stroke-width="1.5" stroke-linejoin="round"/>
<ellipse cx="20" cy="17.1204" rx="2.5" ry="2.5" stroke="#1681FF" stroke-width="1.5" stroke-linejoin="round"/>
<path fill-rule="evenodd" clip-rule="evenodd" d="M15.6288 21.3722C14.4849 21.3929 13.423 21.5864 12.6085 21.9122C12.1792 22.0839 11.7815 22.3071 11.4788 22.5934C11.1745 22.8811 10.9167 23.2843 10.9167 23.787C10.9167 24.2898 11.1745 24.693 11.4788 24.9807C11.7815 25.267 12.1792 25.4902 12.6085 25.6619C13.0781 25.8498 13.63 25.9936 14.2325 26.0857C13.6969 25.5676 13.3758 24.9707 13.3373 24.3335C13.2779 24.3127 13.2207 24.2912 13.1656 24.2692C12.8409 24.1393 12.6284 24.0034 12.5094 23.8909C12.4565 23.8408 12.4324 23.8061 12.422 23.787C12.4324 23.768 12.4565 23.7333 12.5094 23.6832C12.6284 23.5707 12.8409 23.4348 13.1656 23.3049C13.2971 23.2523 13.4411 23.2031 13.596 23.158C13.9576 22.4561 14.674 21.839 15.6288 21.3722ZM12.4145 23.8045C12.4144 23.8045 12.4147 23.8032 12.4157 23.8004C12.4152 23.8032 12.4147 23.8045 12.4145 23.8045ZM12.4157 23.7736C12.4147 23.7709 12.4144 23.7696 12.4145 23.7696C12.4147 23.7696 12.4152 23.7709 12.4157 23.7736Z" fill="#1681FF"/>
<path fill-rule="evenodd" clip-rule="evenodd" d="M26.6628 24.3335C26.6243 24.9707 26.3031 25.5676 25.7676 26.0857C26.37 25.9936 26.9219 25.8498 27.3915 25.6619C27.8208 25.4902 28.2186 25.267 28.5212 24.9807C28.8255 24.693 29.0834 24.2898 29.0834 23.787C29.0834 23.2843 28.8255 22.8811 28.5212 22.5934C28.2186 22.3071 27.8208 22.0839 27.3915 21.9122C26.5771 21.5864 25.5152 21.3929 24.3712 21.3722C25.326 21.839 26.0425 22.4561 26.4041 23.158C26.559 23.2031 26.7029 23.2523 26.8344 23.3049C27.1591 23.4348 27.3716 23.5707 27.4906 23.6832C27.5435 23.7333 27.5676 23.768 27.578 23.787C27.5676 23.8061 27.5435 23.8408 27.4906 23.8909C27.3716 24.0034 27.1591 24.1393 26.8344 24.2692C26.7793 24.2912 26.7221 24.3127 26.6628 24.3335ZM27.5855 23.8045C27.5853 23.8045 27.5848 23.8032 27.5844 23.8004C27.5854 23.8032 27.5856 23.8045 27.5855 23.8045ZM27.5844 23.7736C27.5848 23.7709 27.5853 23.7696 27.5855 23.7696C27.5856 23.7696 27.5854 23.7709 27.5844 23.7736Z" fill="#1681FF"/>
<path fill-rule="evenodd" clip-rule="evenodd" d="M23.8142 18.8002C23.6078 19.2682 23.3178 19.691 22.963 20.0498C23.3174 20.2537 23.7284 20.3704 24.1667 20.3704C25.5013 20.3704 26.5833 19.2884 26.5833 17.9537C26.5833 16.619 25.5013 15.537 24.1667 15.537C24.0638 15.537 23.9625 15.5435 23.863 15.5559C24.049 16.0147 24.1556 16.5141 24.1658 17.037C24.1661 17.037 24.1664 17.037 24.1667 17.037C24.6729 17.037 25.0833 17.4475 25.0833 17.9537C25.0833 18.46 24.6729 18.8704 24.1667 18.8704C24.0418 18.8704 23.9227 18.8454 23.8142 18.8002Z" fill="#1681FF"/>
<path fill-rule="evenodd" clip-rule="evenodd" d="M16.137 15.5559C16.0375 15.5435 15.9362 15.537 15.8333 15.537C14.4987 15.537 13.4167 16.619 13.4167 17.9537C13.4167 19.2884 14.4987 20.3704 15.8333 20.3704C16.2716 20.3704 16.6826 20.2537 17.037 20.0498C16.6822 19.691 16.3922 19.2682 16.1858 18.8002C16.0773 18.8454 15.9582 18.8704 15.8333 18.8704C15.3271 18.8704 14.9167 18.46 14.9167 17.9537C14.9167 17.4475 15.3271 17.037 15.8333 17.037C15.8336 17.037 15.8339 17.037 15.8342 17.037C15.8444 16.5141 15.951 16.0147 16.137 15.5559Z" fill="#1681FF"/>
</svg>
