<svg width="24" height="30" viewBox="0 0 24 30" fill="none" xmlns="http://www.w3.org/2000/svg">
<path d="M12 0L12.1755 0.0105C12.5103 0.0499858 12.8221 0.201119 13.0605 0.439517C13.2989 0.677915 13.45 0.989675 13.4895 1.3245L13.5 1.5V7.5L13.5075 7.725C13.5612 8.43926 13.8686 9.11074 14.3743 9.61805C14.8799 10.1253 15.5504 10.435 16.2645 10.491L16.5 10.5H22.5L22.6755 10.5105C23.0103 10.55 23.3221 10.7011 23.5605 10.9395C23.7989 11.1779 23.95 11.4897 23.9895 11.8245L24 12V25.5C24.0001 26.6478 23.5615 27.7523 22.7741 28.5874C21.9866 29.4225 20.9098 29.9252 19.764 29.9925L19.5 30H4.5C3.35218 30.0001 2.24773 29.5615 1.41261 28.7741C0.57749 27.9866 0.0748387 26.9098 0.00750018 25.764L6.99067e-09 25.5V4.5C-6.39326e-05 3.35218 0.438488 2.24773 1.22593 1.41261C2.01336 0.57749 3.09016 0.0748387 4.236 0.00750017L4.5 0H12ZM18 22.5H15C14.6022 22.5 14.2206 22.658 13.9393 22.9393C13.658 23.2206 13.5 23.6022 13.5 24C13.5 24.3978 13.658 24.7794 13.9393 25.0607C14.2206 25.342 14.6022 25.5 15 25.5H18C18.3978 25.5 18.7794 25.342 19.0607 25.0607C19.342 24.7794 19.5 24.3978 19.5 24C19.5 23.6022 19.342 23.2206 19.0607 22.9393C18.7794 22.658 18.3978 22.5 18 22.5ZM18 16.5H6C5.60218 16.5 5.22064 16.658 4.93934 16.9393C4.65804 17.2206 4.5 17.6022 4.5 18C4.5 18.3978 4.65804 18.7794 4.93934 19.0607C5.22064 19.342 5.60218 19.5 6 19.5H18C18.3978 19.5 18.7794 19.342 19.0607 19.0607C19.342 18.7794 19.5 18.3978 19.5 18C19.5 17.6022 19.342 17.2206 19.0607 16.9393C18.7794 16.658 18.3978 16.5 18 16.5ZM7.5 6H6C5.60218 6 5.22064 6.15804 4.93934 6.43934C4.65804 6.72064 4.5 7.10218 4.5 7.5C4.5 7.89782 4.65804 8.27936 4.93934 8.56066C5.22064 8.84196 5.60218 9 6 9H7.5C7.89782 9 8.27936 8.84196 8.56066 8.56066C8.84196 8.27936 9 7.89782 9 7.5C9 7.10218 8.84196 6.72064 8.56066 6.43934C8.27936 6.15804 7.89782 6 7.5 6Z" fill="white"/>
<path d="M22.4995 7.49997H16.4995L16.498 1.49847L22.4995 7.49997Z" fill="white"/>
</svg>
