<svg width="17" height="17" viewBox="0 0 17 17" fill="none" xmlns="http://www.w3.org/2000/svg">
<path d="M4.69141 8.22477C5.23586 6.5914 6.76442 5.48969 8.48614 5.48969H9.38673C11.1085 5.48969 12.637 6.59141 13.1815 8.22477L13.8481 10.2248C14.7115 12.8149 12.7836 15.4897 10.0534 15.4897H7.81947C5.08924 15.4897 3.16136 12.8149 4.02474 10.2248L4.69141 8.22477Z" stroke="#555555" stroke-linejoin="round"/>
<path d="M6.93555 12.823C8.43847 13.6995 9.32077 13.7193 10.9355 12.823" stroke="#555555" stroke-linecap="round"/>
<path d="M10.3268 5.48964L7.5456 5.48964L6.61155 4.41828C5.69593 3.36806 6.7641 1.7983 8.10091 2.22954L8.71943 2.42907C8.86025 2.4745 9.01215 2.4745 9.15297 2.42907L9.77149 2.22954C11.1083 1.7983 12.1765 3.36806 11.2608 4.41828L10.3268 5.48964Z" stroke="#555555" stroke-linejoin="round"/>
</svg>
