<svg width="24" height="25" viewBox="0 0 24 25" fill="none" xmlns="http://www.w3.org/2000/svg">
<path d="M14 12.4537C14 13.5583 13.1046 14.4537 12 14.4537C10.8954 14.4537 10 13.5583 10 12.4537C10 11.3492 10.8954 10.4537 12 10.4537C13.1046 10.4537 14 11.3492 14 12.4537Z" stroke="#16151C" stroke-width="1.5"/>
<path d="M14 4.45374C14 5.5583 13.1046 6.45374 12 6.45374C10.8954 6.45374 10 5.5583 10 4.45374C10 3.34917 10.8954 2.45374 12 2.45374C13.1046 2.45374 14 3.34917 14 4.45374Z" stroke="#16151C" stroke-width="1.5"/>
<path d="M14 20.4537C14 21.5583 13.1046 22.4537 12 22.4537C10.8954 22.4537 10 21.5583 10 20.4537C10 19.3492 10.8954 18.4537 12 18.4537C13.1046 18.4537 14 19.3492 14 20.4537Z" stroke="#16151C" stroke-width="1.5"/>
</svg>
