<svg width="18" height="16" viewBox="0 0 18 16" fill="none" xmlns="http://www.w3.org/2000/svg">
<path d="M16.0397 0.950012L1.95969 0.950012C1.25276 0.950012 0.679687 1.52309 0.679687 2.23001L0.679687 15.03C0.679806 15.2518 0.79474 15.4577 0.983452 15.5742C1.17216 15.6908 1.40775 15.7013 1.60609 15.602L3.87969 14.4652L6.15329 15.602C6.33356 15.6922 6.54581 15.6922 6.72609 15.602L8.99969 14.4652L11.2733 15.602C11.4536 15.6922 11.6658 15.6922 11.8461 15.602L14.1197 14.4652L16.3933 15.602C16.5916 15.7013 16.8272 15.6908 17.0159 15.5742C17.2046 15.4577 17.3196 15.2518 17.3197 15.03L17.3197 2.23001C17.3197 1.52309 16.7466 0.950012 16.0397 0.950012ZM16.0397 13.9948L14.4061 13.1772C14.2258 13.087 14.0136 13.087 13.8333 13.1772L11.5597 14.3148L9.28609 13.1772C9.10581 13.087 8.89357 13.087 8.71329 13.1772L6.43969 14.3148L4.16609 13.1772C3.98581 13.087 3.77357 13.087 3.59329 13.1772L1.95969 13.9948L1.95969 2.23001L16.0397 2.23001L16.0397 13.9948ZM9.63969 6.71001C9.63969 6.35655 9.92622 6.07001 10.2797 6.07001L14.1197 6.07001C14.4731 6.07001 14.7597 6.35655 14.7597 6.71001C14.7597 7.06348 14.4731 7.35001 14.1197 7.35001L10.2797 7.35001C9.92622 7.35001 9.63969 7.06348 9.63969 6.71001ZM9.63969 9.27001C9.63969 8.91655 9.92622 8.63001 10.2797 8.63001H14.1197C14.4731 8.63001 14.7597 8.91655 14.7597 9.27001C14.7597 9.62348 14.4731 9.91001 14.1197 9.91001L10.2797 9.91001C9.92622 9.91001 9.63969 9.62348 9.63969 9.27001ZM3.87969 11.19L7.71969 11.19C8.07315 11.19 8.35969 10.9035 8.35969 10.55L8.35969 5.43001C8.35969 5.07655 8.07315 4.79001 7.71969 4.79001L3.87969 4.79001C3.52623 4.79001 3.23969 5.07655 3.23969 5.43001L3.23969 10.55C3.23969 10.9035 3.52623 11.19 3.87969 11.19ZM4.51969 6.07001L7.07969 6.07001L7.07969 9.91001H4.51969V6.07001Z" fill="#71102F"/>
</svg>
