<svg width="18" height="18" viewBox="0 0 18 18" fill="none" xmlns="http://www.w3.org/2000/svg">
<path opacity="0.2" d="M16.7233 3.26V12.86C16.7233 13.2135 16.4367 13.5 16.0833 13.5L2.00328 13.5C1.64982 13.5 1.36328 13.2135 1.36328 12.86L1.36328 3.26C1.36328 2.90653 1.64982 2.62 2.00328 2.62L16.0833 2.62C16.4367 2.62 16.7233 2.90653 16.7233 3.26Z" fill="#1681FF"/>
<path d="M16.0831 1.96999L9.68314 1.96999V0.689988C9.68314 0.336526 9.39661 0.0499878 9.04314 0.0499878C8.68968 0.0499878 8.40314 0.336526 8.40314 0.689988V1.96999L2.00314 1.96999C1.29622 1.96999 0.723145 2.54306 0.723145 3.24999L0.723145 12.85C0.723145 13.5569 1.29622 14.13 2.00314 14.13L5.15194 14.13L3.42314 16.29C3.20223 16.5661 3.247 16.9691 3.52314 17.19C3.79929 17.4109 4.20223 17.3661 4.42314 17.09L6.79034 14.13H11.2959L13.6631 17.09C13.8841 17.3661 14.287 17.4109 14.5631 17.19C14.8393 16.9691 14.8841 16.5661 14.6631 16.29L12.9343 14.13H16.0831C16.7901 14.13 17.3631 13.5569 17.3631 12.85L17.3631 3.24999C17.3631 2.54306 16.7901 1.96999 16.0831 1.96999ZM16.0831 12.85L2.00314 12.85L2.00314 3.24999L16.0831 3.24999L16.0831 12.85Z" fill="#1681FF"/>
</svg>
