<svg width="40" height="41" viewBox="0 0 40 41" fill="none" xmlns="http://www.w3.org/2000/svg">
<rect y="0.453705" width="40" height="40" rx="5" fill="#1681FF" fill-opacity="0.05"/>
<path d="M15.8333 28.787C17.3896 28.787 18.6967 27.7206 19.0638 26.2786C19.1774 25.8326 19.5398 25.4537 20 25.4537H25.8333M15.8333 28.787C13.9924 28.787 12.5 27.2946 12.5 25.4537V14.6204C12.5 13.2396 13.6193 12.1204 15 12.1204H23.3333C24.714 12.1204 25.8333 13.2396 25.8333 14.6204V25.4537M15.8333 28.787H25.8333C27.3896 28.787 28.6967 27.7206 29.0638 26.2786C29.1774 25.8326 28.7936 25.4537 28.3333 25.4537H25.8333M22.5 16.287H15.8333M19.1667 20.4537H15.8333" stroke="#1681FF" stroke-width="1.5" stroke-linecap="round"/>
</svg>
