<svg width="14" height="4" viewBox="0 0 14 4" fill="none" xmlns="http://www.w3.org/2000/svg">
<path d="M7.00003 0.0799866C5.93964 0.0799866 5.08003 0.9396 5.08003 1.99999C5.08003 3.06037 5.93964 3.91999 7.00003 3.91999C8.06042 3.91999 8.92003 3.06037 8.92003 1.99999C8.92003 0.9396 8.06042 0.0799866 7.00003 0.0799866ZM7.00003 2.95999C6.46984 2.95999 6.04003 2.53018 6.04003 1.99999C6.04003 1.46979 6.46984 1.03999 7.00003 1.03999C7.53022 1.03999 7.96003 1.46979 7.96003 1.99999C7.96003 2.53018 7.53022 2.95999 7.00003 2.95999ZM2.20003 0.0799866C1.13964 0.0799866 0.280029 0.9396 0.280029 1.99999C0.280029 3.06037 1.13964 3.91999 2.20003 3.91999C3.26042 3.91999 4.12003 3.06037 4.12003 1.99999C4.12003 0.9396 3.26042 0.0799866 2.20003 0.0799866ZM2.20003 2.95999C1.66984 2.95999 1.24003 2.53018 1.24003 1.99999C1.24003 1.46979 1.66984 1.03999 2.20003 1.03999C2.73022 1.03999 3.16003 1.46979 3.16003 1.99999C3.16003 2.53018 2.73022 2.95999 2.20003 2.95999ZM11.8 0.0799866C10.7396 0.0799866 9.88003 0.9396 9.88003 1.99999C9.88003 3.06037 10.7396 3.91999 11.8 3.91999C12.8604 3.91999 13.72 3.06037 13.72 1.99999C13.72 0.9396 12.8604 0.0799866 11.8 0.0799866ZM11.8 2.95999C11.2698 2.95999 10.84 2.53018 10.84 1.99999C10.84 1.46979 11.2698 1.03999 11.8 1.03999C12.3302 1.03999 12.76 1.46979 12.76 1.99999C12.76 2.53018 12.3302 2.95999 11.8 2.95999Z" fill="#565E6C"/>
</svg>
